<?xml version="1.0" encoding="utf-8" standalone="no"?>
<!DOCTYPE svg PUBLIC "-//W3C//DTD SVG 1.1//EN"
  "http://www.w3.org/Graphics/SVG/1.1/DTD/svg11.dtd">
<!-- Created with matplotlib (http://matplotlib.org/) -->
<svg height="288pt" version="1.1" viewBox="0 0 432 288" width="432pt" xmlns="http://www.w3.org/2000/svg" xmlns:xlink="http://www.w3.org/1999/xlink">
 <defs>
  <style type="text/css">
*{stroke-linecap:butt;stroke-linejoin:round;}
  </style>
 </defs>
 <g id="figure_1">
  <g id="patch_1">
   <path d="M 0 288 
L 432 288 
L 432 0 
L 0 0 
z
" style="fill:#ffffff;"/>
  </g>
  <g id="axes_1">
   <g id="patch_2">
    <path d="M 54 252 
L 388.8 252 
L 388.8 34.56 
L 54 34.56 
z
" style="fill:#ffffff;"/>
   </g>
   <g id="matplotlib.axis_1">
    <g id="xtick_1">
     <g id="line2d_1">
      <path clip-path="url(#pf1005f33f3)" d="M 61.413986 252 
L 61.413986 34.56 
" style="fill:none;stroke:#b0b0b0;stroke-linecap:square;stroke-width:0.8;"/>
     </g>
     <g id="line2d_2">
      <defs>
       <path d="M 0 0 
L 0 3.5 
" id="m0c9e99370a" style="stroke:#000000;stroke-width:0.8;"/>
      </defs>
      <g>
       <use style="stroke:#000000;stroke-width:0.8;" x="61.413986" xlink:href="#m0c9e99370a" y="252"/>
      </g>
     </g>
     <g id="text_1">
      <!-- 0 -->
      <defs>
       <path d="M 31.78125 66.40625 
Q 24.171875 66.40625 20.328125 58.90625 
Q 16.5 51.421875 16.5 36.375 
Q 16.5 21.390625 20.328125 13.890625 
Q 24.171875 6.390625 31.78125 6.390625 
Q 39.453125 6.390625 43.28125 13.890625 
Q 47.125 21.390625 47.125 36.375 
Q 47.125 51.421875 43.28125 58.90625 
Q 39.453125 66.40625 31.78125 66.40625 
z
M 31.78125 74.21875 
Q 44.046875 74.21875 50.515625 64.515625 
Q 56.984375 54.828125 56.984375 36.375 
Q 56.984375 17.96875 50.515625 8.265625 
Q 44.046875 -1.421875 31.78125 -1.421875 
Q 19.53125 -1.421875 13.0625 8.265625 
Q 6.59375 17.96875 6.59375 36.375 
Q 6.59375 54.828125 13.0625 64.515625 
Q 19.53125 74.21875 31.78125 74.21875 
z
" id="DejaVuSans-30"/>
      </defs>
      <g transform="translate(58.232736 266.598437)scale(0.1 -0.1)">
       <use xlink:href="#DejaVuSans-30"/>
      </g>
     </g>
    </g>
    <g id="xtick_2">
     <g id="line2d_3">
      <path clip-path="url(#pf1005f33f3)" d="M 100.434965 252 
L 100.434965 34.56 
" style="fill:none;stroke:#b0b0b0;stroke-linecap:square;stroke-width:0.8;"/>
     </g>
     <g id="line2d_4">
      <g>
       <use style="stroke:#000000;stroke-width:0.8;" x="100.434965" xlink:href="#m0c9e99370a" y="252"/>
      </g>
     </g>
     <g id="text_2">
      <!-- 50 -->
      <defs>
       <path d="M 10.796875 72.90625 
L 49.515625 72.90625 
L 49.515625 64.59375 
L 19.828125 64.59375 
L 19.828125 46.734375 
Q 21.96875 47.46875 24.109375 47.828125 
Q 26.265625 48.1875 28.421875 48.1875 
Q 40.625 48.1875 47.75 41.5 
Q 54.890625 34.8125 54.890625 23.390625 
Q 54.890625 11.625 47.5625 5.09375 
Q 40.234375 -1.421875 26.90625 -1.421875 
Q 22.3125 -1.421875 17.546875 -0.640625 
Q 12.796875 0.140625 7.71875 1.703125 
L 7.71875 11.625 
Q 12.109375 9.234375 16.796875 8.0625 
Q 21.484375 6.890625 26.703125 6.890625 
Q 35.15625 6.890625 40.078125 11.328125 
Q 45.015625 15.765625 45.015625 23.390625 
Q 45.015625 31 40.078125 35.4375 
Q 35.15625 39.890625 26.703125 39.890625 
Q 22.75 39.890625 18.8125 39.015625 
Q 14.890625 38.140625 10.796875 36.28125 
z
" id="DejaVuSans-35"/>
      </defs>
      <g transform="translate(94.072465 266.598437)scale(0.1 -0.1)">
       <use xlink:href="#DejaVuSans-35"/>
       <use x="63.623047" xlink:href="#DejaVuSans-30"/>
      </g>
     </g>
    </g>
    <g id="xtick_3">
     <g id="line2d_5">
      <path clip-path="url(#pf1005f33f3)" d="M 139.455944 252 
L 139.455944 34.56 
" style="fill:none;stroke:#b0b0b0;stroke-linecap:square;stroke-width:0.8;"/>
     </g>
     <g id="line2d_6">
      <g>
       <use style="stroke:#000000;stroke-width:0.8;" x="139.455944" xlink:href="#m0c9e99370a" y="252"/>
      </g>
     </g>
     <g id="text_3">
      <!-- 100 -->
      <defs>
       <path d="M 12.40625 8.296875 
L 28.515625 8.296875 
L 28.515625 63.921875 
L 10.984375 60.40625 
L 10.984375 69.390625 
L 28.421875 72.90625 
L 38.28125 72.90625 
L 38.28125 8.296875 
L 54.390625 8.296875 
L 54.390625 0 
L 12.40625 0 
z
" id="DejaVuSans-31"/>
      </defs>
      <g transform="translate(129.912194 266.598437)scale(0.1 -0.1)">
       <use xlink:href="#DejaVuSans-31"/>
       <use x="63.623047" xlink:href="#DejaVuSans-30"/>
       <use x="127.246094" xlink:href="#DejaVuSans-30"/>
      </g>
     </g>
    </g>
    <g id="xtick_4">
     <g id="line2d_7">
      <path clip-path="url(#pf1005f33f3)" d="M 178.476923 252 
L 178.476923 34.56 
" style="fill:none;stroke:#b0b0b0;stroke-linecap:square;stroke-width:0.8;"/>
     </g>
     <g id="line2d_8">
      <g>
       <use style="stroke:#000000;stroke-width:0.8;" x="178.476923" xlink:href="#m0c9e99370a" y="252"/>
      </g>
     </g>
     <g id="text_4">
      <!-- 150 -->
      <g transform="translate(168.933173 266.598437)scale(0.1 -0.1)">
       <use xlink:href="#DejaVuSans-31"/>
       <use x="63.623047" xlink:href="#DejaVuSans-35"/>
       <use x="127.246094" xlink:href="#DejaVuSans-30"/>
      </g>
     </g>
    </g>
    <g id="xtick_5">
     <g id="line2d_9">
      <path clip-path="url(#pf1005f33f3)" d="M 217.497902 252 
L 217.497902 34.56 
" style="fill:none;stroke:#b0b0b0;stroke-linecap:square;stroke-width:0.8;"/>
     </g>
     <g id="line2d_10">
      <g>
       <use style="stroke:#000000;stroke-width:0.8;" x="217.497902" xlink:href="#m0c9e99370a" y="252"/>
      </g>
     </g>
     <g id="text_5">
      <!-- 200 -->
      <defs>
       <path d="M 19.1875 8.296875 
L 53.609375 8.296875 
L 53.609375 0 
L 7.328125 0 
L 7.328125 8.296875 
Q 12.9375 14.109375 22.625 23.890625 
Q 32.328125 33.6875 34.8125 36.53125 
Q 39.546875 41.84375 41.421875 45.53125 
Q 43.3125 49.21875 43.3125 52.78125 
Q 43.3125 58.59375 39.234375 62.25 
Q 35.15625 65.921875 28.609375 65.921875 
Q 23.96875 65.921875 18.8125 64.3125 
Q 13.671875 62.703125 7.8125 59.421875 
L 7.8125 69.390625 
Q 13.765625 71.78125 18.9375 73 
Q 24.125 74.21875 28.421875 74.21875 
Q 39.75 74.21875 46.484375 68.546875 
Q 53.21875 62.890625 53.21875 53.421875 
Q 53.21875 48.921875 51.53125 44.890625 
Q 49.859375 40.875 45.40625 35.40625 
Q 44.1875 33.984375 37.640625 27.21875 
Q 31.109375 20.453125 19.1875 8.296875 
z
" id="DejaVuSans-32"/>
      </defs>
      <g transform="translate(207.954152 266.598437)scale(0.1 -0.1)">
       <use xlink:href="#DejaVuSans-32"/>
       <use x="63.623047" xlink:href="#DejaVuSans-30"/>
       <use x="127.246094" xlink:href="#DejaVuSans-30"/>
      </g>
     </g>
    </g>
    <g id="xtick_6">
     <g id="line2d_11">
      <path clip-path="url(#pf1005f33f3)" d="M 256.518881 252 
L 256.518881 34.56 
" style="fill:none;stroke:#b0b0b0;stroke-linecap:square;stroke-width:0.8;"/>
     </g>
     <g id="line2d_12">
      <g>
       <use style="stroke:#000000;stroke-width:0.8;" x="256.518881" xlink:href="#m0c9e99370a" y="252"/>
      </g>
     </g>
     <g id="text_6">
      <!-- 250 -->
      <g transform="translate(246.975131 266.598437)scale(0.1 -0.1)">
       <use xlink:href="#DejaVuSans-32"/>
       <use x="63.623047" xlink:href="#DejaVuSans-35"/>
       <use x="127.246094" xlink:href="#DejaVuSans-30"/>
      </g>
     </g>
    </g>
    <g id="xtick_7">
     <g id="line2d_13">
      <path clip-path="url(#pf1005f33f3)" d="M 295.53986 252 
L 295.53986 34.56 
" style="fill:none;stroke:#b0b0b0;stroke-linecap:square;stroke-width:0.8;"/>
     </g>
     <g id="line2d_14">
      <g>
       <use style="stroke:#000000;stroke-width:0.8;" x="295.53986" xlink:href="#m0c9e99370a" y="252"/>
      </g>
     </g>
     <g id="text_7">
      <!-- 300 -->
      <defs>
       <path d="M 40.578125 39.3125 
Q 47.65625 37.796875 51.625 33 
Q 55.609375 28.21875 55.609375 21.1875 
Q 55.609375 10.40625 48.1875 4.484375 
Q 40.765625 -1.421875 27.09375 -1.421875 
Q 22.515625 -1.421875 17.65625 -0.515625 
Q 12.796875 0.390625 7.625 2.203125 
L 7.625 11.71875 
Q 11.71875 9.328125 16.59375 8.109375 
Q 21.484375 6.890625 26.8125 6.890625 
Q 36.078125 6.890625 40.9375 10.546875 
Q 45.796875 14.203125 45.796875 21.1875 
Q 45.796875 27.640625 41.28125 31.265625 
Q 36.765625 34.90625 28.71875 34.90625 
L 20.21875 34.90625 
L 20.21875 43.015625 
L 29.109375 43.015625 
Q 36.375 43.015625 40.234375 45.921875 
Q 44.09375 48.828125 44.09375 54.296875 
Q 44.09375 59.90625 40.109375 62.90625 
Q 36.140625 65.921875 28.71875 65.921875 
Q 24.65625 65.921875 20.015625 65.03125 
Q 15.375 64.15625 9.8125 62.3125 
L 9.8125 71.09375 
Q 15.4375 72.65625 20.34375 73.4375 
Q 25.25 74.21875 29.59375 74.21875 
Q 40.828125 74.21875 47.359375 69.109375 
Q 53.90625 64.015625 53.90625 55.328125 
Q 53.90625 49.265625 50.4375 45.09375 
Q 46.96875 40.921875 40.578125 39.3125 
z
" id="DejaVuSans-33"/>
      </defs>
      <g transform="translate(285.99611 266.598437)scale(0.1 -0.1)">
       <use xlink:href="#DejaVuSans-33"/>
       <use x="63.623047" xlink:href="#DejaVuSans-30"/>
       <use x="127.246094" xlink:href="#DejaVuSans-30"/>
      </g>
     </g>
    </g>
    <g id="xtick_8">
     <g id="line2d_15">
      <path clip-path="url(#pf1005f33f3)" d="M 334.560839 252 
L 334.560839 34.56 
" style="fill:none;stroke:#b0b0b0;stroke-linecap:square;stroke-width:0.8;"/>
     </g>
     <g id="line2d_16">
      <g>
       <use style="stroke:#000000;stroke-width:0.8;" x="334.560839" xlink:href="#m0c9e99370a" y="252"/>
      </g>
     </g>
     <g id="text_8">
      <!-- 350 -->
      <g transform="translate(325.017089 266.598437)scale(0.1 -0.1)">
       <use xlink:href="#DejaVuSans-33"/>
       <use x="63.623047" xlink:href="#DejaVuSans-35"/>
       <use x="127.246094" xlink:href="#DejaVuSans-30"/>
      </g>
     </g>
    </g>
    <g id="xtick_9">
     <g id="line2d_17">
      <path clip-path="url(#pf1005f33f3)" d="M 373.581818 252 
L 373.581818 34.56 
" style="fill:none;stroke:#b0b0b0;stroke-linecap:square;stroke-width:0.8;"/>
     </g>
     <g id="line2d_18">
      <g>
       <use style="stroke:#000000;stroke-width:0.8;" x="373.581818" xlink:href="#m0c9e99370a" y="252"/>
      </g>
     </g>
     <g id="text_9">
      <!-- 400 -->
      <defs>
       <path d="M 37.796875 64.3125 
L 12.890625 25.390625 
L 37.796875 25.390625 
z
M 35.203125 72.90625 
L 47.609375 72.90625 
L 47.609375 25.390625 
L 58.015625 25.390625 
L 58.015625 17.1875 
L 47.609375 17.1875 
L 47.609375 0 
L 37.796875 0 
L 37.796875 17.1875 
L 4.890625 17.1875 
L 4.890625 26.703125 
z
" id="DejaVuSans-34"/>
      </defs>
      <g transform="translate(364.038068 266.598437)scale(0.1 -0.1)">
       <use xlink:href="#DejaVuSans-34"/>
       <use x="63.623047" xlink:href="#DejaVuSans-30"/>
       <use x="127.246094" xlink:href="#DejaVuSans-30"/>
      </g>
     </g>
    </g>
    <g id="text_10">
     <!-- Energy (keV) -->
     <defs>
      <path d="M 9.8125 72.90625 
L 55.90625 72.90625 
L 55.90625 64.59375 
L 19.671875 64.59375 
L 19.671875 43.015625 
L 54.390625 43.015625 
L 54.390625 34.71875 
L 19.671875 34.71875 
L 19.671875 8.296875 
L 56.78125 8.296875 
L 56.78125 0 
L 9.8125 0 
z
" id="DejaVuSans-45"/>
      <path d="M 54.890625 33.015625 
L 54.890625 0 
L 45.90625 0 
L 45.90625 32.71875 
Q 45.90625 40.484375 42.875 44.328125 
Q 39.84375 48.1875 33.796875 48.1875 
Q 26.515625 48.1875 22.3125 43.546875 
Q 18.109375 38.921875 18.109375 30.90625 
L 18.109375 0 
L 9.078125 0 
L 9.078125 54.6875 
L 18.109375 54.6875 
L 18.109375 46.1875 
Q 21.34375 51.125 25.703125 53.5625 
Q 30.078125 56 35.796875 56 
Q 45.21875 56 50.046875 50.171875 
Q 54.890625 44.34375 54.890625 33.015625 
z
" id="DejaVuSans-6e"/>
      <path d="M 56.203125 29.59375 
L 56.203125 25.203125 
L 14.890625 25.203125 
Q 15.484375 15.921875 20.484375 11.0625 
Q 25.484375 6.203125 34.421875 6.203125 
Q 39.59375 6.203125 44.453125 7.46875 
Q 49.3125 8.734375 54.109375 11.28125 
L 54.109375 2.78125 
Q 49.265625 0.734375 44.1875 -0.34375 
Q 39.109375 -1.421875 33.890625 -1.421875 
Q 20.796875 -1.421875 13.15625 6.1875 
Q 5.515625 13.8125 5.515625 26.8125 
Q 5.515625 40.234375 12.765625 48.109375 
Q 20.015625 56 32.328125 56 
Q 43.359375 56 49.78125 48.890625 
Q 56.203125 41.796875 56.203125 29.59375 
z
M 47.21875 32.234375 
Q 47.125 39.59375 43.09375 43.984375 
Q 39.0625 48.390625 32.421875 48.390625 
Q 24.90625 48.390625 20.390625 44.140625 
Q 15.875 39.890625 15.1875 32.171875 
z
" id="DejaVuSans-65"/>
      <path d="M 41.109375 46.296875 
Q 39.59375 47.171875 37.8125 47.578125 
Q 36.03125 48 33.890625 48 
Q 26.265625 48 22.1875 43.046875 
Q 18.109375 38.09375 18.109375 28.8125 
L 18.109375 0 
L 9.078125 0 
L 9.078125 54.6875 
L 18.109375 54.6875 
L 18.109375 46.1875 
Q 20.953125 51.171875 25.484375 53.578125 
Q 30.03125 56 36.53125 56 
Q 37.453125 56 38.578125 55.875 
Q 39.703125 55.765625 41.0625 55.515625 
z
" id="DejaVuSans-72"/>
      <path d="M 45.40625 27.984375 
Q 45.40625 37.75 41.375 43.109375 
Q 37.359375 48.484375 30.078125 48.484375 
Q 22.859375 48.484375 18.828125 43.109375 
Q 14.796875 37.75 14.796875 27.984375 
Q 14.796875 18.265625 18.828125 12.890625 
Q 22.859375 7.515625 30.078125 7.515625 
Q 37.359375 7.515625 41.375 12.890625 
Q 45.40625 18.265625 45.40625 27.984375 
z
M 54.390625 6.78125 
Q 54.390625 -7.171875 48.1875 -13.984375 
Q 42 -20.796875 29.203125 -20.796875 
Q 24.46875 -20.796875 20.265625 -20.09375 
Q 16.0625 -19.390625 12.109375 -17.921875 
L 12.109375 -9.1875 
Q 16.0625 -11.328125 19.921875 -12.34375 
Q 23.78125 -13.375 27.78125 -13.375 
Q 36.625 -13.375 41.015625 -8.765625 
Q 45.40625 -4.15625 45.40625 5.171875 
L 45.40625 9.625 
Q 42.625 4.78125 38.28125 2.390625 
Q 33.9375 0 27.875 0 
Q 17.828125 0 11.671875 7.65625 
Q 5.515625 15.328125 5.515625 27.984375 
Q 5.515625 40.671875 11.671875 48.328125 
Q 17.828125 56 27.875 56 
Q 33.9375 56 38.28125 53.609375 
Q 42.625 51.21875 45.40625 46.390625 
L 45.40625 54.6875 
L 54.390625 54.6875 
z
" id="DejaVuSans-67"/>
      <path d="M 32.171875 -5.078125 
Q 28.375 -14.84375 24.75 -17.8125 
Q 21.140625 -20.796875 15.09375 -20.796875 
L 7.90625 -20.796875 
L 7.90625 -13.28125 
L 13.1875 -13.28125 
Q 16.890625 -13.28125 18.9375 -11.515625 
Q 21 -9.765625 23.484375 -3.21875 
L 25.09375 0.875 
L 2.984375 54.6875 
L 12.5 54.6875 
L 29.59375 11.921875 
L 46.6875 54.6875 
L 56.203125 54.6875 
z
" id="DejaVuSans-79"/>
      <path id="DejaVuSans-20"/>
      <path d="M 31 75.875 
Q 24.46875 64.65625 21.28125 53.65625 
Q 18.109375 42.671875 18.109375 31.390625 
Q 18.109375 20.125 21.3125 9.0625 
Q 24.515625 -2 31 -13.1875 
L 23.1875 -13.1875 
Q 15.875 -1.703125 12.234375 9.375 
Q 8.59375 20.453125 8.59375 31.390625 
Q 8.59375 42.28125 12.203125 53.3125 
Q 15.828125 64.359375 23.1875 75.875 
z
" id="DejaVuSans-28"/>
      <path d="M 9.078125 75.984375 
L 18.109375 75.984375 
L 18.109375 31.109375 
L 44.921875 54.6875 
L 56.390625 54.6875 
L 27.390625 29.109375 
L 57.625 0 
L 45.90625 0 
L 18.109375 26.703125 
L 18.109375 0 
L 9.078125 0 
z
" id="DejaVuSans-6b"/>
      <path d="M 28.609375 0 
L 0.78125 72.90625 
L 11.078125 72.90625 
L 34.1875 11.53125 
L 57.328125 72.90625 
L 67.578125 72.90625 
L 39.796875 0 
z
" id="DejaVuSans-56"/>
      <path d="M 8.015625 75.875 
L 15.828125 75.875 
Q 23.140625 64.359375 26.78125 53.3125 
Q 30.421875 42.28125 30.421875 31.390625 
Q 30.421875 20.453125 26.78125 9.375 
Q 23.140625 -1.703125 15.828125 -13.1875 
L 8.015625 -13.1875 
Q 14.5 -2 17.703125 9.0625 
Q 20.90625 20.125 20.90625 31.390625 
Q 20.90625 42.671875 17.703125 53.65625 
Q 14.5 64.65625 8.015625 75.875 
z
" id="DejaVuSans-29"/>
     </defs>
     <g transform="translate(188.926562 280.276563)scale(0.1 -0.1)">
      <use xlink:href="#DejaVuSans-45"/>
      <use x="63.183594" xlink:href="#DejaVuSans-6e"/>
      <use x="126.5625" xlink:href="#DejaVuSans-65"/>
      <use x="188.085938" xlink:href="#DejaVuSans-72"/>
      <use x="229.183594" xlink:href="#DejaVuSans-67"/>
      <use x="292.660156" xlink:href="#DejaVuSans-79"/>
      <use x="351.839844" xlink:href="#DejaVuSans-20"/>
      <use x="383.626953" xlink:href="#DejaVuSans-28"/>
      <use x="422.640625" xlink:href="#DejaVuSans-6b"/>
      <use x="480.503906" xlink:href="#DejaVuSans-65"/>
      <use x="542.027344" xlink:href="#DejaVuSans-56"/>
      <use x="610.435547" xlink:href="#DejaVuSans-29"/>
     </g>
    </g>
   </g>
   <g id="matplotlib.axis_2">
    <g id="ytick_1">
     <g id="line2d_19">
      <path clip-path="url(#pf1005f33f3)" d="M 54 223.129775 
L 388.8 223.129775 
" style="fill:none;stroke:#b0b0b0;stroke-linecap:square;stroke-width:0.8;"/>
     </g>
     <g id="line2d_20">
      <defs>
       <path d="M 0 0 
L -3.5 0 
" id="m1565539a18" style="stroke:#000000;stroke-width:0.8;"/>
      </defs>
      <g>
       <use style="stroke:#000000;stroke-width:0.8;" x="54" xlink:href="#m1565539a18" y="223.129775"/>
      </g>
     </g>
     <g id="text_11">
      <!-- $\mathdefault{10^{-4}}$ -->
      <defs>
       <path d="M 10.59375 35.5 
L 73.1875 35.5 
L 73.1875 27.203125 
L 10.59375 27.203125 
z
" id="DejaVuSans-2212"/>
      </defs>
      <g transform="translate(23.5 226.928994)scale(0.1 -0.1)">
       <use transform="translate(0 0.684375)" xlink:href="#DejaVuSans-31"/>
       <use transform="translate(63.623047 0.684375)" xlink:href="#DejaVuSans-30"/>
       <use transform="translate(128.203125 38.965625)scale(0.7)" xlink:href="#DejaVuSans-2212"/>
       <use transform="translate(186.855469 38.965625)scale(0.7)" xlink:href="#DejaVuSans-34"/>
      </g>
     </g>
    </g>
    <g id="ytick_2">
     <g id="line2d_21">
      <path clip-path="url(#pf1005f33f3)" d="M 54 191.734976 
L 388.8 191.734976 
" style="fill:none;stroke:#b0b0b0;stroke-linecap:square;stroke-width:0.8;"/>
     </g>
     <g id="line2d_22">
      <g>
       <use style="stroke:#000000;stroke-width:0.8;" x="54" xlink:href="#m1565539a18" y="191.734976"/>
      </g>
     </g>
     <g id="text_12">
      <!-- $\mathdefault{10^{-1}}$ -->
      <g transform="translate(23.5 195.534195)scale(0.1 -0.1)">
       <use transform="translate(0 0.684375)" xlink:href="#DejaVuSans-31"/>
       <use transform="translate(63.623047 0.684375)" xlink:href="#DejaVuSans-30"/>
       <use transform="translate(128.203125 38.965625)scale(0.7)" xlink:href="#DejaVuSans-2212"/>
       <use transform="translate(186.855469 38.965625)scale(0.7)" xlink:href="#DejaVuSans-31"/>
      </g>
     </g>
    </g>
    <g id="ytick_3">
     <g id="line2d_23">
      <path clip-path="url(#pf1005f33f3)" d="M 54 160.340177 
L 388.8 160.340177 
" style="fill:none;stroke:#b0b0b0;stroke-linecap:square;stroke-width:0.8;"/>
     </g>
     <g id="line2d_24">
      <g>
       <use style="stroke:#000000;stroke-width:0.8;" x="54" xlink:href="#m1565539a18" y="160.340177"/>
      </g>
     </g>
     <g id="text_13">
      <!-- $\mathdefault{10^{2}}$ -->
      <g transform="translate(29.4 164.139395)scale(0.1 -0.1)">
       <use transform="translate(0 0.765625)" xlink:href="#DejaVuSans-31"/>
       <use transform="translate(63.623047 0.765625)" xlink:href="#DejaVuSans-30"/>
       <use transform="translate(128.203125 39.046875)scale(0.7)" xlink:href="#DejaVuSans-32"/>
      </g>
     </g>
    </g>
    <g id="ytick_4">
     <g id="line2d_25">
      <path clip-path="url(#pf1005f33f3)" d="M 54 128.945377 
L 388.8 128.945377 
" style="fill:none;stroke:#b0b0b0;stroke-linecap:square;stroke-width:0.8;"/>
     </g>
     <g id="line2d_26">
      <g>
       <use style="stroke:#000000;stroke-width:0.8;" x="54" xlink:href="#m1565539a18" y="128.945377"/>
      </g>
     </g>
     <g id="text_14">
      <!-- $\mathdefault{10^{5}}$ -->
      <g transform="translate(29.4 132.744596)scale(0.1 -0.1)">
       <use transform="translate(0 0.684375)" xlink:href="#DejaVuSans-31"/>
       <use transform="translate(63.623047 0.684375)" xlink:href="#DejaVuSans-30"/>
       <use transform="translate(128.203125 38.965625)scale(0.7)" xlink:href="#DejaVuSans-35"/>
      </g>
     </g>
    </g>
    <g id="ytick_5">
     <g id="line2d_27">
      <path clip-path="url(#pf1005f33f3)" d="M 54 97.550578 
L 388.8 97.550578 
" style="fill:none;stroke:#b0b0b0;stroke-linecap:square;stroke-width:0.8;"/>
     </g>
     <g id="line2d_28">
      <g>
       <use style="stroke:#000000;stroke-width:0.8;" x="54" xlink:href="#m1565539a18" y="97.550578"/>
      </g>
     </g>
     <g id="text_15">
      <!-- $\mathdefault{10^{8}}$ -->
      <defs>
       <path d="M 31.78125 34.625 
Q 24.75 34.625 20.71875 30.859375 
Q 16.703125 27.09375 16.703125 20.515625 
Q 16.703125 13.921875 20.71875 10.15625 
Q 24.75 6.390625 31.78125 6.390625 
Q 38.8125 6.390625 42.859375 10.171875 
Q 46.921875 13.96875 46.921875 20.515625 
Q 46.921875 27.09375 42.890625 30.859375 
Q 38.875 34.625 31.78125 34.625 
z
M 21.921875 38.8125 
Q 15.578125 40.375 12.03125 44.71875 
Q 8.5 49.078125 8.5 55.328125 
Q 8.5 64.0625 14.71875 69.140625 
Q 20.953125 74.21875 31.78125 74.21875 
Q 42.671875 74.21875 48.875 69.140625 
Q 55.078125 64.0625 55.078125 55.328125 
Q 55.078125 49.078125 51.53125 44.71875 
Q 48 40.375 41.703125 38.8125 
Q 48.828125 37.15625 52.796875 32.3125 
Q 56.78125 27.484375 56.78125 20.515625 
Q 56.78125 9.90625 50.3125 4.234375 
Q 43.84375 -1.421875 31.78125 -1.421875 
Q 19.734375 -1.421875 13.25 4.234375 
Q 6.78125 9.90625 6.78125 20.515625 
Q 6.78125 27.484375 10.78125 32.3125 
Q 14.796875 37.15625 21.921875 38.8125 
z
M 18.3125 54.390625 
Q 18.3125 48.734375 21.84375 45.5625 
Q 25.390625 42.390625 31.78125 42.390625 
Q 38.140625 42.390625 41.71875 45.5625 
Q 45.3125 48.734375 45.3125 54.390625 
Q 45.3125 60.0625 41.71875 63.234375 
Q 38.140625 66.40625 31.78125 66.40625 
Q 25.390625 66.40625 21.84375 63.234375 
Q 18.3125 60.0625 18.3125 54.390625 
z
" id="DejaVuSans-38"/>
      </defs>
      <g transform="translate(29.4 101.349796)scale(0.1 -0.1)">
       <use transform="translate(0 0.765625)" xlink:href="#DejaVuSans-31"/>
       <use transform="translate(63.623047 0.765625)" xlink:href="#DejaVuSans-30"/>
       <use transform="translate(128.203125 39.046875)scale(0.7)" xlink:href="#DejaVuSans-38"/>
      </g>
     </g>
    </g>
    <g id="ytick_6">
     <g id="line2d_29">
      <path clip-path="url(#pf1005f33f3)" d="M 54 66.155778 
L 388.8 66.155778 
" style="fill:none;stroke:#b0b0b0;stroke-linecap:square;stroke-width:0.8;"/>
     </g>
     <g id="line2d_30">
      <g>
       <use style="stroke:#000000;stroke-width:0.8;" x="54" xlink:href="#m1565539a18" y="66.155778"/>
      </g>
     </g>
     <g id="text_16">
      <!-- $\mathdefault{10^{11}}$ -->
      <g transform="translate(24.9 69.954997)scale(0.1 -0.1)">
       <use transform="translate(0 0.684375)" xlink:href="#DejaVuSans-31"/>
       <use transform="translate(63.623047 0.684375)" xlink:href="#DejaVuSans-30"/>
       <use transform="translate(128.203125 38.965625)scale(0.7)" xlink:href="#DejaVuSans-31"/>
       <use transform="translate(172.739258 38.965625)scale(0.7)" xlink:href="#DejaVuSans-31"/>
      </g>
     </g>
    </g>
    <g id="ytick_7">
     <g id="line2d_31">
      <path clip-path="url(#pf1005f33f3)" d="M 54 34.760979 
L 388.8 34.760979 
" style="fill:none;stroke:#b0b0b0;stroke-linecap:square;stroke-width:0.8;"/>
     </g>
     <g id="line2d_32">
      <g>
       <use style="stroke:#000000;stroke-width:0.8;" x="54" xlink:href="#m1565539a18" y="34.760979"/>
      </g>
     </g>
     <g id="text_17">
      <!-- $\mathdefault{10^{14}}$ -->
      <g transform="translate(24.9 38.560198)scale(0.1 -0.1)">
       <use transform="translate(0 0.684375)" xlink:href="#DejaVuSans-31"/>
       <use transform="translate(63.623047 0.684375)" xlink:href="#DejaVuSans-30"/>
       <use transform="translate(128.203125 38.965625)scale(0.7)" xlink:href="#DejaVuSans-31"/>
       <use transform="translate(172.739258 38.965625)scale(0.7)" xlink:href="#DejaVuSans-34"/>
      </g>
     </g>
    </g>
    <g id="text_18">
     <!-- ph/s/100mA -->
     <defs>
      <path d="M 18.109375 8.203125 
L 18.109375 -20.796875 
L 9.078125 -20.796875 
L 9.078125 54.6875 
L 18.109375 54.6875 
L 18.109375 46.390625 
Q 20.953125 51.265625 25.265625 53.625 
Q 29.59375 56 35.59375 56 
Q 45.5625 56 51.78125 48.09375 
Q 58.015625 40.1875 58.015625 27.296875 
Q 58.015625 14.40625 51.78125 6.484375 
Q 45.5625 -1.421875 35.59375 -1.421875 
Q 29.59375 -1.421875 25.265625 0.953125 
Q 20.953125 3.328125 18.109375 8.203125 
z
M 48.6875 27.296875 
Q 48.6875 37.203125 44.609375 42.84375 
Q 40.53125 48.484375 33.40625 48.484375 
Q 26.265625 48.484375 22.1875 42.84375 
Q 18.109375 37.203125 18.109375 27.296875 
Q 18.109375 17.390625 22.1875 11.75 
Q 26.265625 6.109375 33.40625 6.109375 
Q 40.53125 6.109375 44.609375 11.75 
Q 48.6875 17.390625 48.6875 27.296875 
z
" id="DejaVuSans-70"/>
      <path d="M 54.890625 33.015625 
L 54.890625 0 
L 45.90625 0 
L 45.90625 32.71875 
Q 45.90625 40.484375 42.875 44.328125 
Q 39.84375 48.1875 33.796875 48.1875 
Q 26.515625 48.1875 22.3125 43.546875 
Q 18.109375 38.921875 18.109375 30.90625 
L 18.109375 0 
L 9.078125 0 
L 9.078125 75.984375 
L 18.109375 75.984375 
L 18.109375 46.1875 
Q 21.34375 51.125 25.703125 53.5625 
Q 30.078125 56 35.796875 56 
Q 45.21875 56 50.046875 50.171875 
Q 54.890625 44.34375 54.890625 33.015625 
z
" id="DejaVuSans-68"/>
      <path d="M 25.390625 72.90625 
L 33.6875 72.90625 
L 8.296875 -9.28125 
L 0 -9.28125 
z
" id="DejaVuSans-2f"/>
      <path d="M 44.28125 53.078125 
L 44.28125 44.578125 
Q 40.484375 46.53125 36.375 47.5 
Q 32.28125 48.484375 27.875 48.484375 
Q 21.1875 48.484375 17.84375 46.4375 
Q 14.5 44.390625 14.5 40.28125 
Q 14.5 37.15625 16.890625 35.375 
Q 19.28125 33.59375 26.515625 31.984375 
L 29.59375 31.296875 
Q 39.15625 29.25 43.1875 25.515625 
Q 47.21875 21.78125 47.21875 15.09375 
Q 47.21875 7.46875 41.1875 3.015625 
Q 35.15625 -1.421875 24.609375 -1.421875 
Q 20.21875 -1.421875 15.453125 -0.5625 
Q 10.6875 0.296875 5.421875 2 
L 5.421875 11.28125 
Q 10.40625 8.6875 15.234375 7.390625 
Q 20.0625 6.109375 24.8125 6.109375 
Q 31.15625 6.109375 34.5625 8.28125 
Q 37.984375 10.453125 37.984375 14.40625 
Q 37.984375 18.0625 35.515625 20.015625 
Q 33.0625 21.96875 24.703125 23.78125 
L 21.578125 24.515625 
Q 13.234375 26.265625 9.515625 29.90625 
Q 5.8125 33.546875 5.8125 39.890625 
Q 5.8125 47.609375 11.28125 51.796875 
Q 16.75 56 26.8125 56 
Q 31.78125 56 36.171875 55.265625 
Q 40.578125 54.546875 44.28125 53.078125 
z
" id="DejaVuSans-73"/>
      <path d="M 52 44.1875 
Q 55.375 50.25 60.0625 53.125 
Q 64.75 56 71.09375 56 
Q 79.640625 56 84.28125 50.015625 
Q 88.921875 44.046875 88.921875 33.015625 
L 88.921875 0 
L 79.890625 0 
L 79.890625 32.71875 
Q 79.890625 40.578125 77.09375 44.375 
Q 74.3125 48.1875 68.609375 48.1875 
Q 61.625 48.1875 57.5625 43.546875 
Q 53.515625 38.921875 53.515625 30.90625 
L 53.515625 0 
L 44.484375 0 
L 44.484375 32.71875 
Q 44.484375 40.625 41.703125 44.40625 
Q 38.921875 48.1875 33.109375 48.1875 
Q 26.21875 48.1875 22.15625 43.53125 
Q 18.109375 38.875 18.109375 30.90625 
L 18.109375 0 
L 9.078125 0 
L 9.078125 54.6875 
L 18.109375 54.6875 
L 18.109375 46.1875 
Q 21.1875 51.21875 25.484375 53.609375 
Q 29.78125 56 35.6875 56 
Q 41.65625 56 45.828125 52.96875 
Q 50 49.953125 52 44.1875 
z
" id="DejaVuSans-6d"/>
      <path d="M 34.1875 63.1875 
L 20.796875 26.90625 
L 47.609375 26.90625 
z
M 28.609375 72.90625 
L 39.796875 72.90625 
L 67.578125 0 
L 57.328125 0 
L 50.6875 18.703125 
L 17.828125 18.703125 
L 11.1875 0 
L 0.78125 0 
z
" id="DejaVuSans-41"/>
     </defs>
     <g transform="translate(17.420312 173.430781)rotate(-90)scale(0.1 -0.1)">
      <use xlink:href="#DejaVuSans-70"/>
      <use x="63.476562" xlink:href="#DejaVuSans-68"/>
      <use x="126.855469" xlink:href="#DejaVuSans-2f"/>
      <use x="160.546875" xlink:href="#DejaVuSans-73"/>
      <use x="212.646484" xlink:href="#DejaVuSans-2f"/>
      <use x="246.337891" xlink:href="#DejaVuSans-31"/>
      <use x="309.960938" xlink:href="#DejaVuSans-30"/>
      <use x="373.583984" xlink:href="#DejaVuSans-30"/>
      <use x="437.207031" xlink:href="#DejaVuSans-6d"/>
      <use x="534.619141" xlink:href="#DejaVuSans-41"/>
     </g>
    </g>
   </g>
   <g id="line2d_33">
    <path clip-path="url(#pf1005f33f3)" d="M 69.218182 190.808484 
L 84.826573 202.551515 
L 92.630769 204.650126 
L 100.434965 209.537746 
L 116.043357 214.848315 
L 123.847552 215.261747 
L 131.651748 218.552157 
L 147.26014 221.127239 
L 155.064336 220.894095 
L 162.868531 223.193992 
L 178.476923 225.028498 
L 186.281119 224.014334 
L 194.085315 226.625532 
L 209.693706 228.048461 
L 217.497902 227.517158 
L 225.302098 230.125293 
L 240.91049 231.163711 
L 248.714685 229.941172 
L 256.518881 232.750044 
L 272.127273 233.835828 
L 279.931469 232.846225 
L 287.735664 235.017164 
L 303.344056 235.82479 
L 311.148252 235.976481 
L 318.952448 237.999811 
L 334.560839 239.253524 
L 342.365035 238.035379 
L 350.169231 239.496081 
L 365.777622 242.116364 
L 373.581818 241.062796 
" style="fill:none;stroke:#1f77b4;stroke-dasharray:5.55,2.4;stroke-dashoffset:0;stroke-width:1.5;"/>
    <defs>
     <path d="M 0 3 
C 0.795609 3 1.55874 2.683901 2.12132 2.12132 
C 2.683901 1.55874 3 0.795609 3 0 
C 3 -0.795609 2.683901 -1.55874 2.12132 -2.12132 
C 1.55874 -2.683901 0.795609 -3 0 -3 
C -0.795609 -3 -1.55874 -2.683901 -2.12132 -2.12132 
C -2.683901 -1.55874 -3 -0.795609 -3 0 
C -3 0.795609 -2.683901 1.55874 -2.12132 2.12132 
C -1.55874 2.683901 -0.795609 3 0 3 
z
" id="md984a100e6" style="stroke:#1f77b4;"/>
    </defs>
    <g clip-path="url(#pf1005f33f3)">
     <use style="fill:#1f77b4;stroke:#1f77b4;" x="69.218182" xlink:href="#md984a100e6" y="190.808484"/>
     <use style="fill:#1f77b4;stroke:#1f77b4;" x="84.826573" xlink:href="#md984a100e6" y="202.551515"/>
     <use style="fill:#1f77b4;stroke:#1f77b4;" x="92.630769" xlink:href="#md984a100e6" y="204.650126"/>
     <use style="fill:#1f77b4;stroke:#1f77b4;" x="100.434965" xlink:href="#md984a100e6" y="209.537746"/>
     <use style="fill:#1f77b4;stroke:#1f77b4;" x="116.043357" xlink:href="#md984a100e6" y="214.848315"/>
     <use style="fill:#1f77b4;stroke:#1f77b4;" x="123.847552" xlink:href="#md984a100e6" y="215.261747"/>
     <use style="fill:#1f77b4;stroke:#1f77b4;" x="131.651748" xlink:href="#md984a100e6" y="218.552157"/>
     <use style="fill:#1f77b4;stroke:#1f77b4;" x="147.26014" xlink:href="#md984a100e6" y="221.127239"/>
     <use style="fill:#1f77b4;stroke:#1f77b4;" x="155.064336" xlink:href="#md984a100e6" y="220.894095"/>
     <use style="fill:#1f77b4;stroke:#1f77b4;" x="162.868531" xlink:href="#md984a100e6" y="223.193992"/>
     <use style="fill:#1f77b4;stroke:#1f77b4;" x="178.476923" xlink:href="#md984a100e6" y="225.028498"/>
     <use style="fill:#1f77b4;stroke:#1f77b4;" x="186.281119" xlink:href="#md984a100e6" y="224.014334"/>
     <use style="fill:#1f77b4;stroke:#1f77b4;" x="194.085315" xlink:href="#md984a100e6" y="226.625532"/>
     <use style="fill:#1f77b4;stroke:#1f77b4;" x="209.693706" xlink:href="#md984a100e6" y="228.048461"/>
     <use style="fill:#1f77b4;stroke:#1f77b4;" x="217.497902" xlink:href="#md984a100e6" y="227.517158"/>
     <use style="fill:#1f77b4;stroke:#1f77b4;" x="225.302098" xlink:href="#md984a100e6" y="230.125293"/>
     <use style="fill:#1f77b4;stroke:#1f77b4;" x="240.91049" xlink:href="#md984a100e6" y="231.163711"/>
     <use style="fill:#1f77b4;stroke:#1f77b4;" x="248.714685" xlink:href="#md984a100e6" y="229.941172"/>
     <use style="fill:#1f77b4;stroke:#1f77b4;" x="256.518881" xlink:href="#md984a100e6" y="232.750044"/>
     <use style="fill:#1f77b4;stroke:#1f77b4;" x="272.127273" xlink:href="#md984a100e6" y="233.835828"/>
     <use style="fill:#1f77b4;stroke:#1f77b4;" x="279.931469" xlink:href="#md984a100e6" y="232.846225"/>
     <use style="fill:#1f77b4;stroke:#1f77b4;" x="287.735664" xlink:href="#md984a100e6" y="235.017164"/>
     <use style="fill:#1f77b4;stroke:#1f77b4;" x="303.344056" xlink:href="#md984a100e6" y="235.82479"/>
     <use style="fill:#1f77b4;stroke:#1f77b4;" x="311.148252" xlink:href="#md984a100e6" y="235.976481"/>
     <use style="fill:#1f77b4;stroke:#1f77b4;" x="318.952448" xlink:href="#md984a100e6" y="237.999811"/>
     <use style="fill:#1f77b4;stroke:#1f77b4;" x="334.560839" xlink:href="#md984a100e6" y="239.253524"/>
     <use style="fill:#1f77b4;stroke:#1f77b4;" x="342.365035" xlink:href="#md984a100e6" y="238.035379"/>
     <use style="fill:#1f77b4;stroke:#1f77b4;" x="350.169231" xlink:href="#md984a100e6" y="239.496081"/>
     <use style="fill:#1f77b4;stroke:#1f77b4;" x="365.777622" xlink:href="#md984a100e6" y="242.116364"/>
     <use style="fill:#1f77b4;stroke:#1f77b4;" x="373.581818" xlink:href="#md984a100e6" y="241.062796"/>
    </g>
   </g>
   <g id="line2d_34">
    <path clip-path="url(#pf1005f33f3)" d="M 69.218182 44.443636 
L 84.826573 51.639247 
L 92.630769 57.045611 
L 100.434965 62.672161 
L 116.043357 74.106269 
L 123.847552 79.861552 
L 131.651748 85.620426 
L 147.26014 97.085551 
L 155.064336 102.786271 
L 162.868531 108.456293 
L 178.476923 119.669329 
L 186.281119 125.146709 
L 194.085315 130.554669 
L 209.693706 141.282256 
L 217.497902 146.678232 
L 225.302098 152.099031 
L 240.91049 162.955532 
L 248.714685 168.649501 
L 256.518881 173.247575 
L 272.127273 177.600687 
L 279.931469 179.889944 
L 287.735664 178.143271 
L 303.344056 177.960625 
L 311.148252 180.035523 
L 318.952448 178.119311 
L 334.560839 177.818597 
L 342.365035 179.469951 
L 350.169231 177.661086 
L 365.777622 177.615196 
L 373.581818 178.419582 
" style="fill:none;stroke:#ff7f0e;stroke-dasharray:5.55,2.4;stroke-dashoffset:0;stroke-width:1.5;"/>
    <defs>
     <path d="M 0 3 
C 0.795609 3 1.55874 2.683901 2.12132 2.12132 
C 2.683901 1.55874 3 0.795609 3 0 
C 3 -0.795609 2.683901 -1.55874 2.12132 -2.12132 
C 1.55874 -2.683901 0.795609 -3 0 -3 
C -0.795609 -3 -1.55874 -2.683901 -2.12132 -2.12132 
C -2.683901 -1.55874 -3 -0.795609 -3 0 
C -3 0.795609 -2.683901 1.55874 -2.12132 2.12132 
C -1.55874 2.683901 -0.795609 3 0 3 
z
" id="m77e6a52126" style="stroke:#ff7f0e;"/>
    </defs>
    <g clip-path="url(#pf1005f33f3)">
     <use style="fill:#ff7f0e;stroke:#ff7f0e;" x="69.218182" xlink:href="#m77e6a52126" y="44.443636"/>
     <use style="fill:#ff7f0e;stroke:#ff7f0e;" x="84.826573" xlink:href="#m77e6a52126" y="51.639247"/>
     <use style="fill:#ff7f0e;stroke:#ff7f0e;" x="92.630769" xlink:href="#m77e6a52126" y="57.045611"/>
     <use style="fill:#ff7f0e;stroke:#ff7f0e;" x="100.434965" xlink:href="#m77e6a52126" y="62.672161"/>
     <use style="fill:#ff7f0e;stroke:#ff7f0e;" x="116.043357" xlink:href="#m77e6a52126" y="74.106269"/>
     <use style="fill:#ff7f0e;stroke:#ff7f0e;" x="123.847552" xlink:href="#m77e6a52126" y="79.861552"/>
     <use style="fill:#ff7f0e;stroke:#ff7f0e;" x="131.651748" xlink:href="#m77e6a52126" y="85.620426"/>
     <use style="fill:#ff7f0e;stroke:#ff7f0e;" x="147.26014" xlink:href="#m77e6a52126" y="97.085551"/>
     <use style="fill:#ff7f0e;stroke:#ff7f0e;" x="155.064336" xlink:href="#m77e6a52126" y="102.786271"/>
     <use style="fill:#ff7f0e;stroke:#ff7f0e;" x="162.868531" xlink:href="#m77e6a52126" y="108.456293"/>
     <use style="fill:#ff7f0e;stroke:#ff7f0e;" x="178.476923" xlink:href="#m77e6a52126" y="119.669329"/>
     <use style="fill:#ff7f0e;stroke:#ff7f0e;" x="186.281119" xlink:href="#m77e6a52126" y="125.146709"/>
     <use style="fill:#ff7f0e;stroke:#ff7f0e;" x="194.085315" xlink:href="#m77e6a52126" y="130.554669"/>
     <use style="fill:#ff7f0e;stroke:#ff7f0e;" x="209.693706" xlink:href="#m77e6a52126" y="141.282256"/>
     <use style="fill:#ff7f0e;stroke:#ff7f0e;" x="217.497902" xlink:href="#m77e6a52126" y="146.678232"/>
     <use style="fill:#ff7f0e;stroke:#ff7f0e;" x="225.302098" xlink:href="#m77e6a52126" y="152.099031"/>
     <use style="fill:#ff7f0e;stroke:#ff7f0e;" x="240.91049" xlink:href="#m77e6a52126" y="162.955532"/>
     <use style="fill:#ff7f0e;stroke:#ff7f0e;" x="248.714685" xlink:href="#m77e6a52126" y="168.649501"/>
     <use style="fill:#ff7f0e;stroke:#ff7f0e;" x="256.518881" xlink:href="#m77e6a52126" y="173.247575"/>
     <use style="fill:#ff7f0e;stroke:#ff7f0e;" x="272.127273" xlink:href="#m77e6a52126" y="177.600687"/>
     <use style="fill:#ff7f0e;stroke:#ff7f0e;" x="279.931469" xlink:href="#m77e6a52126" y="179.889944"/>
     <use style="fill:#ff7f0e;stroke:#ff7f0e;" x="287.735664" xlink:href="#m77e6a52126" y="178.143271"/>
     <use style="fill:#ff7f0e;stroke:#ff7f0e;" x="303.344056" xlink:href="#m77e6a52126" y="177.960625"/>
     <use style="fill:#ff7f0e;stroke:#ff7f0e;" x="311.148252" xlink:href="#m77e6a52126" y="180.035523"/>
     <use style="fill:#ff7f0e;stroke:#ff7f0e;" x="318.952448" xlink:href="#m77e6a52126" y="178.119311"/>
     <use style="fill:#ff7f0e;stroke:#ff7f0e;" x="334.560839" xlink:href="#m77e6a52126" y="177.818597"/>
     <use style="fill:#ff7f0e;stroke:#ff7f0e;" x="342.365035" xlink:href="#m77e6a52126" y="179.469951"/>
     <use style="fill:#ff7f0e;stroke:#ff7f0e;" x="350.169231" xlink:href="#m77e6a52126" y="177.661086"/>
     <use style="fill:#ff7f0e;stroke:#ff7f0e;" x="365.777622" xlink:href="#m77e6a52126" y="177.615196"/>
     <use style="fill:#ff7f0e;stroke:#ff7f0e;" x="373.581818" xlink:href="#m77e6a52126" y="178.419582"/>
    </g>
   </g>
   <g id="line2d_35">
    <path clip-path="url(#pf1005f33f3)" d="M 69.218182 53.982077 
L 84.826573 72.920719 
L 92.630769 80.425695 
L 100.434965 90.939865 
L 116.043357 107.684541 
L 123.847552 113.853256 
L 131.651748 122.90254 
L 147.26014 136.942747 
L 155.064336 142.410324 
L 162.868531 150.380242 
L 178.476923 163.427784 
L 186.281119 167.890999 
L 194.085315 175.910158 
L 209.693706 188.060674 
L 217.497902 192.925347 
L 225.302098 200.954281 
L 240.91049 212.8492 
L 248.714685 217.32063 
L 256.518881 224.727576 
L 272.127273 230.166471 
L 279.931469 231.466126 
L 287.735664 231.890393 
L 303.344056 232.515372 
L 311.148252 234.741961 
L 318.952448 234.84908 
L 334.560839 235.802078 
L 342.365035 236.235287 
L 350.169231 235.887124 
L 365.777622 238.461518 
L 373.581818 238.212336 
" style="fill:none;stroke:#2ca02c;stroke-dasharray:5.55,2.4;stroke-dashoffset:0;stroke-width:1.5;"/>
    <defs>
     <path d="M 0 3 
C 0.795609 3 1.55874 2.683901 2.12132 2.12132 
C 2.683901 1.55874 3 0.795609 3 0 
C 3 -0.795609 2.683901 -1.55874 2.12132 -2.12132 
C 1.55874 -2.683901 0.795609 -3 0 -3 
C -0.795609 -3 -1.55874 -2.683901 -2.12132 -2.12132 
C -2.683901 -1.55874 -3 -0.795609 -3 0 
C -3 0.795609 -2.683901 1.55874 -2.12132 2.12132 
C -1.55874 2.683901 -0.795609 3 0 3 
z
" id="mfa76a08636" style="stroke:#2ca02c;"/>
    </defs>
    <g clip-path="url(#pf1005f33f3)">
     <use style="fill:#2ca02c;stroke:#2ca02c;" x="69.218182" xlink:href="#mfa76a08636" y="53.982077"/>
     <use style="fill:#2ca02c;stroke:#2ca02c;" x="84.826573" xlink:href="#mfa76a08636" y="72.920719"/>
     <use style="fill:#2ca02c;stroke:#2ca02c;" x="92.630769" xlink:href="#mfa76a08636" y="80.425695"/>
     <use style="fill:#2ca02c;stroke:#2ca02c;" x="100.434965" xlink:href="#mfa76a08636" y="90.939865"/>
     <use style="fill:#2ca02c;stroke:#2ca02c;" x="116.043357" xlink:href="#mfa76a08636" y="107.684541"/>
     <use style="fill:#2ca02c;stroke:#2ca02c;" x="123.847552" xlink:href="#mfa76a08636" y="113.853256"/>
     <use style="fill:#2ca02c;stroke:#2ca02c;" x="131.651748" xlink:href="#mfa76a08636" y="122.90254"/>
     <use style="fill:#2ca02c;stroke:#2ca02c;" x="147.26014" xlink:href="#mfa76a08636" y="136.942747"/>
     <use style="fill:#2ca02c;stroke:#2ca02c;" x="155.064336" xlink:href="#mfa76a08636" y="142.410324"/>
     <use style="fill:#2ca02c;stroke:#2ca02c;" x="162.868531" xlink:href="#mfa76a08636" y="150.380242"/>
     <use style="fill:#2ca02c;stroke:#2ca02c;" x="178.476923" xlink:href="#mfa76a08636" y="163.427784"/>
     <use style="fill:#2ca02c;stroke:#2ca02c;" x="186.281119" xlink:href="#mfa76a08636" y="167.890999"/>
     <use style="fill:#2ca02c;stroke:#2ca02c;" x="194.085315" xlink:href="#mfa76a08636" y="175.910158"/>
     <use style="fill:#2ca02c;stroke:#2ca02c;" x="209.693706" xlink:href="#mfa76a08636" y="188.060674"/>
     <use style="fill:#2ca02c;stroke:#2ca02c;" x="217.497902" xlink:href="#mfa76a08636" y="192.925347"/>
     <use style="fill:#2ca02c;stroke:#2ca02c;" x="225.302098" xlink:href="#mfa76a08636" y="200.954281"/>
     <use style="fill:#2ca02c;stroke:#2ca02c;" x="240.91049" xlink:href="#mfa76a08636" y="212.8492"/>
     <use style="fill:#2ca02c;stroke:#2ca02c;" x="248.714685" xlink:href="#mfa76a08636" y="217.32063"/>
     <use style="fill:#2ca02c;stroke:#2ca02c;" x="256.518881" xlink:href="#mfa76a08636" y="224.727576"/>
     <use style="fill:#2ca02c;stroke:#2ca02c;" x="272.127273" xlink:href="#mfa76a08636" y="230.166471"/>
     <use style="fill:#2ca02c;stroke:#2ca02c;" x="279.931469" xlink:href="#mfa76a08636" y="231.466126"/>
     <use style="fill:#2ca02c;stroke:#2ca02c;" x="287.735664" xlink:href="#mfa76a08636" y="231.890393"/>
     <use style="fill:#2ca02c;stroke:#2ca02c;" x="303.344056" xlink:href="#mfa76a08636" y="232.515372"/>
     <use style="fill:#2ca02c;stroke:#2ca02c;" x="311.148252" xlink:href="#mfa76a08636" y="234.741961"/>
     <use style="fill:#2ca02c;stroke:#2ca02c;" x="318.952448" xlink:href="#mfa76a08636" y="234.84908"/>
     <use style="fill:#2ca02c;stroke:#2ca02c;" x="334.560839" xlink:href="#mfa76a08636" y="235.802078"/>
     <use style="fill:#2ca02c;stroke:#2ca02c;" x="342.365035" xlink:href="#mfa76a08636" y="236.235287"/>
     <use style="fill:#2ca02c;stroke:#2ca02c;" x="350.169231" xlink:href="#mfa76a08636" y="235.887124"/>
     <use style="fill:#2ca02c;stroke:#2ca02c;" x="365.777622" xlink:href="#mfa76a08636" y="238.461518"/>
     <use style="fill:#2ca02c;stroke:#2ca02c;" x="373.581818" xlink:href="#mfa76a08636" y="238.212336"/>
    </g>
   </g>
   <g id="patch_3">
    <path d="M 54 252 
L 54 34.56 
" style="fill:none;stroke:#000000;stroke-linecap:square;stroke-linejoin:miter;stroke-width:0.8;"/>
   </g>
   <g id="patch_4">
    <path d="M 388.8 252 
L 388.8 34.56 
" style="fill:none;stroke:#000000;stroke-linecap:square;stroke-linejoin:miter;stroke-width:0.8;"/>
   </g>
   <g id="patch_5">
    <path d="M 54 252 
L 388.8 252 
" style="fill:none;stroke:#000000;stroke-linecap:square;stroke-linejoin:miter;stroke-width:0.8;"/>
   </g>
   <g id="patch_6">
    <path d="M 54 34.56 
L 388.8 34.56 
" style="fill:none;stroke:#000000;stroke-linecap:square;stroke-linejoin:miter;stroke-width:0.8;"/>
   </g>
   <g id="legend_1">
    <g id="patch_7">
     <path d="M 318.295313 86.594375 
L 381.8 86.594375 
Q 383.8 86.594375 383.8 84.594375 
L 383.8 41.56 
Q 383.8 39.56 381.8 39.56 
L 318.295313 39.56 
Q 316.295313 39.56 316.295313 41.56 
L 316.295313 84.594375 
Q 316.295313 86.594375 318.295313 86.594375 
z
" style="fill:#ffffff;opacity:0.8;stroke:#cccccc;stroke-linejoin:miter;"/>
    </g>
    <g id="line2d_36">
     <path d="M 320.295313 47.658438 
L 340.295313 47.658438 
" style="fill:none;stroke:#1f77b4;stroke-dasharray:5.55,2.4;stroke-dashoffset:0;stroke-width:1.5;"/>
    </g>
    <g id="line2d_37">
     <g>
      <use style="fill:#1f77b4;stroke:#1f77b4;" x="330.295313" xlink:href="#md984a100e6" y="47.658438"/>
     </g>
    </g>
    <g id="text_19">
     <!-- 10keV -->
     <g transform="translate(348.295313 51.158438)scale(0.1 -0.1)">
      <use xlink:href="#DejaVuSans-31"/>
      <use x="63.623047" xlink:href="#DejaVuSans-30"/>
      <use x="127.246094" xlink:href="#DejaVuSans-6b"/>
      <use x="185.109375" xlink:href="#DejaVuSans-65"/>
      <use x="246.632812" xlink:href="#DejaVuSans-56"/>
     </g>
    </g>
    <g id="line2d_38">
     <path d="M 320.295313 62.336563 
L 340.295313 62.336563 
" style="fill:none;stroke:#ff7f0e;stroke-dasharray:5.55,2.4;stroke-dashoffset:0;stroke-width:1.5;"/>
    </g>
    <g id="line2d_39">
     <g>
      <use style="fill:#ff7f0e;stroke:#ff7f0e;" x="330.295313" xlink:href="#m77e6a52126" y="62.336563"/>
     </g>
    </g>
    <g id="text_20">
     <!-- 10keV -->
     <g transform="translate(348.295313 65.836563)scale(0.1 -0.1)">
      <use xlink:href="#DejaVuSans-31"/>
      <use x="63.623047" xlink:href="#DejaVuSans-30"/>
      <use x="127.246094" xlink:href="#DejaVuSans-6b"/>
      <use x="185.109375" xlink:href="#DejaVuSans-65"/>
      <use x="246.632812" xlink:href="#DejaVuSans-56"/>
     </g>
    </g>
    <g id="line2d_40">
     <path d="M 320.295313 77.014688 
L 340.295313 77.014688 
" style="fill:none;stroke:#2ca02c;stroke-dasharray:5.55,2.4;stroke-dashoffset:0;stroke-width:1.5;"/>
    </g>
    <g id="line2d_41">
     <g>
      <use style="fill:#2ca02c;stroke:#2ca02c;" x="330.295313" xlink:href="#mfa76a08636" y="77.014688"/>
     </g>
    </g>
    <g id="text_21">
     <!-- 10keV -->
     <g transform="translate(348.295313 80.514688)scale(0.1 -0.1)">
      <use xlink:href="#DejaVuSans-31"/>
      <use x="63.623047" xlink:href="#DejaVuSans-30"/>
      <use x="127.246094" xlink:href="#DejaVuSans-6b"/>
      <use x="185.109375" xlink:href="#DejaVuSans-65"/>
      <use x="246.632812" xlink:href="#DejaVuSans-56"/>
     </g>
    </g>
   </g>
  </g>
 </g>
 <defs>
  <clipPath id="pf1005f33f3">
   <rect height="217.44" width="334.8" x="54" y="34.56"/>
  </clipPath>
 </defs>
</svg>
