<?xml version="1.0" encoding="utf-8" standalone="no"?>
<!DOCTYPE svg PUBLIC "-//W3C//DTD SVG 1.1//EN"
  "http://www.w3.org/Graphics/SVG/1.1/DTD/svg11.dtd">
<svg xmlns:xlink="http://www.w3.org/1999/xlink" width="460.8pt" height="345.6pt" viewBox="0 0 460.8 345.6" xmlns="http://www.w3.org/2000/svg" version="1.1">
 <metadata>
  <rdf:RDF xmlns:dc="http://purl.org/dc/elements/1.1/" xmlns:cc="http://creativecommons.org/ns#" xmlns:rdf="http://www.w3.org/1999/02/22-rdf-syntax-ns#">
   <cc:Work>
    <dc:type rdf:resource="http://purl.org/dc/dcmitype/StillImage"/>
    <dc:date>2024-04-23T15:20:31.357107</dc:date>
    <dc:format>image/svg+xml</dc:format>
    <dc:creator>
     <cc:Agent>
      <dc:title>Matplotlib v3.8.4, https://matplotlib.org/</dc:title>
     </cc:Agent>
    </dc:creator>
   </cc:Work>
  </rdf:RDF>
 </metadata>
 <defs>
  <style type="text/css">*{stroke-linejoin: round; stroke-linecap: butt}</style>
 </defs>
 <g id="figure_1">
  <g id="patch_1">
   <path d="M 0 345.6 
L 460.8 345.6 
L 460.8 0 
L 0 0 
z
" style="fill: #ffffff"/>
  </g>
  <g id="axes_1">
   <g id="patch_2">
    <path d="M 57.6 307.584 
L 414.72 307.584 
L 414.72 41.472 
L 57.6 41.472 
z
" style="fill: #ffffff"/>
   </g>
   <g id="matplotlib.axis_1">
    <g id="xtick_1">
     <g id="line2d_1">
      <path d="M 73.832727 307.584 
L 73.832727 41.472 
" clip-path="url(#p7b8777436b)" style="fill: none; stroke: #b0b0b0; stroke-width: 0.8; stroke-linecap: square"/>
     </g>
     <g id="line2d_2">
      <defs>
       <path id="mf8d3625269" d="M 0 0 
L 0 3.5 
" style="stroke: #000000; stroke-width: 0.8"/>
      </defs>
      <g>
       <use xlink:href="#mf8d3625269" x="73.832727" y="307.584" style="stroke: #000000; stroke-width: 0.8"/>
      </g>
     </g>
     <g id="text_1">
      <!-- $\mathdefault{10^{-1}}$ -->
      <g transform="translate(50.332727 329.780875) scale(0.2 -0.2)">
       <defs>
        <path id="DejaVuSans-31" d="M 794 531 
L 1825 531 
L 1825 4091 
L 703 3866 
L 703 4441 
L 1819 4666 
L 2450 4666 
L 2450 531 
L 3481 531 
L 3481 0 
L 794 0 
L 794 531 
z
" transform="scale(0.015625)"/>
        <path id="DejaVuSans-30" d="M 2034 4250 
Q 1547 4250 1301 3770 
Q 1056 3291 1056 2328 
Q 1056 1369 1301 889 
Q 1547 409 2034 409 
Q 2525 409 2770 889 
Q 3016 1369 3016 2328 
Q 3016 3291 2770 3770 
Q 2525 4250 2034 4250 
z
M 2034 4750 
Q 2819 4750 3233 4129 
Q 3647 3509 3647 2328 
Q 3647 1150 3233 529 
Q 2819 -91 2034 -91 
Q 1250 -91 836 529 
Q 422 1150 422 2328 
Q 422 3509 836 4129 
Q 1250 4750 2034 4750 
z
" transform="scale(0.015625)"/>
        <path id="DejaVuSans-2212" d="M 678 2272 
L 4684 2272 
L 4684 1741 
L 678 1741 
L 678 2272 
z
" transform="scale(0.015625)"/>
       </defs>
       <use xlink:href="#DejaVuSans-31" transform="translate(0 0.684375)"/>
       <use xlink:href="#DejaVuSans-30" transform="translate(63.623047 0.684375)"/>
       <use xlink:href="#DejaVuSans-2212" transform="translate(128.203125 38.965625) scale(0.7)"/>
       <use xlink:href="#DejaVuSans-31" transform="translate(186.855469 38.965625) scale(0.7)"/>
      </g>
     </g>
    </g>
    <g id="xtick_2">
     <g id="line2d_3">
      <path d="M 163.962971 307.584 
L 163.962971 41.472 
" clip-path="url(#p7b8777436b)" style="fill: none; stroke: #b0b0b0; stroke-width: 0.8; stroke-linecap: square"/>
     </g>
     <g id="line2d_4">
      <g>
       <use xlink:href="#mf8d3625269" x="163.962971" y="307.584" style="stroke: #000000; stroke-width: 0.8"/>
      </g>
     </g>
     <g id="text_2">
      <!-- $\mathdefault{10^{0}}$ -->
      <g transform="translate(146.362971 329.780875) scale(0.2 -0.2)">
       <use xlink:href="#DejaVuSans-31" transform="translate(0 0.765625)"/>
       <use xlink:href="#DejaVuSans-30" transform="translate(63.623047 0.765625)"/>
       <use xlink:href="#DejaVuSans-30" transform="translate(128.203125 39.046875) scale(0.7)"/>
      </g>
     </g>
    </g>
    <g id="xtick_3">
     <g id="line2d_5">
      <path d="M 254.093215 307.584 
L 254.093215 41.472 
" clip-path="url(#p7b8777436b)" style="fill: none; stroke: #b0b0b0; stroke-width: 0.8; stroke-linecap: square"/>
     </g>
     <g id="line2d_6">
      <g>
       <use xlink:href="#mf8d3625269" x="254.093215" y="307.584" style="stroke: #000000; stroke-width: 0.8"/>
      </g>
     </g>
     <g id="text_3">
      <!-- $\mathdefault{10^{1}}$ -->
      <g transform="translate(236.493215 329.780875) scale(0.2 -0.2)">
       <use xlink:href="#DejaVuSans-31" transform="translate(0 0.684375)"/>
       <use xlink:href="#DejaVuSans-30" transform="translate(63.623047 0.684375)"/>
       <use xlink:href="#DejaVuSans-31" transform="translate(128.203125 38.965625) scale(0.7)"/>
      </g>
     </g>
    </g>
    <g id="xtick_4">
     <g id="line2d_7">
      <path d="M 344.223459 307.584 
L 344.223459 41.472 
" clip-path="url(#p7b8777436b)" style="fill: none; stroke: #b0b0b0; stroke-width: 0.8; stroke-linecap: square"/>
     </g>
     <g id="line2d_8">
      <g>
       <use xlink:href="#mf8d3625269" x="344.223459" y="307.584" style="stroke: #000000; stroke-width: 0.8"/>
      </g>
     </g>
     <g id="text_4">
      <!-- $\mathdefault{10^{2}}$ -->
      <g transform="translate(326.623459 329.780875) scale(0.2 -0.2)">
       <defs>
        <path id="DejaVuSans-32" d="M 1228 531 
L 3431 531 
L 3431 0 
L 469 0 
L 469 531 
Q 828 903 1448 1529 
Q 2069 2156 2228 2338 
Q 2531 2678 2651 2914 
Q 2772 3150 2772 3378 
Q 2772 3750 2511 3984 
Q 2250 4219 1831 4219 
Q 1534 4219 1204 4116 
Q 875 4013 500 3803 
L 500 4441 
Q 881 4594 1212 4672 
Q 1544 4750 1819 4750 
Q 2544 4750 2975 4387 
Q 3406 4025 3406 3419 
Q 3406 3131 3298 2873 
Q 3191 2616 2906 2266 
Q 2828 2175 2409 1742 
Q 1991 1309 1228 531 
z
" transform="scale(0.015625)"/>
       </defs>
       <use xlink:href="#DejaVuSans-31" transform="translate(0 0.765625)"/>
       <use xlink:href="#DejaVuSans-30" transform="translate(63.623047 0.765625)"/>
       <use xlink:href="#DejaVuSans-32" transform="translate(128.203125 39.046875) scale(0.7)"/>
      </g>
     </g>
    </g>
    <g id="xtick_5">
     <g id="line2d_9">
      <defs>
       <path id="m529bdd3903" d="M 0 0 
L 0 2 
" style="stroke: #000000; stroke-width: 0.6"/>
      </defs>
      <g>
       <use xlink:href="#m529bdd3903" x="59.871376" y="307.584" style="stroke: #000000; stroke-width: 0.6"/>
      </g>
     </g>
    </g>
    <g id="xtick_6">
     <g id="line2d_10">
      <g>
       <use xlink:href="#m529bdd3903" x="65.098204" y="307.584" style="stroke: #000000; stroke-width: 0.6"/>
      </g>
     </g>
    </g>
    <g id="xtick_7">
     <g id="line2d_11">
      <g>
       <use xlink:href="#m529bdd3903" x="69.708593" y="307.584" style="stroke: #000000; stroke-width: 0.6"/>
      </g>
     </g>
    </g>
    <g id="xtick_8">
     <g id="line2d_12">
      <g>
       <use xlink:href="#m529bdd3903" x="100.964634" y="307.584" style="stroke: #000000; stroke-width: 0.6"/>
      </g>
     </g>
    </g>
    <g id="xtick_9">
     <g id="line2d_13">
      <g>
       <use xlink:href="#m529bdd3903" x="116.835782" y="307.584" style="stroke: #000000; stroke-width: 0.6"/>
      </g>
     </g>
    </g>
    <g id="xtick_10">
     <g id="line2d_14">
      <g>
       <use xlink:href="#m529bdd3903" x="128.096541" y="307.584" style="stroke: #000000; stroke-width: 0.6"/>
      </g>
     </g>
    </g>
    <g id="xtick_11">
     <g id="line2d_15">
      <g>
       <use xlink:href="#m529bdd3903" x="136.831064" y="307.584" style="stroke: #000000; stroke-width: 0.6"/>
      </g>
     </g>
    </g>
    <g id="xtick_12">
     <g id="line2d_16">
      <g>
       <use xlink:href="#m529bdd3903" x="143.967689" y="307.584" style="stroke: #000000; stroke-width: 0.6"/>
      </g>
     </g>
    </g>
    <g id="xtick_13">
     <g id="line2d_17">
      <g>
       <use xlink:href="#m529bdd3903" x="150.00162" y="307.584" style="stroke: #000000; stroke-width: 0.6"/>
      </g>
     </g>
    </g>
    <g id="xtick_14">
     <g id="line2d_18">
      <g>
       <use xlink:href="#m529bdd3903" x="155.228448" y="307.584" style="stroke: #000000; stroke-width: 0.6"/>
      </g>
     </g>
    </g>
    <g id="xtick_15">
     <g id="line2d_19">
      <g>
       <use xlink:href="#m529bdd3903" x="159.838837" y="307.584" style="stroke: #000000; stroke-width: 0.6"/>
      </g>
     </g>
    </g>
    <g id="xtick_16">
     <g id="line2d_20">
      <g>
       <use xlink:href="#m529bdd3903" x="191.094878" y="307.584" style="stroke: #000000; stroke-width: 0.6"/>
      </g>
     </g>
    </g>
    <g id="xtick_17">
     <g id="line2d_21">
      <g>
       <use xlink:href="#m529bdd3903" x="206.966026" y="307.584" style="stroke: #000000; stroke-width: 0.6"/>
      </g>
     </g>
    </g>
    <g id="xtick_18">
     <g id="line2d_22">
      <g>
       <use xlink:href="#m529bdd3903" x="218.226785" y="307.584" style="stroke: #000000; stroke-width: 0.6"/>
      </g>
     </g>
    </g>
    <g id="xtick_19">
     <g id="line2d_23">
      <g>
       <use xlink:href="#m529bdd3903" x="226.961308" y="307.584" style="stroke: #000000; stroke-width: 0.6"/>
      </g>
     </g>
    </g>
    <g id="xtick_20">
     <g id="line2d_24">
      <g>
       <use xlink:href="#m529bdd3903" x="234.097933" y="307.584" style="stroke: #000000; stroke-width: 0.6"/>
      </g>
     </g>
    </g>
    <g id="xtick_21">
     <g id="line2d_25">
      <g>
       <use xlink:href="#m529bdd3903" x="240.131864" y="307.584" style="stroke: #000000; stroke-width: 0.6"/>
      </g>
     </g>
    </g>
    <g id="xtick_22">
     <g id="line2d_26">
      <g>
       <use xlink:href="#m529bdd3903" x="245.358692" y="307.584" style="stroke: #000000; stroke-width: 0.6"/>
      </g>
     </g>
    </g>
    <g id="xtick_23">
     <g id="line2d_27">
      <g>
       <use xlink:href="#m529bdd3903" x="249.969081" y="307.584" style="stroke: #000000; stroke-width: 0.6"/>
      </g>
     </g>
    </g>
    <g id="xtick_24">
     <g id="line2d_28">
      <g>
       <use xlink:href="#m529bdd3903" x="281.225122" y="307.584" style="stroke: #000000; stroke-width: 0.6"/>
      </g>
     </g>
    </g>
    <g id="xtick_25">
     <g id="line2d_29">
      <g>
       <use xlink:href="#m529bdd3903" x="297.09627" y="307.584" style="stroke: #000000; stroke-width: 0.6"/>
      </g>
     </g>
    </g>
    <g id="xtick_26">
     <g id="line2d_30">
      <g>
       <use xlink:href="#m529bdd3903" x="308.357029" y="307.584" style="stroke: #000000; stroke-width: 0.6"/>
      </g>
     </g>
    </g>
    <g id="xtick_27">
     <g id="line2d_31">
      <g>
       <use xlink:href="#m529bdd3903" x="317.091552" y="307.584" style="stroke: #000000; stroke-width: 0.6"/>
      </g>
     </g>
    </g>
    <g id="xtick_28">
     <g id="line2d_32">
      <g>
       <use xlink:href="#m529bdd3903" x="324.228177" y="307.584" style="stroke: #000000; stroke-width: 0.6"/>
      </g>
     </g>
    </g>
    <g id="xtick_29">
     <g id="line2d_33">
      <g>
       <use xlink:href="#m529bdd3903" x="330.262107" y="307.584" style="stroke: #000000; stroke-width: 0.6"/>
      </g>
     </g>
    </g>
    <g id="xtick_30">
     <g id="line2d_34">
      <g>
       <use xlink:href="#m529bdd3903" x="335.488936" y="307.584" style="stroke: #000000; stroke-width: 0.6"/>
      </g>
     </g>
    </g>
    <g id="xtick_31">
     <g id="line2d_35">
      <g>
       <use xlink:href="#m529bdd3903" x="340.099325" y="307.584" style="stroke: #000000; stroke-width: 0.6"/>
      </g>
     </g>
    </g>
    <g id="xtick_32">
     <g id="line2d_36">
      <g>
       <use xlink:href="#m529bdd3903" x="371.355366" y="307.584" style="stroke: #000000; stroke-width: 0.6"/>
      </g>
     </g>
    </g>
    <g id="xtick_33">
     <g id="line2d_37">
      <g>
       <use xlink:href="#m529bdd3903" x="387.226514" y="307.584" style="stroke: #000000; stroke-width: 0.6"/>
      </g>
     </g>
    </g>
    <g id="xtick_34">
     <g id="line2d_38">
      <g>
       <use xlink:href="#m529bdd3903" x="398.487273" y="307.584" style="stroke: #000000; stroke-width: 0.6"/>
      </g>
     </g>
    </g>
    <g id="xtick_35">
     <g id="line2d_39">
      <g>
       <use xlink:href="#m529bdd3903" x="407.221796" y="307.584" style="stroke: #000000; stroke-width: 0.6"/>
      </g>
     </g>
    </g>
    <g id="xtick_36">
     <g id="line2d_40">
      <g>
       <use xlink:href="#m529bdd3903" x="414.358421" y="307.584" style="stroke: #000000; stroke-width: 0.6"/>
      </g>
     </g>
    </g>
    <g id="text_5">
     <!-- Energy (keV) -->
     <g transform="translate(171.744375 353.137125) scale(0.2 -0.2)">
      <defs>
       <path id="DejaVuSans-45" d="M 628 4666 
L 3578 4666 
L 3578 4134 
L 1259 4134 
L 1259 2753 
L 3481 2753 
L 3481 2222 
L 1259 2222 
L 1259 531 
L 3634 531 
L 3634 0 
L 628 0 
L 628 4666 
z
" transform="scale(0.015625)"/>
       <path id="DejaVuSans-6e" d="M 3513 2113 
L 3513 0 
L 2938 0 
L 2938 2094 
Q 2938 2591 2744 2837 
Q 2550 3084 2163 3084 
Q 1697 3084 1428 2787 
Q 1159 2491 1159 1978 
L 1159 0 
L 581 0 
L 581 3500 
L 1159 3500 
L 1159 2956 
Q 1366 3272 1645 3428 
Q 1925 3584 2291 3584 
Q 2894 3584 3203 3211 
Q 3513 2838 3513 2113 
z
" transform="scale(0.015625)"/>
       <path id="DejaVuSans-65" d="M 3597 1894 
L 3597 1613 
L 953 1613 
Q 991 1019 1311 708 
Q 1631 397 2203 397 
Q 2534 397 2845 478 
Q 3156 559 3463 722 
L 3463 178 
Q 3153 47 2828 -22 
Q 2503 -91 2169 -91 
Q 1331 -91 842 396 
Q 353 884 353 1716 
Q 353 2575 817 3079 
Q 1281 3584 2069 3584 
Q 2775 3584 3186 3129 
Q 3597 2675 3597 1894 
z
M 3022 2063 
Q 3016 2534 2758 2815 
Q 2500 3097 2075 3097 
Q 1594 3097 1305 2825 
Q 1016 2553 972 2059 
L 3022 2063 
z
" transform="scale(0.015625)"/>
       <path id="DejaVuSans-72" d="M 2631 2963 
Q 2534 3019 2420 3045 
Q 2306 3072 2169 3072 
Q 1681 3072 1420 2755 
Q 1159 2438 1159 1844 
L 1159 0 
L 581 0 
L 581 3500 
L 1159 3500 
L 1159 2956 
Q 1341 3275 1631 3429 
Q 1922 3584 2338 3584 
Q 2397 3584 2469 3576 
Q 2541 3569 2628 3553 
L 2631 2963 
z
" transform="scale(0.015625)"/>
       <path id="DejaVuSans-67" d="M 2906 1791 
Q 2906 2416 2648 2759 
Q 2391 3103 1925 3103 
Q 1463 3103 1205 2759 
Q 947 2416 947 1791 
Q 947 1169 1205 825 
Q 1463 481 1925 481 
Q 2391 481 2648 825 
Q 2906 1169 2906 1791 
z
M 3481 434 
Q 3481 -459 3084 -895 
Q 2688 -1331 1869 -1331 
Q 1566 -1331 1297 -1286 
Q 1028 -1241 775 -1147 
L 775 -588 
Q 1028 -725 1275 -790 
Q 1522 -856 1778 -856 
Q 2344 -856 2625 -561 
Q 2906 -266 2906 331 
L 2906 616 
Q 2728 306 2450 153 
Q 2172 0 1784 0 
Q 1141 0 747 490 
Q 353 981 353 1791 
Q 353 2603 747 3093 
Q 1141 3584 1784 3584 
Q 2172 3584 2450 3431 
Q 2728 3278 2906 2969 
L 2906 3500 
L 3481 3500 
L 3481 434 
z
" transform="scale(0.015625)"/>
       <path id="DejaVuSans-79" d="M 2059 -325 
Q 1816 -950 1584 -1140 
Q 1353 -1331 966 -1331 
L 506 -1331 
L 506 -850 
L 844 -850 
Q 1081 -850 1212 -737 
Q 1344 -625 1503 -206 
L 1606 56 
L 191 3500 
L 800 3500 
L 1894 763 
L 2988 3500 
L 3597 3500 
L 2059 -325 
z
" transform="scale(0.015625)"/>
       <path id="DejaVuSans-20" transform="scale(0.015625)"/>
       <path id="DejaVuSans-28" d="M 1984 4856 
Q 1566 4138 1362 3434 
Q 1159 2731 1159 2009 
Q 1159 1288 1364 580 
Q 1569 -128 1984 -844 
L 1484 -844 
Q 1016 -109 783 600 
Q 550 1309 550 2009 
Q 550 2706 781 3412 
Q 1013 4119 1484 4856 
L 1984 4856 
z
" transform="scale(0.015625)"/>
       <path id="DejaVuSans-6b" d="M 581 4863 
L 1159 4863 
L 1159 1991 
L 2875 3500 
L 3609 3500 
L 1753 1863 
L 3688 0 
L 2938 0 
L 1159 1709 
L 1159 0 
L 581 0 
L 581 4863 
z
" transform="scale(0.015625)"/>
       <path id="DejaVuSans-56" d="M 1831 0 
L 50 4666 
L 709 4666 
L 2188 738 
L 3669 4666 
L 4325 4666 
L 2547 0 
L 1831 0 
z
" transform="scale(0.015625)"/>
       <path id="DejaVuSans-29" d="M 513 4856 
L 1013 4856 
Q 1481 4119 1714 3412 
Q 1947 2706 1947 2009 
Q 1947 1309 1714 600 
Q 1481 -109 1013 -844 
L 513 -844 
Q 928 -128 1133 580 
Q 1338 1288 1338 2009 
Q 1338 2731 1133 3434 
Q 928 4138 513 4856 
z
" transform="scale(0.015625)"/>
      </defs>
      <use xlink:href="#DejaVuSans-45"/>
      <use xlink:href="#DejaVuSans-6e" x="63.183594"/>
      <use xlink:href="#DejaVuSans-65" x="126.5625"/>
      <use xlink:href="#DejaVuSans-72" x="188.085938"/>
      <use xlink:href="#DejaVuSans-67" x="227.449219"/>
      <use xlink:href="#DejaVuSans-79" x="290.925781"/>
      <use xlink:href="#DejaVuSans-20" x="350.105469"/>
      <use xlink:href="#DejaVuSans-28" x="381.892578"/>
      <use xlink:href="#DejaVuSans-6b" x="420.90625"/>
      <use xlink:href="#DejaVuSans-65" x="475.191406"/>
      <use xlink:href="#DejaVuSans-56" x="536.714844"/>
      <use xlink:href="#DejaVuSans-29" x="605.123047"/>
     </g>
    </g>
   </g>
   <g id="matplotlib.axis_2">
    <g id="ytick_1">
     <g id="line2d_41">
      <path d="M 57.6 257.451113 
L 414.72 257.451113 
" clip-path="url(#p7b8777436b)" style="fill: none; stroke: #b0b0b0; stroke-width: 0.8; stroke-linecap: square"/>
     </g>
     <g id="line2d_42">
      <defs>
       <path id="mcbfbd10310" d="M 0 0 
L -3.5 0 
" style="stroke: #000000; stroke-width: 0.8"/>
      </defs>
      <g>
       <use xlink:href="#mcbfbd10310" x="57.6" y="257.451113" style="stroke: #000000; stroke-width: 0.8"/>
      </g>
     </g>
     <g id="text_6">
      <!-- $\mathdefault{10^{-2}}$ -->
      <g transform="translate(3.6 265.04955) scale(0.2 -0.2)">
       <use xlink:href="#DejaVuSans-31" transform="translate(0 0.765625)"/>
       <use xlink:href="#DejaVuSans-30" transform="translate(63.623047 0.765625)"/>
       <use xlink:href="#DejaVuSans-2212" transform="translate(128.203125 39.046875) scale(0.7)"/>
       <use xlink:href="#DejaVuSans-32" transform="translate(186.855469 39.046875) scale(0.7)"/>
      </g>
     </g>
    </g>
    <g id="ytick_2">
     <g id="line2d_43">
      <path d="M 57.6 206.450954 
L 414.72 206.450954 
" clip-path="url(#p7b8777436b)" style="fill: none; stroke: #b0b0b0; stroke-width: 0.8; stroke-linecap: square"/>
     </g>
     <g id="line2d_44">
      <g>
       <use xlink:href="#mcbfbd10310" x="57.6" y="206.450954" style="stroke: #000000; stroke-width: 0.8"/>
      </g>
     </g>
     <g id="text_7">
      <!-- $\mathdefault{10^{2}}$ -->
      <g transform="translate(15.4 214.049392) scale(0.2 -0.2)">
       <use xlink:href="#DejaVuSans-31" transform="translate(0 0.765625)"/>
       <use xlink:href="#DejaVuSans-30" transform="translate(63.623047 0.765625)"/>
       <use xlink:href="#DejaVuSans-32" transform="translate(128.203125 39.046875) scale(0.7)"/>
      </g>
     </g>
    </g>
    <g id="ytick_3">
     <g id="line2d_45">
      <path d="M 57.6 155.450796 
L 414.72 155.450796 
" clip-path="url(#p7b8777436b)" style="fill: none; stroke: #b0b0b0; stroke-width: 0.8; stroke-linecap: square"/>
     </g>
     <g id="line2d_46">
      <g>
       <use xlink:href="#mcbfbd10310" x="57.6" y="155.450796" style="stroke: #000000; stroke-width: 0.8"/>
      </g>
     </g>
     <g id="text_8">
      <!-- $\mathdefault{10^{6}}$ -->
      <g transform="translate(15.4 163.049233) scale(0.2 -0.2)">
       <defs>
        <path id="DejaVuSans-36" d="M 2113 2584 
Q 1688 2584 1439 2293 
Q 1191 2003 1191 1497 
Q 1191 994 1439 701 
Q 1688 409 2113 409 
Q 2538 409 2786 701 
Q 3034 994 3034 1497 
Q 3034 2003 2786 2293 
Q 2538 2584 2113 2584 
z
M 3366 4563 
L 3366 3988 
Q 3128 4100 2886 4159 
Q 2644 4219 2406 4219 
Q 1781 4219 1451 3797 
Q 1122 3375 1075 2522 
Q 1259 2794 1537 2939 
Q 1816 3084 2150 3084 
Q 2853 3084 3261 2657 
Q 3669 2231 3669 1497 
Q 3669 778 3244 343 
Q 2819 -91 2113 -91 
Q 1303 -91 875 529 
Q 447 1150 447 2328 
Q 447 3434 972 4092 
Q 1497 4750 2381 4750 
Q 2619 4750 2861 4703 
Q 3103 4656 3366 4563 
z
" transform="scale(0.015625)"/>
       </defs>
       <use xlink:href="#DejaVuSans-31" transform="translate(0 0.765625)"/>
       <use xlink:href="#DejaVuSans-30" transform="translate(63.623047 0.765625)"/>
       <use xlink:href="#DejaVuSans-36" transform="translate(128.203125 39.046875) scale(0.7)"/>
      </g>
     </g>
    </g>
    <g id="ytick_4">
     <g id="line2d_47">
      <path d="M 57.6 104.450637 
L 414.72 104.450637 
" clip-path="url(#p7b8777436b)" style="fill: none; stroke: #b0b0b0; stroke-width: 0.8; stroke-linecap: square"/>
     </g>
     <g id="line2d_48">
      <g>
       <use xlink:href="#mcbfbd10310" x="57.6" y="104.450637" style="stroke: #000000; stroke-width: 0.8"/>
      </g>
     </g>
     <g id="text_9">
      <!-- $\mathdefault{10^{10}}$ -->
      <g transform="translate(6.4 112.049075) scale(0.2 -0.2)">
       <use xlink:href="#DejaVuSans-31" transform="translate(0 0.765625)"/>
       <use xlink:href="#DejaVuSans-30" transform="translate(63.623047 0.765625)"/>
       <use xlink:href="#DejaVuSans-31" transform="translate(128.203125 39.046875) scale(0.7)"/>
       <use xlink:href="#DejaVuSans-30" transform="translate(172.739258 39.046875) scale(0.7)"/>
      </g>
     </g>
    </g>
    <g id="ytick_5">
     <g id="line2d_49">
      <path d="M 57.6 53.450479 
L 414.72 53.450479 
" clip-path="url(#p7b8777436b)" style="fill: none; stroke: #b0b0b0; stroke-width: 0.8; stroke-linecap: square"/>
     </g>
     <g id="line2d_50">
      <g>
       <use xlink:href="#mcbfbd10310" x="57.6" y="53.450479" style="stroke: #000000; stroke-width: 0.8"/>
      </g>
     </g>
     <g id="text_10">
      <!-- $\mathdefault{10^{14}}$ -->
      <g transform="translate(6.4 61.048916) scale(0.2 -0.2)">
       <defs>
        <path id="DejaVuSans-34" d="M 2419 4116 
L 825 1625 
L 2419 1625 
L 2419 4116 
z
M 2253 4666 
L 3047 4666 
L 3047 1625 
L 3713 1625 
L 3713 1100 
L 3047 1100 
L 3047 0 
L 2419 0 
L 2419 1100 
L 313 1100 
L 313 1709 
L 2253 4666 
z
" transform="scale(0.015625)"/>
       </defs>
       <use xlink:href="#DejaVuSans-31" transform="translate(0 0.684375)"/>
       <use xlink:href="#DejaVuSans-30" transform="translate(63.623047 0.684375)"/>
       <use xlink:href="#DejaVuSans-31" transform="translate(128.203125 38.965625) scale(0.7)"/>
       <use xlink:href="#DejaVuSans-34" transform="translate(172.739258 38.965625) scale(0.7)"/>
      </g>
     </g>
    </g>
    <g id="text_11">
     <!-- ph/s/eV/500mA -->
     <g transform="translate(-4.559375 251.192062) rotate(-90) scale(0.2 -0.2)">
      <defs>
       <path id="DejaVuSans-70" d="M 1159 525 
L 1159 -1331 
L 581 -1331 
L 581 3500 
L 1159 3500 
L 1159 2969 
Q 1341 3281 1617 3432 
Q 1894 3584 2278 3584 
Q 2916 3584 3314 3078 
Q 3713 2572 3713 1747 
Q 3713 922 3314 415 
Q 2916 -91 2278 -91 
Q 1894 -91 1617 61 
Q 1341 213 1159 525 
z
M 3116 1747 
Q 3116 2381 2855 2742 
Q 2594 3103 2138 3103 
Q 1681 3103 1420 2742 
Q 1159 2381 1159 1747 
Q 1159 1113 1420 752 
Q 1681 391 2138 391 
Q 2594 391 2855 752 
Q 3116 1113 3116 1747 
z
" transform="scale(0.015625)"/>
       <path id="DejaVuSans-68" d="M 3513 2113 
L 3513 0 
L 2938 0 
L 2938 2094 
Q 2938 2591 2744 2837 
Q 2550 3084 2163 3084 
Q 1697 3084 1428 2787 
Q 1159 2491 1159 1978 
L 1159 0 
L 581 0 
L 581 4863 
L 1159 4863 
L 1159 2956 
Q 1366 3272 1645 3428 
Q 1925 3584 2291 3584 
Q 2894 3584 3203 3211 
Q 3513 2838 3513 2113 
z
" transform="scale(0.015625)"/>
       <path id="DejaVuSans-2f" d="M 1625 4666 
L 2156 4666 
L 531 -594 
L 0 -594 
L 1625 4666 
z
" transform="scale(0.015625)"/>
       <path id="DejaVuSans-73" d="M 2834 3397 
L 2834 2853 
Q 2591 2978 2328 3040 
Q 2066 3103 1784 3103 
Q 1356 3103 1142 2972 
Q 928 2841 928 2578 
Q 928 2378 1081 2264 
Q 1234 2150 1697 2047 
L 1894 2003 
Q 2506 1872 2764 1633 
Q 3022 1394 3022 966 
Q 3022 478 2636 193 
Q 2250 -91 1575 -91 
Q 1294 -91 989 -36 
Q 684 19 347 128 
L 347 722 
Q 666 556 975 473 
Q 1284 391 1588 391 
Q 1994 391 2212 530 
Q 2431 669 2431 922 
Q 2431 1156 2273 1281 
Q 2116 1406 1581 1522 
L 1381 1569 
Q 847 1681 609 1914 
Q 372 2147 372 2553 
Q 372 3047 722 3315 
Q 1072 3584 1716 3584 
Q 2034 3584 2315 3537 
Q 2597 3491 2834 3397 
z
" transform="scale(0.015625)"/>
       <path id="DejaVuSans-35" d="M 691 4666 
L 3169 4666 
L 3169 4134 
L 1269 4134 
L 1269 2991 
Q 1406 3038 1543 3061 
Q 1681 3084 1819 3084 
Q 2600 3084 3056 2656 
Q 3513 2228 3513 1497 
Q 3513 744 3044 326 
Q 2575 -91 1722 -91 
Q 1428 -91 1123 -41 
Q 819 9 494 109 
L 494 744 
Q 775 591 1075 516 
Q 1375 441 1709 441 
Q 2250 441 2565 725 
Q 2881 1009 2881 1497 
Q 2881 1984 2565 2268 
Q 2250 2553 1709 2553 
Q 1456 2553 1204 2497 
Q 953 2441 691 2322 
L 691 4666 
z
" transform="scale(0.015625)"/>
       <path id="DejaVuSans-6d" d="M 3328 2828 
Q 3544 3216 3844 3400 
Q 4144 3584 4550 3584 
Q 5097 3584 5394 3201 
Q 5691 2819 5691 2113 
L 5691 0 
L 5113 0 
L 5113 2094 
Q 5113 2597 4934 2840 
Q 4756 3084 4391 3084 
Q 3944 3084 3684 2787 
Q 3425 2491 3425 1978 
L 3425 0 
L 2847 0 
L 2847 2094 
Q 2847 2600 2669 2842 
Q 2491 3084 2119 3084 
Q 1678 3084 1418 2786 
Q 1159 2488 1159 1978 
L 1159 0 
L 581 0 
L 581 3500 
L 1159 3500 
L 1159 2956 
Q 1356 3278 1631 3431 
Q 1906 3584 2284 3584 
Q 2666 3584 2933 3390 
Q 3200 3197 3328 2828 
z
" transform="scale(0.015625)"/>
       <path id="DejaVuSans-41" d="M 2188 4044 
L 1331 1722 
L 3047 1722 
L 2188 4044 
z
M 1831 4666 
L 2547 4666 
L 4325 0 
L 3669 0 
L 3244 1197 
L 1141 1197 
L 716 0 
L 50 0 
L 1831 4666 
z
" transform="scale(0.015625)"/>
      </defs>
      <use xlink:href="#DejaVuSans-70"/>
      <use xlink:href="#DejaVuSans-68" x="63.476562"/>
      <use xlink:href="#DejaVuSans-2f" x="126.855469"/>
      <use xlink:href="#DejaVuSans-73" x="160.546875"/>
      <use xlink:href="#DejaVuSans-2f" x="212.646484"/>
      <use xlink:href="#DejaVuSans-65" x="246.337891"/>
      <use xlink:href="#DejaVuSans-56" x="307.861328"/>
      <use xlink:href="#DejaVuSans-2f" x="376.269531"/>
      <use xlink:href="#DejaVuSans-35" x="409.960938"/>
      <use xlink:href="#DejaVuSans-30" x="473.583984"/>
      <use xlink:href="#DejaVuSans-30" x="537.207031"/>
      <use xlink:href="#DejaVuSans-6d" x="600.830078"/>
      <use xlink:href="#DejaVuSans-41" x="698.242188"/>
     </g>
    </g>
   </g>
   <g id="line2d_51">
    <path d="M 73.832727 53.568 
L 130.006338 56.101746 
L 151.104314 57.26024 
L 169.091819 58.465646 
L 184.502455 59.727168 
L 206.966026 62.026679 
L 216.424484 63.160061 
L 228.04225 64.691671 
L 230.262679 64.997581 
L 244.567896 67.132931 
L 246.372943 67.426018 
L 251.168306 68.214876 
L 252.7392 68.484515 
L 256.040273 69.060803 
L 257.466474 69.320259 
L 260.138328 69.80636 
L 261.457511 70.057044 
L 263.756076 70.49379 
L 264.930908 70.726131 
L 266.898601 71.114898 
L 267.956586 71.332866 
L 269.702536 71.688915 
L 270.63703 71.886582 
L 272.14659 72.207552 
L 273.025149 72.399395 
L 274.470232 72.714727 
L 275.27591 72.898488 
L 276.597604 73.19457 
L 277.339468 73.366031 
L 290.115905 76.606271 
L 297.498673 78.792081 
L 311.306042 83.712909 
L 313.236146 84.509004 
L 314.511 85.051052 
L 315.477341 85.472621 
L 317.044552 86.171531 
L 317.689761 86.466678 
L 319.900551 87.507631 
L 323.894039 89.520028 
L 325.410526 90.330533 
L 325.688048 90.479236 
L 326.576643 90.973488 
L 326.852148 91.124098 
L 327.511556 91.500585 
L 327.774623 91.649416 
L 328.313148 91.960173 
L 328.565061 92.10581 
L 329.029466 92.379799 
L 329.28256 92.527471 
L 329.698888 92.777985 
L 329.942066 92.920673 
L 330.317986 93.150615 
L 330.55736 93.29331 
L 330.910948 93.513392 
L 331.146734 93.655753 
L 331.46796 93.856368 
L 333.134552 94.914465 
L 337.272713 97.726674 
L 345.713487 104.380719 
L 348.26609 106.671142 
L 348.906847 107.269075 
L 349.048978 107.400629 
L 349.513355 107.841508 
L 349.649896 107.968958 
L 350.029699 108.336246 
L 350.167817 108.467653 
L 350.499327 108.791597 
L 350.632478 108.919981 
L 350.930423 109.21546 
L 351.065404 109.346535 
L 351.907503 110.186519 
L 353.415619 111.735241 
L 354.601447 112.992264 
L 360.938758 120.349138 
L 362.549832 122.404574 
L 362.647744 122.530474 
L 363.007907 123.004681 
L 363.102265 123.126607 
L 363.405571 123.529872 
L 363.498977 123.650504 
L 363.768363 124.011306 
L 367.575478 129.343118 
L 368.019157 129.997951 
L 368.252899 130.343764 
L 369.735036 132.589445 
L 370.396453 133.617337 
L 372.529486 137.043327 
L 372.837857 137.55602 
L 372.913161 137.678326 
L 373.17559 138.115735 
L 376.848195 144.529595 
L 377.825815 146.332747 
L 378.367841 147.348443 
L 378.627127 147.839961 
L 382.62542 155.803945 
L 383.609392 157.881128 
L 383.804961 158.299018 
L 384.678004 160.189466 
L 385.251686 161.454894 
L 388.783055 169.615259 
L 389.528258 171.424679 
L 391.422995 176.172549 
L 391.468682 176.288525 
L 392.075095 177.854275 
L 392.120027 177.968884 
L 392.412547 178.735423 
L 392.458235 178.851323 
L 392.69836 179.48592 
L 393.499048 181.618367 
L 395.005868 185.740185 
L 395.585556 187.366271 
L 396.223199 189.180797 
L 397.247562 192.153205 
L 397.287943 192.26803 
L 397.526355 192.973409 
L 398.487273 195.846621 
L 398.487273 195.846621 
" clip-path="url(#p7b8777436b)" style="fill: none; stroke: #ff0000; stroke-width: 1.5; stroke-linecap: square"/>
   </g>
   <g id="line2d_52">
    <path d="M 73.832727 66.001256 
L 137.6062 69.116264 
L 148.287051 69.63233 
L 190.898672 71.823375 
L 193.190628 72.072915 
L 193.375702 72.489093 
L 193.559905 72.518627 
L 193.925731 72.392989 
L 194.647282 72.437298 
L 194.825611 72.569587 
L 196.904492 72.467694 
L 201.813685 72.687593 
L 202.841892 72.766443 
L 207.996166 73.033627 
L 230.763145 74.468725 
L 248.280469 75.950587 
L 259.631942 77.199342 
L 259.801466 77.328151 
L 260.071187 77.606431 
L 261.619327 77.744181 
L 265.255994 78.298315 
L 265.549201 78.412206 
L 267.039454 78.651981 
L 267.431168 78.72436 
L 271.699803 79.274214 
L 277.057472 80.091648 
L 280.274231 80.638918 
L 283.265179 81.191666 
L 285.151082 81.561603 
L 288.718924 82.313469 
L 290.069092 82.615756 
L 294.311709 83.641793 
L 295.293969 83.896588 
L 303.241878 86.449002 
L 304.890596 87.427273 
L 305.495339 88.153789 
L 305.830793 88.843754 
L 306.328645 90.269738 
L 307.265516 92.81054 
L 308.219788 94.897814 
L 309.294922 96.917365 
L 314.217226 104.363538 
L 314.90206 105.285708 
L 315.778037 106.449013 
L 316.396499 107.254728 
L 317.154131 108.237913 
L 317.720588 108.960519 
L 318.377571 109.796204 
L 318.904303 110.459585 
L 319.490366 111.197812 
L 319.995161 111.827628 
L 320.522227 112.488399 
L 321.006889 113.088683 
L 321.485623 113.683967 
L 332.097275 126.985121 
L 334.362189 130.123458 
L 334.623177 130.669509 
L 334.787906 130.799883 
L 335.130116 131.058058 
L 337.038266 133.283903 
L 337.829721 134.283914 
L 339.179615 136.016095 
L 341.709747 139.392164 
L 343.699363 142.134629 
L 343.909055 142.425437 
L 344.589685 143.385105 
L 344.790816 143.66849 
L 345.312016 144.412047 
L 345.513266 144.698182 
L 345.95016 145.326395 
L 346.144438 145.603056 
L 346.530123 146.163987 
L 346.72155 146.440807 
L 353.588559 156.92028 
L 363.070838 173.244055 
L 364.318038 175.579444 
L 365.088167 177.044689 
L 366.813661 180.396514 
L 367.528026 181.814409 
L 368.286782 183.336995 
L 370.249763 187.371297 
L 370.739921 188.402157 
L 370.839203 188.610238 
L 371.19848 189.372809 
L 371.294647 189.574186 
L 371.597304 190.221835 
L 377.360208 203.20887 
L 382.18267 215.18235 
L 384.371842 220.988973 
L 388.931986 233.904999 
L 390.028226 237.187084 
L 391.48975 241.676136 
L 391.810219 242.677909 
L 394.65022 251.847593 
L 395.107349 253.37558 
L 396.190005 257.047103 
L 396.592641 258.435076 
L 396.642937 258.60678 
L 396.918925 259.567495 
L 397.79222 262.636615 
L 398.487273 265.119708 
L 398.487273 265.119708 
" clip-path="url(#p7b8777436b)" style="fill: none; stroke-dasharray: 5.55,2.4; stroke-dashoffset: 0; stroke: #1f77b4; stroke-width: 1.5"/>
   </g>
   <g id="line2d_53">
    <path d="M 100.964634 65.434931 
L 178.776134 69.06499 
L 187.617752 69.57862 
L 188.043224 70.708016 
L 188.672885 70.4805 
L 191.677664 70.424689 
L 196.223726 70.551561 
L 209.369748 71.190926 
L 223.951948 72.086914 
L 243.964135 73.788126 
L 248.506861 74.346707 
L 251.041561 74.847758 
L 251.837435 75.202381 
L 252.249905 75.628799 
L 252.53607 76.294127 
L 253.897009 80.399302 
L 254.945027 82.495026 
L 256.337094 84.739018 
L 257.966028 86.970407 
L 260.003931 89.42732 
L 262.544889 92.183987 
L 265.927117 95.542153 
L 271.070682 100.268258 
L 288.426931 115.169872 
L 296.886948 122.513192 
L 298.164518 123.646174 
L 304.341475 129.242007 
L 312.582803 137.088909 
L 314.494272 138.984493 
L 314.9765 139.466466 
L 316.220791 140.722983 
L 316.682332 141.190869 
L 317.643474 142.176185 
L 318.081003 142.625206 
L 318.874394 143.448506 
L 319.298451 143.888606 
L 319.980621 144.60425 
L 320.392923 145.035527 
L 320.992719 145.672871 
L 321.387537 146.09009 
L 321.917071 146.658943 
L 322.295867 147.062053 
L 322.779499 147.587302 
L 323.156784 147.992957 
L 334.417543 160.967337 
L 341.801466 170.452299 
L 351.852782 184.944455 
L 353.020561 186.766267 
L 356.833631 192.942321 
L 357.203428 193.561614 
L 360.669679 199.536628 
L 361.020396 200.16102 
L 361.145076 200.380551 
L 361.453789 200.934479 
L 368.743444 214.837075 
L 373.836928 225.636539 
L 375.656612 229.740782 
L 376.021386 230.57873 
L 376.583662 231.88391 
L 377.380348 233.756017 
L 382.360372 246.107021 
L 386.419738 257.081516 
L 394.427238 281.497618 
L 395.074263 283.648718 
L 396.014235 286.826719 
L 396.523764 288.576605 
L 396.574149 288.747988 
L 396.864903 289.755682 
L 397.591489 292.298867 
L 398.487273 295.488 
L 398.487273 295.488 
" clip-path="url(#p7b8777436b)" style="fill: none; stroke-dasharray: 9.6,2.4,1.5,2.4; stroke-dashoffset: 0; stroke: #ff7f0e; stroke-width: 1.5"/>
   </g>
   <g id="line2d_54">
    <path d="M 73.832727 64.028697 
L 116.835782 66.132538 
L 118.119277 66.398892 
L 129.063086 66.888412 
L 161.122332 68.311231 
L 203.984837 70.553985 
L 206.966026 70.850635 
L 207.226114 71.32864 
L 208.375585 71.287512 
L 208.875823 71.434832 
L 209.123565 71.506821 
L 210.696759 71.487821 
L 212.094874 71.607631 
L 212.662998 71.632654 
L 216.321881 71.772914 
L 232.021424 72.782676 
L 242.04166 73.611792 
L 264.841777 76.230693 
L 271.674831 77.305399 
L 279.952064 79.049451 
L 281.107516 79.550077 
L 281.556432 79.974552 
L 281.827185 80.549523 
L 282.267969 82.257703 
L 282.948078 84.461453 
L 283.964838 86.862425 
L 286.078314 91.00115 
L 286.678811 92.251963 
L 286.96719 93.451234 
L 287.034736 93.831977 
L 287.102166 93.687708 
L 287.37073 93.357612 
L 287.951868 93.482256 
L 290.131497 95.580561 
L 300.289561 106.192472 
L 316.832351 123.26222 
L 317.797551 124.296215 
L 318.240973 124.769869 
L 319.046058 125.642201 
L 319.475636 126.105123 
L 320.147511 126.837576 
L 320.558069 127.284643 
L 321.148302 127.934466 
L 321.548548 128.371528 
L 322.082814 128.964725 
L 322.473666 129.396801 
L 322.948379 129.926599 
L 326.169027 133.568034 
L 336.683943 146.276188 
L 337.871178 147.804142 
L 338.947391 149.207353 
L 340.454347 151.202746 
L 344.058712 156.127687 
L 344.77924 157.141004 
L 344.971722 157.412536 
L 345.509478 158.17674 
L 345.70595 158.454506 
L 346.155617 159.101485 
L 346.345172 159.370622 
L 346.736237 159.938226 
L 346.923008 160.208563 
L 353.033065 169.464907 
L 356.949745 175.842526 
L 357.307244 176.443782 
L 361.35284 183.48523 
L 367.586254 195.272508 
L 368.029812 196.159394 
L 369.281608 198.697334 
L 370.604491 201.441781 
L 370.704117 201.648928 
L 371.092225 202.470706 
L 371.190619 202.674248 
L 371.507727 203.350196 
L 375.944873 213.18861 
L 376.552826 214.599962 
L 377.319896 216.402989 
L 381.496931 226.679764 
L 383.031278 230.66353 
L 383.375427 231.572429 
L 383.85619 232.854285 
L 384.771193 235.325197 
L 385.817081 238.203973 
L 385.881952 238.383183 
L 386.192651 239.251677 
L 389.65109 249.276284 
L 390.030655 250.419547 
L 391.461656 254.807078 
L 391.790484 255.834724 
L 391.846181 256.008356 
L 395.107349 266.577417 
L 395.407045 267.584654 
L 398.487273 278.310014 
L 398.487273 278.310014 
" clip-path="url(#p7b8777436b)" style="fill: none; stroke-dasharray: 1.5,2.475; stroke-dashoffset: 0; stroke: #2ca02c; stroke-width: 1.5"/>
   </g>
   <g id="patch_3">
    <path d="M 57.6 307.584 
L 57.6 41.472 
" style="fill: none; stroke: #000000; stroke-width: 0.8; stroke-linejoin: miter; stroke-linecap: square"/>
   </g>
   <g id="patch_4">
    <path d="M 414.72 307.584 
L 414.72 41.472 
" style="fill: none; stroke: #000000; stroke-width: 0.8; stroke-linejoin: miter; stroke-linecap: square"/>
   </g>
   <g id="patch_5">
    <path d="M 57.6 307.584 
L 414.72 307.584 
" style="fill: none; stroke: #000000; stroke-width: 0.8; stroke-linejoin: miter; stroke-linecap: square"/>
   </g>
   <g id="patch_6">
    <path d="M 57.6 41.472 
L 414.72 41.472 
" style="fill: none; stroke: #000000; stroke-width: 0.8; stroke-linejoin: miter; stroke-linecap: square"/>
   </g>
   <g id="legend_1">
    <g id="patch_7">
     <path d="M -33.051875 177.122 
L 400.72 177.122 
Q 404.72 177.122 404.72 173.122 
L 404.72 55.472 
Q 404.72 51.472 400.72 51.472 
L -33.051875 51.472 
Q -37.051875 51.472 -37.051875 55.472 
L -37.051875 173.122 
Q -37.051875 177.122 -33.051875 177.122 
z
" style="fill: #ffffff; opacity: 0.8; stroke: #cccccc; stroke-linejoin: miter"/>
    </g>
    <g id="line2d_55">
     <path d="M -1 67.668875 
L 10.948125 67.668875 
" style="fill: none; stroke: #ff0000; stroke-width: 1.5; stroke-linecap: square"/>
    </g>
    <g id="text_12">
     <!-- BC_2mrad -->
     <g transform="translate(26.948125 74.668875) scale(0.2 -0.2)">
      <defs>
       <path id="DejaVuSans-42" d="M 1259 2228 
L 1259 519 
L 2272 519 
Q 2781 519 3026 730 
Q 3272 941 3272 1375 
Q 3272 1813 3026 2020 
Q 2781 2228 2272 2228 
L 1259 2228 
z
M 1259 4147 
L 1259 2741 
L 2194 2741 
Q 2656 2741 2882 2914 
Q 3109 3088 3109 3444 
Q 3109 3797 2882 3972 
Q 2656 4147 2194 4147 
L 1259 4147 
z
M 628 4666 
L 2241 4666 
Q 2963 4666 3353 4366 
Q 3744 4066 3744 3513 
Q 3744 3084 3544 2831 
Q 3344 2578 2956 2516 
Q 3422 2416 3680 2098 
Q 3938 1781 3938 1306 
Q 3938 681 3513 340 
Q 3088 0 2303 0 
L 628 0 
L 628 4666 
z
" transform="scale(0.015625)"/>
       <path id="DejaVuSans-43" d="M 4122 4306 
L 4122 3641 
Q 3803 3938 3442 4084 
Q 3081 4231 2675 4231 
Q 1875 4231 1450 3742 
Q 1025 3253 1025 2328 
Q 1025 1406 1450 917 
Q 1875 428 2675 428 
Q 3081 428 3442 575 
Q 3803 722 4122 1019 
L 4122 359 
Q 3791 134 3420 21 
Q 3050 -91 2638 -91 
Q 1578 -91 968 557 
Q 359 1206 359 2328 
Q 359 3453 968 4101 
Q 1578 4750 2638 4750 
Q 3056 4750 3426 4639 
Q 3797 4528 4122 4306 
z
" transform="scale(0.015625)"/>
       <path id="DejaVuSans-5f" d="M 3263 -1063 
L 3263 -1509 
L -63 -1509 
L -63 -1063 
L 3263 -1063 
z
" transform="scale(0.015625)"/>
       <path id="DejaVuSans-61" d="M 2194 1759 
Q 1497 1759 1228 1600 
Q 959 1441 959 1056 
Q 959 750 1161 570 
Q 1363 391 1709 391 
Q 2188 391 2477 730 
Q 2766 1069 2766 1631 
L 2766 1759 
L 2194 1759 
z
M 3341 1997 
L 3341 0 
L 2766 0 
L 2766 531 
Q 2569 213 2275 61 
Q 1981 -91 1556 -91 
Q 1019 -91 701 211 
Q 384 513 384 1019 
Q 384 1609 779 1909 
Q 1175 2209 1959 2209 
L 2766 2209 
L 2766 2266 
Q 2766 2663 2505 2880 
Q 2244 3097 1772 3097 
Q 1472 3097 1187 3025 
Q 903 2953 641 2809 
L 641 3341 
Q 956 3463 1253 3523 
Q 1550 3584 1831 3584 
Q 2591 3584 2966 3190 
Q 3341 2797 3341 1997 
z
" transform="scale(0.015625)"/>
       <path id="DejaVuSans-64" d="M 2906 2969 
L 2906 4863 
L 3481 4863 
L 3481 0 
L 2906 0 
L 2906 525 
Q 2725 213 2448 61 
Q 2172 -91 1784 -91 
Q 1150 -91 751 415 
Q 353 922 353 1747 
Q 353 2572 751 3078 
Q 1150 3584 1784 3584 
Q 2172 3584 2448 3432 
Q 2725 3281 2906 2969 
z
M 947 1747 
Q 947 1113 1208 752 
Q 1469 391 1925 391 
Q 2381 391 2643 752 
Q 2906 1113 2906 1747 
Q 2906 2381 2643 2742 
Q 2381 3103 1925 3103 
Q 1469 3103 1208 2742 
Q 947 2381 947 1747 
z
" transform="scale(0.015625)"/>
      </defs>
      <use xlink:href="#DejaVuSans-42"/>
      <use xlink:href="#DejaVuSans-43" x="66.853516"/>
      <use xlink:href="#DejaVuSans-5f" x="136.677734"/>
      <use xlink:href="#DejaVuSans-32" x="186.677734"/>
      <use xlink:href="#DejaVuSans-6d" x="250.300781"/>
      <use xlink:href="#DejaVuSans-72" x="347.712891"/>
      <use xlink:href="#DejaVuSans-61" x="388.826172"/>
      <use xlink:href="#DejaVuSans-64" x="450.105469"/>
     </g>
    </g>
    <g id="line2d_56">
     <path d="M -1 97.581375 
L 10.948125 97.581375 
" style="fill: none; stroke-dasharray: 5.55,2.4; stroke-dashoffset: 0; stroke: #1f77b4; stroke-width: 1.5"/>
    </g>
    <g id="text_13">
     <!-- Flux_Pt_2p25mrad_1p1X0p18mrad2 -->
     <g transform="translate(26.948125 104.581375) scale(0.2 -0.2)">
      <defs>
       <path id="DejaVuSans-46" d="M 628 4666 
L 3309 4666 
L 3309 4134 
L 1259 4134 
L 1259 2759 
L 3109 2759 
L 3109 2228 
L 1259 2228 
L 1259 0 
L 628 0 
L 628 4666 
z
" transform="scale(0.015625)"/>
       <path id="DejaVuSans-6c" d="M 603 4863 
L 1178 4863 
L 1178 0 
L 603 0 
L 603 4863 
z
" transform="scale(0.015625)"/>
       <path id="DejaVuSans-75" d="M 544 1381 
L 544 3500 
L 1119 3500 
L 1119 1403 
Q 1119 906 1312 657 
Q 1506 409 1894 409 
Q 2359 409 2629 706 
Q 2900 1003 2900 1516 
L 2900 3500 
L 3475 3500 
L 3475 0 
L 2900 0 
L 2900 538 
Q 2691 219 2414 64 
Q 2138 -91 1772 -91 
Q 1169 -91 856 284 
Q 544 659 544 1381 
z
M 1991 3584 
L 1991 3584 
z
" transform="scale(0.015625)"/>
       <path id="DejaVuSans-78" d="M 3513 3500 
L 2247 1797 
L 3578 0 
L 2900 0 
L 1881 1375 
L 863 0 
L 184 0 
L 1544 1831 
L 300 3500 
L 978 3500 
L 1906 2253 
L 2834 3500 
L 3513 3500 
z
" transform="scale(0.015625)"/>
       <path id="DejaVuSans-50" d="M 1259 4147 
L 1259 2394 
L 2053 2394 
Q 2494 2394 2734 2622 
Q 2975 2850 2975 3272 
Q 2975 3691 2734 3919 
Q 2494 4147 2053 4147 
L 1259 4147 
z
M 628 4666 
L 2053 4666 
Q 2838 4666 3239 4311 
Q 3641 3956 3641 3272 
Q 3641 2581 3239 2228 
Q 2838 1875 2053 1875 
L 1259 1875 
L 1259 0 
L 628 0 
L 628 4666 
z
" transform="scale(0.015625)"/>
       <path id="DejaVuSans-74" d="M 1172 4494 
L 1172 3500 
L 2356 3500 
L 2356 3053 
L 1172 3053 
L 1172 1153 
Q 1172 725 1289 603 
Q 1406 481 1766 481 
L 2356 481 
L 2356 0 
L 1766 0 
Q 1100 0 847 248 
Q 594 497 594 1153 
L 594 3053 
L 172 3053 
L 172 3500 
L 594 3500 
L 594 4494 
L 1172 4494 
z
" transform="scale(0.015625)"/>
       <path id="DejaVuSans-58" d="M 403 4666 
L 1081 4666 
L 2241 2931 
L 3406 4666 
L 4084 4666 
L 2584 2425 
L 4184 0 
L 3506 0 
L 2194 1984 
L 872 0 
L 191 0 
L 1856 2491 
L 403 4666 
z
" transform="scale(0.015625)"/>
       <path id="DejaVuSans-38" d="M 2034 2216 
Q 1584 2216 1326 1975 
Q 1069 1734 1069 1313 
Q 1069 891 1326 650 
Q 1584 409 2034 409 
Q 2484 409 2743 651 
Q 3003 894 3003 1313 
Q 3003 1734 2745 1975 
Q 2488 2216 2034 2216 
z
M 1403 2484 
Q 997 2584 770 2862 
Q 544 3141 544 3541 
Q 544 4100 942 4425 
Q 1341 4750 2034 4750 
Q 2731 4750 3128 4425 
Q 3525 4100 3525 3541 
Q 3525 3141 3298 2862 
Q 3072 2584 2669 2484 
Q 3125 2378 3379 2068 
Q 3634 1759 3634 1313 
Q 3634 634 3220 271 
Q 2806 -91 2034 -91 
Q 1263 -91 848 271 
Q 434 634 434 1313 
Q 434 1759 690 2068 
Q 947 2378 1403 2484 
z
M 1172 3481 
Q 1172 3119 1398 2916 
Q 1625 2713 2034 2713 
Q 2441 2713 2670 2916 
Q 2900 3119 2900 3481 
Q 2900 3844 2670 4047 
Q 2441 4250 2034 4250 
Q 1625 4250 1398 4047 
Q 1172 3844 1172 3481 
z
" transform="scale(0.015625)"/>
      </defs>
      <use xlink:href="#DejaVuSans-46"/>
      <use xlink:href="#DejaVuSans-6c" x="57.519531"/>
      <use xlink:href="#DejaVuSans-75" x="85.302734"/>
      <use xlink:href="#DejaVuSans-78" x="148.681641"/>
      <use xlink:href="#DejaVuSans-5f" x="207.861328"/>
      <use xlink:href="#DejaVuSans-50" x="257.861328"/>
      <use xlink:href="#DejaVuSans-74" x="318.164062"/>
      <use xlink:href="#DejaVuSans-5f" x="357.373047"/>
      <use xlink:href="#DejaVuSans-32" x="407.373047"/>
      <use xlink:href="#DejaVuSans-70" x="470.996094"/>
      <use xlink:href="#DejaVuSans-32" x="534.472656"/>
      <use xlink:href="#DejaVuSans-35" x="598.095703"/>
      <use xlink:href="#DejaVuSans-6d" x="661.71875"/>
      <use xlink:href="#DejaVuSans-72" x="759.130859"/>
      <use xlink:href="#DejaVuSans-61" x="800.244141"/>
      <use xlink:href="#DejaVuSans-64" x="861.523438"/>
      <use xlink:href="#DejaVuSans-5f" x="925"/>
      <use xlink:href="#DejaVuSans-31" x="975"/>
      <use xlink:href="#DejaVuSans-70" x="1038.623047"/>
      <use xlink:href="#DejaVuSans-31" x="1102.099609"/>
      <use xlink:href="#DejaVuSans-58" x="1165.722656"/>
      <use xlink:href="#DejaVuSans-30" x="1234.228516"/>
      <use xlink:href="#DejaVuSans-70" x="1297.851562"/>
      <use xlink:href="#DejaVuSans-31" x="1361.328125"/>
      <use xlink:href="#DejaVuSans-38" x="1424.951172"/>
      <use xlink:href="#DejaVuSans-6d" x="1488.574219"/>
      <use xlink:href="#DejaVuSans-72" x="1585.986328"/>
      <use xlink:href="#DejaVuSans-61" x="1627.099609"/>
      <use xlink:href="#DejaVuSans-64" x="1688.378906"/>
      <use xlink:href="#DejaVuSans-32" x="1751.855469"/>
     </g>
    </g>
    <g id="line2d_57">
     <path d="M -1 127.493875 
L 10.948125 127.493875 
" style="fill: none; stroke-dasharray: 9.6,2.4,1.5,2.4; stroke-dashoffset: 0; stroke: #ff7f0e; stroke-width: 1.5"/>
    </g>
    <g id="text_14">
     <!-- Flux_Si_3p25mrad_1p1X0p26mrad2 -->
     <g transform="translate(26.948125 134.493875) scale(0.2 -0.2)">
      <defs>
       <path id="DejaVuSans-53" d="M 3425 4513 
L 3425 3897 
Q 3066 4069 2747 4153 
Q 2428 4238 2131 4238 
Q 1616 4238 1336 4038 
Q 1056 3838 1056 3469 
Q 1056 3159 1242 3001 
Q 1428 2844 1947 2747 
L 2328 2669 
Q 3034 2534 3370 2195 
Q 3706 1856 3706 1288 
Q 3706 609 3251 259 
Q 2797 -91 1919 -91 
Q 1588 -91 1214 -16 
Q 841 59 441 206 
L 441 856 
Q 825 641 1194 531 
Q 1563 422 1919 422 
Q 2459 422 2753 634 
Q 3047 847 3047 1241 
Q 3047 1584 2836 1778 
Q 2625 1972 2144 2069 
L 1759 2144 
Q 1053 2284 737 2584 
Q 422 2884 422 3419 
Q 422 4038 858 4394 
Q 1294 4750 2059 4750 
Q 2388 4750 2728 4690 
Q 3069 4631 3425 4513 
z
" transform="scale(0.015625)"/>
       <path id="DejaVuSans-69" d="M 603 3500 
L 1178 3500 
L 1178 0 
L 603 0 
L 603 3500 
z
M 603 4863 
L 1178 4863 
L 1178 4134 
L 603 4134 
L 603 4863 
z
" transform="scale(0.015625)"/>
       <path id="DejaVuSans-33" d="M 2597 2516 
Q 3050 2419 3304 2112 
Q 3559 1806 3559 1356 
Q 3559 666 3084 287 
Q 2609 -91 1734 -91 
Q 1441 -91 1130 -33 
Q 819 25 488 141 
L 488 750 
Q 750 597 1062 519 
Q 1375 441 1716 441 
Q 2309 441 2620 675 
Q 2931 909 2931 1356 
Q 2931 1769 2642 2001 
Q 2353 2234 1838 2234 
L 1294 2234 
L 1294 2753 
L 1863 2753 
Q 2328 2753 2575 2939 
Q 2822 3125 2822 3475 
Q 2822 3834 2567 4026 
Q 2313 4219 1838 4219 
Q 1578 4219 1281 4162 
Q 984 4106 628 3988 
L 628 4550 
Q 988 4650 1302 4700 
Q 1616 4750 1894 4750 
Q 2613 4750 3031 4423 
Q 3450 4097 3450 3541 
Q 3450 3153 3228 2886 
Q 3006 2619 2597 2516 
z
" transform="scale(0.015625)"/>
      </defs>
      <use xlink:href="#DejaVuSans-46"/>
      <use xlink:href="#DejaVuSans-6c" x="57.519531"/>
      <use xlink:href="#DejaVuSans-75" x="85.302734"/>
      <use xlink:href="#DejaVuSans-78" x="148.681641"/>
      <use xlink:href="#DejaVuSans-5f" x="207.861328"/>
      <use xlink:href="#DejaVuSans-53" x="257.861328"/>
      <use xlink:href="#DejaVuSans-69" x="321.337891"/>
      <use xlink:href="#DejaVuSans-5f" x="349.121094"/>
      <use xlink:href="#DejaVuSans-33" x="399.121094"/>
      <use xlink:href="#DejaVuSans-70" x="462.744141"/>
      <use xlink:href="#DejaVuSans-32" x="526.220703"/>
      <use xlink:href="#DejaVuSans-35" x="589.84375"/>
      <use xlink:href="#DejaVuSans-6d" x="653.466797"/>
      <use xlink:href="#DejaVuSans-72" x="750.878906"/>
      <use xlink:href="#DejaVuSans-61" x="791.992188"/>
      <use xlink:href="#DejaVuSans-64" x="853.271484"/>
      <use xlink:href="#DejaVuSans-5f" x="916.748047"/>
      <use xlink:href="#DejaVuSans-31" x="966.748047"/>
      <use xlink:href="#DejaVuSans-70" x="1030.371094"/>
      <use xlink:href="#DejaVuSans-31" x="1093.847656"/>
      <use xlink:href="#DejaVuSans-58" x="1157.470703"/>
      <use xlink:href="#DejaVuSans-30" x="1225.976562"/>
      <use xlink:href="#DejaVuSans-70" x="1289.599609"/>
      <use xlink:href="#DejaVuSans-32" x="1353.076172"/>
      <use xlink:href="#DejaVuSans-36" x="1416.699219"/>
      <use xlink:href="#DejaVuSans-6d" x="1480.322266"/>
      <use xlink:href="#DejaVuSans-72" x="1577.734375"/>
      <use xlink:href="#DejaVuSans-61" x="1618.847656"/>
      <use xlink:href="#DejaVuSans-64" x="1680.126953"/>
      <use xlink:href="#DejaVuSans-32" x="1743.603516"/>
     </g>
    </g>
    <g id="line2d_58">
     <path d="M -1 157.406375 
L 10.948125 157.406375 
" style="fill: none; stroke-dasharray: 1.5,2.475; stroke-dashoffset: 0; stroke: #2ca02c; stroke-width: 1.5"/>
    </g>
    <g id="text_15">
     <!-- Flux_Rh_3p25mrad_1p1X0p26mrad2 -->
     <g transform="translate(26.948125 164.406375) scale(0.2 -0.2)">
      <defs>
       <path id="DejaVuSans-52" d="M 2841 2188 
Q 3044 2119 3236 1894 
Q 3428 1669 3622 1275 
L 4263 0 
L 3584 0 
L 2988 1197 
Q 2756 1666 2539 1819 
Q 2322 1972 1947 1972 
L 1259 1972 
L 1259 0 
L 628 0 
L 628 4666 
L 2053 4666 
Q 2853 4666 3247 4331 
Q 3641 3997 3641 3322 
Q 3641 2881 3436 2590 
Q 3231 2300 2841 2188 
z
M 1259 4147 
L 1259 2491 
L 2053 2491 
Q 2509 2491 2742 2702 
Q 2975 2913 2975 3322 
Q 2975 3731 2742 3939 
Q 2509 4147 2053 4147 
L 1259 4147 
z
" transform="scale(0.015625)"/>
      </defs>
      <use xlink:href="#DejaVuSans-46"/>
      <use xlink:href="#DejaVuSans-6c" x="57.519531"/>
      <use xlink:href="#DejaVuSans-75" x="85.302734"/>
      <use xlink:href="#DejaVuSans-78" x="148.681641"/>
      <use xlink:href="#DejaVuSans-5f" x="207.861328"/>
      <use xlink:href="#DejaVuSans-52" x="257.861328"/>
      <use xlink:href="#DejaVuSans-68" x="327.34375"/>
      <use xlink:href="#DejaVuSans-5f" x="390.722656"/>
      <use xlink:href="#DejaVuSans-33" x="440.722656"/>
      <use xlink:href="#DejaVuSans-70" x="504.345703"/>
      <use xlink:href="#DejaVuSans-32" x="567.822266"/>
      <use xlink:href="#DejaVuSans-35" x="631.445312"/>
      <use xlink:href="#DejaVuSans-6d" x="695.068359"/>
      <use xlink:href="#DejaVuSans-72" x="792.480469"/>
      <use xlink:href="#DejaVuSans-61" x="833.59375"/>
      <use xlink:href="#DejaVuSans-64" x="894.873047"/>
      <use xlink:href="#DejaVuSans-5f" x="958.349609"/>
      <use xlink:href="#DejaVuSans-31" x="1008.349609"/>
      <use xlink:href="#DejaVuSans-70" x="1071.972656"/>
      <use xlink:href="#DejaVuSans-31" x="1135.449219"/>
      <use xlink:href="#DejaVuSans-58" x="1199.072266"/>
      <use xlink:href="#DejaVuSans-30" x="1267.578125"/>
      <use xlink:href="#DejaVuSans-70" x="1331.201172"/>
      <use xlink:href="#DejaVuSans-32" x="1394.677734"/>
      <use xlink:href="#DejaVuSans-36" x="1458.300781"/>
      <use xlink:href="#DejaVuSans-6d" x="1521.923828"/>
      <use xlink:href="#DejaVuSans-72" x="1619.335938"/>
      <use xlink:href="#DejaVuSans-61" x="1660.449219"/>
      <use xlink:href="#DejaVuSans-64" x="1721.728516"/>
      <use xlink:href="#DejaVuSans-32" x="1785.205078"/>
     </g>
    </g>
   </g>
  </g>
 </g>
 <defs>
  <clipPath id="p7b8777436b">
   <rect x="57.6" y="41.472" width="357.12" height="266.112"/>
  </clipPath>
 </defs>
</svg>
