<?xml version="1.0" encoding="utf-8" standalone="no"?>
<!DOCTYPE svg PUBLIC "-//W3C//DTD SVG 1.1//EN"
  "http://www.w3.org/Graphics/SVG/1.1/DTD/svg11.dtd">
<!-- Created with matplotlib (http://matplotlib.org/) -->
<svg height="288pt" version="1.1" viewBox="0 0 432 288" width="432pt" xmlns="http://www.w3.org/2000/svg" xmlns:xlink="http://www.w3.org/1999/xlink">
 <defs>
  <style type="text/css">
*{stroke-linecap:butt;stroke-linejoin:round;}
  </style>
 </defs>
 <g id="figure_1">
  <g id="patch_1">
   <path d="M 0 288 
L 432 288 
L 432 0 
L 0 0 
z
" style="fill:#ffffff;"/>
  </g>
  <g id="axes_1">
   <g id="patch_2">
    <path d="M 54 252 
L 388.8 252 
L 388.8 34.56 
L 54 34.56 
z
" style="fill:#ffffff;"/>
   </g>
   <g id="matplotlib.axis_1">
    <g id="xtick_1">
     <g id="line2d_1">
      <path clip-path="url(#p3453051eb9)" d="M 65.365478 252 
L 65.365478 34.56 
" style="fill:none;stroke:#b0b0b0;stroke-linecap:square;stroke-width:0.8;"/>
     </g>
     <g id="line2d_2">
      <defs>
       <path d="M 0 0 
L 0 3.5 
" id="mc9a7f66186" style="stroke:#000000;stroke-width:0.8;"/>
      </defs>
      <g>
       <use style="stroke:#000000;stroke-width:0.8;" x="65.365478" xlink:href="#mc9a7f66186" y="252"/>
      </g>
     </g>
     <g id="text_1">
      <!-- 0 -->
      <defs>
       <path d="M 31.78125 66.40625 
Q 24.171875 66.40625 20.328125 58.90625 
Q 16.5 51.421875 16.5 36.375 
Q 16.5 21.390625 20.328125 13.890625 
Q 24.171875 6.390625 31.78125 6.390625 
Q 39.453125 6.390625 43.28125 13.890625 
Q 47.125 21.390625 47.125 36.375 
Q 47.125 51.421875 43.28125 58.90625 
Q 39.453125 66.40625 31.78125 66.40625 
z
M 31.78125 74.21875 
Q 44.046875 74.21875 50.515625 64.515625 
Q 56.984375 54.828125 56.984375 36.375 
Q 56.984375 17.96875 50.515625 8.265625 
Q 44.046875 -1.421875 31.78125 -1.421875 
Q 19.53125 -1.421875 13.0625 8.265625 
Q 6.59375 17.96875 6.59375 36.375 
Q 6.59375 54.828125 13.0625 64.515625 
Q 19.53125 74.21875 31.78125 74.21875 
z
" id="DejaVuSans-30"/>
      </defs>
      <g transform="translate(62.184228 266.598437)scale(0.1 -0.1)">
       <use xlink:href="#DejaVuSans-30"/>
      </g>
     </g>
    </g>
    <g id="xtick_2">
     <g id="line2d_3">
      <path clip-path="url(#p3453051eb9)" d="M 103.89252 252 
L 103.89252 34.56 
" style="fill:none;stroke:#b0b0b0;stroke-linecap:square;stroke-width:0.8;"/>
     </g>
     <g id="line2d_4">
      <g>
       <use style="stroke:#000000;stroke-width:0.8;" x="103.89252" xlink:href="#mc9a7f66186" y="252"/>
      </g>
     </g>
     <g id="text_2">
      <!-- 50000 -->
      <defs>
       <path d="M 10.796875 72.90625 
L 49.515625 72.90625 
L 49.515625 64.59375 
L 19.828125 64.59375 
L 19.828125 46.734375 
Q 21.96875 47.46875 24.109375 47.828125 
Q 26.265625 48.1875 28.421875 48.1875 
Q 40.625 48.1875 47.75 41.5 
Q 54.890625 34.8125 54.890625 23.390625 
Q 54.890625 11.625 47.5625 5.09375 
Q 40.234375 -1.421875 26.90625 -1.421875 
Q 22.3125 -1.421875 17.546875 -0.640625 
Q 12.796875 0.140625 7.71875 1.703125 
L 7.71875 11.625 
Q 12.109375 9.234375 16.796875 8.0625 
Q 21.484375 6.890625 26.703125 6.890625 
Q 35.15625 6.890625 40.078125 11.328125 
Q 45.015625 15.765625 45.015625 23.390625 
Q 45.015625 31 40.078125 35.4375 
Q 35.15625 39.890625 26.703125 39.890625 
Q 22.75 39.890625 18.8125 39.015625 
Q 14.890625 38.140625 10.796875 36.28125 
z
" id="DejaVuSans-35"/>
      </defs>
      <g transform="translate(87.98627 266.598437)scale(0.1 -0.1)">
       <use xlink:href="#DejaVuSans-35"/>
       <use x="63.623047" xlink:href="#DejaVuSans-30"/>
       <use x="127.246094" xlink:href="#DejaVuSans-30"/>
       <use x="190.869141" xlink:href="#DejaVuSans-30"/>
       <use x="254.492188" xlink:href="#DejaVuSans-30"/>
      </g>
     </g>
    </g>
    <g id="xtick_3">
     <g id="line2d_5">
      <path clip-path="url(#p3453051eb9)" d="M 142.419563 252 
L 142.419563 34.56 
" style="fill:none;stroke:#b0b0b0;stroke-linecap:square;stroke-width:0.8;"/>
     </g>
     <g id="line2d_6">
      <g>
       <use style="stroke:#000000;stroke-width:0.8;" x="142.419563" xlink:href="#mc9a7f66186" y="252"/>
      </g>
     </g>
     <g id="text_3">
      <!-- 100000 -->
      <defs>
       <path d="M 12.40625 8.296875 
L 28.515625 8.296875 
L 28.515625 63.921875 
L 10.984375 60.40625 
L 10.984375 69.390625 
L 28.421875 72.90625 
L 38.28125 72.90625 
L 38.28125 8.296875 
L 54.390625 8.296875 
L 54.390625 0 
L 12.40625 0 
z
" id="DejaVuSans-31"/>
      </defs>
      <g transform="translate(123.332063 266.598437)scale(0.1 -0.1)">
       <use xlink:href="#DejaVuSans-31"/>
       <use x="63.623047" xlink:href="#DejaVuSans-30"/>
       <use x="127.246094" xlink:href="#DejaVuSans-30"/>
       <use x="190.869141" xlink:href="#DejaVuSans-30"/>
       <use x="254.492188" xlink:href="#DejaVuSans-30"/>
       <use x="318.115234" xlink:href="#DejaVuSans-30"/>
      </g>
     </g>
    </g>
    <g id="xtick_4">
     <g id="line2d_7">
      <path clip-path="url(#p3453051eb9)" d="M 180.946605 252 
L 180.946605 34.56 
" style="fill:none;stroke:#b0b0b0;stroke-linecap:square;stroke-width:0.8;"/>
     </g>
     <g id="line2d_8">
      <g>
       <use style="stroke:#000000;stroke-width:0.8;" x="180.946605" xlink:href="#mc9a7f66186" y="252"/>
      </g>
     </g>
     <g id="text_4">
      <!-- 150000 -->
      <g transform="translate(161.859105 266.598437)scale(0.1 -0.1)">
       <use xlink:href="#DejaVuSans-31"/>
       <use x="63.623047" xlink:href="#DejaVuSans-35"/>
       <use x="127.246094" xlink:href="#DejaVuSans-30"/>
       <use x="190.869141" xlink:href="#DejaVuSans-30"/>
       <use x="254.492188" xlink:href="#DejaVuSans-30"/>
       <use x="318.115234" xlink:href="#DejaVuSans-30"/>
      </g>
     </g>
    </g>
    <g id="xtick_5">
     <g id="line2d_9">
      <path clip-path="url(#p3453051eb9)" d="M 219.473648 252 
L 219.473648 34.56 
" style="fill:none;stroke:#b0b0b0;stroke-linecap:square;stroke-width:0.8;"/>
     </g>
     <g id="line2d_10">
      <g>
       <use style="stroke:#000000;stroke-width:0.8;" x="219.473648" xlink:href="#mc9a7f66186" y="252"/>
      </g>
     </g>
     <g id="text_5">
      <!-- 200000 -->
      <defs>
       <path d="M 19.1875 8.296875 
L 53.609375 8.296875 
L 53.609375 0 
L 7.328125 0 
L 7.328125 8.296875 
Q 12.9375 14.109375 22.625 23.890625 
Q 32.328125 33.6875 34.8125 36.53125 
Q 39.546875 41.84375 41.421875 45.53125 
Q 43.3125 49.21875 43.3125 52.78125 
Q 43.3125 58.59375 39.234375 62.25 
Q 35.15625 65.921875 28.609375 65.921875 
Q 23.96875 65.921875 18.8125 64.3125 
Q 13.671875 62.703125 7.8125 59.421875 
L 7.8125 69.390625 
Q 13.765625 71.78125 18.9375 73 
Q 24.125 74.21875 28.421875 74.21875 
Q 39.75 74.21875 46.484375 68.546875 
Q 53.21875 62.890625 53.21875 53.421875 
Q 53.21875 48.921875 51.53125 44.890625 
Q 49.859375 40.875 45.40625 35.40625 
Q 44.1875 33.984375 37.640625 27.21875 
Q 31.109375 20.453125 19.1875 8.296875 
z
" id="DejaVuSans-32"/>
      </defs>
      <g transform="translate(200.386148 266.598437)scale(0.1 -0.1)">
       <use xlink:href="#DejaVuSans-32"/>
       <use x="63.623047" xlink:href="#DejaVuSans-30"/>
       <use x="127.246094" xlink:href="#DejaVuSans-30"/>
       <use x="190.869141" xlink:href="#DejaVuSans-30"/>
       <use x="254.492188" xlink:href="#DejaVuSans-30"/>
       <use x="318.115234" xlink:href="#DejaVuSans-30"/>
      </g>
     </g>
    </g>
    <g id="xtick_6">
     <g id="line2d_11">
      <path clip-path="url(#p3453051eb9)" d="M 258.00069 252 
L 258.00069 34.56 
" style="fill:none;stroke:#b0b0b0;stroke-linecap:square;stroke-width:0.8;"/>
     </g>
     <g id="line2d_12">
      <g>
       <use style="stroke:#000000;stroke-width:0.8;" x="258.00069" xlink:href="#mc9a7f66186" y="252"/>
      </g>
     </g>
     <g id="text_6">
      <!-- 250000 -->
      <g transform="translate(238.91319 266.598437)scale(0.1 -0.1)">
       <use xlink:href="#DejaVuSans-32"/>
       <use x="63.623047" xlink:href="#DejaVuSans-35"/>
       <use x="127.246094" xlink:href="#DejaVuSans-30"/>
       <use x="190.869141" xlink:href="#DejaVuSans-30"/>
       <use x="254.492188" xlink:href="#DejaVuSans-30"/>
       <use x="318.115234" xlink:href="#DejaVuSans-30"/>
      </g>
     </g>
    </g>
    <g id="xtick_7">
     <g id="line2d_13">
      <path clip-path="url(#p3453051eb9)" d="M 296.527733 252 
L 296.527733 34.56 
" style="fill:none;stroke:#b0b0b0;stroke-linecap:square;stroke-width:0.8;"/>
     </g>
     <g id="line2d_14">
      <g>
       <use style="stroke:#000000;stroke-width:0.8;" x="296.527733" xlink:href="#mc9a7f66186" y="252"/>
      </g>
     </g>
     <g id="text_7">
      <!-- 300000 -->
      <defs>
       <path d="M 40.578125 39.3125 
Q 47.65625 37.796875 51.625 33 
Q 55.609375 28.21875 55.609375 21.1875 
Q 55.609375 10.40625 48.1875 4.484375 
Q 40.765625 -1.421875 27.09375 -1.421875 
Q 22.515625 -1.421875 17.65625 -0.515625 
Q 12.796875 0.390625 7.625 2.203125 
L 7.625 11.71875 
Q 11.71875 9.328125 16.59375 8.109375 
Q 21.484375 6.890625 26.8125 6.890625 
Q 36.078125 6.890625 40.9375 10.546875 
Q 45.796875 14.203125 45.796875 21.1875 
Q 45.796875 27.640625 41.28125 31.265625 
Q 36.765625 34.90625 28.71875 34.90625 
L 20.21875 34.90625 
L 20.21875 43.015625 
L 29.109375 43.015625 
Q 36.375 43.015625 40.234375 45.921875 
Q 44.09375 48.828125 44.09375 54.296875 
Q 44.09375 59.90625 40.109375 62.90625 
Q 36.140625 65.921875 28.71875 65.921875 
Q 24.65625 65.921875 20.015625 65.03125 
Q 15.375 64.15625 9.8125 62.3125 
L 9.8125 71.09375 
Q 15.4375 72.65625 20.34375 73.4375 
Q 25.25 74.21875 29.59375 74.21875 
Q 40.828125 74.21875 47.359375 69.109375 
Q 53.90625 64.015625 53.90625 55.328125 
Q 53.90625 49.265625 50.4375 45.09375 
Q 46.96875 40.921875 40.578125 39.3125 
z
" id="DejaVuSans-33"/>
      </defs>
      <g transform="translate(277.440233 266.598437)scale(0.1 -0.1)">
       <use xlink:href="#DejaVuSans-33"/>
       <use x="63.623047" xlink:href="#DejaVuSans-30"/>
       <use x="127.246094" xlink:href="#DejaVuSans-30"/>
       <use x="190.869141" xlink:href="#DejaVuSans-30"/>
       <use x="254.492188" xlink:href="#DejaVuSans-30"/>
       <use x="318.115234" xlink:href="#DejaVuSans-30"/>
      </g>
     </g>
    </g>
    <g id="xtick_8">
     <g id="line2d_15">
      <path clip-path="url(#p3453051eb9)" d="M 335.054776 252 
L 335.054776 34.56 
" style="fill:none;stroke:#b0b0b0;stroke-linecap:square;stroke-width:0.8;"/>
     </g>
     <g id="line2d_16">
      <g>
       <use style="stroke:#000000;stroke-width:0.8;" x="335.054776" xlink:href="#mc9a7f66186" y="252"/>
      </g>
     </g>
     <g id="text_8">
      <!-- 350000 -->
      <g transform="translate(315.967276 266.598437)scale(0.1 -0.1)">
       <use xlink:href="#DejaVuSans-33"/>
       <use x="63.623047" xlink:href="#DejaVuSans-35"/>
       <use x="127.246094" xlink:href="#DejaVuSans-30"/>
       <use x="190.869141" xlink:href="#DejaVuSans-30"/>
       <use x="254.492188" xlink:href="#DejaVuSans-30"/>
       <use x="318.115234" xlink:href="#DejaVuSans-30"/>
      </g>
     </g>
    </g>
    <g id="xtick_9">
     <g id="line2d_17">
      <path clip-path="url(#p3453051eb9)" d="M 373.581818 252 
L 373.581818 34.56 
" style="fill:none;stroke:#b0b0b0;stroke-linecap:square;stroke-width:0.8;"/>
     </g>
     <g id="line2d_18">
      <g>
       <use style="stroke:#000000;stroke-width:0.8;" x="373.581818" xlink:href="#mc9a7f66186" y="252"/>
      </g>
     </g>
     <g id="text_9">
      <!-- 400000 -->
      <defs>
       <path d="M 37.796875 64.3125 
L 12.890625 25.390625 
L 37.796875 25.390625 
z
M 35.203125 72.90625 
L 47.609375 72.90625 
L 47.609375 25.390625 
L 58.015625 25.390625 
L 58.015625 17.1875 
L 47.609375 17.1875 
L 47.609375 0 
L 37.796875 0 
L 37.796875 17.1875 
L 4.890625 17.1875 
L 4.890625 26.703125 
z
" id="DejaVuSans-34"/>
      </defs>
      <g transform="translate(354.494318 266.598437)scale(0.1 -0.1)">
       <use xlink:href="#DejaVuSans-34"/>
       <use x="63.623047" xlink:href="#DejaVuSans-30"/>
       <use x="127.246094" xlink:href="#DejaVuSans-30"/>
       <use x="190.869141" xlink:href="#DejaVuSans-30"/>
       <use x="254.492188" xlink:href="#DejaVuSans-30"/>
       <use x="318.115234" xlink:href="#DejaVuSans-30"/>
      </g>
     </g>
    </g>
    <g id="text_10">
     <!-- Energy (eV) -->
     <defs>
      <path d="M 9.8125 72.90625 
L 55.90625 72.90625 
L 55.90625 64.59375 
L 19.671875 64.59375 
L 19.671875 43.015625 
L 54.390625 43.015625 
L 54.390625 34.71875 
L 19.671875 34.71875 
L 19.671875 8.296875 
L 56.78125 8.296875 
L 56.78125 0 
L 9.8125 0 
z
" id="DejaVuSans-45"/>
      <path d="M 54.890625 33.015625 
L 54.890625 0 
L 45.90625 0 
L 45.90625 32.71875 
Q 45.90625 40.484375 42.875 44.328125 
Q 39.84375 48.1875 33.796875 48.1875 
Q 26.515625 48.1875 22.3125 43.546875 
Q 18.109375 38.921875 18.109375 30.90625 
L 18.109375 0 
L 9.078125 0 
L 9.078125 54.6875 
L 18.109375 54.6875 
L 18.109375 46.1875 
Q 21.34375 51.125 25.703125 53.5625 
Q 30.078125 56 35.796875 56 
Q 45.21875 56 50.046875 50.171875 
Q 54.890625 44.34375 54.890625 33.015625 
z
" id="DejaVuSans-6e"/>
      <path d="M 56.203125 29.59375 
L 56.203125 25.203125 
L 14.890625 25.203125 
Q 15.484375 15.921875 20.484375 11.0625 
Q 25.484375 6.203125 34.421875 6.203125 
Q 39.59375 6.203125 44.453125 7.46875 
Q 49.3125 8.734375 54.109375 11.28125 
L 54.109375 2.78125 
Q 49.265625 0.734375 44.1875 -0.34375 
Q 39.109375 -1.421875 33.890625 -1.421875 
Q 20.796875 -1.421875 13.15625 6.1875 
Q 5.515625 13.8125 5.515625 26.8125 
Q 5.515625 40.234375 12.765625 48.109375 
Q 20.015625 56 32.328125 56 
Q 43.359375 56 49.78125 48.890625 
Q 56.203125 41.796875 56.203125 29.59375 
z
M 47.21875 32.234375 
Q 47.125 39.59375 43.09375 43.984375 
Q 39.0625 48.390625 32.421875 48.390625 
Q 24.90625 48.390625 20.390625 44.140625 
Q 15.875 39.890625 15.1875 32.171875 
z
" id="DejaVuSans-65"/>
      <path d="M 41.109375 46.296875 
Q 39.59375 47.171875 37.8125 47.578125 
Q 36.03125 48 33.890625 48 
Q 26.265625 48 22.1875 43.046875 
Q 18.109375 38.09375 18.109375 28.8125 
L 18.109375 0 
L 9.078125 0 
L 9.078125 54.6875 
L 18.109375 54.6875 
L 18.109375 46.1875 
Q 20.953125 51.171875 25.484375 53.578125 
Q 30.03125 56 36.53125 56 
Q 37.453125 56 38.578125 55.875 
Q 39.703125 55.765625 41.0625 55.515625 
z
" id="DejaVuSans-72"/>
      <path d="M 45.40625 27.984375 
Q 45.40625 37.75 41.375 43.109375 
Q 37.359375 48.484375 30.078125 48.484375 
Q 22.859375 48.484375 18.828125 43.109375 
Q 14.796875 37.75 14.796875 27.984375 
Q 14.796875 18.265625 18.828125 12.890625 
Q 22.859375 7.515625 30.078125 7.515625 
Q 37.359375 7.515625 41.375 12.890625 
Q 45.40625 18.265625 45.40625 27.984375 
z
M 54.390625 6.78125 
Q 54.390625 -7.171875 48.1875 -13.984375 
Q 42 -20.796875 29.203125 -20.796875 
Q 24.46875 -20.796875 20.265625 -20.09375 
Q 16.0625 -19.390625 12.109375 -17.921875 
L 12.109375 -9.1875 
Q 16.0625 -11.328125 19.921875 -12.34375 
Q 23.78125 -13.375 27.78125 -13.375 
Q 36.625 -13.375 41.015625 -8.765625 
Q 45.40625 -4.15625 45.40625 5.171875 
L 45.40625 9.625 
Q 42.625 4.78125 38.28125 2.390625 
Q 33.9375 0 27.875 0 
Q 17.828125 0 11.671875 7.65625 
Q 5.515625 15.328125 5.515625 27.984375 
Q 5.515625 40.671875 11.671875 48.328125 
Q 17.828125 56 27.875 56 
Q 33.9375 56 38.28125 53.609375 
Q 42.625 51.21875 45.40625 46.390625 
L 45.40625 54.6875 
L 54.390625 54.6875 
z
" id="DejaVuSans-67"/>
      <path d="M 32.171875 -5.078125 
Q 28.375 -14.84375 24.75 -17.8125 
Q 21.140625 -20.796875 15.09375 -20.796875 
L 7.90625 -20.796875 
L 7.90625 -13.28125 
L 13.1875 -13.28125 
Q 16.890625 -13.28125 18.9375 -11.515625 
Q 21 -9.765625 23.484375 -3.21875 
L 25.09375 0.875 
L 2.984375 54.6875 
L 12.5 54.6875 
L 29.59375 11.921875 
L 46.6875 54.6875 
L 56.203125 54.6875 
z
" id="DejaVuSans-79"/>
      <path id="DejaVuSans-20"/>
      <path d="M 31 75.875 
Q 24.46875 64.65625 21.28125 53.65625 
Q 18.109375 42.671875 18.109375 31.390625 
Q 18.109375 20.125 21.3125 9.0625 
Q 24.515625 -2 31 -13.1875 
L 23.1875 -13.1875 
Q 15.875 -1.703125 12.234375 9.375 
Q 8.59375 20.453125 8.59375 31.390625 
Q 8.59375 42.28125 12.203125 53.3125 
Q 15.828125 64.359375 23.1875 75.875 
z
" id="DejaVuSans-28"/>
      <path d="M 28.609375 0 
L 0.78125 72.90625 
L 11.078125 72.90625 
L 34.1875 11.53125 
L 57.328125 72.90625 
L 67.578125 72.90625 
L 39.796875 0 
z
" id="DejaVuSans-56"/>
      <path d="M 8.015625 75.875 
L 15.828125 75.875 
Q 23.140625 64.359375 26.78125 53.3125 
Q 30.421875 42.28125 30.421875 31.390625 
Q 30.421875 20.453125 26.78125 9.375 
Q 23.140625 -1.703125 15.828125 -13.1875 
L 8.015625 -13.1875 
Q 14.5 -2 17.703125 9.0625 
Q 20.90625 20.125 20.90625 31.390625 
Q 20.90625 42.671875 17.703125 53.65625 
Q 14.5 64.65625 8.015625 75.875 
z
" id="DejaVuSans-29"/>
     </defs>
     <g transform="translate(191.819531 280.276563)scale(0.1 -0.1)">
      <use xlink:href="#DejaVuSans-45"/>
      <use x="63.183594" xlink:href="#DejaVuSans-6e"/>
      <use x="126.5625" xlink:href="#DejaVuSans-65"/>
      <use x="188.085938" xlink:href="#DejaVuSans-72"/>
      <use x="229.183594" xlink:href="#DejaVuSans-67"/>
      <use x="292.660156" xlink:href="#DejaVuSans-79"/>
      <use x="351.839844" xlink:href="#DejaVuSans-20"/>
      <use x="383.626953" xlink:href="#DejaVuSans-28"/>
      <use x="422.640625" xlink:href="#DejaVuSans-65"/>
      <use x="484.164062" xlink:href="#DejaVuSans-56"/>
      <use x="552.572266" xlink:href="#DejaVuSans-29"/>
     </g>
    </g>
   </g>
   <g id="matplotlib.axis_2">
    <g id="ytick_1">
     <g id="line2d_19">
      <path clip-path="url(#p3453051eb9)" d="M 54 222.61973 
L 388.8 222.61973 
" style="fill:none;stroke:#b0b0b0;stroke-linecap:square;stroke-width:0.8;"/>
     </g>
     <g id="line2d_20">
      <defs>
       <path d="M 0 0 
L -3.5 0 
" id="m5062c95fff" style="stroke:#000000;stroke-width:0.8;"/>
      </defs>
      <g>
       <use style="stroke:#000000;stroke-width:0.8;" x="54" xlink:href="#m5062c95fff" y="222.61973"/>
      </g>
     </g>
     <g id="text_11">
      <!-- $\mathdefault{10^{-3}}$ -->
      <defs>
       <path d="M 10.59375 35.5 
L 73.1875 35.5 
L 73.1875 27.203125 
L 10.59375 27.203125 
z
" id="DejaVuSans-2212"/>
      </defs>
      <g transform="translate(23.5 226.418949)scale(0.1 -0.1)">
       <use transform="translate(0 0.765625)" xlink:href="#DejaVuSans-31"/>
       <use transform="translate(63.623047 0.765625)" xlink:href="#DejaVuSans-30"/>
       <use transform="translate(128.203125 39.046875)scale(0.7)" xlink:href="#DejaVuSans-2212"/>
       <use transform="translate(186.855469 39.046875)scale(0.7)" xlink:href="#DejaVuSans-33"/>
      </g>
     </g>
    </g>
    <g id="ytick_2">
     <g id="line2d_21">
      <path clip-path="url(#p3453051eb9)" d="M 54 190.216544 
L 388.8 190.216544 
" style="fill:none;stroke:#b0b0b0;stroke-linecap:square;stroke-width:0.8;"/>
     </g>
     <g id="line2d_22">
      <g>
       <use style="stroke:#000000;stroke-width:0.8;" x="54" xlink:href="#m5062c95fff" y="190.216544"/>
      </g>
     </g>
     <g id="text_12">
      <!-- $\mathdefault{10^{0}}$ -->
      <g transform="translate(29.4 194.015762)scale(0.1 -0.1)">
       <use transform="translate(0 0.765625)" xlink:href="#DejaVuSans-31"/>
       <use transform="translate(63.623047 0.765625)" xlink:href="#DejaVuSans-30"/>
       <use transform="translate(128.203125 39.046875)scale(0.7)" xlink:href="#DejaVuSans-30"/>
      </g>
     </g>
    </g>
    <g id="ytick_3">
     <g id="line2d_23">
      <path clip-path="url(#p3453051eb9)" d="M 54 157.813357 
L 388.8 157.813357 
" style="fill:none;stroke:#b0b0b0;stroke-linecap:square;stroke-width:0.8;"/>
     </g>
     <g id="line2d_24">
      <g>
       <use style="stroke:#000000;stroke-width:0.8;" x="54" xlink:href="#m5062c95fff" y="157.813357"/>
      </g>
     </g>
     <g id="text_13">
      <!-- $\mathdefault{10^{3}}$ -->
      <g transform="translate(29.4 161.612576)scale(0.1 -0.1)">
       <use transform="translate(0 0.765625)" xlink:href="#DejaVuSans-31"/>
       <use transform="translate(63.623047 0.765625)" xlink:href="#DejaVuSans-30"/>
       <use transform="translate(128.203125 39.046875)scale(0.7)" xlink:href="#DejaVuSans-33"/>
      </g>
     </g>
    </g>
    <g id="ytick_4">
     <g id="line2d_25">
      <path clip-path="url(#p3453051eb9)" d="M 54 125.41017 
L 388.8 125.41017 
" style="fill:none;stroke:#b0b0b0;stroke-linecap:square;stroke-width:0.8;"/>
     </g>
     <g id="line2d_26">
      <g>
       <use style="stroke:#000000;stroke-width:0.8;" x="54" xlink:href="#m5062c95fff" y="125.41017"/>
      </g>
     </g>
     <g id="text_14">
      <!-- $\mathdefault{10^{6}}$ -->
      <defs>
       <path d="M 33.015625 40.375 
Q 26.375 40.375 22.484375 35.828125 
Q 18.609375 31.296875 18.609375 23.390625 
Q 18.609375 15.53125 22.484375 10.953125 
Q 26.375 6.390625 33.015625 6.390625 
Q 39.65625 6.390625 43.53125 10.953125 
Q 47.40625 15.53125 47.40625 23.390625 
Q 47.40625 31.296875 43.53125 35.828125 
Q 39.65625 40.375 33.015625 40.375 
z
M 52.59375 71.296875 
L 52.59375 62.3125 
Q 48.875 64.0625 45.09375 64.984375 
Q 41.3125 65.921875 37.59375 65.921875 
Q 27.828125 65.921875 22.671875 59.328125 
Q 17.53125 52.734375 16.796875 39.40625 
Q 19.671875 43.65625 24.015625 45.921875 
Q 28.375 48.1875 33.59375 48.1875 
Q 44.578125 48.1875 50.953125 41.515625 
Q 57.328125 34.859375 57.328125 23.390625 
Q 57.328125 12.15625 50.6875 5.359375 
Q 44.046875 -1.421875 33.015625 -1.421875 
Q 20.359375 -1.421875 13.671875 8.265625 
Q 6.984375 17.96875 6.984375 36.375 
Q 6.984375 53.65625 15.1875 63.9375 
Q 23.390625 74.21875 37.203125 74.21875 
Q 40.921875 74.21875 44.703125 73.484375 
Q 48.484375 72.75 52.59375 71.296875 
z
" id="DejaVuSans-36"/>
      </defs>
      <g transform="translate(29.4 129.209389)scale(0.1 -0.1)">
       <use transform="translate(0 0.765625)" xlink:href="#DejaVuSans-31"/>
       <use transform="translate(63.623047 0.765625)" xlink:href="#DejaVuSans-30"/>
       <use transform="translate(128.203125 39.046875)scale(0.7)" xlink:href="#DejaVuSans-36"/>
      </g>
     </g>
    </g>
    <g id="ytick_5">
     <g id="line2d_27">
      <path clip-path="url(#p3453051eb9)" d="M 54 93.006983 
L 388.8 93.006983 
" style="fill:none;stroke:#b0b0b0;stroke-linecap:square;stroke-width:0.8;"/>
     </g>
     <g id="line2d_28">
      <g>
       <use style="stroke:#000000;stroke-width:0.8;" x="54" xlink:href="#m5062c95fff" y="93.006983"/>
      </g>
     </g>
     <g id="text_15">
      <!-- $\mathdefault{10^{9}}$ -->
      <defs>
       <path d="M 10.984375 1.515625 
L 10.984375 10.5 
Q 14.703125 8.734375 18.5 7.8125 
Q 22.3125 6.890625 25.984375 6.890625 
Q 35.75 6.890625 40.890625 13.453125 
Q 46.046875 20.015625 46.78125 33.40625 
Q 43.953125 29.203125 39.59375 26.953125 
Q 35.25 24.703125 29.984375 24.703125 
Q 19.046875 24.703125 12.671875 31.3125 
Q 6.296875 37.9375 6.296875 49.421875 
Q 6.296875 60.640625 12.9375 67.421875 
Q 19.578125 74.21875 30.609375 74.21875 
Q 43.265625 74.21875 49.921875 64.515625 
Q 56.59375 54.828125 56.59375 36.375 
Q 56.59375 19.140625 48.40625 8.859375 
Q 40.234375 -1.421875 26.421875 -1.421875 
Q 22.703125 -1.421875 18.890625 -0.6875 
Q 15.09375 0.046875 10.984375 1.515625 
z
M 30.609375 32.421875 
Q 37.25 32.421875 41.125 36.953125 
Q 45.015625 41.5 45.015625 49.421875 
Q 45.015625 57.28125 41.125 61.84375 
Q 37.25 66.40625 30.609375 66.40625 
Q 23.96875 66.40625 20.09375 61.84375 
Q 16.21875 57.28125 16.21875 49.421875 
Q 16.21875 41.5 20.09375 36.953125 
Q 23.96875 32.421875 30.609375 32.421875 
z
" id="DejaVuSans-39"/>
      </defs>
      <g transform="translate(29.4 96.806202)scale(0.1 -0.1)">
       <use transform="translate(0 0.765625)" xlink:href="#DejaVuSans-31"/>
       <use transform="translate(63.623047 0.765625)" xlink:href="#DejaVuSans-30"/>
       <use transform="translate(128.203125 39.046875)scale(0.7)" xlink:href="#DejaVuSans-39"/>
      </g>
     </g>
    </g>
    <g id="ytick_6">
     <g id="line2d_29">
      <path clip-path="url(#p3453051eb9)" d="M 54 60.603797 
L 388.8 60.603797 
" style="fill:none;stroke:#b0b0b0;stroke-linecap:square;stroke-width:0.8;"/>
     </g>
     <g id="line2d_30">
      <g>
       <use style="stroke:#000000;stroke-width:0.8;" x="54" xlink:href="#m5062c95fff" y="60.603797"/>
      </g>
     </g>
     <g id="text_16">
      <!-- $\mathdefault{10^{12}}$ -->
      <g transform="translate(24.9 64.403015)scale(0.1 -0.1)">
       <use transform="translate(0 0.765625)" xlink:href="#DejaVuSans-31"/>
       <use transform="translate(63.623047 0.765625)" xlink:href="#DejaVuSans-30"/>
       <use transform="translate(128.203125 39.046875)scale(0.7)" xlink:href="#DejaVuSans-31"/>
       <use transform="translate(172.739258 39.046875)scale(0.7)" xlink:href="#DejaVuSans-32"/>
      </g>
     </g>
    </g>
    <g id="text_17">
     <!-- ph/s/100mA -->
     <defs>
      <path d="M 18.109375 8.203125 
L 18.109375 -20.796875 
L 9.078125 -20.796875 
L 9.078125 54.6875 
L 18.109375 54.6875 
L 18.109375 46.390625 
Q 20.953125 51.265625 25.265625 53.625 
Q 29.59375 56 35.59375 56 
Q 45.5625 56 51.78125 48.09375 
Q 58.015625 40.1875 58.015625 27.296875 
Q 58.015625 14.40625 51.78125 6.484375 
Q 45.5625 -1.421875 35.59375 -1.421875 
Q 29.59375 -1.421875 25.265625 0.953125 
Q 20.953125 3.328125 18.109375 8.203125 
z
M 48.6875 27.296875 
Q 48.6875 37.203125 44.609375 42.84375 
Q 40.53125 48.484375 33.40625 48.484375 
Q 26.265625 48.484375 22.1875 42.84375 
Q 18.109375 37.203125 18.109375 27.296875 
Q 18.109375 17.390625 22.1875 11.75 
Q 26.265625 6.109375 33.40625 6.109375 
Q 40.53125 6.109375 44.609375 11.75 
Q 48.6875 17.390625 48.6875 27.296875 
z
" id="DejaVuSans-70"/>
      <path d="M 54.890625 33.015625 
L 54.890625 0 
L 45.90625 0 
L 45.90625 32.71875 
Q 45.90625 40.484375 42.875 44.328125 
Q 39.84375 48.1875 33.796875 48.1875 
Q 26.515625 48.1875 22.3125 43.546875 
Q 18.109375 38.921875 18.109375 30.90625 
L 18.109375 0 
L 9.078125 0 
L 9.078125 75.984375 
L 18.109375 75.984375 
L 18.109375 46.1875 
Q 21.34375 51.125 25.703125 53.5625 
Q 30.078125 56 35.796875 56 
Q 45.21875 56 50.046875 50.171875 
Q 54.890625 44.34375 54.890625 33.015625 
z
" id="DejaVuSans-68"/>
      <path d="M 25.390625 72.90625 
L 33.6875 72.90625 
L 8.296875 -9.28125 
L 0 -9.28125 
z
" id="DejaVuSans-2f"/>
      <path d="M 44.28125 53.078125 
L 44.28125 44.578125 
Q 40.484375 46.53125 36.375 47.5 
Q 32.28125 48.484375 27.875 48.484375 
Q 21.1875 48.484375 17.84375 46.4375 
Q 14.5 44.390625 14.5 40.28125 
Q 14.5 37.15625 16.890625 35.375 
Q 19.28125 33.59375 26.515625 31.984375 
L 29.59375 31.296875 
Q 39.15625 29.25 43.1875 25.515625 
Q 47.21875 21.78125 47.21875 15.09375 
Q 47.21875 7.46875 41.1875 3.015625 
Q 35.15625 -1.421875 24.609375 -1.421875 
Q 20.21875 -1.421875 15.453125 -0.5625 
Q 10.6875 0.296875 5.421875 2 
L 5.421875 11.28125 
Q 10.40625 8.6875 15.234375 7.390625 
Q 20.0625 6.109375 24.8125 6.109375 
Q 31.15625 6.109375 34.5625 8.28125 
Q 37.984375 10.453125 37.984375 14.40625 
Q 37.984375 18.0625 35.515625 20.015625 
Q 33.0625 21.96875 24.703125 23.78125 
L 21.578125 24.515625 
Q 13.234375 26.265625 9.515625 29.90625 
Q 5.8125 33.546875 5.8125 39.890625 
Q 5.8125 47.609375 11.28125 51.796875 
Q 16.75 56 26.8125 56 
Q 31.78125 56 36.171875 55.265625 
Q 40.578125 54.546875 44.28125 53.078125 
z
" id="DejaVuSans-73"/>
      <path d="M 52 44.1875 
Q 55.375 50.25 60.0625 53.125 
Q 64.75 56 71.09375 56 
Q 79.640625 56 84.28125 50.015625 
Q 88.921875 44.046875 88.921875 33.015625 
L 88.921875 0 
L 79.890625 0 
L 79.890625 32.71875 
Q 79.890625 40.578125 77.09375 44.375 
Q 74.3125 48.1875 68.609375 48.1875 
Q 61.625 48.1875 57.5625 43.546875 
Q 53.515625 38.921875 53.515625 30.90625 
L 53.515625 0 
L 44.484375 0 
L 44.484375 32.71875 
Q 44.484375 40.625 41.703125 44.40625 
Q 38.921875 48.1875 33.109375 48.1875 
Q 26.21875 48.1875 22.15625 43.53125 
Q 18.109375 38.875 18.109375 30.90625 
L 18.109375 0 
L 9.078125 0 
L 9.078125 54.6875 
L 18.109375 54.6875 
L 18.109375 46.1875 
Q 21.1875 51.21875 25.484375 53.609375 
Q 29.78125 56 35.6875 56 
Q 41.65625 56 45.828125 52.96875 
Q 50 49.953125 52 44.1875 
z
" id="DejaVuSans-6d"/>
      <path d="M 34.1875 63.1875 
L 20.796875 26.90625 
L 47.609375 26.90625 
z
M 28.609375 72.90625 
L 39.796875 72.90625 
L 67.578125 0 
L 57.328125 0 
L 50.6875 18.703125 
L 17.828125 18.703125 
L 11.1875 0 
L 0.78125 0 
z
" id="DejaVuSans-41"/>
     </defs>
     <g transform="translate(17.420312 173.430781)rotate(-90)scale(0.1 -0.1)">
      <use xlink:href="#DejaVuSans-70"/>
      <use x="63.476562" xlink:href="#DejaVuSans-68"/>
      <use x="126.855469" xlink:href="#DejaVuSans-2f"/>
      <use x="160.546875" xlink:href="#DejaVuSans-73"/>
      <use x="212.646484" xlink:href="#DejaVuSans-2f"/>
      <use x="246.337891" xlink:href="#DejaVuSans-31"/>
      <use x="309.960938" xlink:href="#DejaVuSans-30"/>
      <use x="373.583984" xlink:href="#DejaVuSans-30"/>
      <use x="437.207031" xlink:href="#DejaVuSans-6d"/>
      <use x="534.619141" xlink:href="#DejaVuSans-41"/>
     </g>
    </g>
   </g>
   <g id="line2d_31">
    <path clip-path="url(#p3453051eb9)" d="M 69.218182 44.443636 
L 76.92359 62.219396 
L 80.776295 69.263919 
L 84.628999 77.779606 
L 92.334407 87.27599 
L 96.187112 90.357457 
L 100.039816 97.40632 
L 107.745224 106.941207 
L 111.597929 109.331222 
L 115.450633 115.039605 
L 123.156041 122.825933 
L 127.008746 125.580605 
L 130.86145 131.414836 
L 138.566858 139.440249 
L 142.419563 141.582733 
L 146.272267 146.850964 
L 153.977675 153.535507 
L 157.83038 154.292408 
L 161.683084 158.318539 
L 169.388493 162.106004 
L 173.241197 160.897166 
L 177.093901 163.623745 
L 184.79931 166.733352 
L 188.652014 165.791202 
L 192.504718 168.648025 
L 200.210127 169.884072 
L 204.062831 170.192794 
L 207.915535 172.143852 
L 215.620944 174.98777 
L 219.473648 173.823819 
L 223.326352 178.643152 
L 231.031761 178.452705 
L 234.884465 177.338117 
L 238.737169 180.121084 
L 246.442578 180.434336 
L 250.295282 179.167933 
L 254.147986 182.031913 
L 261.853395 181.472511 
L 265.706099 183.762122 
L 269.558803 184.57285 
L 277.264212 185.403202 
L 281.116916 185.163777 
L 284.96962 195.289375 
L 292.675029 190.710038 
L 296.527733 189.007487 
L 300.380437 191.302371 
L 308.085846 191.572089 
L 311.93855 191.665754 
L 315.791254 193.948812 
L 323.496663 196.308286 
L 327.349367 193.948831 
L 331.202071 195.81607 
L 338.90748 199.975403 
L 342.760184 195.094004 
L 346.612888 197.892859 
L 354.318297 199.106963 
L 358.171001 221.06053 
L 362.023705 197.658404 
L 369.729114 202.071185 
L 373.581818 236.972656 
" style="fill:none;stroke:#1f77b4;stroke-dasharray:5.55,2.4;stroke-dashoffset:0;stroke-width:1.5;"/>
    <defs>
     <path d="M 0 3 
C 0.795609 3 1.55874 2.683901 2.12132 2.12132 
C 2.683901 1.55874 3 0.795609 3 0 
C 3 -0.795609 2.683901 -1.55874 2.12132 -2.12132 
C 1.55874 -2.683901 0.795609 -3 0 -3 
C -0.795609 -3 -1.55874 -2.683901 -2.12132 -2.12132 
C -2.683901 -1.55874 -3 -0.795609 -3 0 
C -3 0.795609 -2.683901 1.55874 -2.12132 2.12132 
C -1.55874 2.683901 -0.795609 3 0 3 
z
" id="m75d39d71ee" style="stroke:#1f77b4;"/>
    </defs>
    <g clip-path="url(#p3453051eb9)">
     <use style="fill:#1f77b4;stroke:#1f77b4;" x="69.218182" xlink:href="#m75d39d71ee" y="44.443636"/>
     <use style="fill:#1f77b4;stroke:#1f77b4;" x="76.92359" xlink:href="#m75d39d71ee" y="62.219396"/>
     <use style="fill:#1f77b4;stroke:#1f77b4;" x="80.776295" xlink:href="#m75d39d71ee" y="69.263919"/>
     <use style="fill:#1f77b4;stroke:#1f77b4;" x="84.628999" xlink:href="#m75d39d71ee" y="77.779606"/>
     <use style="fill:#1f77b4;stroke:#1f77b4;" x="92.334407" xlink:href="#m75d39d71ee" y="87.27599"/>
     <use style="fill:#1f77b4;stroke:#1f77b4;" x="96.187112" xlink:href="#m75d39d71ee" y="90.357457"/>
     <use style="fill:#1f77b4;stroke:#1f77b4;" x="100.039816" xlink:href="#m75d39d71ee" y="97.40632"/>
     <use style="fill:#1f77b4;stroke:#1f77b4;" x="107.745224" xlink:href="#m75d39d71ee" y="106.941207"/>
     <use style="fill:#1f77b4;stroke:#1f77b4;" x="111.597929" xlink:href="#m75d39d71ee" y="109.331222"/>
     <use style="fill:#1f77b4;stroke:#1f77b4;" x="115.450633" xlink:href="#m75d39d71ee" y="115.039605"/>
     <use style="fill:#1f77b4;stroke:#1f77b4;" x="123.156041" xlink:href="#m75d39d71ee" y="122.825933"/>
     <use style="fill:#1f77b4;stroke:#1f77b4;" x="127.008746" xlink:href="#m75d39d71ee" y="125.580605"/>
     <use style="fill:#1f77b4;stroke:#1f77b4;" x="130.86145" xlink:href="#m75d39d71ee" y="131.414836"/>
     <use style="fill:#1f77b4;stroke:#1f77b4;" x="138.566858" xlink:href="#m75d39d71ee" y="139.440249"/>
     <use style="fill:#1f77b4;stroke:#1f77b4;" x="142.419563" xlink:href="#m75d39d71ee" y="141.582733"/>
     <use style="fill:#1f77b4;stroke:#1f77b4;" x="146.272267" xlink:href="#m75d39d71ee" y="146.850964"/>
     <use style="fill:#1f77b4;stroke:#1f77b4;" x="153.977675" xlink:href="#m75d39d71ee" y="153.535507"/>
     <use style="fill:#1f77b4;stroke:#1f77b4;" x="157.83038" xlink:href="#m75d39d71ee" y="154.292408"/>
     <use style="fill:#1f77b4;stroke:#1f77b4;" x="161.683084" xlink:href="#m75d39d71ee" y="158.318539"/>
     <use style="fill:#1f77b4;stroke:#1f77b4;" x="169.388493" xlink:href="#m75d39d71ee" y="162.106004"/>
     <use style="fill:#1f77b4;stroke:#1f77b4;" x="173.241197" xlink:href="#m75d39d71ee" y="160.897166"/>
     <use style="fill:#1f77b4;stroke:#1f77b4;" x="177.093901" xlink:href="#m75d39d71ee" y="163.623745"/>
     <use style="fill:#1f77b4;stroke:#1f77b4;" x="184.79931" xlink:href="#m75d39d71ee" y="166.733352"/>
     <use style="fill:#1f77b4;stroke:#1f77b4;" x="188.652014" xlink:href="#m75d39d71ee" y="165.791202"/>
     <use style="fill:#1f77b4;stroke:#1f77b4;" x="192.504718" xlink:href="#m75d39d71ee" y="168.648025"/>
     <use style="fill:#1f77b4;stroke:#1f77b4;" x="200.210127" xlink:href="#m75d39d71ee" y="169.884072"/>
     <use style="fill:#1f77b4;stroke:#1f77b4;" x="204.062831" xlink:href="#m75d39d71ee" y="170.192794"/>
     <use style="fill:#1f77b4;stroke:#1f77b4;" x="207.915535" xlink:href="#m75d39d71ee" y="172.143852"/>
     <use style="fill:#1f77b4;stroke:#1f77b4;" x="215.620944" xlink:href="#m75d39d71ee" y="174.98777"/>
     <use style="fill:#1f77b4;stroke:#1f77b4;" x="219.473648" xlink:href="#m75d39d71ee" y="173.823819"/>
     <use style="fill:#1f77b4;stroke:#1f77b4;" x="223.326352" xlink:href="#m75d39d71ee" y="178.643152"/>
     <use style="fill:#1f77b4;stroke:#1f77b4;" x="231.031761" xlink:href="#m75d39d71ee" y="178.452705"/>
     <use style="fill:#1f77b4;stroke:#1f77b4;" x="234.884465" xlink:href="#m75d39d71ee" y="177.338117"/>
     <use style="fill:#1f77b4;stroke:#1f77b4;" x="238.737169" xlink:href="#m75d39d71ee" y="180.121084"/>
     <use style="fill:#1f77b4;stroke:#1f77b4;" x="246.442578" xlink:href="#m75d39d71ee" y="180.434336"/>
     <use style="fill:#1f77b4;stroke:#1f77b4;" x="250.295282" xlink:href="#m75d39d71ee" y="179.167933"/>
     <use style="fill:#1f77b4;stroke:#1f77b4;" x="254.147986" xlink:href="#m75d39d71ee" y="182.031913"/>
     <use style="fill:#1f77b4;stroke:#1f77b4;" x="261.853395" xlink:href="#m75d39d71ee" y="181.472511"/>
     <use style="fill:#1f77b4;stroke:#1f77b4;" x="265.706099" xlink:href="#m75d39d71ee" y="183.762122"/>
     <use style="fill:#1f77b4;stroke:#1f77b4;" x="269.558803" xlink:href="#m75d39d71ee" y="184.57285"/>
     <use style="fill:#1f77b4;stroke:#1f77b4;" x="277.264212" xlink:href="#m75d39d71ee" y="185.403202"/>
     <use style="fill:#1f77b4;stroke:#1f77b4;" x="281.116916" xlink:href="#m75d39d71ee" y="185.163777"/>
     <use style="fill:#1f77b4;stroke:#1f77b4;" x="284.96962" xlink:href="#m75d39d71ee" y="195.289375"/>
     <use style="fill:#1f77b4;stroke:#1f77b4;" x="292.675029" xlink:href="#m75d39d71ee" y="190.710038"/>
     <use style="fill:#1f77b4;stroke:#1f77b4;" x="296.527733" xlink:href="#m75d39d71ee" y="189.007487"/>
     <use style="fill:#1f77b4;stroke:#1f77b4;" x="300.380437" xlink:href="#m75d39d71ee" y="191.302371"/>
     <use style="fill:#1f77b4;stroke:#1f77b4;" x="308.085846" xlink:href="#m75d39d71ee" y="191.572089"/>
     <use style="fill:#1f77b4;stroke:#1f77b4;" x="311.93855" xlink:href="#m75d39d71ee" y="191.665754"/>
     <use style="fill:#1f77b4;stroke:#1f77b4;" x="315.791254" xlink:href="#m75d39d71ee" y="193.948812"/>
     <use style="fill:#1f77b4;stroke:#1f77b4;" x="323.496663" xlink:href="#m75d39d71ee" y="196.308286"/>
     <use style="fill:#1f77b4;stroke:#1f77b4;" x="327.349367" xlink:href="#m75d39d71ee" y="193.948831"/>
     <use style="fill:#1f77b4;stroke:#1f77b4;" x="331.202071" xlink:href="#m75d39d71ee" y="195.81607"/>
     <use style="fill:#1f77b4;stroke:#1f77b4;" x="338.90748" xlink:href="#m75d39d71ee" y="199.975403"/>
     <use style="fill:#1f77b4;stroke:#1f77b4;" x="342.760184" xlink:href="#m75d39d71ee" y="195.094004"/>
     <use style="fill:#1f77b4;stroke:#1f77b4;" x="346.612888" xlink:href="#m75d39d71ee" y="197.892859"/>
     <use style="fill:#1f77b4;stroke:#1f77b4;" x="354.318297" xlink:href="#m75d39d71ee" y="199.106963"/>
     <use style="fill:#1f77b4;stroke:#1f77b4;" x="358.171001" xlink:href="#m75d39d71ee" y="221.06053"/>
     <use style="fill:#1f77b4;stroke:#1f77b4;" x="362.023705" xlink:href="#m75d39d71ee" y="197.658404"/>
     <use style="fill:#1f77b4;stroke:#1f77b4;" x="369.729114" xlink:href="#m75d39d71ee" y="202.071185"/>
     <use style="fill:#1f77b4;stroke:#1f77b4;" x="373.581818" xlink:href="#m75d39d71ee" y="236.972656"/>
    </g>
   </g>
   <g id="line2d_32">
    <path clip-path="url(#p3453051eb9)" d="M 69.218182 45.659094 
L 76.92359 64.330451 
L 80.776295 71.369432 
L 84.628999 79.790882 
L 92.334407 91.066073 
L 96.187112 93.379205 
L 100.039816 100.239077 
L 107.745224 110.218798 
L 111.597929 112.97706 
L 115.450633 119.016497 
L 123.156041 125.867315 
L 127.008746 129.061352 
L 130.86145 135.144591 
L 138.566858 143.358951 
L 142.419563 145.352942 
L 146.272267 150.488534 
L 153.977675 157.840364 
L 157.83038 158.838214 
L 161.683084 163.038374 
L 169.388493 167.047591 
L 173.241197 165.919444 
L 177.093901 168.70028 
L 184.79931 171.850896 
L 188.652014 170.913513 
L 192.504718 173.77494 
L 200.210127 175.015187 
L 204.062831 175.327903 
L 207.915535 177.280751 
L 215.620944 180.121486 
L 219.473648 178.960105 
L 223.326352 183.779668 
L 231.031761 183.589567 
L 234.884465 182.476006 
L 238.737169 185.259155 
L 246.442578 185.572531 
L 250.295282 184.305827 
L 254.147986 187.169965 
L 261.853395 186.613153 
L 265.706099 188.902636 
L 269.558803 189.711747 
L 277.264212 190.543439 
L 281.116916 190.303416 
L 284.96962 200.429241 
L 292.675029 195.8519 
L 296.527733 194.149111 
L 300.380437 196.444359 
L 308.085846 196.71303 
L 311.93855 196.808066 
L 315.791254 199.089976 
L 323.496663 201.451076 
L 327.349367 199.092147 
L 331.202071 200.958231 
L 338.90748 205.120093 
L 342.760184 200.238954 
L 346.612888 203.037372 
L 354.318297 204.24951 
L 358.171001 226.205186 
L 362.023705 202.801898 
L 369.729114 207.214939 
L 373.581818 242.116364 
" style="fill:none;stroke:#ff7f0e;stroke-dasharray:5.55,2.4;stroke-dashoffset:0;stroke-width:1.5;"/>
    <defs>
     <path d="M 0 3 
C 0.795609 3 1.55874 2.683901 2.12132 2.12132 
C 2.683901 1.55874 3 0.795609 3 0 
C 3 -0.795609 2.683901 -1.55874 2.12132 -2.12132 
C 1.55874 -2.683901 0.795609 -3 0 -3 
C -0.795609 -3 -1.55874 -2.683901 -2.12132 -2.12132 
C -2.683901 -1.55874 -3 -0.795609 -3 0 
C -3 0.795609 -2.683901 1.55874 -2.12132 2.12132 
C -1.55874 2.683901 -0.795609 3 0 3 
z
" id="m75304c0ad3" style="stroke:#ff7f0e;"/>
    </defs>
    <g clip-path="url(#p3453051eb9)">
     <use style="fill:#ff7f0e;stroke:#ff7f0e;" x="69.218182" xlink:href="#m75304c0ad3" y="45.659094"/>
     <use style="fill:#ff7f0e;stroke:#ff7f0e;" x="76.92359" xlink:href="#m75304c0ad3" y="64.330451"/>
     <use style="fill:#ff7f0e;stroke:#ff7f0e;" x="80.776295" xlink:href="#m75304c0ad3" y="71.369432"/>
     <use style="fill:#ff7f0e;stroke:#ff7f0e;" x="84.628999" xlink:href="#m75304c0ad3" y="79.790882"/>
     <use style="fill:#ff7f0e;stroke:#ff7f0e;" x="92.334407" xlink:href="#m75304c0ad3" y="91.066073"/>
     <use style="fill:#ff7f0e;stroke:#ff7f0e;" x="96.187112" xlink:href="#m75304c0ad3" y="93.379205"/>
     <use style="fill:#ff7f0e;stroke:#ff7f0e;" x="100.039816" xlink:href="#m75304c0ad3" y="100.239077"/>
     <use style="fill:#ff7f0e;stroke:#ff7f0e;" x="107.745224" xlink:href="#m75304c0ad3" y="110.218798"/>
     <use style="fill:#ff7f0e;stroke:#ff7f0e;" x="111.597929" xlink:href="#m75304c0ad3" y="112.97706"/>
     <use style="fill:#ff7f0e;stroke:#ff7f0e;" x="115.450633" xlink:href="#m75304c0ad3" y="119.016497"/>
     <use style="fill:#ff7f0e;stroke:#ff7f0e;" x="123.156041" xlink:href="#m75304c0ad3" y="125.867315"/>
     <use style="fill:#ff7f0e;stroke:#ff7f0e;" x="127.008746" xlink:href="#m75304c0ad3" y="129.061352"/>
     <use style="fill:#ff7f0e;stroke:#ff7f0e;" x="130.86145" xlink:href="#m75304c0ad3" y="135.144591"/>
     <use style="fill:#ff7f0e;stroke:#ff7f0e;" x="138.566858" xlink:href="#m75304c0ad3" y="143.358951"/>
     <use style="fill:#ff7f0e;stroke:#ff7f0e;" x="142.419563" xlink:href="#m75304c0ad3" y="145.352942"/>
     <use style="fill:#ff7f0e;stroke:#ff7f0e;" x="146.272267" xlink:href="#m75304c0ad3" y="150.488534"/>
     <use style="fill:#ff7f0e;stroke:#ff7f0e;" x="153.977675" xlink:href="#m75304c0ad3" y="157.840364"/>
     <use style="fill:#ff7f0e;stroke:#ff7f0e;" x="157.83038" xlink:href="#m75304c0ad3" y="158.838214"/>
     <use style="fill:#ff7f0e;stroke:#ff7f0e;" x="161.683084" xlink:href="#m75304c0ad3" y="163.038374"/>
     <use style="fill:#ff7f0e;stroke:#ff7f0e;" x="169.388493" xlink:href="#m75304c0ad3" y="167.047591"/>
     <use style="fill:#ff7f0e;stroke:#ff7f0e;" x="173.241197" xlink:href="#m75304c0ad3" y="165.919444"/>
     <use style="fill:#ff7f0e;stroke:#ff7f0e;" x="177.093901" xlink:href="#m75304c0ad3" y="168.70028"/>
     <use style="fill:#ff7f0e;stroke:#ff7f0e;" x="184.79931" xlink:href="#m75304c0ad3" y="171.850896"/>
     <use style="fill:#ff7f0e;stroke:#ff7f0e;" x="188.652014" xlink:href="#m75304c0ad3" y="170.913513"/>
     <use style="fill:#ff7f0e;stroke:#ff7f0e;" x="192.504718" xlink:href="#m75304c0ad3" y="173.77494"/>
     <use style="fill:#ff7f0e;stroke:#ff7f0e;" x="200.210127" xlink:href="#m75304c0ad3" y="175.015187"/>
     <use style="fill:#ff7f0e;stroke:#ff7f0e;" x="204.062831" xlink:href="#m75304c0ad3" y="175.327903"/>
     <use style="fill:#ff7f0e;stroke:#ff7f0e;" x="207.915535" xlink:href="#m75304c0ad3" y="177.280751"/>
     <use style="fill:#ff7f0e;stroke:#ff7f0e;" x="215.620944" xlink:href="#m75304c0ad3" y="180.121486"/>
     <use style="fill:#ff7f0e;stroke:#ff7f0e;" x="219.473648" xlink:href="#m75304c0ad3" y="178.960105"/>
     <use style="fill:#ff7f0e;stroke:#ff7f0e;" x="223.326352" xlink:href="#m75304c0ad3" y="183.779668"/>
     <use style="fill:#ff7f0e;stroke:#ff7f0e;" x="231.031761" xlink:href="#m75304c0ad3" y="183.589567"/>
     <use style="fill:#ff7f0e;stroke:#ff7f0e;" x="234.884465" xlink:href="#m75304c0ad3" y="182.476006"/>
     <use style="fill:#ff7f0e;stroke:#ff7f0e;" x="238.737169" xlink:href="#m75304c0ad3" y="185.259155"/>
     <use style="fill:#ff7f0e;stroke:#ff7f0e;" x="246.442578" xlink:href="#m75304c0ad3" y="185.572531"/>
     <use style="fill:#ff7f0e;stroke:#ff7f0e;" x="250.295282" xlink:href="#m75304c0ad3" y="184.305827"/>
     <use style="fill:#ff7f0e;stroke:#ff7f0e;" x="254.147986" xlink:href="#m75304c0ad3" y="187.169965"/>
     <use style="fill:#ff7f0e;stroke:#ff7f0e;" x="261.853395" xlink:href="#m75304c0ad3" y="186.613153"/>
     <use style="fill:#ff7f0e;stroke:#ff7f0e;" x="265.706099" xlink:href="#m75304c0ad3" y="188.902636"/>
     <use style="fill:#ff7f0e;stroke:#ff7f0e;" x="269.558803" xlink:href="#m75304c0ad3" y="189.711747"/>
     <use style="fill:#ff7f0e;stroke:#ff7f0e;" x="277.264212" xlink:href="#m75304c0ad3" y="190.543439"/>
     <use style="fill:#ff7f0e;stroke:#ff7f0e;" x="281.116916" xlink:href="#m75304c0ad3" y="190.303416"/>
     <use style="fill:#ff7f0e;stroke:#ff7f0e;" x="284.96962" xlink:href="#m75304c0ad3" y="200.429241"/>
     <use style="fill:#ff7f0e;stroke:#ff7f0e;" x="292.675029" xlink:href="#m75304c0ad3" y="195.8519"/>
     <use style="fill:#ff7f0e;stroke:#ff7f0e;" x="296.527733" xlink:href="#m75304c0ad3" y="194.149111"/>
     <use style="fill:#ff7f0e;stroke:#ff7f0e;" x="300.380437" xlink:href="#m75304c0ad3" y="196.444359"/>
     <use style="fill:#ff7f0e;stroke:#ff7f0e;" x="308.085846" xlink:href="#m75304c0ad3" y="196.71303"/>
     <use style="fill:#ff7f0e;stroke:#ff7f0e;" x="311.93855" xlink:href="#m75304c0ad3" y="196.808066"/>
     <use style="fill:#ff7f0e;stroke:#ff7f0e;" x="315.791254" xlink:href="#m75304c0ad3" y="199.089976"/>
     <use style="fill:#ff7f0e;stroke:#ff7f0e;" x="323.496663" xlink:href="#m75304c0ad3" y="201.451076"/>
     <use style="fill:#ff7f0e;stroke:#ff7f0e;" x="327.349367" xlink:href="#m75304c0ad3" y="199.092147"/>
     <use style="fill:#ff7f0e;stroke:#ff7f0e;" x="331.202071" xlink:href="#m75304c0ad3" y="200.958231"/>
     <use style="fill:#ff7f0e;stroke:#ff7f0e;" x="338.90748" xlink:href="#m75304c0ad3" y="205.120093"/>
     <use style="fill:#ff7f0e;stroke:#ff7f0e;" x="342.760184" xlink:href="#m75304c0ad3" y="200.238954"/>
     <use style="fill:#ff7f0e;stroke:#ff7f0e;" x="346.612888" xlink:href="#m75304c0ad3" y="203.037372"/>
     <use style="fill:#ff7f0e;stroke:#ff7f0e;" x="354.318297" xlink:href="#m75304c0ad3" y="204.24951"/>
     <use style="fill:#ff7f0e;stroke:#ff7f0e;" x="358.171001" xlink:href="#m75304c0ad3" y="226.205186"/>
     <use style="fill:#ff7f0e;stroke:#ff7f0e;" x="362.023705" xlink:href="#m75304c0ad3" y="202.801898"/>
     <use style="fill:#ff7f0e;stroke:#ff7f0e;" x="369.729114" xlink:href="#m75304c0ad3" y="207.214939"/>
     <use style="fill:#ff7f0e;stroke:#ff7f0e;" x="373.581818" xlink:href="#m75304c0ad3" y="242.116364"/>
    </g>
   </g>
   <g id="patch_3">
    <path d="M 54 252 
L 54 34.56 
" style="fill:none;stroke:#000000;stroke-linecap:square;stroke-linejoin:miter;stroke-width:0.8;"/>
   </g>
   <g id="patch_4">
    <path d="M 388.8 252 
L 388.8 34.56 
" style="fill:none;stroke:#000000;stroke-linecap:square;stroke-linejoin:miter;stroke-width:0.8;"/>
   </g>
   <g id="patch_5">
    <path d="M 54 252 
L 388.8 252 
" style="fill:none;stroke:#000000;stroke-linecap:square;stroke-linejoin:miter;stroke-width:0.8;"/>
   </g>
   <g id="patch_6">
    <path d="M 54 34.56 
L 388.8 34.56 
" style="fill:none;stroke:#000000;stroke-linecap:square;stroke-linejoin:miter;stroke-width:0.8;"/>
   </g>
   <g id="legend_1">
    <g id="patch_7">
     <path d="M 258.892187 71.91625 
L 381.8 71.91625 
Q 383.8 71.91625 383.8 69.91625 
L 383.8 41.56 
Q 383.8 39.56 381.8 39.56 
L 258.892187 39.56 
Q 256.892187 39.56 256.892187 41.56 
L 256.892187 69.91625 
Q 256.892187 71.91625 258.892187 71.91625 
z
" style="fill:#ffffff;opacity:0.8;stroke:#cccccc;stroke-linejoin:miter;"/>
    </g>
    <g id="line2d_33">
     <path d="M 260.892187 47.658437 
L 280.892187 47.658437 
" style="fill:none;stroke:#1f77b4;stroke-dasharray:5.55,2.4;stroke-dashoffset:0;stroke-width:1.5;"/>
    </g>
    <g id="line2d_34">
     <g>
      <use style="fill:#1f77b4;stroke:#1f77b4;" x="270.892187" xlink:href="#m75d39d71ee" y="47.658437"/>
     </g>
    </g>
    <g id="text_18">
     <!-- 5000eV, coluna: 1 -->
     <defs>
      <path d="M 11.71875 12.40625 
L 22.015625 12.40625 
L 22.015625 4 
L 14.015625 -11.625 
L 7.71875 -11.625 
L 11.71875 4 
z
" id="DejaVuSans-2c"/>
      <path d="M 48.78125 52.59375 
L 48.78125 44.1875 
Q 44.96875 46.296875 41.140625 47.34375 
Q 37.3125 48.390625 33.40625 48.390625 
Q 24.65625 48.390625 19.8125 42.84375 
Q 14.984375 37.3125 14.984375 27.296875 
Q 14.984375 17.28125 19.8125 11.734375 
Q 24.65625 6.203125 33.40625 6.203125 
Q 37.3125 6.203125 41.140625 7.25 
Q 44.96875 8.296875 48.78125 10.40625 
L 48.78125 2.09375 
Q 45.015625 0.34375 40.984375 -0.53125 
Q 36.96875 -1.421875 32.421875 -1.421875 
Q 20.0625 -1.421875 12.78125 6.34375 
Q 5.515625 14.109375 5.515625 27.296875 
Q 5.515625 40.671875 12.859375 48.328125 
Q 20.21875 56 33.015625 56 
Q 37.15625 56 41.109375 55.140625 
Q 45.0625 54.296875 48.78125 52.59375 
z
" id="DejaVuSans-63"/>
      <path d="M 30.609375 48.390625 
Q 23.390625 48.390625 19.1875 42.75 
Q 14.984375 37.109375 14.984375 27.296875 
Q 14.984375 17.484375 19.15625 11.84375 
Q 23.34375 6.203125 30.609375 6.203125 
Q 37.796875 6.203125 41.984375 11.859375 
Q 46.1875 17.53125 46.1875 27.296875 
Q 46.1875 37.015625 41.984375 42.703125 
Q 37.796875 48.390625 30.609375 48.390625 
z
M 30.609375 56 
Q 42.328125 56 49.015625 48.375 
Q 55.71875 40.765625 55.71875 27.296875 
Q 55.71875 13.875 49.015625 6.21875 
Q 42.328125 -1.421875 30.609375 -1.421875 
Q 18.84375 -1.421875 12.171875 6.21875 
Q 5.515625 13.875 5.515625 27.296875 
Q 5.515625 40.765625 12.171875 48.375 
Q 18.84375 56 30.609375 56 
z
" id="DejaVuSans-6f"/>
      <path d="M 9.421875 75.984375 
L 18.40625 75.984375 
L 18.40625 0 
L 9.421875 0 
z
" id="DejaVuSans-6c"/>
      <path d="M 8.5 21.578125 
L 8.5 54.6875 
L 17.484375 54.6875 
L 17.484375 21.921875 
Q 17.484375 14.15625 20.5 10.265625 
Q 23.53125 6.390625 29.59375 6.390625 
Q 36.859375 6.390625 41.078125 11.03125 
Q 45.3125 15.671875 45.3125 23.6875 
L 45.3125 54.6875 
L 54.296875 54.6875 
L 54.296875 0 
L 45.3125 0 
L 45.3125 8.40625 
Q 42.046875 3.421875 37.71875 1 
Q 33.40625 -1.421875 27.6875 -1.421875 
Q 18.265625 -1.421875 13.375 4.4375 
Q 8.5 10.296875 8.5 21.578125 
z
M 31.109375 56 
z
" id="DejaVuSans-75"/>
      <path d="M 34.28125 27.484375 
Q 23.390625 27.484375 19.1875 25 
Q 14.984375 22.515625 14.984375 16.5 
Q 14.984375 11.71875 18.140625 8.90625 
Q 21.296875 6.109375 26.703125 6.109375 
Q 34.1875 6.109375 38.703125 11.40625 
Q 43.21875 16.703125 43.21875 25.484375 
L 43.21875 27.484375 
z
M 52.203125 31.203125 
L 52.203125 0 
L 43.21875 0 
L 43.21875 8.296875 
Q 40.140625 3.328125 35.546875 0.953125 
Q 30.953125 -1.421875 24.3125 -1.421875 
Q 15.921875 -1.421875 10.953125 3.296875 
Q 6 8.015625 6 15.921875 
Q 6 25.140625 12.171875 29.828125 
Q 18.359375 34.515625 30.609375 34.515625 
L 43.21875 34.515625 
L 43.21875 35.40625 
Q 43.21875 41.609375 39.140625 45 
Q 35.0625 48.390625 27.6875 48.390625 
Q 23 48.390625 18.546875 47.265625 
Q 14.109375 46.140625 10.015625 43.890625 
L 10.015625 52.203125 
Q 14.9375 54.109375 19.578125 55.046875 
Q 24.21875 56 28.609375 56 
Q 40.484375 56 46.34375 49.84375 
Q 52.203125 43.703125 52.203125 31.203125 
z
" id="DejaVuSans-61"/>
      <path d="M 11.71875 12.40625 
L 22.015625 12.40625 
L 22.015625 0 
L 11.71875 0 
z
M 11.71875 51.703125 
L 22.015625 51.703125 
L 22.015625 39.3125 
L 11.71875 39.3125 
z
" id="DejaVuSans-3a"/>
     </defs>
     <g transform="translate(288.892187 51.158437)scale(0.1 -0.1)">
      <use xlink:href="#DejaVuSans-35"/>
      <use x="63.623047" xlink:href="#DejaVuSans-30"/>
      <use x="127.246094" xlink:href="#DejaVuSans-30"/>
      <use x="190.869141" xlink:href="#DejaVuSans-30"/>
      <use x="254.492188" xlink:href="#DejaVuSans-65"/>
      <use x="316.015625" xlink:href="#DejaVuSans-56"/>
      <use x="384.423828" xlink:href="#DejaVuSans-2c"/>
      <use x="416.210938" xlink:href="#DejaVuSans-20"/>
      <use x="447.998047" xlink:href="#DejaVuSans-63"/>
      <use x="502.978516" xlink:href="#DejaVuSans-6f"/>
      <use x="564.160156" xlink:href="#DejaVuSans-6c"/>
      <use x="591.943359" xlink:href="#DejaVuSans-75"/>
      <use x="655.322266" xlink:href="#DejaVuSans-6e"/>
      <use x="718.701172" xlink:href="#DejaVuSans-61"/>
      <use x="779.980469" xlink:href="#DejaVuSans-3a"/>
      <use x="813.671875" xlink:href="#DejaVuSans-20"/>
      <use x="845.458984" xlink:href="#DejaVuSans-31"/>
     </g>
    </g>
    <g id="line2d_35">
     <path d="M 260.892187 62.336562 
L 280.892187 62.336562 
" style="fill:none;stroke:#ff7f0e;stroke-dasharray:5.55,2.4;stroke-dashoffset:0;stroke-width:1.5;"/>
    </g>
    <g id="line2d_36">
     <g>
      <use style="fill:#ff7f0e;stroke:#ff7f0e;" x="270.892187" xlink:href="#m75304c0ad3" y="62.336562"/>
     </g>
    </g>
    <g id="text_19">
     <!-- 5000eV, coluna: 2 -->
     <g transform="translate(288.892187 65.836562)scale(0.1 -0.1)">
      <use xlink:href="#DejaVuSans-35"/>
      <use x="63.623047" xlink:href="#DejaVuSans-30"/>
      <use x="127.246094" xlink:href="#DejaVuSans-30"/>
      <use x="190.869141" xlink:href="#DejaVuSans-30"/>
      <use x="254.492188" xlink:href="#DejaVuSans-65"/>
      <use x="316.015625" xlink:href="#DejaVuSans-56"/>
      <use x="384.423828" xlink:href="#DejaVuSans-2c"/>
      <use x="416.210938" xlink:href="#DejaVuSans-20"/>
      <use x="447.998047" xlink:href="#DejaVuSans-63"/>
      <use x="502.978516" xlink:href="#DejaVuSans-6f"/>
      <use x="564.160156" xlink:href="#DejaVuSans-6c"/>
      <use x="591.943359" xlink:href="#DejaVuSans-75"/>
      <use x="655.322266" xlink:href="#DejaVuSans-6e"/>
      <use x="718.701172" xlink:href="#DejaVuSans-61"/>
      <use x="779.980469" xlink:href="#DejaVuSans-3a"/>
      <use x="813.671875" xlink:href="#DejaVuSans-20"/>
      <use x="845.458984" xlink:href="#DejaVuSans-32"/>
     </g>
    </g>
   </g>
  </g>
 </g>
 <defs>
  <clipPath id="p3453051eb9">
   <rect height="217.44" width="334.8" x="54" y="34.56"/>
  </clipPath>
 </defs>
</svg>
