<?xml version="1.0" encoding="utf-8" standalone="no"?>
<!DOCTYPE svg PUBLIC "-//W3C//DTD SVG 1.1//EN"
  "http://www.w3.org/Graphics/SVG/1.1/DTD/svg11.dtd">
<!-- Created with matplotlib (https://matplotlib.org/) -->
<svg height="504pt" version="1.1" viewBox="0 0 864 504" width="864pt" xmlns="http://www.w3.org/2000/svg" xmlns:xlink="http://www.w3.org/1999/xlink">
 <defs>
  <style type="text/css">
*{stroke-linecap:butt;stroke-linejoin:round;}
  </style>
 </defs>
 <g id="figure_1">
  <g id="patch_1">
   <path d="M 0 504 
L 864 504 
L 864 0 
L 0 0 
z
" style="fill:#ffffff;"/>
  </g>
  <g id="axes_1">
   <g id="patch_2">
    <path d="M 108 441 
L 777.6 441 
L 777.6 60.48 
L 108 60.48 
z
" style="fill:#ffffff;"/>
   </g>
   <g id="PathCollection_1">
    <defs>
     <path d="M 0 3 
C 0.795609 3 1.55874 2.683901 2.12132 2.12132 
C 2.683901 1.55874 3 0.795609 3 0 
C 3 -0.795609 2.683901 -1.55874 2.12132 -2.12132 
C 1.55874 -2.683901 0.795609 -3 0 -3 
C -0.795609 -3 -1.55874 -2.683901 -2.12132 -2.12132 
C -2.683901 -1.55874 -3 -0.795609 -3 0 
C -3 0.795609 -2.683901 1.55874 -2.12132 2.12132 
C -1.55874 2.683901 -0.795609 3 0 3 
z
" id="m0c4fc3139a" style="stroke:#1f77b4;"/>
    </defs>
    <g clip-path="url(#p84ac671584)">
     <use style="fill:#1f77b4;stroke:#1f77b4;" x="138.436364" xlink:href="#m0c4fc3139a" y="88.319695"/>
     <use style="fill:#1f77b4;stroke:#1f77b4;" x="168.872727" xlink:href="#m0c4fc3139a" y="106.22305"/>
     <use style="fill:#1f77b4;stroke:#1f77b4;" x="184.090909" xlink:href="#m0c4fc3139a" y="110.972136"/>
     <use style="fill:#1f77b4;stroke:#1f77b4;" x="199.309091" xlink:href="#m0c4fc3139a" y="119.301285"/>
     <use style="fill:#1f77b4;stroke:#1f77b4;" x="229.745455" xlink:href="#m0c4fc3139a" y="130.702807"/>
     <use style="fill:#1f77b4;stroke:#1f77b4;" x="244.963636" xlink:href="#m0c4fc3139a" y="133.642128"/>
     <use style="fill:#1f77b4;stroke:#1f77b4;" x="260.181818" xlink:href="#m0c4fc3139a" y="140.209609"/>
     <use style="fill:#1f77b4;stroke:#1f77b4;" x="290.618182" xlink:href="#m0c4fc3139a" y="148.57772"/>
     <use style="fill:#1f77b4;stroke:#1f77b4;" x="305.836364" xlink:href="#m0c4fc3139a" y="150.580223"/>
     <use style="fill:#1f77b4;stroke:#1f77b4;" x="321.054545" xlink:href="#m0c4fc3139a" y="156.415227"/>
     <use style="fill:#1f77b4;stroke:#1f77b4;" x="351.490909" xlink:href="#m0c4fc3139a" y="164.019076"/>
     <use style="fill:#1f77b4;stroke:#1f77b4;" x="366.709091" xlink:href="#m0c4fc3139a" y="165.54827"/>
     <use style="fill:#1f77b4;stroke:#1f77b4;" x="381.927273" xlink:href="#m0c4fc3139a" y="171.023853"/>
     <use style="fill:#1f77b4;stroke:#1f77b4;" x="412.363636" xlink:href="#m0c4fc3139a" y="178.329071"/>
     <use style="fill:#1f77b4;stroke:#1f77b4;" x="427.581818" xlink:href="#m0c4fc3139a" y="180.148246"/>
     <use style="fill:#1f77b4;stroke:#1f77b4;" x="442.8" xlink:href="#m0c4fc3139a" y="185.802396"/>
     <use style="fill:#1f77b4;stroke:#1f77b4;" x="473.236364" xlink:href="#m0c4fc3139a" y="193.175256"/>
     <use style="fill:#1f77b4;stroke:#1f77b4;" x="488.454545" xlink:href="#m0c4fc3139a" y="194.08106"/>
     <use style="fill:#1f77b4;stroke:#1f77b4;" x="503.672727" xlink:href="#m0c4fc3139a" y="199.598747"/>
     <use style="fill:#1f77b4;stroke:#1f77b4;" x="534.109091" xlink:href="#m0c4fc3139a" y="206.902202"/>
     <use style="fill:#1f77b4;stroke:#1f77b4;" x="549.327273" xlink:href="#m0c4fc3139a" y="208.386996"/>
     <use style="fill:#1f77b4;stroke:#1f77b4;" x="564.545455" xlink:href="#m0c4fc3139a" y="214.557902"/>
     <use style="fill:#1f77b4;stroke:#1f77b4;" x="594.981818" xlink:href="#m0c4fc3139a" y="221.368465"/>
     <use style="fill:#1f77b4;stroke:#1f77b4;" x="610.2" xlink:href="#m0c4fc3139a" y="222.643304"/>
     <use style="fill:#1f77b4;stroke:#1f77b4;" x="625.418182" xlink:href="#m0c4fc3139a" y="227.507096"/>
     <use style="fill:#1f77b4;stroke:#1f77b4;" x="655.854545" xlink:href="#m0c4fc3139a" y="233.951486"/>
     <use style="fill:#1f77b4;stroke:#1f77b4;" x="671.072727" xlink:href="#m0c4fc3139a" y="235.816903"/>
     <use style="fill:#1f77b4;stroke:#1f77b4;" x="686.290909" xlink:href="#m0c4fc3139a" y="241.73473"/>
     <use style="fill:#1f77b4;stroke:#1f77b4;" x="716.727273" xlink:href="#m0c4fc3139a" y="248.136998"/>
     <use style="fill:#1f77b4;stroke:#1f77b4;" x="731.945455" xlink:href="#m0c4fc3139a" y="249.464886"/>
     <use style="fill:#1f77b4;stroke:#1f77b4;" x="747.163636" xlink:href="#m0c4fc3139a" y="253.813344"/>
    </g>
   </g>
   <g id="PathCollection_2">
    <defs>
     <path d="M 0 3 
C 0.795609 3 1.55874 2.683901 2.12132 2.12132 
C 2.683901 1.55874 3 0.795609 3 0 
C 3 -0.795609 2.683901 -1.55874 2.12132 -2.12132 
C 1.55874 -2.683901 0.795609 -3 0 -3 
C -0.795609 -3 -1.55874 -2.683901 -2.12132 -2.12132 
C -2.683901 -1.55874 -3 -0.795609 -3 0 
C -3 0.795609 -2.683901 1.55874 -2.12132 2.12132 
C -1.55874 2.683901 -0.795609 3 0 3 
z
" id="m57f406802b" style="stroke:#ff7f0e;"/>
    </defs>
    <g clip-path="url(#p84ac671584)">
     <use style="fill:#ff7f0e;stroke:#ff7f0e;" x="138.436364" xlink:href="#m57f406802b" y="89.038768"/>
     <use style="fill:#ff7f0e;stroke:#ff7f0e;" x="168.872727" xlink:href="#m57f406802b" y="141.483606"/>
     <use style="fill:#ff7f0e;stroke:#ff7f0e;" x="184.090909" xlink:href="#m57f406802b" y="163.301757"/>
     <use style="fill:#ff7f0e;stroke:#ff7f0e;" x="199.309091" xlink:href="#m57f406802b" y="183.462039"/>
     <use style="fill:#ff7f0e;stroke:#ff7f0e;" x="229.745455" xlink:href="#m57f406802b" y="211.567399"/>
     <use style="fill:#ff7f0e;stroke:#ff7f0e;" x="244.963636" xlink:href="#m57f406802b" y="220.928873"/>
     <use style="fill:#ff7f0e;stroke:#ff7f0e;" x="260.181818" xlink:href="#m57f406802b" y="233.095431"/>
     <use style="fill:#ff7f0e;stroke:#ff7f0e;" x="290.618182" xlink:href="#m57f406802b" y="250.901269"/>
     <use style="fill:#ff7f0e;stroke:#ff7f0e;" x="305.836364" xlink:href="#m57f406802b" y="256.965425"/>
     <use style="fill:#ff7f0e;stroke:#ff7f0e;" x="321.054545" xlink:href="#m57f406802b" y="266.524026"/>
     <use style="fill:#ff7f0e;stroke:#ff7f0e;" x="351.490909" xlink:href="#m57f406802b" y="280.759931"/>
     <use style="fill:#ff7f0e;stroke:#ff7f0e;" x="366.709091" xlink:href="#m57f406802b" y="285.271408"/>
     <use style="fill:#ff7f0e;stroke:#ff7f0e;" x="381.927273" xlink:href="#m57f406802b" y="293.544255"/>
     <use style="fill:#ff7f0e;stroke:#ff7f0e;" x="412.363636" xlink:href="#m57f406802b" y="305.972475"/>
     <use style="fill:#ff7f0e;stroke:#ff7f0e;" x="427.581818" xlink:href="#m57f406802b" y="310.150704"/>
     <use style="fill:#ff7f0e;stroke:#ff7f0e;" x="442.8" xlink:href="#m57f406802b" y="318.046964"/>
     <use style="fill:#ff7f0e;stroke:#ff7f0e;" x="473.236364" xlink:href="#m57f406802b" y="329.596483"/>
     <use style="fill:#ff7f0e;stroke:#ff7f0e;" x="488.454545" xlink:href="#m57f406802b" y="332.454523"/>
     <use style="fill:#ff7f0e;stroke:#ff7f0e;" x="503.672727" xlink:href="#m57f406802b" y="339.843945"/>
     <use style="fill:#ff7f0e;stroke:#ff7f0e;" x="534.109091" xlink:href="#m57f406802b" y="350.674078"/>
     <use style="fill:#ff7f0e;stroke:#ff7f0e;" x="549.327273" xlink:href="#m57f406802b" y="353.82456"/>
     <use style="fill:#ff7f0e;stroke:#ff7f0e;" x="564.545455" xlink:href="#m57f406802b" y="361.602128"/>
     <use style="fill:#ff7f0e;stroke:#ff7f0e;" x="594.981818" xlink:href="#m57f406802b" y="371.465099"/>
     <use style="fill:#ff7f0e;stroke:#ff7f0e;" x="610.2" xlink:href="#m57f406802b" y="374.192568"/>
     <use style="fill:#ff7f0e;stroke:#ff7f0e;" x="625.418182" xlink:href="#m57f406802b" y="380.463846"/>
     <use style="fill:#ff7f0e;stroke:#ff7f0e;" x="655.854545" xlink:href="#m57f406802b" y="389.598992"/>
     <use style="fill:#ff7f0e;stroke:#ff7f0e;" x="671.072727" xlink:href="#m57f406802b" y="392.752511"/>
     <use style="fill:#ff7f0e;stroke:#ff7f0e;" x="686.290909" xlink:href="#m57f406802b" y="399.923593"/>
     <use style="fill:#ff7f0e;stroke:#ff7f0e;" x="716.727273" xlink:href="#m57f406802b" y="408.729378"/>
     <use style="fill:#ff7f0e;stroke:#ff7f0e;" x="731.945455" xlink:href="#m57f406802b" y="411.22086"/>
     <use style="fill:#ff7f0e;stroke:#ff7f0e;" x="747.163636" xlink:href="#m57f406802b" y="416.708937"/>
    </g>
   </g>
   <g id="PathCollection_3">
    <defs>
     <path d="M 0 3 
C 0.795609 3 1.55874 2.683901 2.12132 2.12132 
C 2.683901 1.55874 3 0.795609 3 0 
C 3 -0.795609 2.683901 -1.55874 2.12132 -2.12132 
C 1.55874 -2.683901 0.795609 -3 0 -3 
C -0.795609 -3 -1.55874 -2.683901 -2.12132 -2.12132 
C -2.683901 -1.55874 -3 -0.795609 -3 0 
C -3 0.795609 -2.683901 1.55874 -2.12132 2.12132 
C -1.55874 2.683901 -0.795609 3 0 3 
z
" id="me2347d982b" style="stroke:#2ca02c;"/>
    </defs>
    <g clip-path="url(#p84ac671584)">
     <use style="fill:#2ca02c;stroke:#2ca02c;" x="138.436364" xlink:href="#me2347d982b" y="88.774041"/>
     <use style="fill:#2ca02c;stroke:#2ca02c;" x="168.872727" xlink:href="#me2347d982b" y="107.451703"/>
     <use style="fill:#2ca02c;stroke:#2ca02c;" x="184.090909" xlink:href="#me2347d982b" y="113.341145"/>
     <use style="fill:#2ca02c;stroke:#2ca02c;" x="199.309091" xlink:href="#me2347d982b" y="147.693702"/>
     <use style="fill:#2ca02c;stroke:#2ca02c;" x="229.745455" xlink:href="#me2347d982b" y="181.500944"/>
     <use style="fill:#2ca02c;stroke:#2ca02c;" x="244.963636" xlink:href="#me2347d982b" y="191.991167"/>
     <use style="fill:#2ca02c;stroke:#2ca02c;" x="260.181818" xlink:href="#me2347d982b" y="204.855897"/>
     <use style="fill:#2ca02c;stroke:#2ca02c;" x="290.618182" xlink:href="#me2347d982b" y="222.717665"/>
     <use style="fill:#2ca02c;stroke:#2ca02c;" x="305.836364" xlink:href="#me2347d982b" y="228.91411"/>
     <use style="fill:#2ca02c;stroke:#2ca02c;" x="321.054545" xlink:href="#me2347d982b" y="238.587124"/>
     <use style="fill:#2ca02c;stroke:#2ca02c;" x="351.490909" xlink:href="#me2347d982b" y="252.998508"/>
     <use style="fill:#2ca02c;stroke:#2ca02c;" x="366.709091" xlink:href="#me2347d982b" y="257.577244"/>
     <use style="fill:#2ca02c;stroke:#2ca02c;" x="381.927273" xlink:href="#me2347d982b" y="265.903811"/>
     <use style="fill:#2ca02c;stroke:#2ca02c;" x="412.363636" xlink:href="#me2347d982b" y="278.418063"/>
     <use style="fill:#2ca02c;stroke:#2ca02c;" x="427.581818" xlink:href="#me2347d982b" y="282.633135"/>
     <use style="fill:#2ca02c;stroke:#2ca02c;" x="442.8" xlink:href="#me2347d982b" y="290.561632"/>
     <use style="fill:#2ca02c;stroke:#2ca02c;" x="473.236364" xlink:href="#me2347d982b" y="302.164313"/>
     <use style="fill:#2ca02c;stroke:#2ca02c;" x="488.454545" xlink:href="#me2347d982b" y="305.044667"/>
     <use style="fill:#2ca02c;stroke:#2ca02c;" x="503.672727" xlink:href="#me2347d982b" y="312.453926"/>
     <use style="fill:#2ca02c;stroke:#2ca02c;" x="534.109091" xlink:href="#me2347d982b" y="323.31785"/>
     <use style="fill:#2ca02c;stroke:#2ca02c;" x="549.327273" xlink:href="#me2347d982b" y="326.482786"/>
     <use style="fill:#2ca02c;stroke:#2ca02c;" x="564.545455" xlink:href="#me2347d982b" y="334.27353"/>
     <use style="fill:#2ca02c;stroke:#2ca02c;" x="594.981818" xlink:href="#me2347d982b" y="344.159393"/>
     <use style="fill:#2ca02c;stroke:#2ca02c;" x="610.2" xlink:href="#me2347d982b" y="346.896877"/>
     <use style="fill:#2ca02c;stroke:#2ca02c;" x="625.418182" xlink:href="#me2347d982b" y="353.177457"/>
     <use style="fill:#2ca02c;stroke:#2ca02c;" x="655.854545" xlink:href="#me2347d982b" y="362.329048"/>
     <use style="fill:#2ca02c;stroke:#2ca02c;" x="671.072727" xlink:href="#me2347d982b" y="365.489718"/>
     <use style="fill:#2ca02c;stroke:#2ca02c;" x="686.290909" xlink:href="#me2347d982b" y="372.666853"/>
     <use style="fill:#2ca02c;stroke:#2ca02c;" x="716.727273" xlink:href="#me2347d982b" y="381.487364"/>
     <use style="fill:#2ca02c;stroke:#2ca02c;" x="731.945455" xlink:href="#me2347d982b" y="383.97756"/>
     <use style="fill:#2ca02c;stroke:#2ca02c;" x="747.163636" xlink:href="#me2347d982b" y="389.459406"/>
    </g>
   </g>
   <g id="PathCollection_4">
    <defs>
     <path d="M 0 3 
C 0.795609 3 1.55874 2.683901 2.12132 2.12132 
C 2.683901 1.55874 3 0.795609 3 0 
C 3 -0.795609 2.683901 -1.55874 2.12132 -2.12132 
C 1.55874 -2.683901 0.795609 -3 0 -3 
C -0.795609 -3 -1.55874 -2.683901 -2.12132 -2.12132 
C -2.683901 -1.55874 -3 -0.795609 -3 0 
C -3 0.795609 -2.683901 1.55874 -2.12132 2.12132 
C -1.55874 2.683901 -0.795609 3 0 3 
z
" id="m5fd91220b0" style="stroke:#d62728;"/>
    </defs>
    <g clip-path="url(#p84ac671584)">
     <use style="fill:#d62728;stroke:#d62728;" x="138.436364" xlink:href="#m5fd91220b0" y="94.51412"/>
     <use style="fill:#d62728;stroke:#d62728;" x="168.872727" xlink:href="#m5fd91220b0" y="110.396512"/>
     <use style="fill:#d62728;stroke:#d62728;" x="184.090909" xlink:href="#m5fd91220b0" y="114.885566"/>
     <use style="fill:#d62728;stroke:#d62728;" x="199.309091" xlink:href="#m5fd91220b0" y="123.082576"/>
     <use style="fill:#d62728;stroke:#d62728;" x="229.745455" xlink:href="#m5fd91220b0" y="134.321834"/>
     <use style="fill:#d62728;stroke:#d62728;" x="244.963636" xlink:href="#m5fd91220b0" y="137.182382"/>
     <use style="fill:#d62728;stroke:#d62728;" x="260.181818" xlink:href="#m5fd91220b0" y="143.662802"/>
     <use style="fill:#d62728;stroke:#d62728;" x="290.618182" xlink:href="#m5fd91220b0" y="151.834382"/>
     <use style="fill:#d62728;stroke:#d62728;" x="305.836364" xlink:href="#m5fd91220b0" y="153.727586"/>
     <use style="fill:#d62728;stroke:#d62728;" x="321.054545" xlink:href="#m5fd91220b0" y="159.454127"/>
     <use style="fill:#d62728;stroke:#d62728;" x="351.490909" xlink:href="#m5fd91220b0" y="166.826712"/>
     <use style="fill:#d62728;stroke:#d62728;" x="366.709091" xlink:href="#m5fd91220b0" y="168.243901"/>
     <use style="fill:#d62728;stroke:#d62728;" x="381.927273" xlink:href="#m5fd91220b0" y="173.604903"/>
     <use style="fill:#d62728;stroke:#d62728;" x="412.363636" xlink:href="#m5fd91220b0" y="180.702036"/>
     <use style="fill:#d62728;stroke:#d62728;" x="427.581818" xlink:href="#m5fd91220b0" y="182.42301"/>
     <use style="fill:#d62728;stroke:#d62728;" x="442.8" xlink:href="#m5fd91220b0" y="187.984747"/>
     <use style="fill:#d62728;stroke:#d62728;" x="473.236364" xlink:href="#m5fd91220b0" y="195.193502"/>
     <use style="fill:#d62728;stroke:#d62728;" x="488.454545" xlink:href="#m5fd91220b0" y="196.025752"/>
     <use style="fill:#d62728;stroke:#d62728;" x="503.672727" xlink:href="#m5fd91220b0" y="201.47808"/>
     <use style="fill:#d62728;stroke:#d62728;" x="534.109091" xlink:href="#m5fd91220b0" y="208.671562"/>
     <use style="fill:#d62728;stroke:#d62728;" x="549.327273" xlink:href="#m5fd91220b0" y="210.113023"/>
     <use style="fill:#d62728;stroke:#d62728;" x="564.545455" xlink:href="#m5fd91220b0" y="216.244285"/>
     <use style="fill:#d62728;stroke:#d62728;" x="594.981818" xlink:href="#m5fd91220b0" y="222.998184"/>
     <use style="fill:#d62728;stroke:#d62728;" x="610.2" xlink:href="#m5fd91220b0" y="224.25338"/>
     <use style="fill:#d62728;stroke:#d62728;" x="625.418182" xlink:href="#m5fd91220b0" y="229.104654"/>
     <use style="fill:#d62728;stroke:#d62728;" x="655.854545" xlink:href="#m5fd91220b0" y="235.534141"/>
     <use style="fill:#d62728;stroke:#d62728;" x="671.072727" xlink:href="#m5fd91220b0" y="237.400228"/>
     <use style="fill:#d62728;stroke:#d62728;" x="686.290909" xlink:href="#m5fd91220b0" y="243.325835"/>
     <use style="fill:#d62728;stroke:#d62728;" x="716.727273" xlink:href="#m5fd91220b0" y="249.746305"/>
     <use style="fill:#d62728;stroke:#d62728;" x="731.945455" xlink:href="#m5fd91220b0" y="251.090696"/>
     <use style="fill:#d62728;stroke:#d62728;" x="747.163636" xlink:href="#m5fd91220b0" y="255.45842"/>
    </g>
   </g>
   <g id="PathCollection_5">
    <defs>
     <path d="M 0 3 
C 0.795609 3 1.55874 2.683901 2.12132 2.12132 
C 2.683901 1.55874 3 0.795609 3 0 
C 3 -0.795609 2.683901 -1.55874 2.12132 -2.12132 
C 1.55874 -2.683901 0.795609 -3 0 -3 
C -0.795609 -3 -1.55874 -2.683901 -2.12132 -2.12132 
C -2.683901 -1.55874 -3 -0.795609 -3 0 
C -3 0.795609 -2.683901 1.55874 -2.12132 2.12132 
C -1.55874 2.683901 -0.795609 3 0 3 
z
" id="mb10f0b9a40" style="stroke:#9467bd;"/>
    </defs>
    <g clip-path="url(#p84ac671584)">
     <use style="fill:#9467bd;stroke:#9467bd;" x="138.436364" xlink:href="#mb10f0b9a40" y="95.233193"/>
     <use style="fill:#9467bd;stroke:#9467bd;" x="168.872727" xlink:href="#mb10f0b9a40" y="145.657067"/>
     <use style="fill:#9467bd;stroke:#9467bd;" x="184.090909" xlink:href="#mb10f0b9a40" y="167.215186"/>
     <use style="fill:#9467bd;stroke:#9467bd;" x="199.309091" xlink:href="#mb10f0b9a40" y="187.24333"/>
     <use style="fill:#9467bd;stroke:#9467bd;" x="229.745455" xlink:href="#mb10f0b9a40" y="215.186425"/>
     <use style="fill:#9467bd;stroke:#9467bd;" x="244.963636" xlink:href="#mb10f0b9a40" y="224.469125"/>
     <use style="fill:#9467bd;stroke:#9467bd;" x="260.181818" xlink:href="#mb10f0b9a40" y="236.548623"/>
     <use style="fill:#9467bd;stroke:#9467bd;" x="290.618182" xlink:href="#mb10f0b9a40" y="254.157931"/>
     <use style="fill:#9467bd;stroke:#9467bd;" x="305.836364" xlink:href="#mb10f0b9a40" y="260.112789"/>
     <use style="fill:#9467bd;stroke:#9467bd;" x="321.054545" xlink:href="#mb10f0b9a40" y="269.562928"/>
     <use style="fill:#9467bd;stroke:#9467bd;" x="351.490909" xlink:href="#mb10f0b9a40" y="283.567567"/>
     <use style="fill:#9467bd;stroke:#9467bd;" x="366.709091" xlink:href="#mb10f0b9a40" y="287.967039"/>
     <use style="fill:#9467bd;stroke:#9467bd;" x="381.927273" xlink:href="#mb10f0b9a40" y="296.125305"/>
     <use style="fill:#9467bd;stroke:#9467bd;" x="412.363636" xlink:href="#mb10f0b9a40" y="308.345439"/>
     <use style="fill:#9467bd;stroke:#9467bd;" x="427.581818" xlink:href="#mb10f0b9a40" y="312.425466"/>
     <use style="fill:#9467bd;stroke:#9467bd;" x="442.8" xlink:href="#mb10f0b9a40" y="320.229316"/>
     <use style="fill:#9467bd;stroke:#9467bd;" x="473.236364" xlink:href="#mb10f0b9a40" y="331.614731"/>
     <use style="fill:#9467bd;stroke:#9467bd;" x="488.454545" xlink:href="#mb10f0b9a40" y="334.399214"/>
     <use style="fill:#9467bd;stroke:#9467bd;" x="503.672727" xlink:href="#mb10f0b9a40" y="341.723279"/>
     <use style="fill:#9467bd;stroke:#9467bd;" x="534.109091" xlink:href="#mb10f0b9a40" y="352.44344"/>
     <use style="fill:#9467bd;stroke:#9467bd;" x="549.327273" xlink:href="#mb10f0b9a40" y="355.550586"/>
     <use style="fill:#9467bd;stroke:#9467bd;" x="564.545455" xlink:href="#mb10f0b9a40" y="363.288512"/>
     <use style="fill:#9467bd;stroke:#9467bd;" x="594.981818" xlink:href="#mb10f0b9a40" y="373.094808"/>
     <use style="fill:#9467bd;stroke:#9467bd;" x="610.2" xlink:href="#mb10f0b9a40" y="375.802639"/>
     <use style="fill:#9467bd;stroke:#9467bd;" x="625.418182" xlink:href="#mb10f0b9a40" y="382.061444"/>
     <use style="fill:#9467bd;stroke:#9467bd;" x="655.854545" xlink:href="#mb10f0b9a40" y="391.181888"/>
     <use style="fill:#9467bd;stroke:#9467bd;" x="671.072727" xlink:href="#mb10f0b9a40" y="394.335615"/>
     <use style="fill:#9467bd;stroke:#9467bd;" x="686.290909" xlink:href="#mb10f0b9a40" y="401.514642"/>
     <use style="fill:#9467bd;stroke:#9467bd;" x="716.727273" xlink:href="#mb10f0b9a40" y="410.342426"/>
     <use style="fill:#9467bd;stroke:#9467bd;" x="731.945455" xlink:href="#mb10f0b9a40" y="412.83984"/>
     <use style="fill:#9467bd;stroke:#9467bd;" x="747.163636" xlink:href="#mb10f0b9a40" y="418.321614"/>
    </g>
   </g>
   <g id="PathCollection_6">
    <defs>
     <path d="M 0 3 
C 0.795609 3 1.55874 2.683901 2.12132 2.12132 
C 2.683901 1.55874 3 0.795609 3 0 
C 3 -0.795609 2.683901 -1.55874 2.12132 -2.12132 
C 1.55874 -2.683901 0.795609 -3 0 -3 
C -0.795609 -3 -1.55874 -2.683901 -2.12132 -2.12132 
C -2.683901 -1.55874 -3 -0.795609 -3 0 
C -3 0.795609 -2.683901 1.55874 -2.12132 2.12132 
C -1.55874 2.683901 -0.795609 3 0 3 
z
" id="m051e3c59d9" style="stroke:#8c564b;"/>
    </defs>
    <g clip-path="url(#p84ac671584)">
     <use style="fill:#8c564b;stroke:#8c564b;" x="138.436364" xlink:href="#m051e3c59d9" y="94.968466"/>
     <use style="fill:#8c564b;stroke:#8c564b;" x="168.872727" xlink:href="#m051e3c59d9" y="111.625165"/>
     <use style="fill:#8c564b;stroke:#8c564b;" x="184.090909" xlink:href="#m051e3c59d9" y="117.254574"/>
     <use style="fill:#8c564b;stroke:#8c564b;" x="199.309091" xlink:href="#m051e3c59d9" y="151.474995"/>
     <use style="fill:#8c564b;stroke:#8c564b;" x="229.745455" xlink:href="#m051e3c59d9" y="185.119973"/>
     <use style="fill:#8c564b;stroke:#8c564b;" x="244.963636" xlink:href="#m051e3c59d9" y="195.531423"/>
     <use style="fill:#8c564b;stroke:#8c564b;" x="260.181818" xlink:href="#m051e3c59d9" y="208.309087"/>
     <use style="fill:#8c564b;stroke:#8c564b;" x="290.618182" xlink:href="#m051e3c59d9" y="225.974326"/>
     <use style="fill:#8c564b;stroke:#8c564b;" x="305.836364" xlink:href="#m051e3c59d9" y="232.061472"/>
     <use style="fill:#8c564b;stroke:#8c564b;" x="321.054545" xlink:href="#m051e3c59d9" y="241.626024"/>
     <use style="fill:#8c564b;stroke:#8c564b;" x="351.490909" xlink:href="#m051e3c59d9" y="255.806144"/>
     <use style="fill:#8c564b;stroke:#8c564b;" x="366.709091" xlink:href="#m051e3c59d9" y="260.272873"/>
     <use style="fill:#8c564b;stroke:#8c564b;" x="381.927273" xlink:href="#m051e3c59d9" y="268.484861"/>
     <use style="fill:#8c564b;stroke:#8c564b;" x="412.363636" xlink:href="#m051e3c59d9" y="280.791025"/>
     <use style="fill:#8c564b;stroke:#8c564b;" x="427.581818" xlink:href="#m051e3c59d9" y="284.9079"/>
     <use style="fill:#8c564b;stroke:#8c564b;" x="442.8" xlink:href="#m051e3c59d9" y="292.743983"/>
     <use style="fill:#8c564b;stroke:#8c564b;" x="473.236364" xlink:href="#m051e3c59d9" y="304.182562"/>
     <use style="fill:#8c564b;stroke:#8c564b;" x="488.454545" xlink:href="#m051e3c59d9" y="306.989357"/>
     <use style="fill:#8c564b;stroke:#8c564b;" x="503.672727" xlink:href="#m051e3c59d9" y="314.333259"/>
     <use style="fill:#8c564b;stroke:#8c564b;" x="534.109091" xlink:href="#m051e3c59d9" y="325.087211"/>
     <use style="fill:#8c564b;stroke:#8c564b;" x="549.327273" xlink:href="#m051e3c59d9" y="328.208809"/>
     <use style="fill:#8c564b;stroke:#8c564b;" x="564.545455" xlink:href="#m051e3c59d9" y="335.959912"/>
     <use style="fill:#8c564b;stroke:#8c564b;" x="594.981818" xlink:href="#m051e3c59d9" y="345.789113"/>
     <use style="fill:#8c564b;stroke:#8c564b;" x="610.2" xlink:href="#m051e3c59d9" y="348.506954"/>
     <use style="fill:#8c564b;stroke:#8c564b;" x="625.418182" xlink:href="#m051e3c59d9" y="354.775015"/>
     <use style="fill:#8c564b;stroke:#8c564b;" x="655.854545" xlink:href="#m051e3c59d9" y="363.911701"/>
     <use style="fill:#8c564b;stroke:#8c564b;" x="671.072727" xlink:href="#m051e3c59d9" y="367.073045"/>
     <use style="fill:#8c564b;stroke:#8c564b;" x="686.290909" xlink:href="#m051e3c59d9" y="374.257959"/>
     <use style="fill:#8c564b;stroke:#8c564b;" x="716.727273" xlink:href="#m051e3c59d9" y="383.096703"/>
     <use style="fill:#8c564b;stroke:#8c564b;" x="731.945455" xlink:href="#m051e3c59d9" y="385.603407"/>
     <use style="fill:#8c564b;stroke:#8c564b;" x="747.163636" xlink:href="#m051e3c59d9" y="391.104159"/>
    </g>
   </g>
   <g id="matplotlib.axis_1">
    <g id="xtick_1">
     <g id="line2d_1">
      <path clip-path="url(#p84ac671584)" d="M 123.218182 441 
L 123.218182 60.48 
" style="fill:none;stroke:#b0b0b0;stroke-linecap:square;stroke-width:0.8;"/>
     </g>
     <g id="line2d_2">
      <defs>
       <path d="M 0 0 
L 0 3.5 
" id="m08998f3b09" style="stroke:#000000;stroke-width:0.8;"/>
      </defs>
      <g>
       <use style="stroke:#000000;stroke-width:0.8;" x="123.218182" xlink:href="#m08998f3b09" y="441"/>
      </g>
     </g>
     <g id="text_1">
      <!-- 0 -->
      <defs>
       <path d="M 31.78125 66.40625 
Q 24.171875 66.40625 20.328125 58.90625 
Q 16.5 51.421875 16.5 36.375 
Q 16.5 21.390625 20.328125 13.890625 
Q 24.171875 6.390625 31.78125 6.390625 
Q 39.453125 6.390625 43.28125 13.890625 
Q 47.125 21.390625 47.125 36.375 
Q 47.125 51.421875 43.28125 58.90625 
Q 39.453125 66.40625 31.78125 66.40625 
z
M 31.78125 74.21875 
Q 44.046875 74.21875 50.515625 64.515625 
Q 56.984375 54.828125 56.984375 36.375 
Q 56.984375 17.96875 50.515625 8.265625 
Q 44.046875 -1.421875 31.78125 -1.421875 
Q 19.53125 -1.421875 13.0625 8.265625 
Q 6.59375 17.96875 6.59375 36.375 
Q 6.59375 54.828125 13.0625 64.515625 
Q 19.53125 74.21875 31.78125 74.21875 
z
" id="DejaVuSans-48"/>
      </defs>
      <g transform="translate(116.855682 463.196875)scale(0.2 -0.2)">
       <use xlink:href="#DejaVuSans-48"/>
      </g>
     </g>
    </g>
    <g id="xtick_2">
     <g id="line2d_3">
      <path clip-path="url(#p84ac671584)" d="M 207.763636 441 
L 207.763636 60.48 
" style="fill:none;stroke:#b0b0b0;stroke-linecap:square;stroke-width:0.8;"/>
     </g>
     <g id="line2d_4">
      <g>
       <use style="stroke:#000000;stroke-width:0.8;" x="207.763636" xlink:href="#m08998f3b09" y="441"/>
      </g>
     </g>
     <g id="text_2">
      <!-- 50 -->
      <defs>
       <path d="M 10.796875 72.90625 
L 49.515625 72.90625 
L 49.515625 64.59375 
L 19.828125 64.59375 
L 19.828125 46.734375 
Q 21.96875 47.46875 24.109375 47.828125 
Q 26.265625 48.1875 28.421875 48.1875 
Q 40.625 48.1875 47.75 41.5 
Q 54.890625 34.8125 54.890625 23.390625 
Q 54.890625 11.625 47.5625 5.09375 
Q 40.234375 -1.421875 26.90625 -1.421875 
Q 22.3125 -1.421875 17.546875 -0.640625 
Q 12.796875 0.140625 7.71875 1.703125 
L 7.71875 11.625 
Q 12.109375 9.234375 16.796875 8.0625 
Q 21.484375 6.890625 26.703125 6.890625 
Q 35.15625 6.890625 40.078125 11.328125 
Q 45.015625 15.765625 45.015625 23.390625 
Q 45.015625 31 40.078125 35.4375 
Q 35.15625 39.890625 26.703125 39.890625 
Q 22.75 39.890625 18.8125 39.015625 
Q 14.890625 38.140625 10.796875 36.28125 
z
" id="DejaVuSans-53"/>
      </defs>
      <g transform="translate(195.038636 463.196875)scale(0.2 -0.2)">
       <use xlink:href="#DejaVuSans-53"/>
       <use x="63.623047" xlink:href="#DejaVuSans-48"/>
      </g>
     </g>
    </g>
    <g id="xtick_3">
     <g id="line2d_5">
      <path clip-path="url(#p84ac671584)" d="M 292.309091 441 
L 292.309091 60.48 
" style="fill:none;stroke:#b0b0b0;stroke-linecap:square;stroke-width:0.8;"/>
     </g>
     <g id="line2d_6">
      <g>
       <use style="stroke:#000000;stroke-width:0.8;" x="292.309091" xlink:href="#m08998f3b09" y="441"/>
      </g>
     </g>
     <g id="text_3">
      <!-- 100 -->
      <defs>
       <path d="M 12.40625 8.296875 
L 28.515625 8.296875 
L 28.515625 63.921875 
L 10.984375 60.40625 
L 10.984375 69.390625 
L 28.421875 72.90625 
L 38.28125 72.90625 
L 38.28125 8.296875 
L 54.390625 8.296875 
L 54.390625 0 
L 12.40625 0 
z
" id="DejaVuSans-49"/>
      </defs>
      <g transform="translate(273.221591 463.196875)scale(0.2 -0.2)">
       <use xlink:href="#DejaVuSans-49"/>
       <use x="63.623047" xlink:href="#DejaVuSans-48"/>
       <use x="127.246094" xlink:href="#DejaVuSans-48"/>
      </g>
     </g>
    </g>
    <g id="xtick_4">
     <g id="line2d_7">
      <path clip-path="url(#p84ac671584)" d="M 376.854545 441 
L 376.854545 60.48 
" style="fill:none;stroke:#b0b0b0;stroke-linecap:square;stroke-width:0.8;"/>
     </g>
     <g id="line2d_8">
      <g>
       <use style="stroke:#000000;stroke-width:0.8;" x="376.854545" xlink:href="#m08998f3b09" y="441"/>
      </g>
     </g>
     <g id="text_4">
      <!-- 150 -->
      <g transform="translate(357.767045 463.196875)scale(0.2 -0.2)">
       <use xlink:href="#DejaVuSans-49"/>
       <use x="63.623047" xlink:href="#DejaVuSans-53"/>
       <use x="127.246094" xlink:href="#DejaVuSans-48"/>
      </g>
     </g>
    </g>
    <g id="xtick_5">
     <g id="line2d_9">
      <path clip-path="url(#p84ac671584)" d="M 461.4 441 
L 461.4 60.48 
" style="fill:none;stroke:#b0b0b0;stroke-linecap:square;stroke-width:0.8;"/>
     </g>
     <g id="line2d_10">
      <g>
       <use style="stroke:#000000;stroke-width:0.8;" x="461.4" xlink:href="#m08998f3b09" y="441"/>
      </g>
     </g>
     <g id="text_5">
      <!-- 200 -->
      <defs>
       <path d="M 19.1875 8.296875 
L 53.609375 8.296875 
L 53.609375 0 
L 7.328125 0 
L 7.328125 8.296875 
Q 12.9375 14.109375 22.625 23.890625 
Q 32.328125 33.6875 34.8125 36.53125 
Q 39.546875 41.84375 41.421875 45.53125 
Q 43.3125 49.21875 43.3125 52.78125 
Q 43.3125 58.59375 39.234375 62.25 
Q 35.15625 65.921875 28.609375 65.921875 
Q 23.96875 65.921875 18.8125 64.3125 
Q 13.671875 62.703125 7.8125 59.421875 
L 7.8125 69.390625 
Q 13.765625 71.78125 18.9375 73 
Q 24.125 74.21875 28.421875 74.21875 
Q 39.75 74.21875 46.484375 68.546875 
Q 53.21875 62.890625 53.21875 53.421875 
Q 53.21875 48.921875 51.53125 44.890625 
Q 49.859375 40.875 45.40625 35.40625 
Q 44.1875 33.984375 37.640625 27.21875 
Q 31.109375 20.453125 19.1875 8.296875 
z
" id="DejaVuSans-50"/>
      </defs>
      <g transform="translate(442.3125 463.196875)scale(0.2 -0.2)">
       <use xlink:href="#DejaVuSans-50"/>
       <use x="63.623047" xlink:href="#DejaVuSans-48"/>
       <use x="127.246094" xlink:href="#DejaVuSans-48"/>
      </g>
     </g>
    </g>
    <g id="xtick_6">
     <g id="line2d_11">
      <path clip-path="url(#p84ac671584)" d="M 545.945455 441 
L 545.945455 60.48 
" style="fill:none;stroke:#b0b0b0;stroke-linecap:square;stroke-width:0.8;"/>
     </g>
     <g id="line2d_12">
      <g>
       <use style="stroke:#000000;stroke-width:0.8;" x="545.945455" xlink:href="#m08998f3b09" y="441"/>
      </g>
     </g>
     <g id="text_6">
      <!-- 250 -->
      <g transform="translate(526.857955 463.196875)scale(0.2 -0.2)">
       <use xlink:href="#DejaVuSans-50"/>
       <use x="63.623047" xlink:href="#DejaVuSans-53"/>
       <use x="127.246094" xlink:href="#DejaVuSans-48"/>
      </g>
     </g>
    </g>
    <g id="xtick_7">
     <g id="line2d_13">
      <path clip-path="url(#p84ac671584)" d="M 630.490909 441 
L 630.490909 60.48 
" style="fill:none;stroke:#b0b0b0;stroke-linecap:square;stroke-width:0.8;"/>
     </g>
     <g id="line2d_14">
      <g>
       <use style="stroke:#000000;stroke-width:0.8;" x="630.490909" xlink:href="#m08998f3b09" y="441"/>
      </g>
     </g>
     <g id="text_7">
      <!-- 300 -->
      <defs>
       <path d="M 40.578125 39.3125 
Q 47.65625 37.796875 51.625 33 
Q 55.609375 28.21875 55.609375 21.1875 
Q 55.609375 10.40625 48.1875 4.484375 
Q 40.765625 -1.421875 27.09375 -1.421875 
Q 22.515625 -1.421875 17.65625 -0.515625 
Q 12.796875 0.390625 7.625 2.203125 
L 7.625 11.71875 
Q 11.71875 9.328125 16.59375 8.109375 
Q 21.484375 6.890625 26.8125 6.890625 
Q 36.078125 6.890625 40.9375 10.546875 
Q 45.796875 14.203125 45.796875 21.1875 
Q 45.796875 27.640625 41.28125 31.265625 
Q 36.765625 34.90625 28.71875 34.90625 
L 20.21875 34.90625 
L 20.21875 43.015625 
L 29.109375 43.015625 
Q 36.375 43.015625 40.234375 45.921875 
Q 44.09375 48.828125 44.09375 54.296875 
Q 44.09375 59.90625 40.109375 62.90625 
Q 36.140625 65.921875 28.71875 65.921875 
Q 24.65625 65.921875 20.015625 65.03125 
Q 15.375 64.15625 9.8125 62.3125 
L 9.8125 71.09375 
Q 15.4375 72.65625 20.34375 73.4375 
Q 25.25 74.21875 29.59375 74.21875 
Q 40.828125 74.21875 47.359375 69.109375 
Q 53.90625 64.015625 53.90625 55.328125 
Q 53.90625 49.265625 50.4375 45.09375 
Q 46.96875 40.921875 40.578125 39.3125 
z
" id="DejaVuSans-51"/>
      </defs>
      <g transform="translate(611.403409 463.196875)scale(0.2 -0.2)">
       <use xlink:href="#DejaVuSans-51"/>
       <use x="63.623047" xlink:href="#DejaVuSans-48"/>
       <use x="127.246094" xlink:href="#DejaVuSans-48"/>
      </g>
     </g>
    </g>
    <g id="xtick_8">
     <g id="line2d_15">
      <path clip-path="url(#p84ac671584)" d="M 715.036364 441 
L 715.036364 60.48 
" style="fill:none;stroke:#b0b0b0;stroke-linecap:square;stroke-width:0.8;"/>
     </g>
     <g id="line2d_16">
      <g>
       <use style="stroke:#000000;stroke-width:0.8;" x="715.036364" xlink:href="#m08998f3b09" y="441"/>
      </g>
     </g>
     <g id="text_8">
      <!-- 350 -->
      <g transform="translate(695.948864 463.196875)scale(0.2 -0.2)">
       <use xlink:href="#DejaVuSans-51"/>
       <use x="63.623047" xlink:href="#DejaVuSans-53"/>
       <use x="127.246094" xlink:href="#DejaVuSans-48"/>
      </g>
     </g>
    </g>
    <g id="text_9">
     <!-- Energy (keV) -->
     <defs>
      <path d="M 9.8125 72.90625 
L 55.90625 72.90625 
L 55.90625 64.59375 
L 19.671875 64.59375 
L 19.671875 43.015625 
L 54.390625 43.015625 
L 54.390625 34.71875 
L 19.671875 34.71875 
L 19.671875 8.296875 
L 56.78125 8.296875 
L 56.78125 0 
L 9.8125 0 
z
" id="DejaVuSans-69"/>
      <path d="M 54.890625 33.015625 
L 54.890625 0 
L 45.90625 0 
L 45.90625 32.71875 
Q 45.90625 40.484375 42.875 44.328125 
Q 39.84375 48.1875 33.796875 48.1875 
Q 26.515625 48.1875 22.3125 43.546875 
Q 18.109375 38.921875 18.109375 30.90625 
L 18.109375 0 
L 9.078125 0 
L 9.078125 54.6875 
L 18.109375 54.6875 
L 18.109375 46.1875 
Q 21.34375 51.125 25.703125 53.5625 
Q 30.078125 56 35.796875 56 
Q 45.21875 56 50.046875 50.171875 
Q 54.890625 44.34375 54.890625 33.015625 
z
" id="DejaVuSans-110"/>
      <path d="M 56.203125 29.59375 
L 56.203125 25.203125 
L 14.890625 25.203125 
Q 15.484375 15.921875 20.484375 11.0625 
Q 25.484375 6.203125 34.421875 6.203125 
Q 39.59375 6.203125 44.453125 7.46875 
Q 49.3125 8.734375 54.109375 11.28125 
L 54.109375 2.78125 
Q 49.265625 0.734375 44.1875 -0.34375 
Q 39.109375 -1.421875 33.890625 -1.421875 
Q 20.796875 -1.421875 13.15625 6.1875 
Q 5.515625 13.8125 5.515625 26.8125 
Q 5.515625 40.234375 12.765625 48.109375 
Q 20.015625 56 32.328125 56 
Q 43.359375 56 49.78125 48.890625 
Q 56.203125 41.796875 56.203125 29.59375 
z
M 47.21875 32.234375 
Q 47.125 39.59375 43.09375 43.984375 
Q 39.0625 48.390625 32.421875 48.390625 
Q 24.90625 48.390625 20.390625 44.140625 
Q 15.875 39.890625 15.1875 32.171875 
z
" id="DejaVuSans-101"/>
      <path d="M 41.109375 46.296875 
Q 39.59375 47.171875 37.8125 47.578125 
Q 36.03125 48 33.890625 48 
Q 26.265625 48 22.1875 43.046875 
Q 18.109375 38.09375 18.109375 28.8125 
L 18.109375 0 
L 9.078125 0 
L 9.078125 54.6875 
L 18.109375 54.6875 
L 18.109375 46.1875 
Q 20.953125 51.171875 25.484375 53.578125 
Q 30.03125 56 36.53125 56 
Q 37.453125 56 38.578125 55.875 
Q 39.703125 55.765625 41.0625 55.515625 
z
" id="DejaVuSans-114"/>
      <path d="M 45.40625 27.984375 
Q 45.40625 37.75 41.375 43.109375 
Q 37.359375 48.484375 30.078125 48.484375 
Q 22.859375 48.484375 18.828125 43.109375 
Q 14.796875 37.75 14.796875 27.984375 
Q 14.796875 18.265625 18.828125 12.890625 
Q 22.859375 7.515625 30.078125 7.515625 
Q 37.359375 7.515625 41.375 12.890625 
Q 45.40625 18.265625 45.40625 27.984375 
z
M 54.390625 6.78125 
Q 54.390625 -7.171875 48.1875 -13.984375 
Q 42 -20.796875 29.203125 -20.796875 
Q 24.46875 -20.796875 20.265625 -20.09375 
Q 16.0625 -19.390625 12.109375 -17.921875 
L 12.109375 -9.1875 
Q 16.0625 -11.328125 19.921875 -12.34375 
Q 23.78125 -13.375 27.78125 -13.375 
Q 36.625 -13.375 41.015625 -8.765625 
Q 45.40625 -4.15625 45.40625 5.171875 
L 45.40625 9.625 
Q 42.625 4.78125 38.28125 2.390625 
Q 33.9375 0 27.875 0 
Q 17.828125 0 11.671875 7.65625 
Q 5.515625 15.328125 5.515625 27.984375 
Q 5.515625 40.671875 11.671875 48.328125 
Q 17.828125 56 27.875 56 
Q 33.9375 56 38.28125 53.609375 
Q 42.625 51.21875 45.40625 46.390625 
L 45.40625 54.6875 
L 54.390625 54.6875 
z
" id="DejaVuSans-103"/>
      <path d="M 32.171875 -5.078125 
Q 28.375 -14.84375 24.75 -17.8125 
Q 21.140625 -20.796875 15.09375 -20.796875 
L 7.90625 -20.796875 
L 7.90625 -13.28125 
L 13.1875 -13.28125 
Q 16.890625 -13.28125 18.9375 -11.515625 
Q 21 -9.765625 23.484375 -3.21875 
L 25.09375 0.875 
L 2.984375 54.6875 
L 12.5 54.6875 
L 29.59375 11.921875 
L 46.6875 54.6875 
L 56.203125 54.6875 
z
" id="DejaVuSans-121"/>
      <path id="DejaVuSans-32"/>
      <path d="M 31 75.875 
Q 24.46875 64.65625 21.28125 53.65625 
Q 18.109375 42.671875 18.109375 31.390625 
Q 18.109375 20.125 21.3125 9.0625 
Q 24.515625 -2 31 -13.1875 
L 23.1875 -13.1875 
Q 15.875 -1.703125 12.234375 9.375 
Q 8.59375 20.453125 8.59375 31.390625 
Q 8.59375 42.28125 12.203125 53.3125 
Q 15.828125 64.359375 23.1875 75.875 
z
" id="DejaVuSans-40"/>
      <path d="M 9.078125 75.984375 
L 18.109375 75.984375 
L 18.109375 31.109375 
L 44.921875 54.6875 
L 56.390625 54.6875 
L 27.390625 29.109375 
L 57.625 0 
L 45.90625 0 
L 18.109375 26.703125 
L 18.109375 0 
L 9.078125 0 
z
" id="DejaVuSans-107"/>
      <path d="M 28.609375 0 
L 0.78125 72.90625 
L 11.078125 72.90625 
L 34.1875 11.53125 
L 57.328125 72.90625 
L 67.578125 72.90625 
L 39.796875 0 
z
" id="DejaVuSans-86"/>
      <path d="M 8.015625 75.875 
L 15.828125 75.875 
Q 23.140625 64.359375 26.78125 53.3125 
Q 30.421875 42.28125 30.421875 31.390625 
Q 30.421875 20.453125 26.78125 9.375 
Q 23.140625 -1.703125 15.828125 -13.1875 
L 8.015625 -13.1875 
Q 14.5 -2 17.703125 9.0625 
Q 20.90625 20.125 20.90625 31.390625 
Q 20.90625 42.671875 17.703125 53.65625 
Q 14.5 64.65625 8.015625 75.875 
z
" id="DejaVuSans-41"/>
     </defs>
     <g transform="translate(378.384375 486.553125)scale(0.2 -0.2)">
      <use xlink:href="#DejaVuSans-69"/>
      <use x="63.183594" xlink:href="#DejaVuSans-110"/>
      <use x="126.5625" xlink:href="#DejaVuSans-101"/>
      <use x="188.085938" xlink:href="#DejaVuSans-114"/>
      <use x="227.449219" xlink:href="#DejaVuSans-103"/>
      <use x="290.925781" xlink:href="#DejaVuSans-121"/>
      <use x="350.105469" xlink:href="#DejaVuSans-32"/>
      <use x="381.892578" xlink:href="#DejaVuSans-40"/>
      <use x="420.90625" xlink:href="#DejaVuSans-107"/>
      <use x="475.191406" xlink:href="#DejaVuSans-101"/>
      <use x="536.714844" xlink:href="#DejaVuSans-86"/>
      <use x="605.123047" xlink:href="#DejaVuSans-41"/>
     </g>
    </g>
   </g>
   <g id="matplotlib.axis_2">
    <g id="ytick_1">
     <g id="line2d_17">
      <path clip-path="url(#p84ac671584)" d="M 108 441 
L 777.6 441 
" style="fill:none;stroke:#b0b0b0;stroke-linecap:square;stroke-width:0.8;"/>
     </g>
     <g id="line2d_18">
      <defs>
       <path d="M 0 0 
L -3.5 0 
" id="m5ed6e36fc5" style="stroke:#000000;stroke-width:0.8;"/>
      </defs>
      <g>
       <use style="stroke:#000000;stroke-width:0.8;" x="108" xlink:href="#m5ed6e36fc5" y="441"/>
      </g>
     </g>
     <g id="text_10">
      <!-- $\mathdefault{10^{-14}}$ -->
      <defs>
       <path d="M 10.59375 35.5 
L 73.1875 35.5 
L 73.1875 27.203125 
L 10.59375 27.203125 
z
" id="DejaVuSans-8722"/>
       <path d="M 37.796875 64.3125 
L 12.890625 25.390625 
L 37.796875 25.390625 
z
M 35.203125 72.90625 
L 47.609375 72.90625 
L 47.609375 25.390625 
L 58.015625 25.390625 
L 58.015625 17.1875 
L 47.609375 17.1875 
L 47.609375 0 
L 37.796875 0 
L 37.796875 17.1875 
L 4.890625 17.1875 
L 4.890625 26.703125 
z
" id="DejaVuSans-52"/>
      </defs>
      <g transform="translate(45.2 448.598438)scale(0.2 -0.2)">
       <use transform="translate(0 0.684375)" xlink:href="#DejaVuSans-49"/>
       <use transform="translate(63.623047 0.684375)" xlink:href="#DejaVuSans-48"/>
       <use transform="translate(128.203125 38.965625)scale(0.7)" xlink:href="#DejaVuSans-8722"/>
       <use transform="translate(186.855469 38.965625)scale(0.7)" xlink:href="#DejaVuSans-49"/>
       <use transform="translate(231.391602 38.965625)scale(0.7)" xlink:href="#DejaVuSans-52"/>
      </g>
     </g>
    </g>
    <g id="ytick_2">
     <g id="line2d_19">
      <path clip-path="url(#p84ac671584)" d="M 108 388.514483 
L 777.6 388.514483 
" style="fill:none;stroke:#b0b0b0;stroke-linecap:square;stroke-width:0.8;"/>
     </g>
     <g id="line2d_20">
      <g>
       <use style="stroke:#000000;stroke-width:0.8;" x="108" xlink:href="#m5ed6e36fc5" y="388.514483"/>
      </g>
     </g>
     <g id="text_11">
      <!-- $\mathdefault{10^{-10}}$ -->
      <g transform="translate(45.2 396.11292)scale(0.2 -0.2)">
       <use transform="translate(0 0.765625)" xlink:href="#DejaVuSans-49"/>
       <use transform="translate(63.623047 0.765625)" xlink:href="#DejaVuSans-48"/>
       <use transform="translate(128.203125 39.046875)scale(0.7)" xlink:href="#DejaVuSans-8722"/>
       <use transform="translate(186.855469 39.046875)scale(0.7)" xlink:href="#DejaVuSans-49"/>
       <use transform="translate(231.391602 39.046875)scale(0.7)" xlink:href="#DejaVuSans-48"/>
      </g>
     </g>
    </g>
    <g id="ytick_3">
     <g id="line2d_21">
      <path clip-path="url(#p84ac671584)" d="M 108 336.028966 
L 777.6 336.028966 
" style="fill:none;stroke:#b0b0b0;stroke-linecap:square;stroke-width:0.8;"/>
     </g>
     <g id="line2d_22">
      <g>
       <use style="stroke:#000000;stroke-width:0.8;" x="108" xlink:href="#m5ed6e36fc5" y="336.028966"/>
      </g>
     </g>
     <g id="text_12">
      <!-- $\mathdefault{10^{-6}}$ -->
      <defs>
       <path d="M 33.015625 40.375 
Q 26.375 40.375 22.484375 35.828125 
Q 18.609375 31.296875 18.609375 23.390625 
Q 18.609375 15.53125 22.484375 10.953125 
Q 26.375 6.390625 33.015625 6.390625 
Q 39.65625 6.390625 43.53125 10.953125 
Q 47.40625 15.53125 47.40625 23.390625 
Q 47.40625 31.296875 43.53125 35.828125 
Q 39.65625 40.375 33.015625 40.375 
z
M 52.59375 71.296875 
L 52.59375 62.3125 
Q 48.875 64.0625 45.09375 64.984375 
Q 41.3125 65.921875 37.59375 65.921875 
Q 27.828125 65.921875 22.671875 59.328125 
Q 17.53125 52.734375 16.796875 39.40625 
Q 19.671875 43.65625 24.015625 45.921875 
Q 28.375 48.1875 33.59375 48.1875 
Q 44.578125 48.1875 50.953125 41.515625 
Q 57.328125 34.859375 57.328125 23.390625 
Q 57.328125 12.15625 50.6875 5.359375 
Q 44.046875 -1.421875 33.015625 -1.421875 
Q 20.359375 -1.421875 13.671875 8.265625 
Q 6.984375 17.96875 6.984375 36.375 
Q 6.984375 53.65625 15.1875 63.9375 
Q 23.390625 74.21875 37.203125 74.21875 
Q 40.921875 74.21875 44.703125 73.484375 
Q 48.484375 72.75 52.59375 71.296875 
z
" id="DejaVuSans-54"/>
      </defs>
      <g transform="translate(54 343.627403)scale(0.2 -0.2)">
       <use transform="translate(0 0.765625)" xlink:href="#DejaVuSans-49"/>
       <use transform="translate(63.623047 0.765625)" xlink:href="#DejaVuSans-48"/>
       <use transform="translate(128.203125 39.046875)scale(0.7)" xlink:href="#DejaVuSans-8722"/>
       <use transform="translate(186.855469 39.046875)scale(0.7)" xlink:href="#DejaVuSans-54"/>
      </g>
     </g>
    </g>
    <g id="ytick_4">
     <g id="line2d_23">
      <path clip-path="url(#p84ac671584)" d="M 108 283.543448 
L 777.6 283.543448 
" style="fill:none;stroke:#b0b0b0;stroke-linecap:square;stroke-width:0.8;"/>
     </g>
     <g id="line2d_24">
      <g>
       <use style="stroke:#000000;stroke-width:0.8;" x="108" xlink:href="#m5ed6e36fc5" y="283.543448"/>
      </g>
     </g>
     <g id="text_13">
      <!-- $\mathdefault{10^{-2}}$ -->
      <g transform="translate(54 291.141886)scale(0.2 -0.2)">
       <use transform="translate(0 0.765625)" xlink:href="#DejaVuSans-49"/>
       <use transform="translate(63.623047 0.765625)" xlink:href="#DejaVuSans-48"/>
       <use transform="translate(128.203125 39.046875)scale(0.7)" xlink:href="#DejaVuSans-8722"/>
       <use transform="translate(186.855469 39.046875)scale(0.7)" xlink:href="#DejaVuSans-50"/>
      </g>
     </g>
    </g>
    <g id="ytick_5">
     <g id="line2d_25">
      <path clip-path="url(#p84ac671584)" d="M 108 231.057931 
L 777.6 231.057931 
" style="fill:none;stroke:#b0b0b0;stroke-linecap:square;stroke-width:0.8;"/>
     </g>
     <g id="line2d_26">
      <g>
       <use style="stroke:#000000;stroke-width:0.8;" x="108" xlink:href="#m5ed6e36fc5" y="231.057931"/>
      </g>
     </g>
     <g id="text_14">
      <!-- $\mathdefault{10^{2}}$ -->
      <g transform="translate(65.8 238.656369)scale(0.2 -0.2)">
       <use transform="translate(0 0.765625)" xlink:href="#DejaVuSans-49"/>
       <use transform="translate(63.623047 0.765625)" xlink:href="#DejaVuSans-48"/>
       <use transform="translate(128.203125 39.046875)scale(0.7)" xlink:href="#DejaVuSans-50"/>
      </g>
     </g>
    </g>
    <g id="ytick_6">
     <g id="line2d_27">
      <path clip-path="url(#p84ac671584)" d="M 108 178.572414 
L 777.6 178.572414 
" style="fill:none;stroke:#b0b0b0;stroke-linecap:square;stroke-width:0.8;"/>
     </g>
     <g id="line2d_28">
      <g>
       <use style="stroke:#000000;stroke-width:0.8;" x="108" xlink:href="#m5ed6e36fc5" y="178.572414"/>
      </g>
     </g>
     <g id="text_15">
      <!-- $\mathdefault{10^{6}}$ -->
      <g transform="translate(65.8 186.170851)scale(0.2 -0.2)">
       <use transform="translate(0 0.765625)" xlink:href="#DejaVuSans-49"/>
       <use transform="translate(63.623047 0.765625)" xlink:href="#DejaVuSans-48"/>
       <use transform="translate(128.203125 39.046875)scale(0.7)" xlink:href="#DejaVuSans-54"/>
      </g>
     </g>
    </g>
    <g id="ytick_7">
     <g id="line2d_29">
      <path clip-path="url(#p84ac671584)" d="M 108 126.086897 
L 777.6 126.086897 
" style="fill:none;stroke:#b0b0b0;stroke-linecap:square;stroke-width:0.8;"/>
     </g>
     <g id="line2d_30">
      <g>
       <use style="stroke:#000000;stroke-width:0.8;" x="108" xlink:href="#m5ed6e36fc5" y="126.086897"/>
      </g>
     </g>
     <g id="text_16">
      <!-- $\mathdefault{10^{10}}$ -->
      <g transform="translate(56.8 133.685334)scale(0.2 -0.2)">
       <use transform="translate(0 0.765625)" xlink:href="#DejaVuSans-49"/>
       <use transform="translate(63.623047 0.765625)" xlink:href="#DejaVuSans-48"/>
       <use transform="translate(128.203125 39.046875)scale(0.7)" xlink:href="#DejaVuSans-49"/>
       <use transform="translate(172.739258 39.046875)scale(0.7)" xlink:href="#DejaVuSans-48"/>
      </g>
     </g>
    </g>
    <g id="ytick_8">
     <g id="line2d_31">
      <path clip-path="url(#p84ac671584)" d="M 108 73.601379 
L 777.6 73.601379 
" style="fill:none;stroke:#b0b0b0;stroke-linecap:square;stroke-width:0.8;"/>
     </g>
     <g id="line2d_32">
      <g>
       <use style="stroke:#000000;stroke-width:0.8;" x="108" xlink:href="#m5ed6e36fc5" y="73.601379"/>
      </g>
     </g>
     <g id="text_17">
      <!-- $\mathdefault{10^{14}}$ -->
      <g transform="translate(56.8 81.199817)scale(0.2 -0.2)">
       <use transform="translate(0 0.684375)" xlink:href="#DejaVuSans-49"/>
       <use transform="translate(63.623047 0.684375)" xlink:href="#DejaVuSans-48"/>
       <use transform="translate(128.203125 38.965625)scale(0.7)" xlink:href="#DejaVuSans-49"/>
       <use transform="translate(172.739258 38.965625)scale(0.7)" xlink:href="#DejaVuSans-52"/>
      </g>
     </g>
    </g>
    <g id="text_18">
     <!-- ph/s/500mA -->
     <defs>
      <path d="M 18.109375 8.203125 
L 18.109375 -20.796875 
L 9.078125 -20.796875 
L 9.078125 54.6875 
L 18.109375 54.6875 
L 18.109375 46.390625 
Q 20.953125 51.265625 25.265625 53.625 
Q 29.59375 56 35.59375 56 
Q 45.5625 56 51.78125 48.09375 
Q 58.015625 40.1875 58.015625 27.296875 
Q 58.015625 14.40625 51.78125 6.484375 
Q 45.5625 -1.421875 35.59375 -1.421875 
Q 29.59375 -1.421875 25.265625 0.953125 
Q 20.953125 3.328125 18.109375 8.203125 
z
M 48.6875 27.296875 
Q 48.6875 37.203125 44.609375 42.84375 
Q 40.53125 48.484375 33.40625 48.484375 
Q 26.265625 48.484375 22.1875 42.84375 
Q 18.109375 37.203125 18.109375 27.296875 
Q 18.109375 17.390625 22.1875 11.75 
Q 26.265625 6.109375 33.40625 6.109375 
Q 40.53125 6.109375 44.609375 11.75 
Q 48.6875 17.390625 48.6875 27.296875 
z
" id="DejaVuSans-112"/>
      <path d="M 54.890625 33.015625 
L 54.890625 0 
L 45.90625 0 
L 45.90625 32.71875 
Q 45.90625 40.484375 42.875 44.328125 
Q 39.84375 48.1875 33.796875 48.1875 
Q 26.515625 48.1875 22.3125 43.546875 
Q 18.109375 38.921875 18.109375 30.90625 
L 18.109375 0 
L 9.078125 0 
L 9.078125 75.984375 
L 18.109375 75.984375 
L 18.109375 46.1875 
Q 21.34375 51.125 25.703125 53.5625 
Q 30.078125 56 35.796875 56 
Q 45.21875 56 50.046875 50.171875 
Q 54.890625 44.34375 54.890625 33.015625 
z
" id="DejaVuSans-104"/>
      <path d="M 25.390625 72.90625 
L 33.6875 72.90625 
L 8.296875 -9.28125 
L 0 -9.28125 
z
" id="DejaVuSans-47"/>
      <path d="M 44.28125 53.078125 
L 44.28125 44.578125 
Q 40.484375 46.53125 36.375 47.5 
Q 32.28125 48.484375 27.875 48.484375 
Q 21.1875 48.484375 17.84375 46.4375 
Q 14.5 44.390625 14.5 40.28125 
Q 14.5 37.15625 16.890625 35.375 
Q 19.28125 33.59375 26.515625 31.984375 
L 29.59375 31.296875 
Q 39.15625 29.25 43.1875 25.515625 
Q 47.21875 21.78125 47.21875 15.09375 
Q 47.21875 7.46875 41.1875 3.015625 
Q 35.15625 -1.421875 24.609375 -1.421875 
Q 20.21875 -1.421875 15.453125 -0.5625 
Q 10.6875 0.296875 5.421875 2 
L 5.421875 11.28125 
Q 10.40625 8.6875 15.234375 7.390625 
Q 20.0625 6.109375 24.8125 6.109375 
Q 31.15625 6.109375 34.5625 8.28125 
Q 37.984375 10.453125 37.984375 14.40625 
Q 37.984375 18.0625 35.515625 20.015625 
Q 33.0625 21.96875 24.703125 23.78125 
L 21.578125 24.515625 
Q 13.234375 26.265625 9.515625 29.90625 
Q 5.8125 33.546875 5.8125 39.890625 
Q 5.8125 47.609375 11.28125 51.796875 
Q 16.75 56 26.8125 56 
Q 31.78125 56 36.171875 55.265625 
Q 40.578125 54.546875 44.28125 53.078125 
z
" id="DejaVuSans-115"/>
      <path d="M 52 44.1875 
Q 55.375 50.25 60.0625 53.125 
Q 64.75 56 71.09375 56 
Q 79.640625 56 84.28125 50.015625 
Q 88.921875 44.046875 88.921875 33.015625 
L 88.921875 0 
L 79.890625 0 
L 79.890625 32.71875 
Q 79.890625 40.578125 77.09375 44.375 
Q 74.3125 48.1875 68.609375 48.1875 
Q 61.625 48.1875 57.5625 43.546875 
Q 53.515625 38.921875 53.515625 30.90625 
L 53.515625 0 
L 44.484375 0 
L 44.484375 32.71875 
Q 44.484375 40.625 41.703125 44.40625 
Q 38.921875 48.1875 33.109375 48.1875 
Q 26.21875 48.1875 22.15625 43.53125 
Q 18.109375 38.875 18.109375 30.90625 
L 18.109375 0 
L 9.078125 0 
L 9.078125 54.6875 
L 18.109375 54.6875 
L 18.109375 46.1875 
Q 21.1875 51.21875 25.484375 53.609375 
Q 29.78125 56 35.6875 56 
Q 41.65625 56 45.828125 52.96875 
Q 50 49.953125 52 44.1875 
z
" id="DejaVuSans-109"/>
      <path d="M 34.1875 63.1875 
L 20.796875 26.90625 
L 47.609375 26.90625 
z
M 28.609375 72.90625 
L 39.796875 72.90625 
L 67.578125 0 
L 57.328125 0 
L 50.6875 18.703125 
L 17.828125 18.703125 
L 11.1875 0 
L 0.78125 0 
z
" id="DejaVuSans-65"/>
     </defs>
     <g transform="translate(37.040625 311.041562)rotate(-90)scale(0.2 -0.2)">
      <use xlink:href="#DejaVuSans-112"/>
      <use x="63.476562" xlink:href="#DejaVuSans-104"/>
      <use x="126.855469" xlink:href="#DejaVuSans-47"/>
      <use x="160.546875" xlink:href="#DejaVuSans-115"/>
      <use x="212.646484" xlink:href="#DejaVuSans-47"/>
      <use x="246.337891" xlink:href="#DejaVuSans-53"/>
      <use x="309.960938" xlink:href="#DejaVuSans-48"/>
      <use x="373.583984" xlink:href="#DejaVuSans-48"/>
      <use x="437.207031" xlink:href="#DejaVuSans-109"/>
      <use x="534.619141" xlink:href="#DejaVuSans-65"/>
     </g>
    </g>
   </g>
   <g id="patch_3">
    <path d="M 108 441 
L 108 60.48 
" style="fill:none;stroke:#000000;stroke-linecap:square;stroke-linejoin:miter;stroke-width:0.8;"/>
   </g>
   <g id="patch_4">
    <path d="M 777.6 441 
L 777.6 60.48 
" style="fill:none;stroke:#000000;stroke-linecap:square;stroke-linejoin:miter;stroke-width:0.8;"/>
   </g>
   <g id="patch_5">
    <path d="M 108 441 
L 777.6 441 
" style="fill:none;stroke:#000000;stroke-linecap:square;stroke-linejoin:miter;stroke-width:0.8;"/>
   </g>
   <g id="patch_6">
    <path d="M 108 60.48 
L 777.6 60.48 
" style="fill:none;stroke:#000000;stroke-linecap:square;stroke-linejoin:miter;stroke-width:0.8;"/>
   </g>
   <g id="legend_1">
    <g id="patch_7">
     <path d="M 122 431 
L 367.815625 431 
Q 371.815625 431 371.815625 427 
L 371.815625 252.8625 
Q 371.815625 248.8625 367.815625 248.8625 
L 122 248.8625 
Q 118 248.8625 118 252.8625 
L 118 427 
Q 118 431 122 431 
z
" style="fill:#ffffff;opacity:0.8;stroke:#cccccc;stroke-linejoin:miter;"/>
    </g>
    <g id="PathCollection_7">
     <g>
      <use style="fill:#1f77b4;stroke:#1f77b4;" x="146" xlink:href="#m0c4fc3139a" y="266.809375"/>
     </g>
    </g>
    <g id="text_19">
     <!-- 9000eV, coluna: 1 -->
     <defs>
      <path d="M 10.984375 1.515625 
L 10.984375 10.5 
Q 14.703125 8.734375 18.5 7.8125 
Q 22.3125 6.890625 25.984375 6.890625 
Q 35.75 6.890625 40.890625 13.453125 
Q 46.046875 20.015625 46.78125 33.40625 
Q 43.953125 29.203125 39.59375 26.953125 
Q 35.25 24.703125 29.984375 24.703125 
Q 19.046875 24.703125 12.671875 31.3125 
Q 6.296875 37.9375 6.296875 49.421875 
Q 6.296875 60.640625 12.9375 67.421875 
Q 19.578125 74.21875 30.609375 74.21875 
Q 43.265625 74.21875 49.921875 64.515625 
Q 56.59375 54.828125 56.59375 36.375 
Q 56.59375 19.140625 48.40625 8.859375 
Q 40.234375 -1.421875 26.421875 -1.421875 
Q 22.703125 -1.421875 18.890625 -0.6875 
Q 15.09375 0.046875 10.984375 1.515625 
z
M 30.609375 32.421875 
Q 37.25 32.421875 41.125 36.953125 
Q 45.015625 41.5 45.015625 49.421875 
Q 45.015625 57.28125 41.125 61.84375 
Q 37.25 66.40625 30.609375 66.40625 
Q 23.96875 66.40625 20.09375 61.84375 
Q 16.21875 57.28125 16.21875 49.421875 
Q 16.21875 41.5 20.09375 36.953125 
Q 23.96875 32.421875 30.609375 32.421875 
z
" id="DejaVuSans-57"/>
      <path d="M 11.71875 12.40625 
L 22.015625 12.40625 
L 22.015625 4 
L 14.015625 -11.625 
L 7.71875 -11.625 
L 11.71875 4 
z
" id="DejaVuSans-44"/>
      <path d="M 48.78125 52.59375 
L 48.78125 44.1875 
Q 44.96875 46.296875 41.140625 47.34375 
Q 37.3125 48.390625 33.40625 48.390625 
Q 24.65625 48.390625 19.8125 42.84375 
Q 14.984375 37.3125 14.984375 27.296875 
Q 14.984375 17.28125 19.8125 11.734375 
Q 24.65625 6.203125 33.40625 6.203125 
Q 37.3125 6.203125 41.140625 7.25 
Q 44.96875 8.296875 48.78125 10.40625 
L 48.78125 2.09375 
Q 45.015625 0.34375 40.984375 -0.53125 
Q 36.96875 -1.421875 32.421875 -1.421875 
Q 20.0625 -1.421875 12.78125 6.34375 
Q 5.515625 14.109375 5.515625 27.296875 
Q 5.515625 40.671875 12.859375 48.328125 
Q 20.21875 56 33.015625 56 
Q 37.15625 56 41.109375 55.140625 
Q 45.0625 54.296875 48.78125 52.59375 
z
" id="DejaVuSans-99"/>
      <path d="M 30.609375 48.390625 
Q 23.390625 48.390625 19.1875 42.75 
Q 14.984375 37.109375 14.984375 27.296875 
Q 14.984375 17.484375 19.15625 11.84375 
Q 23.34375 6.203125 30.609375 6.203125 
Q 37.796875 6.203125 41.984375 11.859375 
Q 46.1875 17.53125 46.1875 27.296875 
Q 46.1875 37.015625 41.984375 42.703125 
Q 37.796875 48.390625 30.609375 48.390625 
z
M 30.609375 56 
Q 42.328125 56 49.015625 48.375 
Q 55.71875 40.765625 55.71875 27.296875 
Q 55.71875 13.875 49.015625 6.21875 
Q 42.328125 -1.421875 30.609375 -1.421875 
Q 18.84375 -1.421875 12.171875 6.21875 
Q 5.515625 13.875 5.515625 27.296875 
Q 5.515625 40.765625 12.171875 48.375 
Q 18.84375 56 30.609375 56 
z
" id="DejaVuSans-111"/>
      <path d="M 9.421875 75.984375 
L 18.40625 75.984375 
L 18.40625 0 
L 9.421875 0 
z
" id="DejaVuSans-108"/>
      <path d="M 8.5 21.578125 
L 8.5 54.6875 
L 17.484375 54.6875 
L 17.484375 21.921875 
Q 17.484375 14.15625 20.5 10.265625 
Q 23.53125 6.390625 29.59375 6.390625 
Q 36.859375 6.390625 41.078125 11.03125 
Q 45.3125 15.671875 45.3125 23.6875 
L 45.3125 54.6875 
L 54.296875 54.6875 
L 54.296875 0 
L 45.3125 0 
L 45.3125 8.40625 
Q 42.046875 3.421875 37.71875 1 
Q 33.40625 -1.421875 27.6875 -1.421875 
Q 18.265625 -1.421875 13.375 4.4375 
Q 8.5 10.296875 8.5 21.578125 
z
M 31.109375 56 
z
" id="DejaVuSans-117"/>
      <path d="M 34.28125 27.484375 
Q 23.390625 27.484375 19.1875 25 
Q 14.984375 22.515625 14.984375 16.5 
Q 14.984375 11.71875 18.140625 8.90625 
Q 21.296875 6.109375 26.703125 6.109375 
Q 34.1875 6.109375 38.703125 11.40625 
Q 43.21875 16.703125 43.21875 25.484375 
L 43.21875 27.484375 
z
M 52.203125 31.203125 
L 52.203125 0 
L 43.21875 0 
L 43.21875 8.296875 
Q 40.140625 3.328125 35.546875 0.953125 
Q 30.953125 -1.421875 24.3125 -1.421875 
Q 15.921875 -1.421875 10.953125 3.296875 
Q 6 8.015625 6 15.921875 
Q 6 25.140625 12.171875 29.828125 
Q 18.359375 34.515625 30.609375 34.515625 
L 43.21875 34.515625 
L 43.21875 35.40625 
Q 43.21875 41.609375 39.140625 45 
Q 35.0625 48.390625 27.6875 48.390625 
Q 23 48.390625 18.546875 47.265625 
Q 14.109375 46.140625 10.015625 43.890625 
L 10.015625 52.203125 
Q 14.9375 54.109375 19.578125 55.046875 
Q 24.21875 56 28.609375 56 
Q 40.484375 56 46.34375 49.84375 
Q 52.203125 43.703125 52.203125 31.203125 
z
" id="DejaVuSans-97"/>
      <path d="M 11.71875 12.40625 
L 22.015625 12.40625 
L 22.015625 0 
L 11.71875 0 
z
M 11.71875 51.703125 
L 22.015625 51.703125 
L 22.015625 39.3125 
L 11.71875 39.3125 
z
" id="DejaVuSans-58"/>
     </defs>
     <g transform="translate(182 272.059375)scale(0.2 -0.2)">
      <use xlink:href="#DejaVuSans-57"/>
      <use x="63.623047" xlink:href="#DejaVuSans-48"/>
      <use x="127.246094" xlink:href="#DejaVuSans-48"/>
      <use x="190.869141" xlink:href="#DejaVuSans-48"/>
      <use x="254.492188" xlink:href="#DejaVuSans-101"/>
      <use x="316.015625" xlink:href="#DejaVuSans-86"/>
      <use x="384.423828" xlink:href="#DejaVuSans-44"/>
      <use x="416.210938" xlink:href="#DejaVuSans-32"/>
      <use x="447.998047" xlink:href="#DejaVuSans-99"/>
      <use x="502.978516" xlink:href="#DejaVuSans-111"/>
      <use x="564.160156" xlink:href="#DejaVuSans-108"/>
      <use x="591.943359" xlink:href="#DejaVuSans-117"/>
      <use x="655.322266" xlink:href="#DejaVuSans-110"/>
      <use x="718.701172" xlink:href="#DejaVuSans-97"/>
      <use x="779.980469" xlink:href="#DejaVuSans-58"/>
      <use x="813.671875" xlink:href="#DejaVuSans-32"/>
      <use x="845.458984" xlink:href="#DejaVuSans-49"/>
     </g>
    </g>
    <g id="PathCollection_8">
     <g>
      <use style="fill:#ff7f0e;stroke:#ff7f0e;" x="146" xlink:href="#m57f406802b" y="296.165625"/>
     </g>
    </g>
    <g id="text_20">
     <!-- 9000eV, coluna: 2 -->
     <g transform="translate(182 301.415625)scale(0.2 -0.2)">
      <use xlink:href="#DejaVuSans-57"/>
      <use x="63.623047" xlink:href="#DejaVuSans-48"/>
      <use x="127.246094" xlink:href="#DejaVuSans-48"/>
      <use x="190.869141" xlink:href="#DejaVuSans-48"/>
      <use x="254.492188" xlink:href="#DejaVuSans-101"/>
      <use x="316.015625" xlink:href="#DejaVuSans-86"/>
      <use x="384.423828" xlink:href="#DejaVuSans-44"/>
      <use x="416.210938" xlink:href="#DejaVuSans-32"/>
      <use x="447.998047" xlink:href="#DejaVuSans-99"/>
      <use x="502.978516" xlink:href="#DejaVuSans-111"/>
      <use x="564.160156" xlink:href="#DejaVuSans-108"/>
      <use x="591.943359" xlink:href="#DejaVuSans-117"/>
      <use x="655.322266" xlink:href="#DejaVuSans-110"/>
      <use x="718.701172" xlink:href="#DejaVuSans-97"/>
      <use x="779.980469" xlink:href="#DejaVuSans-58"/>
      <use x="813.671875" xlink:href="#DejaVuSans-32"/>
      <use x="845.458984" xlink:href="#DejaVuSans-50"/>
     </g>
    </g>
    <g id="PathCollection_9">
     <g>
      <use style="fill:#2ca02c;stroke:#2ca02c;" x="146" xlink:href="#me2347d982b" y="325.521875"/>
     </g>
    </g>
    <g id="text_21">
     <!-- 9000eV, coluna: 3 -->
     <g transform="translate(182 330.771875)scale(0.2 -0.2)">
      <use xlink:href="#DejaVuSans-57"/>
      <use x="63.623047" xlink:href="#DejaVuSans-48"/>
      <use x="127.246094" xlink:href="#DejaVuSans-48"/>
      <use x="190.869141" xlink:href="#DejaVuSans-48"/>
      <use x="254.492188" xlink:href="#DejaVuSans-101"/>
      <use x="316.015625" xlink:href="#DejaVuSans-86"/>
      <use x="384.423828" xlink:href="#DejaVuSans-44"/>
      <use x="416.210938" xlink:href="#DejaVuSans-32"/>
      <use x="447.998047" xlink:href="#DejaVuSans-99"/>
      <use x="502.978516" xlink:href="#DejaVuSans-111"/>
      <use x="564.160156" xlink:href="#DejaVuSans-108"/>
      <use x="591.943359" xlink:href="#DejaVuSans-117"/>
      <use x="655.322266" xlink:href="#DejaVuSans-110"/>
      <use x="718.701172" xlink:href="#DejaVuSans-97"/>
      <use x="779.980469" xlink:href="#DejaVuSans-58"/>
      <use x="813.671875" xlink:href="#DejaVuSans-32"/>
      <use x="845.458984" xlink:href="#DejaVuSans-51"/>
     </g>
    </g>
    <g id="PathCollection_10">
     <g>
      <use style="fill:#d62728;stroke:#d62728;" x="146" xlink:href="#m5fd91220b0" y="354.878125"/>
     </g>
    </g>
    <g id="text_22">
     <!-- 9000eV, coluna: 4 -->
     <g transform="translate(182 360.128125)scale(0.2 -0.2)">
      <use xlink:href="#DejaVuSans-57"/>
      <use x="63.623047" xlink:href="#DejaVuSans-48"/>
      <use x="127.246094" xlink:href="#DejaVuSans-48"/>
      <use x="190.869141" xlink:href="#DejaVuSans-48"/>
      <use x="254.492188" xlink:href="#DejaVuSans-101"/>
      <use x="316.015625" xlink:href="#DejaVuSans-86"/>
      <use x="384.423828" xlink:href="#DejaVuSans-44"/>
      <use x="416.210938" xlink:href="#DejaVuSans-32"/>
      <use x="447.998047" xlink:href="#DejaVuSans-99"/>
      <use x="502.978516" xlink:href="#DejaVuSans-111"/>
      <use x="564.160156" xlink:href="#DejaVuSans-108"/>
      <use x="591.943359" xlink:href="#DejaVuSans-117"/>
      <use x="655.322266" xlink:href="#DejaVuSans-110"/>
      <use x="718.701172" xlink:href="#DejaVuSans-97"/>
      <use x="779.980469" xlink:href="#DejaVuSans-58"/>
      <use x="813.671875" xlink:href="#DejaVuSans-32"/>
      <use x="845.458984" xlink:href="#DejaVuSans-52"/>
     </g>
    </g>
    <g id="PathCollection_11">
     <g>
      <use style="fill:#9467bd;stroke:#9467bd;" x="146" xlink:href="#mb10f0b9a40" y="384.234375"/>
     </g>
    </g>
    <g id="text_23">
     <!-- 9000eV, coluna: 5 -->
     <g transform="translate(182 389.484375)scale(0.2 -0.2)">
      <use xlink:href="#DejaVuSans-57"/>
      <use x="63.623047" xlink:href="#DejaVuSans-48"/>
      <use x="127.246094" xlink:href="#DejaVuSans-48"/>
      <use x="190.869141" xlink:href="#DejaVuSans-48"/>
      <use x="254.492188" xlink:href="#DejaVuSans-101"/>
      <use x="316.015625" xlink:href="#DejaVuSans-86"/>
      <use x="384.423828" xlink:href="#DejaVuSans-44"/>
      <use x="416.210938" xlink:href="#DejaVuSans-32"/>
      <use x="447.998047" xlink:href="#DejaVuSans-99"/>
      <use x="502.978516" xlink:href="#DejaVuSans-111"/>
      <use x="564.160156" xlink:href="#DejaVuSans-108"/>
      <use x="591.943359" xlink:href="#DejaVuSans-117"/>
      <use x="655.322266" xlink:href="#DejaVuSans-110"/>
      <use x="718.701172" xlink:href="#DejaVuSans-97"/>
      <use x="779.980469" xlink:href="#DejaVuSans-58"/>
      <use x="813.671875" xlink:href="#DejaVuSans-32"/>
      <use x="845.458984" xlink:href="#DejaVuSans-53"/>
     </g>
    </g>
    <g id="PathCollection_12">
     <g>
      <use style="fill:#8c564b;stroke:#8c564b;" x="146" xlink:href="#m051e3c59d9" y="413.590625"/>
     </g>
    </g>
    <g id="text_24">
     <!-- 9000eV, coluna: 6 -->
     <g transform="translate(182 418.840625)scale(0.2 -0.2)">
      <use xlink:href="#DejaVuSans-57"/>
      <use x="63.623047" xlink:href="#DejaVuSans-48"/>
      <use x="127.246094" xlink:href="#DejaVuSans-48"/>
      <use x="190.869141" xlink:href="#DejaVuSans-48"/>
      <use x="254.492188" xlink:href="#DejaVuSans-101"/>
      <use x="316.015625" xlink:href="#DejaVuSans-86"/>
      <use x="384.423828" xlink:href="#DejaVuSans-44"/>
      <use x="416.210938" xlink:href="#DejaVuSans-32"/>
      <use x="447.998047" xlink:href="#DejaVuSans-99"/>
      <use x="502.978516" xlink:href="#DejaVuSans-111"/>
      <use x="564.160156" xlink:href="#DejaVuSans-108"/>
      <use x="591.943359" xlink:href="#DejaVuSans-117"/>
      <use x="655.322266" xlink:href="#DejaVuSans-110"/>
      <use x="718.701172" xlink:href="#DejaVuSans-97"/>
      <use x="779.980469" xlink:href="#DejaVuSans-58"/>
      <use x="813.671875" xlink:href="#DejaVuSans-32"/>
      <use x="845.458984" xlink:href="#DejaVuSans-54"/>
     </g>
    </g>
   </g>
  </g>
 </g>
 <defs>
  <clipPath id="p84ac671584">
   <rect height="380.52" width="669.6" x="108" y="60.48"/>
  </clipPath>
 </defs>
</svg>
