<?xml version="1.0" encoding="utf-8" standalone="no"?>
<!DOCTYPE svg PUBLIC "-//W3C//DTD SVG 1.1//EN"
  "http://www.w3.org/Graphics/SVG/1.1/DTD/svg11.dtd">
<!-- Created with matplotlib (https://matplotlib.org/) -->
<svg height="504pt" version="1.1" viewBox="0 0 864 504" width="864pt" xmlns="http://www.w3.org/2000/svg" xmlns:xlink="http://www.w3.org/1999/xlink">
 <metadata>
  <rdf:RDF xmlns:cc="http://creativecommons.org/ns#" xmlns:dc="http://purl.org/dc/elements/1.1/" xmlns:rdf="http://www.w3.org/1999/02/22-rdf-syntax-ns#">
   <cc:Work>
    <dc:type rdf:resource="http://purl.org/dc/dcmitype/StillImage"/>
    <dc:date>2020-11-26T01:20:12.799616</dc:date>
    <dc:format>image/svg+xml</dc:format>
    <dc:creator>
     <cc:Agent>
      <dc:title>Matplotlib v3.3.3, https://matplotlib.org/</dc:title>
     </cc:Agent>
    </dc:creator>
   </cc:Work>
  </rdf:RDF>
 </metadata>
 <defs>
  <style type="text/css">*{stroke-linecap:butt;stroke-linejoin:round;}</style>
 </defs>
 <g id="figure_1">
  <g id="patch_1">
   <path d="M 0 504 
L 864 504 
L 864 0 
L 0 0 
z
" style="fill:none;"/>
  </g>
  <g id="axes_1">
   <g id="patch_2">
    <path d="M 108 441 
L 777.6 441 
L 777.6 60.48 
L 108 60.48 
z
" style="fill:#ffffff;"/>
   </g>
   <g id="PathCollection_1">
    <defs>
     <path d="M 0 3 
C 0.795609 3 1.55874 2.683901 2.12132 2.12132 
C 2.683901 1.55874 3 0.795609 3 0 
C 3 -0.795609 2.683901 -1.55874 2.12132 -2.12132 
C 1.55874 -2.683901 0.795609 -3 0 -3 
C -0.795609 -3 -1.55874 -2.683901 -2.12132 -2.12132 
C -2.683901 -1.55874 -3 -0.795609 -3 0 
C -3 0.795609 -2.683901 1.55874 -2.12132 2.12132 
C -1.55874 2.683901 -0.795609 3 0 3 
z
" id="ma83a3358a0" style="stroke:#1f77b4;"/>
    </defs>
    <g clip-path="url(#pba5731c00f)">
     <use style="fill:#1f77b4;stroke:#1f77b4;" x="159.261244" xlink:href="#ma83a3358a0" y="95.067648"/>
     <use style="fill:#1f77b4;stroke:#1f77b4;" x="216.930144" xlink:href="#ma83a3358a0" y="157.748591"/>
     <use style="fill:#1f77b4;stroke:#1f77b4;" x="245.764593" xlink:href="#ma83a3358a0" y="182.02498"/>
     <use style="fill:#1f77b4;stroke:#1f77b4;" x="274.599043" xlink:href="#ma83a3358a0" y="204.193847"/>
     <use style="fill:#1f77b4;stroke:#1f77b4;" x="332.267943" xlink:href="#ma83a3358a0" y="236.953578"/>
     <use style="fill:#1f77b4;stroke:#1f77b4;" x="361.102392" xlink:href="#ma83a3358a0" y="248.853236"/>
     <use style="fill:#1f77b4;stroke:#1f77b4;" x="389.936842" xlink:href="#ma83a3358a0" y="263.549566"/>
     <use style="fill:#1f77b4;stroke:#1f77b4;" x="447.605742" xlink:href="#ma83a3358a0" y="286.551577"/>
     <use style="fill:#1f77b4;stroke:#1f77b4;" x="476.440191" xlink:href="#ma83a3358a0" y="294.808447"/>
     <use style="fill:#1f77b4;stroke:#1f77b4;" x="505.274641" xlink:href="#ma83a3358a0" y="307.000387"/>
     <use style="fill:#1f77b4;stroke:#1f77b4;" x="562.943541" xlink:href="#ma83a3358a0" y="326.466295"/>
     <use style="fill:#1f77b4;stroke:#1f77b4;" x="591.77799" xlink:href="#ma83a3358a0" y="333.413684"/>
     <use style="fill:#1f77b4;stroke:#1f77b4;" x="620.61244" xlink:href="#ma83a3358a0" y="344.576882"/>
     <use style="fill:#1f77b4;stroke:#1f77b4;" x="678.28134" xlink:href="#ma83a3358a0" y="361.998991"/>
     <use style="fill:#1f77b4;stroke:#1f77b4;" x="707.115789" xlink:href="#ma83a3358a0" y="368.529852"/>
     <use style="fill:#1f77b4;stroke:#1f77b4;" x="735.950239" xlink:href="#ma83a3358a0" y="379.157244"/>
    </g>
   </g>
   <g id="PathCollection_2">
    <defs>
     <path d="M 0 3 
C 0.795609 3 1.55874 2.683901 2.12132 2.12132 
C 2.683901 1.55874 3 0.795609 3 0 
C 3 -0.795609 2.683901 -1.55874 2.12132 -2.12132 
C 1.55874 -2.683901 0.795609 -3 0 -3 
C -0.795609 -3 -1.55874 -2.683901 -2.12132 -2.12132 
C -2.683901 -1.55874 -3 -0.795609 -3 0 
C -3 0.795609 -2.683901 1.55874 -2.12132 2.12132 
C -1.55874 2.683901 -0.795609 3 0 3 
z
" id="m21c2963d57" style="stroke:#ff7f0e;"/>
    </defs>
    <g clip-path="url(#pba5731c00f)">
     <use style="fill:#ff7f0e;stroke:#ff7f0e;" x="143.242105" xlink:href="#m21c2963d57" y="95.413036"/>
     <use style="fill:#ff7f0e;stroke:#ff7f0e;" x="168.872727" xlink:href="#m21c2963d57" y="111.146853"/>
     <use style="fill:#ff7f0e;stroke:#ff7f0e;" x="181.688038" xlink:href="#m21c2963d57" y="115.507786"/>
     <use style="fill:#ff7f0e;stroke:#ff7f0e;" x="194.503349" xlink:href="#m21c2963d57" y="138.405539"/>
     <use style="fill:#ff7f0e;stroke:#ff7f0e;" x="220.133971" xlink:href="#m21c2963d57" y="176.208374"/>
     <use style="fill:#ff7f0e;stroke:#ff7f0e;" x="232.949282" xlink:href="#m21c2963d57" y="186.776349"/>
     <use style="fill:#ff7f0e;stroke:#ff7f0e;" x="245.764593" xlink:href="#m21c2963d57" y="199.726662"/>
     <use style="fill:#ff7f0e;stroke:#ff7f0e;" x="271.395215" xlink:href="#m21c2963d57" y="217.409162"/>
     <use style="fill:#ff7f0e;stroke:#ff7f0e;" x="284.210526" xlink:href="#m21c2963d57" y="222.910383"/>
     <use style="fill:#ff7f0e;stroke:#ff7f0e;" x="297.025837" xlink:href="#m21c2963d57" y="232.243084"/>
     <use style="fill:#ff7f0e;stroke:#ff7f0e;" x="322.656459" xlink:href="#m21c2963d57" y="245.986552"/>
     <use style="fill:#ff7f0e;stroke:#ff7f0e;" x="335.47177" xlink:href="#m21c2963d57" y="250.383646"/>
     <use style="fill:#ff7f0e;stroke:#ff7f0e;" x="348.287081" xlink:href="#m21c2963d57" y="258.462213"/>
     <use style="fill:#ff7f0e;stroke:#ff7f0e;" x="373.917703" xlink:href="#m21c2963d57" y="270.067631"/>
     <use style="fill:#ff7f0e;stroke:#ff7f0e;" x="386.733014" xlink:href="#m21c2963d57" y="273.819143"/>
     <use style="fill:#ff7f0e;stroke:#ff7f0e;" x="399.548325" xlink:href="#m21c2963d57" y="281.418945"/>
     <use style="fill:#ff7f0e;stroke:#ff7f0e;" x="425.178947" xlink:href="#m21c2963d57" y="291.641692"/>
     <use style="fill:#ff7f0e;stroke:#ff7f0e;" x="437.994258" xlink:href="#m21c2963d57" y="295.174544"/>
     <use style="fill:#ff7f0e;stroke:#ff7f0e;" x="450.809569" xlink:href="#m21c2963d57" y="301.959799"/>
     <use style="fill:#ff7f0e;stroke:#ff7f0e;" x="476.440191" xlink:href="#m21c2963d57" y="311.815174"/>
     <use style="fill:#ff7f0e;stroke:#ff7f0e;" x="489.255502" xlink:href="#m21c2963d57" y="314.97426"/>
     <use style="fill:#ff7f0e;stroke:#ff7f0e;" x="502.070813" xlink:href="#m21c2963d57" y="321.570097"/>
     <use style="fill:#ff7f0e;stroke:#ff7f0e;" x="527.701435" xlink:href="#m21c2963d57" y="331.26386"/>
     <use style="fill:#ff7f0e;stroke:#ff7f0e;" x="540.516746" xlink:href="#m21c2963d57" y="333.556894"/>
     <use style="fill:#ff7f0e;stroke:#ff7f0e;" x="553.332057" xlink:href="#m21c2963d57" y="340.418712"/>
     <use style="fill:#ff7f0e;stroke:#ff7f0e;" x="578.962679" xlink:href="#m21c2963d57" y="349.471981"/>
     <use style="fill:#ff7f0e;stroke:#ff7f0e;" x="591.77799" xlink:href="#m21c2963d57" y="351.817773"/>
     <use style="fill:#ff7f0e;stroke:#ff7f0e;" x="604.593301" xlink:href="#m21c2963d57" y="357.918625"/>
     <use style="fill:#ff7f0e;stroke:#ff7f0e;" x="630.223923" xlink:href="#m21c2963d57" y="366.395872"/>
     <use style="fill:#ff7f0e;stroke:#ff7f0e;" x="643.039234" xlink:href="#m21c2963d57" y="368.131789"/>
     <use style="fill:#ff7f0e;stroke:#ff7f0e;" x="655.854545" xlink:href="#m21c2963d57" y="375.022319"/>
     <use style="fill:#ff7f0e;stroke:#ff7f0e;" x="681.485167" xlink:href="#m21c2963d57" y="382.701445"/>
     <use style="fill:#ff7f0e;stroke:#ff7f0e;" x="694.300478" xlink:href="#m21c2963d57" y="385.128035"/>
     <use style="fill:#ff7f0e;stroke:#ff7f0e;" x="707.115789" xlink:href="#m21c2963d57" y="390.542128"/>
    </g>
   </g>
   <g id="PathCollection_3">
    <defs>
     <path d="M 0 3 
C 0.795609 3 1.55874 2.683901 2.12132 2.12132 
C 2.683901 1.55874 3 0.795609 3 0 
C 3 -0.795609 2.683901 -1.55874 2.12132 -2.12132 
C 1.55874 -2.683901 0.795609 -3 0 -3 
C -0.795609 -3 -1.55874 -2.683901 -2.12132 -2.12132 
C -2.683901 -1.55874 -3 -0.795609 -3 0 
C -3 0.795609 -2.683901 1.55874 -2.12132 2.12132 
C -1.55874 2.683901 -0.795609 3 0 3 
z
" id="m3ef22f6647" style="stroke:#2ca02c;"/>
    </defs>
    <g clip-path="url(#pba5731c00f)">
     <use style="fill:#2ca02c;stroke:#2ca02c;" x="140.038278" xlink:href="#m3ef22f6647" y="96.951845"/>
     <use style="fill:#2ca02c;stroke:#2ca02c;" x="159.261244" xlink:href="#m3ef22f6647" y="110.679989"/>
     <use style="fill:#2ca02c;stroke:#2ca02c;" x="168.872727" xlink:href="#m3ef22f6647" y="113.949886"/>
     <use style="fill:#2ca02c;stroke:#2ca02c;" x="178.484211" xlink:href="#m3ef22f6647" y="121.22566"/>
     <use style="fill:#2ca02c;stroke:#2ca02c;" x="197.707177" xlink:href="#m3ef22f6647" y="151.159635"/>
     <use style="fill:#2ca02c;stroke:#2ca02c;" x="207.31866" xlink:href="#m3ef22f6647" y="164.435482"/>
     <use style="fill:#2ca02c;stroke:#2ca02c;" x="216.930144" xlink:href="#m3ef22f6647" y="178.123642"/>
     <use style="fill:#2ca02c;stroke:#2ca02c;" x="236.15311" xlink:href="#m3ef22f6647" y="196.341047"/>
     <use style="fill:#2ca02c;stroke:#2ca02c;" x="245.764593" xlink:href="#m3ef22f6647" y="202.255342"/>
     <use style="fill:#2ca02c;stroke:#2ca02c;" x="255.376077" xlink:href="#m3ef22f6647" y="211.924855"/>
     <use style="fill:#2ca02c;stroke:#2ca02c;" x="274.599043" xlink:href="#m3ef22f6647" y="224.142329"/>
     <use style="fill:#2ca02c;stroke:#2ca02c;" x="284.210526" xlink:href="#m3ef22f6647" y="227.796977"/>
     <use style="fill:#2ca02c;stroke:#2ca02c;" x="293.82201" xlink:href="#m3ef22f6647" y="235.451247"/>
     <use style="fill:#2ca02c;stroke:#2ca02c;" x="313.044976" xlink:href="#m3ef22f6647" y="246.189126"/>
     <use style="fill:#2ca02c;stroke:#2ca02c;" x="322.656459" xlink:href="#m3ef22f6647" y="249.122547"/>
     <use style="fill:#2ca02c;stroke:#2ca02c;" x="332.267943" xlink:href="#m3ef22f6647" y="255.971379"/>
     <use style="fill:#2ca02c;stroke:#2ca02c;" x="351.490909" xlink:href="#m3ef22f6647" y="265.740817"/>
     <use style="fill:#2ca02c;stroke:#2ca02c;" x="361.102392" xlink:href="#m3ef22f6647" y="267.622994"/>
     <use style="fill:#2ca02c;stroke:#2ca02c;" x="370.713876" xlink:href="#m3ef22f6647" y="274.277029"/>
     <use style="fill:#2ca02c;stroke:#2ca02c;" x="389.936842" xlink:href="#m3ef22f6647" y="282.929017"/>
     <use style="fill:#2ca02c;stroke:#2ca02c;" x="399.548325" xlink:href="#m3ef22f6647" y="285.689773"/>
     <use style="fill:#2ca02c;stroke:#2ca02c;" x="409.159809" xlink:href="#m3ef22f6647" y="291.647327"/>
     <use style="fill:#2ca02c;stroke:#2ca02c;" x="428.382775" xlink:href="#m3ef22f6647" y="299.836323"/>
     <use style="fill:#2ca02c;stroke:#2ca02c;" x="437.994258" xlink:href="#m3ef22f6647" y="302.09157"/>
     <use style="fill:#2ca02c;stroke:#2ca02c;" x="447.605742" xlink:href="#m3ef22f6647" y="307.703646"/>
     <use style="fill:#2ca02c;stroke:#2ca02c;" x="466.828708" xlink:href="#m3ef22f6647" y="315.753653"/>
     <use style="fill:#2ca02c;stroke:#2ca02c;" x="476.440191" xlink:href="#m3ef22f6647" y="317.330952"/>
     <use style="fill:#2ca02c;stroke:#2ca02c;" x="486.051675" xlink:href="#m3ef22f6647" y="323.046145"/>
     <use style="fill:#2ca02c;stroke:#2ca02c;" x="505.274641" xlink:href="#m3ef22f6647" y="329.515436"/>
     <use style="fill:#2ca02c;stroke:#2ca02c;" x="514.886124" xlink:href="#m3ef22f6647" y="332.740676"/>
     <use style="fill:#2ca02c;stroke:#2ca02c;" x="524.497608" xlink:href="#m3ef22f6647" y="338.567603"/>
     <use style="fill:#2ca02c;stroke:#2ca02c;" x="543.720574" xlink:href="#m3ef22f6647" y="344.132794"/>
     <use style="fill:#2ca02c;stroke:#2ca02c;" x="553.332057" xlink:href="#m3ef22f6647" y="345.200966"/>
     <use style="fill:#2ca02c;stroke:#2ca02c;" x="562.943541" xlink:href="#m3ef22f6647" y="351.259658"/>
     <use style="fill:#2ca02c;stroke:#2ca02c;" x="582.166507" xlink:href="#m3ef22f6647" y="358.376813"/>
     <use style="fill:#2ca02c;stroke:#2ca02c;" x="591.77799" xlink:href="#m3ef22f6647" y="359.568785"/>
     <use style="fill:#2ca02c;stroke:#2ca02c;" x="601.389474" xlink:href="#m3ef22f6647" y="362.575457"/>
     <use style="fill:#2ca02c;stroke:#2ca02c;" x="620.61244" xlink:href="#m3ef22f6647" y="370.265268"/>
     <use style="fill:#2ca02c;stroke:#2ca02c;" x="630.223923" xlink:href="#m3ef22f6647" y="371.72072"/>
     <use style="fill:#2ca02c;stroke:#2ca02c;" x="639.835407" xlink:href="#m3ef22f6647" y="377.560687"/>
     <use style="fill:#2ca02c;stroke:#2ca02c;" x="659.058373" xlink:href="#m3ef22f6647" y="382.463812"/>
     <use style="fill:#2ca02c;stroke:#2ca02c;" x="668.669856" xlink:href="#m3ef22f6647" y="384.359576"/>
     <use style="fill:#2ca02c;stroke:#2ca02c;" x="678.28134" xlink:href="#m3ef22f6647" y="389.278349"/>
     <use style="fill:#2ca02c;stroke:#2ca02c;" x="697.504306" xlink:href="#m3ef22f6647" y="397.491272"/>
     <use style="fill:#2ca02c;stroke:#2ca02c;" x="707.115789" xlink:href="#m3ef22f6647" y="397.863914"/>
     <use style="fill:#2ca02c;stroke:#2ca02c;" x="716.727273" xlink:href="#m3ef22f6647" y="403.850361"/>
    </g>
   </g>
   <g id="PathCollection_4">
    <defs>
     <path d="M 0 3 
C 0.795609 3 1.55874 2.683901 2.12132 2.12132 
C 2.683901 1.55874 3 0.795609 3 0 
C 3 -0.795609 2.683901 -1.55874 2.12132 -2.12132 
C 1.55874 -2.683901 0.795609 -3 0 -3 
C -0.795609 -3 -1.55874 -2.683901 -2.12132 -2.12132 
C -2.683901 -1.55874 -3 -0.795609 -3 0 
C -3 0.795609 -2.683901 1.55874 -2.12132 2.12132 
C -1.55874 2.683901 -0.795609 3 0 3 
z
" id="ma0856963b3" style="stroke:#d62728;"/>
    </defs>
    <g clip-path="url(#pba5731c00f)">
     <use style="fill:#d62728;stroke:#d62728;" x="141.640191" xlink:href="#ma0856963b3" y="96.04378"/>
     <use style="fill:#d62728;stroke:#d62728;" x="164.066986" xlink:href="#ma0856963b3" y="110.814304"/>
     <use style="fill:#d62728;stroke:#d62728;" x="175.280383" xlink:href="#ma0856963b3" y="114.605345"/>
     <use style="fill:#d62728;stroke:#d62728;" x="186.49378" xlink:href="#ma0856963b3" y="122.78812"/>
     <use style="fill:#d62728;stroke:#d62728;" x="208.920574" xlink:href="#ma0856963b3" y="165.700219"/>
     <use style="fill:#d62728;stroke:#d62728;" x="220.133971" xlink:href="#ma0856963b3" y="176.808615"/>
     <use style="fill:#d62728;stroke:#d62728;" x="231.347368" xlink:href="#ma0856963b3" y="189.793682"/>
     <use style="fill:#d62728;stroke:#d62728;" x="253.774163" xlink:href="#ma0856963b3" y="208.240658"/>
     <use style="fill:#d62728;stroke:#d62728;" x="264.98756" xlink:href="#ma0856963b3" y="213.573398"/>
     <use style="fill:#d62728;stroke:#d62728;" x="276.200957" xlink:href="#ma0856963b3" y="222.444572"/>
     <use style="fill:#d62728;stroke:#d62728;" x="298.627751" xlink:href="#ma0856963b3" y="235.376289"/>
     <use style="fill:#d62728;stroke:#d62728;" x="309.841148" xlink:href="#ma0856963b3" y="239.459752"/>
     <use style="fill:#d62728;stroke:#d62728;" x="321.054545" xlink:href="#ma0856963b3" y="247.49093"/>
     <use style="fill:#d62728;stroke:#d62728;" x="343.48134" xlink:href="#ma0856963b3" y="258.372952"/>
     <use style="fill:#d62728;stroke:#d62728;" x="354.694737" xlink:href="#ma0856963b3" y="261.726122"/>
     <use style="fill:#d62728;stroke:#d62728;" x="365.908134" xlink:href="#ma0856963b3" y="268.847014"/>
     <use style="fill:#d62728;stroke:#d62728;" x="388.334928" xlink:href="#ma0856963b3" y="278.994557"/>
     <use style="fill:#d62728;stroke:#d62728;" x="399.548325" xlink:href="#ma0856963b3" y="281.651092"/>
     <use style="fill:#d62728;stroke:#d62728;" x="410.761722" xlink:href="#ma0856963b3" y="288.882281"/>
     <use style="fill:#d62728;stroke:#d62728;" x="433.188517" xlink:href="#ma0856963b3" y="297.830989"/>
     <use style="fill:#d62728;stroke:#d62728;" x="444.401914" xlink:href="#ma0856963b3" y="300.515351"/>
     <use style="fill:#d62728;stroke:#d62728;" x="455.615311" xlink:href="#ma0856963b3" y="307.339575"/>
     <use style="fill:#d62728;stroke:#d62728;" x="478.042105" xlink:href="#ma0856963b3" y="316.019872"/>
     <use style="fill:#d62728;stroke:#d62728;" x="489.255502" xlink:href="#ma0856963b3" y="318.15132"/>
     <use style="fill:#d62728;stroke:#d62728;" x="500.4689" xlink:href="#ma0856963b3" y="324.792421"/>
     <use style="fill:#d62728;stroke:#d62728;" x="522.895694" xlink:href="#ma0856963b3" y="331.966904"/>
     <use style="fill:#d62728;stroke:#d62728;" x="534.109091" xlink:href="#ma0856963b3" y="334.585924"/>
     <use style="fill:#d62728;stroke:#d62728;" x="545.322488" xlink:href="#ma0856963b3" y="341.368384"/>
     <use style="fill:#d62728;stroke:#d62728;" x="567.749282" xlink:href="#ma0856963b3" y="347.199991"/>
     <use style="fill:#d62728;stroke:#d62728;" x="578.962679" xlink:href="#ma0856963b3" y="350.723694"/>
     <use style="fill:#d62728;stroke:#d62728;" x="590.176077" xlink:href="#ma0856963b3" y="356.734507"/>
     <use style="fill:#d62728;stroke:#d62728;" x="612.602871" xlink:href="#ma0856963b3" y="364.056575"/>
     <use style="fill:#d62728;stroke:#d62728;" x="623.816268" xlink:href="#ma0856963b3" y="366.356695"/>
     <use style="fill:#d62728;stroke:#d62728;" x="635.029665" xlink:href="#ma0856963b3" y="373.094485"/>
     <use style="fill:#d62728;stroke:#d62728;" x="657.456459" xlink:href="#ma0856963b3" y="379.645536"/>
     <use style="fill:#d62728;stroke:#d62728;" x="668.669856" xlink:href="#ma0856963b3" y="380.788125"/>
     <use style="fill:#d62728;stroke:#d62728;" x="679.883254" xlink:href="#ma0856963b3" y="385.359946"/>
     <use style="fill:#d62728;stroke:#d62728;" x="702.310048" xlink:href="#ma0856963b3" y="392.547645"/>
     <use style="fill:#d62728;stroke:#d62728;" x="713.523445" xlink:href="#ma0856963b3" y="393.889785"/>
     <use style="fill:#d62728;stroke:#d62728;" x="724.736842" xlink:href="#ma0856963b3" y="399.116431"/>
    </g>
   </g>
   <g id="PathCollection_5">
    <defs>
     <path d="M 0 3 
C 0.795609 3 1.55874 2.683901 2.12132 2.12132 
C 2.683901 1.55874 3 0.795609 3 0 
C 3 -0.795609 2.683901 -1.55874 2.12132 -2.12132 
C 1.55874 -2.683901 0.795609 -3 0 -3 
C -0.795609 -3 -1.55874 -2.683901 -2.12132 -2.12132 
C -2.683901 -1.55874 -3 -0.795609 -3 0 
C -3 0.795609 -2.683901 1.55874 -2.12132 2.12132 
C -1.55874 2.683901 -0.795609 3 0 3 
z
" id="m80e669ef63" style="stroke:#9467bd;"/>
    </defs>
    <g clip-path="url(#pba5731c00f)">
     <use style="fill:#9467bd;stroke:#9467bd;" x="186.49378" xlink:href="#m80e669ef63" y="98.409955"/>
     <use style="fill:#9467bd;stroke:#9467bd;" x="298.627751" xlink:href="#m80e669ef63" y="206.784239"/>
     <use style="fill:#9467bd;stroke:#9467bd;" x="354.694737" xlink:href="#m80e669ef63" y="232.996531"/>
     <use style="fill:#9467bd;stroke:#9467bd;" x="410.761722" xlink:href="#m80e669ef63" y="259.463661"/>
     <use style="fill:#9467bd;stroke:#9467bd;" x="522.895694" xlink:href="#m80e669ef63" y="301.631744"/>
     <use style="fill:#9467bd;stroke:#9467bd;" x="578.962679" xlink:href="#m80e669ef63" y="318.501603"/>
     <use style="fill:#9467bd;stroke:#9467bd;" x="635.029665" xlink:href="#m80e669ef63" y="338.118198"/>
     <use style="fill:#9467bd;stroke:#9467bd;" x="747.163636" xlink:href="#m80e669ef63" y="371.04533"/>
    </g>
   </g>
   <g id="PathCollection_6">
    <defs>
     <path d="M 0 3 
C 0.795609 3 1.55874 2.683901 2.12132 2.12132 
C 2.683901 1.55874 3 0.795609 3 0 
C 3 -0.795609 2.683901 -1.55874 2.12132 -2.12132 
C 1.55874 -2.683901 0.795609 -3 0 -3 
C -0.795609 -3 -1.55874 -2.683901 -2.12132 -2.12132 
C -2.683901 -1.55874 -3 -0.795609 -3 0 
C -3 0.795609 -2.683901 1.55874 -2.12132 2.12132 
C -1.55874 2.683901 -0.795609 3 0 3 
z
" id="mf7cad3e45e" style="stroke:#8c564b;"/>
    </defs>
    <g clip-path="url(#pba5731c00f)">
     <use style="fill:#8c564b;stroke:#8c564b;" x="144.844019" xlink:href="#mf7cad3e45e" y="94.968466"/>
     <use style="fill:#8c564b;stroke:#8c564b;" x="173.678469" xlink:href="#mf7cad3e45e" y="111.625165"/>
     <use style="fill:#8c564b;stroke:#8c564b;" x="188.095694" xlink:href="#mf7cad3e45e" y="117.254574"/>
     <use style="fill:#8c564b;stroke:#8c564b;" x="202.512919" xlink:href="#mf7cad3e45e" y="151.474995"/>
     <use style="fill:#8c564b;stroke:#8c564b;" x="231.347368" xlink:href="#mf7cad3e45e" y="185.119973"/>
     <use style="fill:#8c564b;stroke:#8c564b;" x="245.764593" xlink:href="#mf7cad3e45e" y="195.531423"/>
     <use style="fill:#8c564b;stroke:#8c564b;" x="260.181818" xlink:href="#mf7cad3e45e" y="208.309087"/>
     <use style="fill:#8c564b;stroke:#8c564b;" x="289.016268" xlink:href="#mf7cad3e45e" y="225.974326"/>
     <use style="fill:#8c564b;stroke:#8c564b;" x="303.433493" xlink:href="#mf7cad3e45e" y="232.061472"/>
     <use style="fill:#8c564b;stroke:#8c564b;" x="317.850718" xlink:href="#mf7cad3e45e" y="241.626024"/>
     <use style="fill:#8c564b;stroke:#8c564b;" x="346.685167" xlink:href="#mf7cad3e45e" y="255.806144"/>
     <use style="fill:#8c564b;stroke:#8c564b;" x="361.102392" xlink:href="#mf7cad3e45e" y="260.272873"/>
     <use style="fill:#8c564b;stroke:#8c564b;" x="375.519617" xlink:href="#mf7cad3e45e" y="268.484861"/>
     <use style="fill:#8c564b;stroke:#8c564b;" x="404.354067" xlink:href="#mf7cad3e45e" y="280.791025"/>
     <use style="fill:#8c564b;stroke:#8c564b;" x="418.771292" xlink:href="#mf7cad3e45e" y="284.9079"/>
     <use style="fill:#8c564b;stroke:#8c564b;" x="433.188517" xlink:href="#mf7cad3e45e" y="292.743983"/>
     <use style="fill:#8c564b;stroke:#8c564b;" x="462.022967" xlink:href="#mf7cad3e45e" y="304.182562"/>
     <use style="fill:#8c564b;stroke:#8c564b;" x="476.440191" xlink:href="#mf7cad3e45e" y="306.989357"/>
     <use style="fill:#8c564b;stroke:#8c564b;" x="490.857416" xlink:href="#mf7cad3e45e" y="314.333259"/>
     <use style="fill:#8c564b;stroke:#8c564b;" x="519.691866" xlink:href="#mf7cad3e45e" y="325.087211"/>
     <use style="fill:#8c564b;stroke:#8c564b;" x="534.109091" xlink:href="#mf7cad3e45e" y="328.208809"/>
     <use style="fill:#8c564b;stroke:#8c564b;" x="548.526316" xlink:href="#mf7cad3e45e" y="335.959912"/>
     <use style="fill:#8c564b;stroke:#8c564b;" x="577.360766" xlink:href="#mf7cad3e45e" y="345.789113"/>
     <use style="fill:#8c564b;stroke:#8c564b;" x="591.77799" xlink:href="#mf7cad3e45e" y="348.506954"/>
     <use style="fill:#8c564b;stroke:#8c564b;" x="606.195215" xlink:href="#mf7cad3e45e" y="354.775015"/>
     <use style="fill:#8c564b;stroke:#8c564b;" x="635.029665" xlink:href="#mf7cad3e45e" y="363.911701"/>
     <use style="fill:#8c564b;stroke:#8c564b;" x="649.44689" xlink:href="#mf7cad3e45e" y="367.073045"/>
     <use style="fill:#8c564b;stroke:#8c564b;" x="663.864115" xlink:href="#mf7cad3e45e" y="374.257959"/>
     <use style="fill:#8c564b;stroke:#8c564b;" x="692.698565" xlink:href="#mf7cad3e45e" y="383.096703"/>
     <use style="fill:#8c564b;stroke:#8c564b;" x="707.115789" xlink:href="#mf7cad3e45e" y="385.603407"/>
     <use style="fill:#8c564b;stroke:#8c564b;" x="721.533014" xlink:href="#mf7cad3e45e" y="391.104159"/>
    </g>
   </g>
   <g id="PathCollection_7">
    <defs>
     <path d="M 0 3 
C 0.795609 3 1.55874 2.683901 2.12132 2.12132 
C 2.683901 1.55874 3 0.795609 3 0 
C 3 -0.795609 2.683901 -1.55874 2.12132 -2.12132 
C 1.55874 -2.683901 0.795609 -3 0 -3 
C -0.795609 -3 -1.55874 -2.683901 -2.12132 -2.12132 
C -2.683901 -1.55874 -3 -0.795609 -3 0 
C -3 0.795609 -2.683901 1.55874 -2.12132 2.12132 
C -1.55874 2.683901 -0.795609 3 0 3 
z
" id="md3b11c2be7" style="stroke:#e377c2;"/>
    </defs>
    <g clip-path="url(#pba5731c00f)">
     <use style="fill:#e377c2;stroke:#e377c2;" x="146.445933" xlink:href="#md3b11c2be7" y="94.642124"/>
     <use style="fill:#e377c2;stroke:#e377c2;" x="178.484211" xlink:href="#md3b11c2be7" y="112.214909"/>
     <use style="fill:#e377c2;stroke:#e377c2;" x="194.503349" xlink:href="#md3b11c2be7" y="132.241139"/>
     <use style="fill:#e377c2;stroke:#e377c2;" x="210.522488" xlink:href="#md3b11c2be7" y="160.620943"/>
     <use style="fill:#e377c2;stroke:#e377c2;" x="242.560766" xlink:href="#md3b11c2be7" y="192.915455"/>
     <use style="fill:#e377c2;stroke:#e377c2;" x="258.579904" xlink:href="#md3b11c2be7" y="203.466273"/>
     <use style="fill:#e377c2;stroke:#e377c2;" x="274.599043" xlink:href="#md3b11c2be7" y="215.688954"/>
     <use style="fill:#e377c2;stroke:#e377c2;" x="306.637321" xlink:href="#md3b11c2be7" y="234.087586"/>
     <use style="fill:#e377c2;stroke:#e377c2;" x="322.656459" xlink:href="#md3b11c2be7" y="240.432385"/>
     <use style="fill:#e377c2;stroke:#e377c2;" x="338.675598" xlink:href="#md3b11c2be7" y="250.270897"/>
     <use style="fill:#e377c2;stroke:#e377c2;" x="370.713876" xlink:href="#md3b11c2be7" y="264.695081"/>
     <use style="fill:#e377c2;stroke:#e377c2;" x="386.733014" xlink:href="#md3b11c2be7" y="269.831596"/>
     <use style="fill:#e377c2;stroke:#e377c2;" x="402.752153" xlink:href="#md3b11c2be7" y="278.242421"/>
     <use style="fill:#e377c2;stroke:#e377c2;" x="434.790431" xlink:href="#md3b11c2be7" y="291.412898"/>
     <use style="fill:#e377c2;stroke:#e377c2;" x="450.809569" xlink:href="#md3b11c2be7" y="295.705445"/>
     <use style="fill:#e377c2;stroke:#e377c2;" x="466.828708" xlink:href="#md3b11c2be7" y="303.642337"/>
     <use style="fill:#e377c2;stroke:#e377c2;" x="498.866986" xlink:href="#md3b11c2be7" y="315.267579"/>
     <use style="fill:#e377c2;stroke:#e377c2;" x="514.886124" xlink:href="#md3b11c2be7" y="318.741888"/>
     <use style="fill:#e377c2;stroke:#e377c2;" x="530.905263" xlink:href="#md3b11c2be7" y="326.621907"/>
     <use style="fill:#e377c2;stroke:#e377c2;" x="562.943541" xlink:href="#md3b11c2be7" y="337.58895"/>
     <use style="fill:#e377c2;stroke:#e377c2;" x="578.962679" xlink:href="#md3b11c2be7" y="341.010447"/>
     <use style="fill:#e377c2;stroke:#e377c2;" x="594.981818" xlink:href="#md3b11c2be7" y="348.560565"/>
     <use style="fill:#e377c2;stroke:#e377c2;" x="627.020096" xlink:href="#md3b11c2be7" y="359.09178"/>
     <use style="fill:#e377c2;stroke:#e377c2;" x="643.039234" xlink:href="#md3b11c2be7" y="362.665807"/>
     <use style="fill:#e377c2;stroke:#e377c2;" x="659.058373" xlink:href="#md3b11c2be7" y="369.214114"/>
     <use style="fill:#e377c2;stroke:#e377c2;" x="691.096651" xlink:href="#md3b11c2be7" y="379.867893"/>
     <use style="fill:#e377c2;stroke:#e377c2;" x="707.115789" xlink:href="#md3b11c2be7" y="382.375423"/>
     <use style="fill:#e377c2;stroke:#e377c2;" x="723.134928" xlink:href="#md3b11c2be7" y="388.88317"/>
    </g>
   </g>
   <g id="PathCollection_8">
    <defs>
     <path d="M 0 3 
C 0.795609 3 1.55874 2.683901 2.12132 2.12132 
C 2.683901 1.55874 3 0.795609 3 0 
C 3 -0.795609 2.683901 -1.55874 2.12132 -2.12132 
C 1.55874 -2.683901 0.795609 -3 0 -3 
C -0.795609 -3 -1.55874 -2.683901 -2.12132 -2.12132 
C -2.683901 -1.55874 -3 -0.795609 -3 0 
C -3 0.795609 -2.683901 1.55874 -2.12132 2.12132 
C -1.55874 2.683901 -0.795609 3 0 3 
z
" id="m5d78e42e1e" style="stroke:#7f7f7f;"/>
    </defs>
    <g clip-path="url(#pba5731c00f)">
     <use style="fill:#7f7f7f;stroke:#7f7f7f;" x="138.436364" xlink:href="#m5d78e42e1e" y="98.313802"/>
     <use style="fill:#7f7f7f;stroke:#7f7f7f;" x="154.455502" xlink:href="#m5d78e42e1e" y="110.854625"/>
     <use style="fill:#7f7f7f;stroke:#7f7f7f;" x="162.465072" xlink:href="#m5d78e42e1e" y="113.564269"/>
     <use style="fill:#7f7f7f;stroke:#7f7f7f;" x="170.474641" xlink:href="#m5d78e42e1e" y="120.480997"/>
     <use style="fill:#7f7f7f;stroke:#7f7f7f;" x="186.49378" xlink:href="#m5d78e42e1e" y="129.629794"/>
     <use style="fill:#7f7f7f;stroke:#7f7f7f;" x="194.503349" xlink:href="#m5d78e42e1e" y="145.808247"/>
     <use style="fill:#7f7f7f;stroke:#7f7f7f;" x="202.512919" xlink:href="#m5d78e42e1e" y="163.044959"/>
     <use style="fill:#7f7f7f;stroke:#7f7f7f;" x="218.532057" xlink:href="#m5d78e42e1e" y="182.988494"/>
     <use style="fill:#7f7f7f;stroke:#7f7f7f;" x="226.541627" xlink:href="#m5d78e42e1e" y="188.871124"/>
     <use style="fill:#7f7f7f;stroke:#7f7f7f;" x="234.551196" xlink:href="#m5d78e42e1e" y="198.15035"/>
     <use style="fill:#7f7f7f;stroke:#7f7f7f;" x="250.570335" xlink:href="#m5d78e42e1e" y="210.878791"/>
     <use style="fill:#7f7f7f;stroke:#7f7f7f;" x="258.579904" xlink:href="#m5d78e42e1e" y="214.705901"/>
     <use style="fill:#7f7f7f;stroke:#7f7f7f;" x="266.589474" xlink:href="#m5d78e42e1e" y="221.667036"/>
     <use style="fill:#7f7f7f;stroke:#7f7f7f;" x="282.608612" xlink:href="#m5d78e42e1e" y="231.819976"/>
     <use style="fill:#7f7f7f;stroke:#7f7f7f;" x="290.618182" xlink:href="#m5d78e42e1e" y="234.889078"/>
     <use style="fill:#7f7f7f;stroke:#7f7f7f;" x="298.627751" xlink:href="#m5d78e42e1e" y="241.808239"/>
     <use style="fill:#7f7f7f;stroke:#7f7f7f;" x="314.64689" xlink:href="#m5d78e42e1e" y="250.208737"/>
     <use style="fill:#7f7f7f;stroke:#7f7f7f;" x="322.656459" xlink:href="#m5d78e42e1e" y="252.393277"/>
     <use style="fill:#7f7f7f;stroke:#7f7f7f;" x="330.666029" xlink:href="#m5d78e42e1e" y="258.63985"/>
     <use style="fill:#7f7f7f;stroke:#7f7f7f;" x="346.685167" xlink:href="#m5d78e42e1e" y="267.013436"/>
     <use style="fill:#7f7f7f;stroke:#7f7f7f;" x="354.694737" xlink:href="#m5d78e42e1e" y="268.653212"/>
     <use style="fill:#7f7f7f;stroke:#7f7f7f;" x="362.704306" xlink:href="#m5d78e42e1e" y="275.771243"/>
     <use style="fill:#7f7f7f;stroke:#7f7f7f;" x="378.723445" xlink:href="#m5d78e42e1e" y="282.863488"/>
     <use style="fill:#7f7f7f;stroke:#7f7f7f;" x="386.733014" xlink:href="#m5d78e42e1e" y="284.39726"/>
     <use style="fill:#7f7f7f;stroke:#7f7f7f;" x="394.742584" xlink:href="#m5d78e42e1e" y="289.826747"/>
     <use style="fill:#7f7f7f;stroke:#7f7f7f;" x="410.761722" xlink:href="#m5d78e42e1e" y="296.795629"/>
     <use style="fill:#7f7f7f;stroke:#7f7f7f;" x="418.771292" xlink:href="#m5d78e42e1e" y="299.058808"/>
     <use style="fill:#7f7f7f;stroke:#7f7f7f;" x="426.780861" xlink:href="#m5d78e42e1e" y="303.66721"/>
     <use style="fill:#7f7f7f;stroke:#7f7f7f;" x="442.8" xlink:href="#m5d78e42e1e" y="310.511932"/>
     <use style="fill:#7f7f7f;stroke:#7f7f7f;" x="450.809569" xlink:href="#m5d78e42e1e" y="312.746939"/>
     <use style="fill:#7f7f7f;stroke:#7f7f7f;" x="458.819139" xlink:href="#m5d78e42e1e" y="317.513712"/>
     <use style="fill:#7f7f7f;stroke:#7f7f7f;" x="474.838278" xlink:href="#m5d78e42e1e" y="324.17516"/>
     <use style="fill:#7f7f7f;stroke:#7f7f7f;" x="482.847847" xlink:href="#m5d78e42e1e" y="326.030066"/>
     <use style="fill:#7f7f7f;stroke:#7f7f7f;" x="490.857416" xlink:href="#m5d78e42e1e" y="330.028026"/>
     <use style="fill:#7f7f7f;stroke:#7f7f7f;" x="506.876555" xlink:href="#m5d78e42e1e" y="337.966112"/>
     <use style="fill:#7f7f7f;stroke:#7f7f7f;" x="514.886124" xlink:href="#m5d78e42e1e" y="335.687171"/>
     <use style="fill:#7f7f7f;stroke:#7f7f7f;" x="522.895694" xlink:href="#m5d78e42e1e" y="341.546255"/>
     <use style="fill:#7f7f7f;stroke:#7f7f7f;" x="538.914833" xlink:href="#m5d78e42e1e" y="348.385563"/>
     <use style="fill:#7f7f7f;stroke:#7f7f7f;" x="546.924402" xlink:href="#m5d78e42e1e" y="348.221294"/>
     <use style="fill:#7f7f7f;stroke:#7f7f7f;" x="554.933971" xlink:href="#m5d78e42e1e" y="352.144227"/>
     <use style="fill:#7f7f7f;stroke:#7f7f7f;" x="570.95311" xlink:href="#m5d78e42e1e" y="359.174801"/>
     <use style="fill:#7f7f7f;stroke:#7f7f7f;" x="578.962679" xlink:href="#m5d78e42e1e" y="360.199654"/>
     <use style="fill:#7f7f7f;stroke:#7f7f7f;" x="586.972249" xlink:href="#m5d78e42e1e" y="366.033758"/>
     <use style="fill:#7f7f7f;stroke:#7f7f7f;" x="602.991388" xlink:href="#m5d78e42e1e" y="372.947709"/>
     <use style="fill:#7f7f7f;stroke:#7f7f7f;" x="611.000957" xlink:href="#m5d78e42e1e" y="374.320047"/>
     <use style="fill:#7f7f7f;stroke:#7f7f7f;" x="619.010526" xlink:href="#m5d78e42e1e" y="376.480784"/>
     <use style="fill:#7f7f7f;stroke:#7f7f7f;" x="635.029665" xlink:href="#m5d78e42e1e" y="385.527162"/>
     <use style="fill:#7f7f7f;stroke:#7f7f7f;" x="643.039234" xlink:href="#m5d78e42e1e" y="384.051551"/>
     <use style="fill:#7f7f7f;stroke:#7f7f7f;" x="651.048804" xlink:href="#m5d78e42e1e" y="388.073279"/>
     <use style="fill:#7f7f7f;stroke:#7f7f7f;" x="667.067943" xlink:href="#m5d78e42e1e" y="393.113777"/>
     <use style="fill:#7f7f7f;stroke:#7f7f7f;" x="675.077512" xlink:href="#m5d78e42e1e" y="394.990705"/>
     <use style="fill:#7f7f7f;stroke:#7f7f7f;" x="683.087081" xlink:href="#m5d78e42e1e" y="399.011202"/>
     <use style="fill:#7f7f7f;stroke:#7f7f7f;" x="699.10622" xlink:href="#m5d78e42e1e" y="402.575407"/>
     <use style="fill:#7f7f7f;stroke:#7f7f7f;" x="707.115789" xlink:href="#m5d78e42e1e" y="408.971906"/>
     <use style="fill:#7f7f7f;stroke:#7f7f7f;" x="715.125359" xlink:href="#m5d78e42e1e" y="415.421314"/>
    </g>
   </g>
   <g id="matplotlib.axis_1">
    <g id="xtick_1">
     <g id="line2d_1">
      <path clip-path="url(#pba5731c00f)" d="M 130.426794 441 
L 130.426794 60.48 
" style="fill:none;stroke:#b0b0b0;stroke-linecap:square;stroke-width:0.8;"/>
     </g>
     <g id="line2d_2">
      <defs>
       <path d="M 0 0 
L 0 3.5 
" id="m491e7717d7" style="stroke:#000000;stroke-width:0.8;"/>
      </defs>
      <g>
       <use style="stroke:#000000;stroke-width:0.8;" x="130.426794" xlink:href="#m491e7717d7" y="441"/>
      </g>
     </g>
     <g id="text_1">
      <!-- 0 -->
      <g transform="translate(124.064294 463.196875)scale(0.2 -0.2)">
       <defs>
        <path d="M 31.78125 66.40625 
Q 24.171875 66.40625 20.328125 58.90625 
Q 16.5 51.421875 16.5 36.375 
Q 16.5 21.390625 20.328125 13.890625 
Q 24.171875 6.390625 31.78125 6.390625 
Q 39.453125 6.390625 43.28125 13.890625 
Q 47.125 21.390625 47.125 36.375 
Q 47.125 51.421875 43.28125 58.90625 
Q 39.453125 66.40625 31.78125 66.40625 
z
M 31.78125 74.21875 
Q 44.046875 74.21875 50.515625 64.515625 
Q 56.984375 54.828125 56.984375 36.375 
Q 56.984375 17.96875 50.515625 8.265625 
Q 44.046875 -1.421875 31.78125 -1.421875 
Q 19.53125 -1.421875 13.0625 8.265625 
Q 6.59375 17.96875 6.59375 36.375 
Q 6.59375 54.828125 13.0625 64.515625 
Q 19.53125 74.21875 31.78125 74.21875 
z
" id="DejaVuSans-48"/>
       </defs>
       <use xlink:href="#DejaVuSans-48"/>
      </g>
     </g>
    </g>
    <g id="xtick_2">
     <g id="line2d_3">
      <path clip-path="url(#pba5731c00f)" d="M 210.522488 441 
L 210.522488 60.48 
" style="fill:none;stroke:#b0b0b0;stroke-linecap:square;stroke-width:0.8;"/>
     </g>
     <g id="line2d_4">
      <g>
       <use style="stroke:#000000;stroke-width:0.8;" x="210.522488" xlink:href="#m491e7717d7" y="441"/>
      </g>
     </g>
     <g id="text_2">
      <!-- 50 -->
      <g transform="translate(197.797488 463.196875)scale(0.2 -0.2)">
       <defs>
        <path d="M 10.796875 72.90625 
L 49.515625 72.90625 
L 49.515625 64.59375 
L 19.828125 64.59375 
L 19.828125 46.734375 
Q 21.96875 47.46875 24.109375 47.828125 
Q 26.265625 48.1875 28.421875 48.1875 
Q 40.625 48.1875 47.75 41.5 
Q 54.890625 34.8125 54.890625 23.390625 
Q 54.890625 11.625 47.5625 5.09375 
Q 40.234375 -1.421875 26.90625 -1.421875 
Q 22.3125 -1.421875 17.546875 -0.640625 
Q 12.796875 0.140625 7.71875 1.703125 
L 7.71875 11.625 
Q 12.109375 9.234375 16.796875 8.0625 
Q 21.484375 6.890625 26.703125 6.890625 
Q 35.15625 6.890625 40.078125 11.328125 
Q 45.015625 15.765625 45.015625 23.390625 
Q 45.015625 31 40.078125 35.4375 
Q 35.15625 39.890625 26.703125 39.890625 
Q 22.75 39.890625 18.8125 39.015625 
Q 14.890625 38.140625 10.796875 36.28125 
z
" id="DejaVuSans-53"/>
       </defs>
       <use xlink:href="#DejaVuSans-53"/>
       <use x="63.623047" xlink:href="#DejaVuSans-48"/>
      </g>
     </g>
    </g>
    <g id="xtick_3">
     <g id="line2d_5">
      <path clip-path="url(#pba5731c00f)" d="M 290.618182 441 
L 290.618182 60.48 
" style="fill:none;stroke:#b0b0b0;stroke-linecap:square;stroke-width:0.8;"/>
     </g>
     <g id="line2d_6">
      <g>
       <use style="stroke:#000000;stroke-width:0.8;" x="290.618182" xlink:href="#m491e7717d7" y="441"/>
      </g>
     </g>
     <g id="text_3">
      <!-- 100 -->
      <g transform="translate(271.530682 463.196875)scale(0.2 -0.2)">
       <defs>
        <path d="M 12.40625 8.296875 
L 28.515625 8.296875 
L 28.515625 63.921875 
L 10.984375 60.40625 
L 10.984375 69.390625 
L 28.421875 72.90625 
L 38.28125 72.90625 
L 38.28125 8.296875 
L 54.390625 8.296875 
L 54.390625 0 
L 12.40625 0 
z
" id="DejaVuSans-49"/>
       </defs>
       <use xlink:href="#DejaVuSans-49"/>
       <use x="63.623047" xlink:href="#DejaVuSans-48"/>
       <use x="127.246094" xlink:href="#DejaVuSans-48"/>
      </g>
     </g>
    </g>
    <g id="xtick_4">
     <g id="line2d_7">
      <path clip-path="url(#pba5731c00f)" d="M 370.713876 441 
L 370.713876 60.48 
" style="fill:none;stroke:#b0b0b0;stroke-linecap:square;stroke-width:0.8;"/>
     </g>
     <g id="line2d_8">
      <g>
       <use style="stroke:#000000;stroke-width:0.8;" x="370.713876" xlink:href="#m491e7717d7" y="441"/>
      </g>
     </g>
     <g id="text_4">
      <!-- 150 -->
      <g transform="translate(351.626376 463.196875)scale(0.2 -0.2)">
       <use xlink:href="#DejaVuSans-49"/>
       <use x="63.623047" xlink:href="#DejaVuSans-53"/>
       <use x="127.246094" xlink:href="#DejaVuSans-48"/>
      </g>
     </g>
    </g>
    <g id="xtick_5">
     <g id="line2d_9">
      <path clip-path="url(#pba5731c00f)" d="M 450.809569 441 
L 450.809569 60.48 
" style="fill:none;stroke:#b0b0b0;stroke-linecap:square;stroke-width:0.8;"/>
     </g>
     <g id="line2d_10">
      <g>
       <use style="stroke:#000000;stroke-width:0.8;" x="450.809569" xlink:href="#m491e7717d7" y="441"/>
      </g>
     </g>
     <g id="text_5">
      <!-- 200 -->
      <g transform="translate(431.722069 463.196875)scale(0.2 -0.2)">
       <defs>
        <path d="M 19.1875 8.296875 
L 53.609375 8.296875 
L 53.609375 0 
L 7.328125 0 
L 7.328125 8.296875 
Q 12.9375 14.109375 22.625 23.890625 
Q 32.328125 33.6875 34.8125 36.53125 
Q 39.546875 41.84375 41.421875 45.53125 
Q 43.3125 49.21875 43.3125 52.78125 
Q 43.3125 58.59375 39.234375 62.25 
Q 35.15625 65.921875 28.609375 65.921875 
Q 23.96875 65.921875 18.8125 64.3125 
Q 13.671875 62.703125 7.8125 59.421875 
L 7.8125 69.390625 
Q 13.765625 71.78125 18.9375 73 
Q 24.125 74.21875 28.421875 74.21875 
Q 39.75 74.21875 46.484375 68.546875 
Q 53.21875 62.890625 53.21875 53.421875 
Q 53.21875 48.921875 51.53125 44.890625 
Q 49.859375 40.875 45.40625 35.40625 
Q 44.1875 33.984375 37.640625 27.21875 
Q 31.109375 20.453125 19.1875 8.296875 
z
" id="DejaVuSans-50"/>
       </defs>
       <use xlink:href="#DejaVuSans-50"/>
       <use x="63.623047" xlink:href="#DejaVuSans-48"/>
       <use x="127.246094" xlink:href="#DejaVuSans-48"/>
      </g>
     </g>
    </g>
    <g id="xtick_6">
     <g id="line2d_11">
      <path clip-path="url(#pba5731c00f)" d="M 530.905263 441 
L 530.905263 60.48 
" style="fill:none;stroke:#b0b0b0;stroke-linecap:square;stroke-width:0.8;"/>
     </g>
     <g id="line2d_12">
      <g>
       <use style="stroke:#000000;stroke-width:0.8;" x="530.905263" xlink:href="#m491e7717d7" y="441"/>
      </g>
     </g>
     <g id="text_6">
      <!-- 250 -->
      <g transform="translate(511.817763 463.196875)scale(0.2 -0.2)">
       <use xlink:href="#DejaVuSans-50"/>
       <use x="63.623047" xlink:href="#DejaVuSans-53"/>
       <use x="127.246094" xlink:href="#DejaVuSans-48"/>
      </g>
     </g>
    </g>
    <g id="xtick_7">
     <g id="line2d_13">
      <path clip-path="url(#pba5731c00f)" d="M 611.000957 441 
L 611.000957 60.48 
" style="fill:none;stroke:#b0b0b0;stroke-linecap:square;stroke-width:0.8;"/>
     </g>
     <g id="line2d_14">
      <g>
       <use style="stroke:#000000;stroke-width:0.8;" x="611.000957" xlink:href="#m491e7717d7" y="441"/>
      </g>
     </g>
     <g id="text_7">
      <!-- 300 -->
      <g transform="translate(591.913457 463.196875)scale(0.2 -0.2)">
       <defs>
        <path d="M 40.578125 39.3125 
Q 47.65625 37.796875 51.625 33 
Q 55.609375 28.21875 55.609375 21.1875 
Q 55.609375 10.40625 48.1875 4.484375 
Q 40.765625 -1.421875 27.09375 -1.421875 
Q 22.515625 -1.421875 17.65625 -0.515625 
Q 12.796875 0.390625 7.625 2.203125 
L 7.625 11.71875 
Q 11.71875 9.328125 16.59375 8.109375 
Q 21.484375 6.890625 26.8125 6.890625 
Q 36.078125 6.890625 40.9375 10.546875 
Q 45.796875 14.203125 45.796875 21.1875 
Q 45.796875 27.640625 41.28125 31.265625 
Q 36.765625 34.90625 28.71875 34.90625 
L 20.21875 34.90625 
L 20.21875 43.015625 
L 29.109375 43.015625 
Q 36.375 43.015625 40.234375 45.921875 
Q 44.09375 48.828125 44.09375 54.296875 
Q 44.09375 59.90625 40.109375 62.90625 
Q 36.140625 65.921875 28.71875 65.921875 
Q 24.65625 65.921875 20.015625 65.03125 
Q 15.375 64.15625 9.8125 62.3125 
L 9.8125 71.09375 
Q 15.4375 72.65625 20.34375 73.4375 
Q 25.25 74.21875 29.59375 74.21875 
Q 40.828125 74.21875 47.359375 69.109375 
Q 53.90625 64.015625 53.90625 55.328125 
Q 53.90625 49.265625 50.4375 45.09375 
Q 46.96875 40.921875 40.578125 39.3125 
z
" id="DejaVuSans-51"/>
       </defs>
       <use xlink:href="#DejaVuSans-51"/>
       <use x="63.623047" xlink:href="#DejaVuSans-48"/>
       <use x="127.246094" xlink:href="#DejaVuSans-48"/>
      </g>
     </g>
    </g>
    <g id="xtick_8">
     <g id="line2d_15">
      <path clip-path="url(#pba5731c00f)" d="M 691.096651 441 
L 691.096651 60.48 
" style="fill:none;stroke:#b0b0b0;stroke-linecap:square;stroke-width:0.8;"/>
     </g>
     <g id="line2d_16">
      <g>
       <use style="stroke:#000000;stroke-width:0.8;" x="691.096651" xlink:href="#m491e7717d7" y="441"/>
      </g>
     </g>
     <g id="text_8">
      <!-- 350 -->
      <g transform="translate(672.009151 463.196875)scale(0.2 -0.2)">
       <use xlink:href="#DejaVuSans-51"/>
       <use x="63.623047" xlink:href="#DejaVuSans-53"/>
       <use x="127.246094" xlink:href="#DejaVuSans-48"/>
      </g>
     </g>
    </g>
    <g id="xtick_9">
     <g id="line2d_17">
      <path clip-path="url(#pba5731c00f)" d="M 771.192344 441 
L 771.192344 60.48 
" style="fill:none;stroke:#b0b0b0;stroke-linecap:square;stroke-width:0.8;"/>
     </g>
     <g id="line2d_18">
      <g>
       <use style="stroke:#000000;stroke-width:0.8;" x="771.192344" xlink:href="#m491e7717d7" y="441"/>
      </g>
     </g>
     <g id="text_9">
      <!-- 400 -->
      <g transform="translate(752.104844 463.196875)scale(0.2 -0.2)">
       <defs>
        <path d="M 37.796875 64.3125 
L 12.890625 25.390625 
L 37.796875 25.390625 
z
M 35.203125 72.90625 
L 47.609375 72.90625 
L 47.609375 25.390625 
L 58.015625 25.390625 
L 58.015625 17.1875 
L 47.609375 17.1875 
L 47.609375 0 
L 37.796875 0 
L 37.796875 17.1875 
L 4.890625 17.1875 
L 4.890625 26.703125 
z
" id="DejaVuSans-52"/>
       </defs>
       <use xlink:href="#DejaVuSans-52"/>
       <use x="63.623047" xlink:href="#DejaVuSans-48"/>
       <use x="127.246094" xlink:href="#DejaVuSans-48"/>
      </g>
     </g>
    </g>
    <g id="text_10">
     <!-- Energy (keV) -->
     <g transform="translate(378.384375 486.553125)scale(0.2 -0.2)">
      <defs>
       <path d="M 9.8125 72.90625 
L 55.90625 72.90625 
L 55.90625 64.59375 
L 19.671875 64.59375 
L 19.671875 43.015625 
L 54.390625 43.015625 
L 54.390625 34.71875 
L 19.671875 34.71875 
L 19.671875 8.296875 
L 56.78125 8.296875 
L 56.78125 0 
L 9.8125 0 
z
" id="DejaVuSans-69"/>
       <path d="M 54.890625 33.015625 
L 54.890625 0 
L 45.90625 0 
L 45.90625 32.71875 
Q 45.90625 40.484375 42.875 44.328125 
Q 39.84375 48.1875 33.796875 48.1875 
Q 26.515625 48.1875 22.3125 43.546875 
Q 18.109375 38.921875 18.109375 30.90625 
L 18.109375 0 
L 9.078125 0 
L 9.078125 54.6875 
L 18.109375 54.6875 
L 18.109375 46.1875 
Q 21.34375 51.125 25.703125 53.5625 
Q 30.078125 56 35.796875 56 
Q 45.21875 56 50.046875 50.171875 
Q 54.890625 44.34375 54.890625 33.015625 
z
" id="DejaVuSans-110"/>
       <path d="M 56.203125 29.59375 
L 56.203125 25.203125 
L 14.890625 25.203125 
Q 15.484375 15.921875 20.484375 11.0625 
Q 25.484375 6.203125 34.421875 6.203125 
Q 39.59375 6.203125 44.453125 7.46875 
Q 49.3125 8.734375 54.109375 11.28125 
L 54.109375 2.78125 
Q 49.265625 0.734375 44.1875 -0.34375 
Q 39.109375 -1.421875 33.890625 -1.421875 
Q 20.796875 -1.421875 13.15625 6.1875 
Q 5.515625 13.8125 5.515625 26.8125 
Q 5.515625 40.234375 12.765625 48.109375 
Q 20.015625 56 32.328125 56 
Q 43.359375 56 49.78125 48.890625 
Q 56.203125 41.796875 56.203125 29.59375 
z
M 47.21875 32.234375 
Q 47.125 39.59375 43.09375 43.984375 
Q 39.0625 48.390625 32.421875 48.390625 
Q 24.90625 48.390625 20.390625 44.140625 
Q 15.875 39.890625 15.1875 32.171875 
z
" id="DejaVuSans-101"/>
       <path d="M 41.109375 46.296875 
Q 39.59375 47.171875 37.8125 47.578125 
Q 36.03125 48 33.890625 48 
Q 26.265625 48 22.1875 43.046875 
Q 18.109375 38.09375 18.109375 28.8125 
L 18.109375 0 
L 9.078125 0 
L 9.078125 54.6875 
L 18.109375 54.6875 
L 18.109375 46.1875 
Q 20.953125 51.171875 25.484375 53.578125 
Q 30.03125 56 36.53125 56 
Q 37.453125 56 38.578125 55.875 
Q 39.703125 55.765625 41.0625 55.515625 
z
" id="DejaVuSans-114"/>
       <path d="M 45.40625 27.984375 
Q 45.40625 37.75 41.375 43.109375 
Q 37.359375 48.484375 30.078125 48.484375 
Q 22.859375 48.484375 18.828125 43.109375 
Q 14.796875 37.75 14.796875 27.984375 
Q 14.796875 18.265625 18.828125 12.890625 
Q 22.859375 7.515625 30.078125 7.515625 
Q 37.359375 7.515625 41.375 12.890625 
Q 45.40625 18.265625 45.40625 27.984375 
z
M 54.390625 6.78125 
Q 54.390625 -7.171875 48.1875 -13.984375 
Q 42 -20.796875 29.203125 -20.796875 
Q 24.46875 -20.796875 20.265625 -20.09375 
Q 16.0625 -19.390625 12.109375 -17.921875 
L 12.109375 -9.1875 
Q 16.0625 -11.328125 19.921875 -12.34375 
Q 23.78125 -13.375 27.78125 -13.375 
Q 36.625 -13.375 41.015625 -8.765625 
Q 45.40625 -4.15625 45.40625 5.171875 
L 45.40625 9.625 
Q 42.625 4.78125 38.28125 2.390625 
Q 33.9375 0 27.875 0 
Q 17.828125 0 11.671875 7.65625 
Q 5.515625 15.328125 5.515625 27.984375 
Q 5.515625 40.671875 11.671875 48.328125 
Q 17.828125 56 27.875 56 
Q 33.9375 56 38.28125 53.609375 
Q 42.625 51.21875 45.40625 46.390625 
L 45.40625 54.6875 
L 54.390625 54.6875 
z
" id="DejaVuSans-103"/>
       <path d="M 32.171875 -5.078125 
Q 28.375 -14.84375 24.75 -17.8125 
Q 21.140625 -20.796875 15.09375 -20.796875 
L 7.90625 -20.796875 
L 7.90625 -13.28125 
L 13.1875 -13.28125 
Q 16.890625 -13.28125 18.9375 -11.515625 
Q 21 -9.765625 23.484375 -3.21875 
L 25.09375 0.875 
L 2.984375 54.6875 
L 12.5 54.6875 
L 29.59375 11.921875 
L 46.6875 54.6875 
L 56.203125 54.6875 
z
" id="DejaVuSans-121"/>
       <path id="DejaVuSans-32"/>
       <path d="M 31 75.875 
Q 24.46875 64.65625 21.28125 53.65625 
Q 18.109375 42.671875 18.109375 31.390625 
Q 18.109375 20.125 21.3125 9.0625 
Q 24.515625 -2 31 -13.1875 
L 23.1875 -13.1875 
Q 15.875 -1.703125 12.234375 9.375 
Q 8.59375 20.453125 8.59375 31.390625 
Q 8.59375 42.28125 12.203125 53.3125 
Q 15.828125 64.359375 23.1875 75.875 
z
" id="DejaVuSans-40"/>
       <path d="M 9.078125 75.984375 
L 18.109375 75.984375 
L 18.109375 31.109375 
L 44.921875 54.6875 
L 56.390625 54.6875 
L 27.390625 29.109375 
L 57.625 0 
L 45.90625 0 
L 18.109375 26.703125 
L 18.109375 0 
L 9.078125 0 
z
" id="DejaVuSans-107"/>
       <path d="M 28.609375 0 
L 0.78125 72.90625 
L 11.078125 72.90625 
L 34.1875 11.53125 
L 57.328125 72.90625 
L 67.578125 72.90625 
L 39.796875 0 
z
" id="DejaVuSans-86"/>
       <path d="M 8.015625 75.875 
L 15.828125 75.875 
Q 23.140625 64.359375 26.78125 53.3125 
Q 30.421875 42.28125 30.421875 31.390625 
Q 30.421875 20.453125 26.78125 9.375 
Q 23.140625 -1.703125 15.828125 -13.1875 
L 8.015625 -13.1875 
Q 14.5 -2 17.703125 9.0625 
Q 20.90625 20.125 20.90625 31.390625 
Q 20.90625 42.671875 17.703125 53.65625 
Q 14.5 64.65625 8.015625 75.875 
z
" id="DejaVuSans-41"/>
      </defs>
      <use xlink:href="#DejaVuSans-69"/>
      <use x="63.183594" xlink:href="#DejaVuSans-110"/>
      <use x="126.5625" xlink:href="#DejaVuSans-101"/>
      <use x="188.085938" xlink:href="#DejaVuSans-114"/>
      <use x="227.449219" xlink:href="#DejaVuSans-103"/>
      <use x="290.925781" xlink:href="#DejaVuSans-121"/>
      <use x="350.105469" xlink:href="#DejaVuSans-32"/>
      <use x="381.892578" xlink:href="#DejaVuSans-40"/>
      <use x="420.90625" xlink:href="#DejaVuSans-107"/>
      <use x="475.191406" xlink:href="#DejaVuSans-101"/>
      <use x="536.714844" xlink:href="#DejaVuSans-86"/>
      <use x="605.123047" xlink:href="#DejaVuSans-41"/>
     </g>
    </g>
   </g>
   <g id="matplotlib.axis_2">
    <g id="ytick_1">
     <g id="line2d_19">
      <path clip-path="url(#pba5731c00f)" d="M 108 441 
L 777.6 441 
" style="fill:none;stroke:#b0b0b0;stroke-linecap:square;stroke-width:0.8;"/>
     </g>
     <g id="line2d_20">
      <defs>
       <path d="M 0 0 
L -3.5 0 
" id="m9e9b6aecdb" style="stroke:#000000;stroke-width:0.8;"/>
      </defs>
      <g>
       <use style="stroke:#000000;stroke-width:0.8;" x="108" xlink:href="#m9e9b6aecdb" y="441"/>
      </g>
     </g>
     <g id="text_11">
      <!-- $\mathdefault{10^{-14}}$ -->
      <g transform="translate(45.2 448.598438)scale(0.2 -0.2)">
       <defs>
        <path d="M 10.59375 35.5 
L 73.1875 35.5 
L 73.1875 27.203125 
L 10.59375 27.203125 
z
" id="DejaVuSans-8722"/>
       </defs>
       <use transform="translate(0 0.684375)" xlink:href="#DejaVuSans-49"/>
       <use transform="translate(63.623047 0.684375)" xlink:href="#DejaVuSans-48"/>
       <use transform="translate(128.203125 38.965625)scale(0.7)" xlink:href="#DejaVuSans-8722"/>
       <use transform="translate(186.855469 38.965625)scale(0.7)" xlink:href="#DejaVuSans-49"/>
       <use transform="translate(231.391602 38.965625)scale(0.7)" xlink:href="#DejaVuSans-52"/>
      </g>
     </g>
    </g>
    <g id="ytick_2">
     <g id="line2d_21">
      <path clip-path="url(#pba5731c00f)" d="M 108 388.514483 
L 777.6 388.514483 
" style="fill:none;stroke:#b0b0b0;stroke-linecap:square;stroke-width:0.8;"/>
     </g>
     <g id="line2d_22">
      <g>
       <use style="stroke:#000000;stroke-width:0.8;" x="108" xlink:href="#m9e9b6aecdb" y="388.514483"/>
      </g>
     </g>
     <g id="text_12">
      <!-- $\mathdefault{10^{-10}}$ -->
      <g transform="translate(45.2 396.11292)scale(0.2 -0.2)">
       <use transform="translate(0 0.765625)" xlink:href="#DejaVuSans-49"/>
       <use transform="translate(63.623047 0.765625)" xlink:href="#DejaVuSans-48"/>
       <use transform="translate(128.203125 39.046875)scale(0.7)" xlink:href="#DejaVuSans-8722"/>
       <use transform="translate(186.855469 39.046875)scale(0.7)" xlink:href="#DejaVuSans-49"/>
       <use transform="translate(231.391602 39.046875)scale(0.7)" xlink:href="#DejaVuSans-48"/>
      </g>
     </g>
    </g>
    <g id="ytick_3">
     <g id="line2d_23">
      <path clip-path="url(#pba5731c00f)" d="M 108 336.028966 
L 777.6 336.028966 
" style="fill:none;stroke:#b0b0b0;stroke-linecap:square;stroke-width:0.8;"/>
     </g>
     <g id="line2d_24">
      <g>
       <use style="stroke:#000000;stroke-width:0.8;" x="108" xlink:href="#m9e9b6aecdb" y="336.028966"/>
      </g>
     </g>
     <g id="text_13">
      <!-- $\mathdefault{10^{-6}}$ -->
      <g transform="translate(54 343.627403)scale(0.2 -0.2)">
       <defs>
        <path d="M 33.015625 40.375 
Q 26.375 40.375 22.484375 35.828125 
Q 18.609375 31.296875 18.609375 23.390625 
Q 18.609375 15.53125 22.484375 10.953125 
Q 26.375 6.390625 33.015625 6.390625 
Q 39.65625 6.390625 43.53125 10.953125 
Q 47.40625 15.53125 47.40625 23.390625 
Q 47.40625 31.296875 43.53125 35.828125 
Q 39.65625 40.375 33.015625 40.375 
z
M 52.59375 71.296875 
L 52.59375 62.3125 
Q 48.875 64.0625 45.09375 64.984375 
Q 41.3125 65.921875 37.59375 65.921875 
Q 27.828125 65.921875 22.671875 59.328125 
Q 17.53125 52.734375 16.796875 39.40625 
Q 19.671875 43.65625 24.015625 45.921875 
Q 28.375 48.1875 33.59375 48.1875 
Q 44.578125 48.1875 50.953125 41.515625 
Q 57.328125 34.859375 57.328125 23.390625 
Q 57.328125 12.15625 50.6875 5.359375 
Q 44.046875 -1.421875 33.015625 -1.421875 
Q 20.359375 -1.421875 13.671875 8.265625 
Q 6.984375 17.96875 6.984375 36.375 
Q 6.984375 53.65625 15.1875 63.9375 
Q 23.390625 74.21875 37.203125 74.21875 
Q 40.921875 74.21875 44.703125 73.484375 
Q 48.484375 72.75 52.59375 71.296875 
z
" id="DejaVuSans-54"/>
       </defs>
       <use transform="translate(0 0.765625)" xlink:href="#DejaVuSans-49"/>
       <use transform="translate(63.623047 0.765625)" xlink:href="#DejaVuSans-48"/>
       <use transform="translate(128.203125 39.046875)scale(0.7)" xlink:href="#DejaVuSans-8722"/>
       <use transform="translate(186.855469 39.046875)scale(0.7)" xlink:href="#DejaVuSans-54"/>
      </g>
     </g>
    </g>
    <g id="ytick_4">
     <g id="line2d_25">
      <path clip-path="url(#pba5731c00f)" d="M 108 283.543448 
L 777.6 283.543448 
" style="fill:none;stroke:#b0b0b0;stroke-linecap:square;stroke-width:0.8;"/>
     </g>
     <g id="line2d_26">
      <g>
       <use style="stroke:#000000;stroke-width:0.8;" x="108" xlink:href="#m9e9b6aecdb" y="283.543448"/>
      </g>
     </g>
     <g id="text_14">
      <!-- $\mathdefault{10^{-2}}$ -->
      <g transform="translate(54 291.141886)scale(0.2 -0.2)">
       <use transform="translate(0 0.765625)" xlink:href="#DejaVuSans-49"/>
       <use transform="translate(63.623047 0.765625)" xlink:href="#DejaVuSans-48"/>
       <use transform="translate(128.203125 39.046875)scale(0.7)" xlink:href="#DejaVuSans-8722"/>
       <use transform="translate(186.855469 39.046875)scale(0.7)" xlink:href="#DejaVuSans-50"/>
      </g>
     </g>
    </g>
    <g id="ytick_5">
     <g id="line2d_27">
      <path clip-path="url(#pba5731c00f)" d="M 108 231.057931 
L 777.6 231.057931 
" style="fill:none;stroke:#b0b0b0;stroke-linecap:square;stroke-width:0.8;"/>
     </g>
     <g id="line2d_28">
      <g>
       <use style="stroke:#000000;stroke-width:0.8;" x="108" xlink:href="#m9e9b6aecdb" y="231.057931"/>
      </g>
     </g>
     <g id="text_15">
      <!-- $\mathdefault{10^{2}}$ -->
      <g transform="translate(65.8 238.656369)scale(0.2 -0.2)">
       <use transform="translate(0 0.765625)" xlink:href="#DejaVuSans-49"/>
       <use transform="translate(63.623047 0.765625)" xlink:href="#DejaVuSans-48"/>
       <use transform="translate(128.203125 39.046875)scale(0.7)" xlink:href="#DejaVuSans-50"/>
      </g>
     </g>
    </g>
    <g id="ytick_6">
     <g id="line2d_29">
      <path clip-path="url(#pba5731c00f)" d="M 108 178.572414 
L 777.6 178.572414 
" style="fill:none;stroke:#b0b0b0;stroke-linecap:square;stroke-width:0.8;"/>
     </g>
     <g id="line2d_30">
      <g>
       <use style="stroke:#000000;stroke-width:0.8;" x="108" xlink:href="#m9e9b6aecdb" y="178.572414"/>
      </g>
     </g>
     <g id="text_16">
      <!-- $\mathdefault{10^{6}}$ -->
      <g transform="translate(65.8 186.170851)scale(0.2 -0.2)">
       <use transform="translate(0 0.765625)" xlink:href="#DejaVuSans-49"/>
       <use transform="translate(63.623047 0.765625)" xlink:href="#DejaVuSans-48"/>
       <use transform="translate(128.203125 39.046875)scale(0.7)" xlink:href="#DejaVuSans-54"/>
      </g>
     </g>
    </g>
    <g id="ytick_7">
     <g id="line2d_31">
      <path clip-path="url(#pba5731c00f)" d="M 108 126.086897 
L 777.6 126.086897 
" style="fill:none;stroke:#b0b0b0;stroke-linecap:square;stroke-width:0.8;"/>
     </g>
     <g id="line2d_32">
      <g>
       <use style="stroke:#000000;stroke-width:0.8;" x="108" xlink:href="#m9e9b6aecdb" y="126.086897"/>
      </g>
     </g>
     <g id="text_17">
      <!-- $\mathdefault{10^{10}}$ -->
      <g transform="translate(56.8 133.685334)scale(0.2 -0.2)">
       <use transform="translate(0 0.765625)" xlink:href="#DejaVuSans-49"/>
       <use transform="translate(63.623047 0.765625)" xlink:href="#DejaVuSans-48"/>
       <use transform="translate(128.203125 39.046875)scale(0.7)" xlink:href="#DejaVuSans-49"/>
       <use transform="translate(172.739258 39.046875)scale(0.7)" xlink:href="#DejaVuSans-48"/>
      </g>
     </g>
    </g>
    <g id="ytick_8">
     <g id="line2d_33">
      <path clip-path="url(#pba5731c00f)" d="M 108 73.601379 
L 777.6 73.601379 
" style="fill:none;stroke:#b0b0b0;stroke-linecap:square;stroke-width:0.8;"/>
     </g>
     <g id="line2d_34">
      <g>
       <use style="stroke:#000000;stroke-width:0.8;" x="108" xlink:href="#m9e9b6aecdb" y="73.601379"/>
      </g>
     </g>
     <g id="text_18">
      <!-- $\mathdefault{10^{14}}$ -->
      <g transform="translate(56.8 81.199817)scale(0.2 -0.2)">
       <use transform="translate(0 0.684375)" xlink:href="#DejaVuSans-49"/>
       <use transform="translate(63.623047 0.684375)" xlink:href="#DejaVuSans-48"/>
       <use transform="translate(128.203125 38.965625)scale(0.7)" xlink:href="#DejaVuSans-49"/>
       <use transform="translate(172.739258 38.965625)scale(0.7)" xlink:href="#DejaVuSans-52"/>
      </g>
     </g>
    </g>
    <g id="text_19">
     <!-- ph/s/500mA -->
     <g transform="translate(37.040625 311.041562)rotate(-90)scale(0.2 -0.2)">
      <defs>
       <path d="M 18.109375 8.203125 
L 18.109375 -20.796875 
L 9.078125 -20.796875 
L 9.078125 54.6875 
L 18.109375 54.6875 
L 18.109375 46.390625 
Q 20.953125 51.265625 25.265625 53.625 
Q 29.59375 56 35.59375 56 
Q 45.5625 56 51.78125 48.09375 
Q 58.015625 40.1875 58.015625 27.296875 
Q 58.015625 14.40625 51.78125 6.484375 
Q 45.5625 -1.421875 35.59375 -1.421875 
Q 29.59375 -1.421875 25.265625 0.953125 
Q 20.953125 3.328125 18.109375 8.203125 
z
M 48.6875 27.296875 
Q 48.6875 37.203125 44.609375 42.84375 
Q 40.53125 48.484375 33.40625 48.484375 
Q 26.265625 48.484375 22.1875 42.84375 
Q 18.109375 37.203125 18.109375 27.296875 
Q 18.109375 17.390625 22.1875 11.75 
Q 26.265625 6.109375 33.40625 6.109375 
Q 40.53125 6.109375 44.609375 11.75 
Q 48.6875 17.390625 48.6875 27.296875 
z
" id="DejaVuSans-112"/>
       <path d="M 54.890625 33.015625 
L 54.890625 0 
L 45.90625 0 
L 45.90625 32.71875 
Q 45.90625 40.484375 42.875 44.328125 
Q 39.84375 48.1875 33.796875 48.1875 
Q 26.515625 48.1875 22.3125 43.546875 
Q 18.109375 38.921875 18.109375 30.90625 
L 18.109375 0 
L 9.078125 0 
L 9.078125 75.984375 
L 18.109375 75.984375 
L 18.109375 46.1875 
Q 21.34375 51.125 25.703125 53.5625 
Q 30.078125 56 35.796875 56 
Q 45.21875 56 50.046875 50.171875 
Q 54.890625 44.34375 54.890625 33.015625 
z
" id="DejaVuSans-104"/>
       <path d="M 25.390625 72.90625 
L 33.6875 72.90625 
L 8.296875 -9.28125 
L 0 -9.28125 
z
" id="DejaVuSans-47"/>
       <path d="M 44.28125 53.078125 
L 44.28125 44.578125 
Q 40.484375 46.53125 36.375 47.5 
Q 32.28125 48.484375 27.875 48.484375 
Q 21.1875 48.484375 17.84375 46.4375 
Q 14.5 44.390625 14.5 40.28125 
Q 14.5 37.15625 16.890625 35.375 
Q 19.28125 33.59375 26.515625 31.984375 
L 29.59375 31.296875 
Q 39.15625 29.25 43.1875 25.515625 
Q 47.21875 21.78125 47.21875 15.09375 
Q 47.21875 7.46875 41.1875 3.015625 
Q 35.15625 -1.421875 24.609375 -1.421875 
Q 20.21875 -1.421875 15.453125 -0.5625 
Q 10.6875 0.296875 5.421875 2 
L 5.421875 11.28125 
Q 10.40625 8.6875 15.234375 7.390625 
Q 20.0625 6.109375 24.8125 6.109375 
Q 31.15625 6.109375 34.5625 8.28125 
Q 37.984375 10.453125 37.984375 14.40625 
Q 37.984375 18.0625 35.515625 20.015625 
Q 33.0625 21.96875 24.703125 23.78125 
L 21.578125 24.515625 
Q 13.234375 26.265625 9.515625 29.90625 
Q 5.8125 33.546875 5.8125 39.890625 
Q 5.8125 47.609375 11.28125 51.796875 
Q 16.75 56 26.8125 56 
Q 31.78125 56 36.171875 55.265625 
Q 40.578125 54.546875 44.28125 53.078125 
z
" id="DejaVuSans-115"/>
       <path d="M 52 44.1875 
Q 55.375 50.25 60.0625 53.125 
Q 64.75 56 71.09375 56 
Q 79.640625 56 84.28125 50.015625 
Q 88.921875 44.046875 88.921875 33.015625 
L 88.921875 0 
L 79.890625 0 
L 79.890625 32.71875 
Q 79.890625 40.578125 77.09375 44.375 
Q 74.3125 48.1875 68.609375 48.1875 
Q 61.625 48.1875 57.5625 43.546875 
Q 53.515625 38.921875 53.515625 30.90625 
L 53.515625 0 
L 44.484375 0 
L 44.484375 32.71875 
Q 44.484375 40.625 41.703125 44.40625 
Q 38.921875 48.1875 33.109375 48.1875 
Q 26.21875 48.1875 22.15625 43.53125 
Q 18.109375 38.875 18.109375 30.90625 
L 18.109375 0 
L 9.078125 0 
L 9.078125 54.6875 
L 18.109375 54.6875 
L 18.109375 46.1875 
Q 21.1875 51.21875 25.484375 53.609375 
Q 29.78125 56 35.6875 56 
Q 41.65625 56 45.828125 52.96875 
Q 50 49.953125 52 44.1875 
z
" id="DejaVuSans-109"/>
       <path d="M 34.1875 63.1875 
L 20.796875 26.90625 
L 47.609375 26.90625 
z
M 28.609375 72.90625 
L 39.796875 72.90625 
L 67.578125 0 
L 57.328125 0 
L 50.6875 18.703125 
L 17.828125 18.703125 
L 11.1875 0 
L 0.78125 0 
z
" id="DejaVuSans-65"/>
      </defs>
      <use xlink:href="#DejaVuSans-112"/>
      <use x="63.476562" xlink:href="#DejaVuSans-104"/>
      <use x="126.855469" xlink:href="#DejaVuSans-47"/>
      <use x="160.546875" xlink:href="#DejaVuSans-115"/>
      <use x="212.646484" xlink:href="#DejaVuSans-47"/>
      <use x="246.337891" xlink:href="#DejaVuSans-53"/>
      <use x="309.960938" xlink:href="#DejaVuSans-48"/>
      <use x="373.583984" xlink:href="#DejaVuSans-48"/>
      <use x="437.207031" xlink:href="#DejaVuSans-109"/>
      <use x="534.619141" xlink:href="#DejaVuSans-65"/>
     </g>
    </g>
   </g>
   <g id="patch_3">
    <path d="M 108 441 
L 108 60.48 
" style="fill:none;stroke:#000000;stroke-linecap:square;stroke-linejoin:miter;stroke-width:0.8;"/>
   </g>
   <g id="patch_4">
    <path d="M 777.6 441 
L 777.6 60.48 
" style="fill:none;stroke:#000000;stroke-linecap:square;stroke-linejoin:miter;stroke-width:0.8;"/>
   </g>
   <g id="patch_5">
    <path d="M 108 441 
L 777.6 441 
" style="fill:none;stroke:#000000;stroke-linecap:square;stroke-linejoin:miter;stroke-width:0.8;"/>
   </g>
   <g id="patch_6">
    <path d="M 108 60.48 
L 777.6 60.48 
" style="fill:none;stroke:#000000;stroke-linecap:square;stroke-linejoin:miter;stroke-width:0.8;"/>
   </g>
   <g id="legend_1">
    <g id="patch_7">
     <path d="M 609.9875 311.33 
L 763.6 311.33 
Q 767.6 311.33 767.6 307.33 
L 767.6 74.48 
Q 767.6 70.48 763.6 70.48 
L 609.9875 70.48 
Q 605.9875 70.48 605.9875 74.48 
L 605.9875 307.33 
Q 605.9875 311.33 609.9875 311.33 
z
" style="fill:#ffffff;opacity:0.8;stroke:#cccccc;stroke-linejoin:miter;"/>
    </g>
    <g id="PathCollection_9">
     <g>
      <use style="fill:#1f77b4;stroke:#1f77b4;" x="633.9875" xlink:href="#ma83a3358a0" y="88.426875"/>
     </g>
    </g>
    <g id="text_20">
     <!-- 18000eV -->
     <g transform="translate(669.9875 93.676875)scale(0.2 -0.2)">
      <defs>
       <path d="M 31.78125 34.625 
Q 24.75 34.625 20.71875 30.859375 
Q 16.703125 27.09375 16.703125 20.515625 
Q 16.703125 13.921875 20.71875 10.15625 
Q 24.75 6.390625 31.78125 6.390625 
Q 38.8125 6.390625 42.859375 10.171875 
Q 46.921875 13.96875 46.921875 20.515625 
Q 46.921875 27.09375 42.890625 30.859375 
Q 38.875 34.625 31.78125 34.625 
z
M 21.921875 38.8125 
Q 15.578125 40.375 12.03125 44.71875 
Q 8.5 49.078125 8.5 55.328125 
Q 8.5 64.0625 14.71875 69.140625 
Q 20.953125 74.21875 31.78125 74.21875 
Q 42.671875 74.21875 48.875 69.140625 
Q 55.078125 64.0625 55.078125 55.328125 
Q 55.078125 49.078125 51.53125 44.71875 
Q 48 40.375 41.703125 38.8125 
Q 48.828125 37.15625 52.796875 32.3125 
Q 56.78125 27.484375 56.78125 20.515625 
Q 56.78125 9.90625 50.3125 4.234375 
Q 43.84375 -1.421875 31.78125 -1.421875 
Q 19.734375 -1.421875 13.25 4.234375 
Q 6.78125 9.90625 6.78125 20.515625 
Q 6.78125 27.484375 10.78125 32.3125 
Q 14.796875 37.15625 21.921875 38.8125 
z
M 18.3125 54.390625 
Q 18.3125 48.734375 21.84375 45.5625 
Q 25.390625 42.390625 31.78125 42.390625 
Q 38.140625 42.390625 41.71875 45.5625 
Q 45.3125 48.734375 45.3125 54.390625 
Q 45.3125 60.0625 41.71875 63.234375 
Q 38.140625 66.40625 31.78125 66.40625 
Q 25.390625 66.40625 21.84375 63.234375 
Q 18.3125 60.0625 18.3125 54.390625 
z
" id="DejaVuSans-56"/>
      </defs>
      <use xlink:href="#DejaVuSans-49"/>
      <use x="63.623047" xlink:href="#DejaVuSans-56"/>
      <use x="127.246094" xlink:href="#DejaVuSans-48"/>
      <use x="190.869141" xlink:href="#DejaVuSans-48"/>
      <use x="254.492188" xlink:href="#DejaVuSans-48"/>
      <use x="318.115234" xlink:href="#DejaVuSans-101"/>
      <use x="379.638672" xlink:href="#DejaVuSans-86"/>
     </g>
    </g>
    <g id="PathCollection_10">
     <g>
      <use style="fill:#ff7f0e;stroke:#ff7f0e;" x="633.9875" xlink:href="#m21c2963d57" y="117.783125"/>
     </g>
    </g>
    <g id="text_21">
     <!-- 8000eV -->
     <g transform="translate(669.9875 123.033125)scale(0.2 -0.2)">
      <use xlink:href="#DejaVuSans-56"/>
      <use x="63.623047" xlink:href="#DejaVuSans-48"/>
      <use x="127.246094" xlink:href="#DejaVuSans-48"/>
      <use x="190.869141" xlink:href="#DejaVuSans-48"/>
      <use x="254.492188" xlink:href="#DejaVuSans-101"/>
      <use x="316.015625" xlink:href="#DejaVuSans-86"/>
     </g>
    </g>
    <g id="PathCollection_11">
     <g>
      <use style="fill:#2ca02c;stroke:#2ca02c;" x="633.9875" xlink:href="#m3ef22f6647" y="147.139375"/>
     </g>
    </g>
    <g id="text_22">
     <!-- 6000eV -->
     <g transform="translate(669.9875 152.389375)scale(0.2 -0.2)">
      <use xlink:href="#DejaVuSans-54"/>
      <use x="63.623047" xlink:href="#DejaVuSans-48"/>
      <use x="127.246094" xlink:href="#DejaVuSans-48"/>
      <use x="190.869141" xlink:href="#DejaVuSans-48"/>
      <use x="254.492188" xlink:href="#DejaVuSans-101"/>
      <use x="316.015625" xlink:href="#DejaVuSans-86"/>
     </g>
    </g>
    <g id="PathCollection_12">
     <g>
      <use style="fill:#d62728;stroke:#d62728;" x="633.9875" xlink:href="#ma0856963b3" y="176.495625"/>
     </g>
    </g>
    <g id="text_23">
     <!-- 7000eV -->
     <g transform="translate(669.9875 181.745625)scale(0.2 -0.2)">
      <defs>
       <path d="M 8.203125 72.90625 
L 55.078125 72.90625 
L 55.078125 68.703125 
L 28.609375 0 
L 18.3125 0 
L 43.21875 64.59375 
L 8.203125 64.59375 
z
" id="DejaVuSans-55"/>
      </defs>
      <use xlink:href="#DejaVuSans-55"/>
      <use x="63.623047" xlink:href="#DejaVuSans-48"/>
      <use x="127.246094" xlink:href="#DejaVuSans-48"/>
      <use x="190.869141" xlink:href="#DejaVuSans-48"/>
      <use x="254.492188" xlink:href="#DejaVuSans-101"/>
      <use x="316.015625" xlink:href="#DejaVuSans-86"/>
     </g>
    </g>
    <g id="PathCollection_13">
     <g>
      <use style="fill:#9467bd;stroke:#9467bd;" x="633.9875" xlink:href="#m80e669ef63" y="205.851875"/>
     </g>
    </g>
    <g id="text_24">
     <!-- 35000eV -->
     <g transform="translate(669.9875 211.101875)scale(0.2 -0.2)">
      <use xlink:href="#DejaVuSans-51"/>
      <use x="63.623047" xlink:href="#DejaVuSans-53"/>
      <use x="127.246094" xlink:href="#DejaVuSans-48"/>
      <use x="190.869141" xlink:href="#DejaVuSans-48"/>
      <use x="254.492188" xlink:href="#DejaVuSans-48"/>
      <use x="318.115234" xlink:href="#DejaVuSans-101"/>
      <use x="379.638672" xlink:href="#DejaVuSans-86"/>
     </g>
    </g>
    <g id="PathCollection_14">
     <g>
      <use style="fill:#8c564b;stroke:#8c564b;" x="633.9875" xlink:href="#mf7cad3e45e" y="235.208125"/>
     </g>
    </g>
    <g id="text_25">
     <!-- 9000eV -->
     <g transform="translate(669.9875 240.458125)scale(0.2 -0.2)">
      <defs>
       <path d="M 10.984375 1.515625 
L 10.984375 10.5 
Q 14.703125 8.734375 18.5 7.8125 
Q 22.3125 6.890625 25.984375 6.890625 
Q 35.75 6.890625 40.890625 13.453125 
Q 46.046875 20.015625 46.78125 33.40625 
Q 43.953125 29.203125 39.59375 26.953125 
Q 35.25 24.703125 29.984375 24.703125 
Q 19.046875 24.703125 12.671875 31.3125 
Q 6.296875 37.9375 6.296875 49.421875 
Q 6.296875 60.640625 12.9375 67.421875 
Q 19.578125 74.21875 30.609375 74.21875 
Q 43.265625 74.21875 49.921875 64.515625 
Q 56.59375 54.828125 56.59375 36.375 
Q 56.59375 19.140625 48.40625 8.859375 
Q 40.234375 -1.421875 26.421875 -1.421875 
Q 22.703125 -1.421875 18.890625 -0.6875 
Q 15.09375 0.046875 10.984375 1.515625 
z
M 30.609375 32.421875 
Q 37.25 32.421875 41.125 36.953125 
Q 45.015625 41.5 45.015625 49.421875 
Q 45.015625 57.28125 41.125 61.84375 
Q 37.25 66.40625 30.609375 66.40625 
Q 23.96875 66.40625 20.09375 61.84375 
Q 16.21875 57.28125 16.21875 49.421875 
Q 16.21875 41.5 20.09375 36.953125 
Q 23.96875 32.421875 30.609375 32.421875 
z
" id="DejaVuSans-57"/>
      </defs>
      <use xlink:href="#DejaVuSans-57"/>
      <use x="63.623047" xlink:href="#DejaVuSans-48"/>
      <use x="127.246094" xlink:href="#DejaVuSans-48"/>
      <use x="190.869141" xlink:href="#DejaVuSans-48"/>
      <use x="254.492188" xlink:href="#DejaVuSans-101"/>
      <use x="316.015625" xlink:href="#DejaVuSans-86"/>
     </g>
    </g>
    <g id="PathCollection_15">
     <g>
      <use style="fill:#e377c2;stroke:#e377c2;" x="633.9875" xlink:href="#md3b11c2be7" y="264.564375"/>
     </g>
    </g>
    <g id="text_26">
     <!-- 10000eV -->
     <g transform="translate(669.9875 269.814375)scale(0.2 -0.2)">
      <use xlink:href="#DejaVuSans-49"/>
      <use x="63.623047" xlink:href="#DejaVuSans-48"/>
      <use x="127.246094" xlink:href="#DejaVuSans-48"/>
      <use x="190.869141" xlink:href="#DejaVuSans-48"/>
      <use x="254.492188" xlink:href="#DejaVuSans-48"/>
      <use x="318.115234" xlink:href="#DejaVuSans-101"/>
      <use x="379.638672" xlink:href="#DejaVuSans-86"/>
     </g>
    </g>
    <g id="PathCollection_16">
     <g>
      <use style="fill:#7f7f7f;stroke:#7f7f7f;" x="633.9875" xlink:href="#m5d78e42e1e" y="293.920625"/>
     </g>
    </g>
    <g id="text_27">
     <!-- 5000eV -->
     <g transform="translate(669.9875 299.170625)scale(0.2 -0.2)">
      <use xlink:href="#DejaVuSans-53"/>
      <use x="63.623047" xlink:href="#DejaVuSans-48"/>
      <use x="127.246094" xlink:href="#DejaVuSans-48"/>
      <use x="190.869141" xlink:href="#DejaVuSans-48"/>
      <use x="254.492188" xlink:href="#DejaVuSans-101"/>
      <use x="316.015625" xlink:href="#DejaVuSans-86"/>
     </g>
    </g>
   </g>
  </g>
 </g>
 <defs>
  <clipPath id="pba5731c00f">
   <rect height="380.52" width="669.6" x="108" y="60.48"/>
  </clipPath>
 </defs>
</svg>
