<?xml version="1.0" encoding="utf-8" standalone="no"?>
<!DOCTYPE svg PUBLIC "-//W3C//DTD SVG 1.1//EN"
  "http://www.w3.org/Graphics/SVG/1.1/DTD/svg11.dtd">
<!-- Created with matplotlib (http://matplotlib.org/) -->
<svg height="288pt" version="1.1" viewBox="0 0 432 288" width="432pt" xmlns="http://www.w3.org/2000/svg" xmlns:xlink="http://www.w3.org/1999/xlink">
 <defs>
  <style type="text/css">
*{stroke-linecap:butt;stroke-linejoin:round;}
  </style>
 </defs>
 <g id="figure_1">
  <g id="patch_1">
   <path d="M 0 288 
L 432 288 
L 432 0 
L 0 0 
z
" style="fill:#ffffff;"/>
  </g>
  <g id="axes_1">
   <g id="patch_2">
    <path d="M 54 252 
L 388.8 252 
L 388.8 34.56 
L 54 34.56 
z
" style="fill:#ffffff;"/>
   </g>
   <g id="matplotlib.axis_1">
    <g id="xtick_1">
     <g id="line2d_1">
      <path clip-path="url(#p09831500e2)" d="M 62.877273 252 
L 62.877273 34.56 
" style="fill:none;stroke:#b0b0b0;stroke-linecap:square;stroke-width:0.8;"/>
     </g>
     <g id="line2d_2">
      <defs>
       <path d="M 0 0 
L 0 3.5 
" id="m704b34901a" style="stroke:#000000;stroke-width:0.8;"/>
      </defs>
      <g>
       <use style="stroke:#000000;stroke-width:0.8;" x="62.877273" xlink:href="#m704b34901a" y="252"/>
      </g>
     </g>
     <g id="text_1">
      <!-- 0 -->
      <defs>
       <path d="M 31.78125 66.40625 
Q 24.171875 66.40625 20.328125 58.90625 
Q 16.5 51.421875 16.5 36.375 
Q 16.5 21.390625 20.328125 13.890625 
Q 24.171875 6.390625 31.78125 6.390625 
Q 39.453125 6.390625 43.28125 13.890625 
Q 47.125 21.390625 47.125 36.375 
Q 47.125 51.421875 43.28125 58.90625 
Q 39.453125 66.40625 31.78125 66.40625 
z
M 31.78125 74.21875 
Q 44.046875 74.21875 50.515625 64.515625 
Q 56.984375 54.828125 56.984375 36.375 
Q 56.984375 17.96875 50.515625 8.265625 
Q 44.046875 -1.421875 31.78125 -1.421875 
Q 19.53125 -1.421875 13.0625 8.265625 
Q 6.59375 17.96875 6.59375 36.375 
Q 6.59375 54.828125 13.0625 64.515625 
Q 19.53125 74.21875 31.78125 74.21875 
z
" id="DejaVuSans-30"/>
      </defs>
      <g transform="translate(59.696023 266.598437)scale(0.1 -0.1)">
       <use xlink:href="#DejaVuSans-30"/>
      </g>
     </g>
    </g>
    <g id="xtick_2">
     <g id="line2d_3">
      <path clip-path="url(#p09831500e2)" d="M 102.507955 252 
L 102.507955 34.56 
" style="fill:none;stroke:#b0b0b0;stroke-linecap:square;stroke-width:0.8;"/>
     </g>
     <g id="line2d_4">
      <g>
       <use style="stroke:#000000;stroke-width:0.8;" x="102.507955" xlink:href="#m704b34901a" y="252"/>
      </g>
     </g>
     <g id="text_2">
      <!-- 50000 -->
      <defs>
       <path d="M 10.796875 72.90625 
L 49.515625 72.90625 
L 49.515625 64.59375 
L 19.828125 64.59375 
L 19.828125 46.734375 
Q 21.96875 47.46875 24.109375 47.828125 
Q 26.265625 48.1875 28.421875 48.1875 
Q 40.625 48.1875 47.75 41.5 
Q 54.890625 34.8125 54.890625 23.390625 
Q 54.890625 11.625 47.5625 5.09375 
Q 40.234375 -1.421875 26.90625 -1.421875 
Q 22.3125 -1.421875 17.546875 -0.640625 
Q 12.796875 0.140625 7.71875 1.703125 
L 7.71875 11.625 
Q 12.109375 9.234375 16.796875 8.0625 
Q 21.484375 6.890625 26.703125 6.890625 
Q 35.15625 6.890625 40.078125 11.328125 
Q 45.015625 15.765625 45.015625 23.390625 
Q 45.015625 31 40.078125 35.4375 
Q 35.15625 39.890625 26.703125 39.890625 
Q 22.75 39.890625 18.8125 39.015625 
Q 14.890625 38.140625 10.796875 36.28125 
z
" id="DejaVuSans-35"/>
      </defs>
      <g transform="translate(86.601705 266.598437)scale(0.1 -0.1)">
       <use xlink:href="#DejaVuSans-35"/>
       <use x="63.623047" xlink:href="#DejaVuSans-30"/>
       <use x="127.246094" xlink:href="#DejaVuSans-30"/>
       <use x="190.869141" xlink:href="#DejaVuSans-30"/>
       <use x="254.492188" xlink:href="#DejaVuSans-30"/>
      </g>
     </g>
    </g>
    <g id="xtick_3">
     <g id="line2d_5">
      <path clip-path="url(#p09831500e2)" d="M 142.138636 252 
L 142.138636 34.56 
" style="fill:none;stroke:#b0b0b0;stroke-linecap:square;stroke-width:0.8;"/>
     </g>
     <g id="line2d_6">
      <g>
       <use style="stroke:#000000;stroke-width:0.8;" x="142.138636" xlink:href="#m704b34901a" y="252"/>
      </g>
     </g>
     <g id="text_3">
      <!-- 100000 -->
      <defs>
       <path d="M 12.40625 8.296875 
L 28.515625 8.296875 
L 28.515625 63.921875 
L 10.984375 60.40625 
L 10.984375 69.390625 
L 28.421875 72.90625 
L 38.28125 72.90625 
L 38.28125 8.296875 
L 54.390625 8.296875 
L 54.390625 0 
L 12.40625 0 
z
" id="DejaVuSans-31"/>
      </defs>
      <g transform="translate(123.051136 266.598437)scale(0.1 -0.1)">
       <use xlink:href="#DejaVuSans-31"/>
       <use x="63.623047" xlink:href="#DejaVuSans-30"/>
       <use x="127.246094" xlink:href="#DejaVuSans-30"/>
       <use x="190.869141" xlink:href="#DejaVuSans-30"/>
       <use x="254.492188" xlink:href="#DejaVuSans-30"/>
       <use x="318.115234" xlink:href="#DejaVuSans-30"/>
      </g>
     </g>
    </g>
    <g id="xtick_4">
     <g id="line2d_7">
      <path clip-path="url(#p09831500e2)" d="M 181.769318 252 
L 181.769318 34.56 
" style="fill:none;stroke:#b0b0b0;stroke-linecap:square;stroke-width:0.8;"/>
     </g>
     <g id="line2d_8">
      <g>
       <use style="stroke:#000000;stroke-width:0.8;" x="181.769318" xlink:href="#m704b34901a" y="252"/>
      </g>
     </g>
     <g id="text_4">
      <!-- 150000 -->
      <g transform="translate(162.681818 266.598437)scale(0.1 -0.1)">
       <use xlink:href="#DejaVuSans-31"/>
       <use x="63.623047" xlink:href="#DejaVuSans-35"/>
       <use x="127.246094" xlink:href="#DejaVuSans-30"/>
       <use x="190.869141" xlink:href="#DejaVuSans-30"/>
       <use x="254.492188" xlink:href="#DejaVuSans-30"/>
       <use x="318.115234" xlink:href="#DejaVuSans-30"/>
      </g>
     </g>
    </g>
    <g id="xtick_5">
     <g id="line2d_9">
      <path clip-path="url(#p09831500e2)" d="M 221.4 252 
L 221.4 34.56 
" style="fill:none;stroke:#b0b0b0;stroke-linecap:square;stroke-width:0.8;"/>
     </g>
     <g id="line2d_10">
      <g>
       <use style="stroke:#000000;stroke-width:0.8;" x="221.4" xlink:href="#m704b34901a" y="252"/>
      </g>
     </g>
     <g id="text_5">
      <!-- 200000 -->
      <defs>
       <path d="M 19.1875 8.296875 
L 53.609375 8.296875 
L 53.609375 0 
L 7.328125 0 
L 7.328125 8.296875 
Q 12.9375 14.109375 22.625 23.890625 
Q 32.328125 33.6875 34.8125 36.53125 
Q 39.546875 41.84375 41.421875 45.53125 
Q 43.3125 49.21875 43.3125 52.78125 
Q 43.3125 58.59375 39.234375 62.25 
Q 35.15625 65.921875 28.609375 65.921875 
Q 23.96875 65.921875 18.8125 64.3125 
Q 13.671875 62.703125 7.8125 59.421875 
L 7.8125 69.390625 
Q 13.765625 71.78125 18.9375 73 
Q 24.125 74.21875 28.421875 74.21875 
Q 39.75 74.21875 46.484375 68.546875 
Q 53.21875 62.890625 53.21875 53.421875 
Q 53.21875 48.921875 51.53125 44.890625 
Q 49.859375 40.875 45.40625 35.40625 
Q 44.1875 33.984375 37.640625 27.21875 
Q 31.109375 20.453125 19.1875 8.296875 
z
" id="DejaVuSans-32"/>
      </defs>
      <g transform="translate(202.3125 266.598437)scale(0.1 -0.1)">
       <use xlink:href="#DejaVuSans-32"/>
       <use x="63.623047" xlink:href="#DejaVuSans-30"/>
       <use x="127.246094" xlink:href="#DejaVuSans-30"/>
       <use x="190.869141" xlink:href="#DejaVuSans-30"/>
       <use x="254.492188" xlink:href="#DejaVuSans-30"/>
       <use x="318.115234" xlink:href="#DejaVuSans-30"/>
      </g>
     </g>
    </g>
    <g id="xtick_6">
     <g id="line2d_11">
      <path clip-path="url(#p09831500e2)" d="M 261.030682 252 
L 261.030682 34.56 
" style="fill:none;stroke:#b0b0b0;stroke-linecap:square;stroke-width:0.8;"/>
     </g>
     <g id="line2d_12">
      <g>
       <use style="stroke:#000000;stroke-width:0.8;" x="261.030682" xlink:href="#m704b34901a" y="252"/>
      </g>
     </g>
     <g id="text_6">
      <!-- 250000 -->
      <g transform="translate(241.943182 266.598437)scale(0.1 -0.1)">
       <use xlink:href="#DejaVuSans-32"/>
       <use x="63.623047" xlink:href="#DejaVuSans-35"/>
       <use x="127.246094" xlink:href="#DejaVuSans-30"/>
       <use x="190.869141" xlink:href="#DejaVuSans-30"/>
       <use x="254.492188" xlink:href="#DejaVuSans-30"/>
       <use x="318.115234" xlink:href="#DejaVuSans-30"/>
      </g>
     </g>
    </g>
    <g id="xtick_7">
     <g id="line2d_13">
      <path clip-path="url(#p09831500e2)" d="M 300.661364 252 
L 300.661364 34.56 
" style="fill:none;stroke:#b0b0b0;stroke-linecap:square;stroke-width:0.8;"/>
     </g>
     <g id="line2d_14">
      <g>
       <use style="stroke:#000000;stroke-width:0.8;" x="300.661364" xlink:href="#m704b34901a" y="252"/>
      </g>
     </g>
     <g id="text_7">
      <!-- 300000 -->
      <defs>
       <path d="M 40.578125 39.3125 
Q 47.65625 37.796875 51.625 33 
Q 55.609375 28.21875 55.609375 21.1875 
Q 55.609375 10.40625 48.1875 4.484375 
Q 40.765625 -1.421875 27.09375 -1.421875 
Q 22.515625 -1.421875 17.65625 -0.515625 
Q 12.796875 0.390625 7.625 2.203125 
L 7.625 11.71875 
Q 11.71875 9.328125 16.59375 8.109375 
Q 21.484375 6.890625 26.8125 6.890625 
Q 36.078125 6.890625 40.9375 10.546875 
Q 45.796875 14.203125 45.796875 21.1875 
Q 45.796875 27.640625 41.28125 31.265625 
Q 36.765625 34.90625 28.71875 34.90625 
L 20.21875 34.90625 
L 20.21875 43.015625 
L 29.109375 43.015625 
Q 36.375 43.015625 40.234375 45.921875 
Q 44.09375 48.828125 44.09375 54.296875 
Q 44.09375 59.90625 40.109375 62.90625 
Q 36.140625 65.921875 28.71875 65.921875 
Q 24.65625 65.921875 20.015625 65.03125 
Q 15.375 64.15625 9.8125 62.3125 
L 9.8125 71.09375 
Q 15.4375 72.65625 20.34375 73.4375 
Q 25.25 74.21875 29.59375 74.21875 
Q 40.828125 74.21875 47.359375 69.109375 
Q 53.90625 64.015625 53.90625 55.328125 
Q 53.90625 49.265625 50.4375 45.09375 
Q 46.96875 40.921875 40.578125 39.3125 
z
" id="DejaVuSans-33"/>
      </defs>
      <g transform="translate(281.573864 266.598437)scale(0.1 -0.1)">
       <use xlink:href="#DejaVuSans-33"/>
       <use x="63.623047" xlink:href="#DejaVuSans-30"/>
       <use x="127.246094" xlink:href="#DejaVuSans-30"/>
       <use x="190.869141" xlink:href="#DejaVuSans-30"/>
       <use x="254.492188" xlink:href="#DejaVuSans-30"/>
       <use x="318.115234" xlink:href="#DejaVuSans-30"/>
      </g>
     </g>
    </g>
    <g id="xtick_8">
     <g id="line2d_15">
      <path clip-path="url(#p09831500e2)" d="M 340.292045 252 
L 340.292045 34.56 
" style="fill:none;stroke:#b0b0b0;stroke-linecap:square;stroke-width:0.8;"/>
     </g>
     <g id="line2d_16">
      <g>
       <use style="stroke:#000000;stroke-width:0.8;" x="340.292045" xlink:href="#m704b34901a" y="252"/>
      </g>
     </g>
     <g id="text_8">
      <!-- 350000 -->
      <g transform="translate(321.204545 266.598437)scale(0.1 -0.1)">
       <use xlink:href="#DejaVuSans-33"/>
       <use x="63.623047" xlink:href="#DejaVuSans-35"/>
       <use x="127.246094" xlink:href="#DejaVuSans-30"/>
       <use x="190.869141" xlink:href="#DejaVuSans-30"/>
       <use x="254.492188" xlink:href="#DejaVuSans-30"/>
       <use x="318.115234" xlink:href="#DejaVuSans-30"/>
      </g>
     </g>
    </g>
    <g id="xtick_9">
     <g id="line2d_17">
      <path clip-path="url(#p09831500e2)" d="M 379.922727 252 
L 379.922727 34.56 
" style="fill:none;stroke:#b0b0b0;stroke-linecap:square;stroke-width:0.8;"/>
     </g>
     <g id="line2d_18">
      <g>
       <use style="stroke:#000000;stroke-width:0.8;" x="379.922727" xlink:href="#m704b34901a" y="252"/>
      </g>
     </g>
     <g id="text_9">
      <!-- 400000 -->
      <defs>
       <path d="M 37.796875 64.3125 
L 12.890625 25.390625 
L 37.796875 25.390625 
z
M 35.203125 72.90625 
L 47.609375 72.90625 
L 47.609375 25.390625 
L 58.015625 25.390625 
L 58.015625 17.1875 
L 47.609375 17.1875 
L 47.609375 0 
L 37.796875 0 
L 37.796875 17.1875 
L 4.890625 17.1875 
L 4.890625 26.703125 
z
" id="DejaVuSans-34"/>
      </defs>
      <g transform="translate(360.835227 266.598437)scale(0.1 -0.1)">
       <use xlink:href="#DejaVuSans-34"/>
       <use x="63.623047" xlink:href="#DejaVuSans-30"/>
       <use x="127.246094" xlink:href="#DejaVuSans-30"/>
       <use x="190.869141" xlink:href="#DejaVuSans-30"/>
       <use x="254.492188" xlink:href="#DejaVuSans-30"/>
       <use x="318.115234" xlink:href="#DejaVuSans-30"/>
      </g>
     </g>
    </g>
    <g id="text_10">
     <!-- Energy (eV) -->
     <defs>
      <path d="M 9.8125 72.90625 
L 55.90625 72.90625 
L 55.90625 64.59375 
L 19.671875 64.59375 
L 19.671875 43.015625 
L 54.390625 43.015625 
L 54.390625 34.71875 
L 19.671875 34.71875 
L 19.671875 8.296875 
L 56.78125 8.296875 
L 56.78125 0 
L 9.8125 0 
z
" id="DejaVuSans-45"/>
      <path d="M 54.890625 33.015625 
L 54.890625 0 
L 45.90625 0 
L 45.90625 32.71875 
Q 45.90625 40.484375 42.875 44.328125 
Q 39.84375 48.1875 33.796875 48.1875 
Q 26.515625 48.1875 22.3125 43.546875 
Q 18.109375 38.921875 18.109375 30.90625 
L 18.109375 0 
L 9.078125 0 
L 9.078125 54.6875 
L 18.109375 54.6875 
L 18.109375 46.1875 
Q 21.34375 51.125 25.703125 53.5625 
Q 30.078125 56 35.796875 56 
Q 45.21875 56 50.046875 50.171875 
Q 54.890625 44.34375 54.890625 33.015625 
z
" id="DejaVuSans-6e"/>
      <path d="M 56.203125 29.59375 
L 56.203125 25.203125 
L 14.890625 25.203125 
Q 15.484375 15.921875 20.484375 11.0625 
Q 25.484375 6.203125 34.421875 6.203125 
Q 39.59375 6.203125 44.453125 7.46875 
Q 49.3125 8.734375 54.109375 11.28125 
L 54.109375 2.78125 
Q 49.265625 0.734375 44.1875 -0.34375 
Q 39.109375 -1.421875 33.890625 -1.421875 
Q 20.796875 -1.421875 13.15625 6.1875 
Q 5.515625 13.8125 5.515625 26.8125 
Q 5.515625 40.234375 12.765625 48.109375 
Q 20.015625 56 32.328125 56 
Q 43.359375 56 49.78125 48.890625 
Q 56.203125 41.796875 56.203125 29.59375 
z
M 47.21875 32.234375 
Q 47.125 39.59375 43.09375 43.984375 
Q 39.0625 48.390625 32.421875 48.390625 
Q 24.90625 48.390625 20.390625 44.140625 
Q 15.875 39.890625 15.1875 32.171875 
z
" id="DejaVuSans-65"/>
      <path d="M 41.109375 46.296875 
Q 39.59375 47.171875 37.8125 47.578125 
Q 36.03125 48 33.890625 48 
Q 26.265625 48 22.1875 43.046875 
Q 18.109375 38.09375 18.109375 28.8125 
L 18.109375 0 
L 9.078125 0 
L 9.078125 54.6875 
L 18.109375 54.6875 
L 18.109375 46.1875 
Q 20.953125 51.171875 25.484375 53.578125 
Q 30.03125 56 36.53125 56 
Q 37.453125 56 38.578125 55.875 
Q 39.703125 55.765625 41.0625 55.515625 
z
" id="DejaVuSans-72"/>
      <path d="M 45.40625 27.984375 
Q 45.40625 37.75 41.375 43.109375 
Q 37.359375 48.484375 30.078125 48.484375 
Q 22.859375 48.484375 18.828125 43.109375 
Q 14.796875 37.75 14.796875 27.984375 
Q 14.796875 18.265625 18.828125 12.890625 
Q 22.859375 7.515625 30.078125 7.515625 
Q 37.359375 7.515625 41.375 12.890625 
Q 45.40625 18.265625 45.40625 27.984375 
z
M 54.390625 6.78125 
Q 54.390625 -7.171875 48.1875 -13.984375 
Q 42 -20.796875 29.203125 -20.796875 
Q 24.46875 -20.796875 20.265625 -20.09375 
Q 16.0625 -19.390625 12.109375 -17.921875 
L 12.109375 -9.1875 
Q 16.0625 -11.328125 19.921875 -12.34375 
Q 23.78125 -13.375 27.78125 -13.375 
Q 36.625 -13.375 41.015625 -8.765625 
Q 45.40625 -4.15625 45.40625 5.171875 
L 45.40625 9.625 
Q 42.625 4.78125 38.28125 2.390625 
Q 33.9375 0 27.875 0 
Q 17.828125 0 11.671875 7.65625 
Q 5.515625 15.328125 5.515625 27.984375 
Q 5.515625 40.671875 11.671875 48.328125 
Q 17.828125 56 27.875 56 
Q 33.9375 56 38.28125 53.609375 
Q 42.625 51.21875 45.40625 46.390625 
L 45.40625 54.6875 
L 54.390625 54.6875 
z
" id="DejaVuSans-67"/>
      <path d="M 32.171875 -5.078125 
Q 28.375 -14.84375 24.75 -17.8125 
Q 21.140625 -20.796875 15.09375 -20.796875 
L 7.90625 -20.796875 
L 7.90625 -13.28125 
L 13.1875 -13.28125 
Q 16.890625 -13.28125 18.9375 -11.515625 
Q 21 -9.765625 23.484375 -3.21875 
L 25.09375 0.875 
L 2.984375 54.6875 
L 12.5 54.6875 
L 29.59375 11.921875 
L 46.6875 54.6875 
L 56.203125 54.6875 
z
" id="DejaVuSans-79"/>
      <path id="DejaVuSans-20"/>
      <path d="M 31 75.875 
Q 24.46875 64.65625 21.28125 53.65625 
Q 18.109375 42.671875 18.109375 31.390625 
Q 18.109375 20.125 21.3125 9.0625 
Q 24.515625 -2 31 -13.1875 
L 23.1875 -13.1875 
Q 15.875 -1.703125 12.234375 9.375 
Q 8.59375 20.453125 8.59375 31.390625 
Q 8.59375 42.28125 12.203125 53.3125 
Q 15.828125 64.359375 23.1875 75.875 
z
" id="DejaVuSans-28"/>
      <path d="M 28.609375 0 
L 0.78125 72.90625 
L 11.078125 72.90625 
L 34.1875 11.53125 
L 57.328125 72.90625 
L 67.578125 72.90625 
L 39.796875 0 
z
" id="DejaVuSans-56"/>
      <path d="M 8.015625 75.875 
L 15.828125 75.875 
Q 23.140625 64.359375 26.78125 53.3125 
Q 30.421875 42.28125 30.421875 31.390625 
Q 30.421875 20.453125 26.78125 9.375 
Q 23.140625 -1.703125 15.828125 -13.1875 
L 8.015625 -13.1875 
Q 14.5 -2 17.703125 9.0625 
Q 20.90625 20.125 20.90625 31.390625 
Q 20.90625 42.671875 17.703125 53.65625 
Q 14.5 64.65625 8.015625 75.875 
z
" id="DejaVuSans-29"/>
     </defs>
     <g transform="translate(191.819531 280.276563)scale(0.1 -0.1)">
      <use xlink:href="#DejaVuSans-45"/>
      <use x="63.183594" xlink:href="#DejaVuSans-6e"/>
      <use x="126.5625" xlink:href="#DejaVuSans-65"/>
      <use x="188.085938" xlink:href="#DejaVuSans-72"/>
      <use x="229.183594" xlink:href="#DejaVuSans-67"/>
      <use x="292.660156" xlink:href="#DejaVuSans-79"/>
      <use x="351.839844" xlink:href="#DejaVuSans-20"/>
      <use x="383.626953" xlink:href="#DejaVuSans-28"/>
      <use x="422.640625" xlink:href="#DejaVuSans-65"/>
      <use x="484.164062" xlink:href="#DejaVuSans-56"/>
      <use x="552.572266" xlink:href="#DejaVuSans-29"/>
     </g>
    </g>
   </g>
   <g id="matplotlib.axis_2">
    <g id="ytick_1">
     <g id="line2d_19">
      <path clip-path="url(#p09831500e2)" d="M 54 223.467641 
L 388.8 223.467641 
" style="fill:none;stroke:#b0b0b0;stroke-linecap:square;stroke-width:0.8;"/>
     </g>
     <g id="line2d_20">
      <defs>
       <path d="M 0 0 
L -3.5 0 
" id="mff014c5df6" style="stroke:#000000;stroke-width:0.8;"/>
      </defs>
      <g>
       <use style="stroke:#000000;stroke-width:0.8;" x="54" xlink:href="#mff014c5df6" y="223.467641"/>
      </g>
     </g>
     <g id="text_11">
      <!-- $\mathdefault{10^{-10}}$ -->
      <defs>
       <path d="M 10.59375 35.5 
L 73.1875 35.5 
L 73.1875 27.203125 
L 10.59375 27.203125 
z
" id="DejaVuSans-2212"/>
      </defs>
      <g transform="translate(19.1 227.266859)scale(0.1 -0.1)">
       <use transform="translate(0 0.765625)" xlink:href="#DejaVuSans-31"/>
       <use transform="translate(63.623047 0.765625)" xlink:href="#DejaVuSans-30"/>
       <use transform="translate(128.203125 39.046875)scale(0.7)" xlink:href="#DejaVuSans-2212"/>
       <use transform="translate(186.855469 39.046875)scale(0.7)" xlink:href="#DejaVuSans-31"/>
       <use transform="translate(231.391602 39.046875)scale(0.7)" xlink:href="#DejaVuSans-30"/>
      </g>
     </g>
    </g>
    <g id="ytick_2">
     <g id="line2d_21">
      <path clip-path="url(#p09831500e2)" d="M 54 192.622645 
L 388.8 192.622645 
" style="fill:none;stroke:#b0b0b0;stroke-linecap:square;stroke-width:0.8;"/>
     </g>
     <g id="line2d_22">
      <g>
       <use style="stroke:#000000;stroke-width:0.8;" x="54" xlink:href="#mff014c5df6" y="192.622645"/>
      </g>
     </g>
     <g id="text_12">
      <!-- $\mathdefault{10^{-6}}$ -->
      <defs>
       <path d="M 33.015625 40.375 
Q 26.375 40.375 22.484375 35.828125 
Q 18.609375 31.296875 18.609375 23.390625 
Q 18.609375 15.53125 22.484375 10.953125 
Q 26.375 6.390625 33.015625 6.390625 
Q 39.65625 6.390625 43.53125 10.953125 
Q 47.40625 15.53125 47.40625 23.390625 
Q 47.40625 31.296875 43.53125 35.828125 
Q 39.65625 40.375 33.015625 40.375 
z
M 52.59375 71.296875 
L 52.59375 62.3125 
Q 48.875 64.0625 45.09375 64.984375 
Q 41.3125 65.921875 37.59375 65.921875 
Q 27.828125 65.921875 22.671875 59.328125 
Q 17.53125 52.734375 16.796875 39.40625 
Q 19.671875 43.65625 24.015625 45.921875 
Q 28.375 48.1875 33.59375 48.1875 
Q 44.578125 48.1875 50.953125 41.515625 
Q 57.328125 34.859375 57.328125 23.390625 
Q 57.328125 12.15625 50.6875 5.359375 
Q 44.046875 -1.421875 33.015625 -1.421875 
Q 20.359375 -1.421875 13.671875 8.265625 
Q 6.984375 17.96875 6.984375 36.375 
Q 6.984375 53.65625 15.1875 63.9375 
Q 23.390625 74.21875 37.203125 74.21875 
Q 40.921875 74.21875 44.703125 73.484375 
Q 48.484375 72.75 52.59375 71.296875 
z
" id="DejaVuSans-36"/>
      </defs>
      <g transform="translate(23.5 196.421864)scale(0.1 -0.1)">
       <use transform="translate(0 0.765625)" xlink:href="#DejaVuSans-31"/>
       <use transform="translate(63.623047 0.765625)" xlink:href="#DejaVuSans-30"/>
       <use transform="translate(128.203125 39.046875)scale(0.7)" xlink:href="#DejaVuSans-2212"/>
       <use transform="translate(186.855469 39.046875)scale(0.7)" xlink:href="#DejaVuSans-36"/>
      </g>
     </g>
    </g>
    <g id="ytick_3">
     <g id="line2d_23">
      <path clip-path="url(#p09831500e2)" d="M 54 161.77765 
L 388.8 161.77765 
" style="fill:none;stroke:#b0b0b0;stroke-linecap:square;stroke-width:0.8;"/>
     </g>
     <g id="line2d_24">
      <g>
       <use style="stroke:#000000;stroke-width:0.8;" x="54" xlink:href="#mff014c5df6" y="161.77765"/>
      </g>
     </g>
     <g id="text_13">
      <!-- $\mathdefault{10^{-2}}$ -->
      <g transform="translate(23.5 165.576869)scale(0.1 -0.1)">
       <use transform="translate(0 0.765625)" xlink:href="#DejaVuSans-31"/>
       <use transform="translate(63.623047 0.765625)" xlink:href="#DejaVuSans-30"/>
       <use transform="translate(128.203125 39.046875)scale(0.7)" xlink:href="#DejaVuSans-2212"/>
       <use transform="translate(186.855469 39.046875)scale(0.7)" xlink:href="#DejaVuSans-32"/>
      </g>
     </g>
    </g>
    <g id="ytick_4">
     <g id="line2d_25">
      <path clip-path="url(#p09831500e2)" d="M 54 130.932655 
L 388.8 130.932655 
" style="fill:none;stroke:#b0b0b0;stroke-linecap:square;stroke-width:0.8;"/>
     </g>
     <g id="line2d_26">
      <g>
       <use style="stroke:#000000;stroke-width:0.8;" x="54" xlink:href="#mff014c5df6" y="130.932655"/>
      </g>
     </g>
     <g id="text_14">
      <!-- $\mathdefault{10^{2}}$ -->
      <g transform="translate(29.4 134.731874)scale(0.1 -0.1)">
       <use transform="translate(0 0.765625)" xlink:href="#DejaVuSans-31"/>
       <use transform="translate(63.623047 0.765625)" xlink:href="#DejaVuSans-30"/>
       <use transform="translate(128.203125 39.046875)scale(0.7)" xlink:href="#DejaVuSans-32"/>
      </g>
     </g>
    </g>
    <g id="ytick_5">
     <g id="line2d_27">
      <path clip-path="url(#p09831500e2)" d="M 54 100.08766 
L 388.8 100.08766 
" style="fill:none;stroke:#b0b0b0;stroke-linecap:square;stroke-width:0.8;"/>
     </g>
     <g id="line2d_28">
      <g>
       <use style="stroke:#000000;stroke-width:0.8;" x="54" xlink:href="#mff014c5df6" y="100.08766"/>
      </g>
     </g>
     <g id="text_15">
      <!-- $\mathdefault{10^{6}}$ -->
      <g transform="translate(29.4 103.886879)scale(0.1 -0.1)">
       <use transform="translate(0 0.765625)" xlink:href="#DejaVuSans-31"/>
       <use transform="translate(63.623047 0.765625)" xlink:href="#DejaVuSans-30"/>
       <use transform="translate(128.203125 39.046875)scale(0.7)" xlink:href="#DejaVuSans-36"/>
      </g>
     </g>
    </g>
    <g id="ytick_6">
     <g id="line2d_29">
      <path clip-path="url(#p09831500e2)" d="M 54 69.242665 
L 388.8 69.242665 
" style="fill:none;stroke:#b0b0b0;stroke-linecap:square;stroke-width:0.8;"/>
     </g>
     <g id="line2d_30">
      <g>
       <use style="stroke:#000000;stroke-width:0.8;" x="54" xlink:href="#mff014c5df6" y="69.242665"/>
      </g>
     </g>
     <g id="text_16">
      <!-- $\mathdefault{10^{10}}$ -->
      <g transform="translate(24.9 73.041884)scale(0.1 -0.1)">
       <use transform="translate(0 0.765625)" xlink:href="#DejaVuSans-31"/>
       <use transform="translate(63.623047 0.765625)" xlink:href="#DejaVuSans-30"/>
       <use transform="translate(128.203125 39.046875)scale(0.7)" xlink:href="#DejaVuSans-31"/>
       <use transform="translate(172.739258 39.046875)scale(0.7)" xlink:href="#DejaVuSans-30"/>
      </g>
     </g>
    </g>
    <g id="ytick_7">
     <g id="line2d_31">
      <path clip-path="url(#p09831500e2)" d="M 54 38.39767 
L 388.8 38.39767 
" style="fill:none;stroke:#b0b0b0;stroke-linecap:square;stroke-width:0.8;"/>
     </g>
     <g id="line2d_32">
      <g>
       <use style="stroke:#000000;stroke-width:0.8;" x="54" xlink:href="#mff014c5df6" y="38.39767"/>
      </g>
     </g>
     <g id="text_17">
      <!-- $\mathdefault{10^{14}}$ -->
      <g transform="translate(24.9 42.196888)scale(0.1 -0.1)">
       <use transform="translate(0 0.684375)" xlink:href="#DejaVuSans-31"/>
       <use transform="translate(63.623047 0.684375)" xlink:href="#DejaVuSans-30"/>
       <use transform="translate(128.203125 38.965625)scale(0.7)" xlink:href="#DejaVuSans-31"/>
       <use transform="translate(172.739258 38.965625)scale(0.7)" xlink:href="#DejaVuSans-34"/>
      </g>
     </g>
    </g>
    <g id="text_18">
     <!-- ph/s/100mA -->
     <defs>
      <path d="M 18.109375 8.203125 
L 18.109375 -20.796875 
L 9.078125 -20.796875 
L 9.078125 54.6875 
L 18.109375 54.6875 
L 18.109375 46.390625 
Q 20.953125 51.265625 25.265625 53.625 
Q 29.59375 56 35.59375 56 
Q 45.5625 56 51.78125 48.09375 
Q 58.015625 40.1875 58.015625 27.296875 
Q 58.015625 14.40625 51.78125 6.484375 
Q 45.5625 -1.421875 35.59375 -1.421875 
Q 29.59375 -1.421875 25.265625 0.953125 
Q 20.953125 3.328125 18.109375 8.203125 
z
M 48.6875 27.296875 
Q 48.6875 37.203125 44.609375 42.84375 
Q 40.53125 48.484375 33.40625 48.484375 
Q 26.265625 48.484375 22.1875 42.84375 
Q 18.109375 37.203125 18.109375 27.296875 
Q 18.109375 17.390625 22.1875 11.75 
Q 26.265625 6.109375 33.40625 6.109375 
Q 40.53125 6.109375 44.609375 11.75 
Q 48.6875 17.390625 48.6875 27.296875 
z
" id="DejaVuSans-70"/>
      <path d="M 54.890625 33.015625 
L 54.890625 0 
L 45.90625 0 
L 45.90625 32.71875 
Q 45.90625 40.484375 42.875 44.328125 
Q 39.84375 48.1875 33.796875 48.1875 
Q 26.515625 48.1875 22.3125 43.546875 
Q 18.109375 38.921875 18.109375 30.90625 
L 18.109375 0 
L 9.078125 0 
L 9.078125 75.984375 
L 18.109375 75.984375 
L 18.109375 46.1875 
Q 21.34375 51.125 25.703125 53.5625 
Q 30.078125 56 35.796875 56 
Q 45.21875 56 50.046875 50.171875 
Q 54.890625 44.34375 54.890625 33.015625 
z
" id="DejaVuSans-68"/>
      <path d="M 25.390625 72.90625 
L 33.6875 72.90625 
L 8.296875 -9.28125 
L 0 -9.28125 
z
" id="DejaVuSans-2f"/>
      <path d="M 44.28125 53.078125 
L 44.28125 44.578125 
Q 40.484375 46.53125 36.375 47.5 
Q 32.28125 48.484375 27.875 48.484375 
Q 21.1875 48.484375 17.84375 46.4375 
Q 14.5 44.390625 14.5 40.28125 
Q 14.5 37.15625 16.890625 35.375 
Q 19.28125 33.59375 26.515625 31.984375 
L 29.59375 31.296875 
Q 39.15625 29.25 43.1875 25.515625 
Q 47.21875 21.78125 47.21875 15.09375 
Q 47.21875 7.46875 41.1875 3.015625 
Q 35.15625 -1.421875 24.609375 -1.421875 
Q 20.21875 -1.421875 15.453125 -0.5625 
Q 10.6875 0.296875 5.421875 2 
L 5.421875 11.28125 
Q 10.40625 8.6875 15.234375 7.390625 
Q 20.0625 6.109375 24.8125 6.109375 
Q 31.15625 6.109375 34.5625 8.28125 
Q 37.984375 10.453125 37.984375 14.40625 
Q 37.984375 18.0625 35.515625 20.015625 
Q 33.0625 21.96875 24.703125 23.78125 
L 21.578125 24.515625 
Q 13.234375 26.265625 9.515625 29.90625 
Q 5.8125 33.546875 5.8125 39.890625 
Q 5.8125 47.609375 11.28125 51.796875 
Q 16.75 56 26.8125 56 
Q 31.78125 56 36.171875 55.265625 
Q 40.578125 54.546875 44.28125 53.078125 
z
" id="DejaVuSans-73"/>
      <path d="M 52 44.1875 
Q 55.375 50.25 60.0625 53.125 
Q 64.75 56 71.09375 56 
Q 79.640625 56 84.28125 50.015625 
Q 88.921875 44.046875 88.921875 33.015625 
L 88.921875 0 
L 79.890625 0 
L 79.890625 32.71875 
Q 79.890625 40.578125 77.09375 44.375 
Q 74.3125 48.1875 68.609375 48.1875 
Q 61.625 48.1875 57.5625 43.546875 
Q 53.515625 38.921875 53.515625 30.90625 
L 53.515625 0 
L 44.484375 0 
L 44.484375 32.71875 
Q 44.484375 40.625 41.703125 44.40625 
Q 38.921875 48.1875 33.109375 48.1875 
Q 26.21875 48.1875 22.15625 43.53125 
Q 18.109375 38.875 18.109375 30.90625 
L 18.109375 0 
L 9.078125 0 
L 9.078125 54.6875 
L 18.109375 54.6875 
L 18.109375 46.1875 
Q 21.1875 51.21875 25.484375 53.609375 
Q 29.78125 56 35.6875 56 
Q 41.65625 56 45.828125 52.96875 
Q 50 49.953125 52 44.1875 
z
" id="DejaVuSans-6d"/>
      <path d="M 34.1875 63.1875 
L 20.796875 26.90625 
L 47.609375 26.90625 
z
M 28.609375 72.90625 
L 39.796875 72.90625 
L 67.578125 0 
L 57.328125 0 
L 50.6875 18.703125 
L 17.828125 18.703125 
L 11.1875 0 
L 0.78125 0 
z
" id="DejaVuSans-41"/>
     </defs>
     <g transform="translate(13.020312 173.430781)rotate(-90)scale(0.1 -0.1)">
      <use xlink:href="#DejaVuSans-70"/>
      <use x="63.476562" xlink:href="#DejaVuSans-68"/>
      <use x="126.855469" xlink:href="#DejaVuSans-2f"/>
      <use x="160.546875" xlink:href="#DejaVuSans-73"/>
      <use x="212.646484" xlink:href="#DejaVuSans-2f"/>
      <use x="246.337891" xlink:href="#DejaVuSans-31"/>
      <use x="309.960938" xlink:href="#DejaVuSans-30"/>
      <use x="373.583984" xlink:href="#DejaVuSans-30"/>
      <use x="437.207031" xlink:href="#DejaVuSans-6d"/>
      <use x="534.619141" xlink:href="#DejaVuSans-41"/>
     </g>
    </g>
   </g>
   <g id="line2d_33">
    <path clip-path="url(#p09831500e2)" d="M 69.218182 44.443636 
L 81.9 63.966186 
L 88.240909 69.952474 
L 94.581818 78.193248 
L 107.263636 90.406924 
L 113.604545 94.941886 
L 119.945455 101.555859 
L 132.627273 111.726179 
L 138.968182 114.68367 
L 145.309091 119.338366 
L 157.990909 123.541228 
L 164.331818 123.497392 
L 170.672727 125.843762 
L 183.354545 128.136362 
L 189.695455 127.897293 
L 196.036364 130.120225 
L 208.718182 131.877962 
L 215.059091 131.45908 
L 221.4 133.518751 
L 234.081818 135.389103 
L 240.422727 134.839256 
L 246.763636 136.218985 
L 259.445455 138.643422 
L 265.786364 138.31295 
L 272.127273 140.728895 
L 284.809091 141.608662 
L 291.15 140.84022 
L 297.490909 142.799677 
L 310.172727 145.311524 
L 316.513636 143.225991 
L 322.854545 146.106101 
L 335.536364 145.451422 
L 341.877273 145.274118 
L 348.218182 146.851663 
L 360.9 147.073375 
L 367.240909 146.5984 
L 373.581818 147.806478 
" style="fill:none;stroke:#1f77b4;stroke-dasharray:5.55,2.4;stroke-dashoffset:0;stroke-width:1.5;"/>
    <defs>
     <path d="M 0 3 
C 0.795609 3 1.55874 2.683901 2.12132 2.12132 
C 2.683901 1.55874 3 0.795609 3 0 
C 3 -0.795609 2.683901 -1.55874 2.12132 -2.12132 
C 1.55874 -2.683901 0.795609 -3 0 -3 
C -0.795609 -3 -1.55874 -2.683901 -2.12132 -2.12132 
C -2.683901 -1.55874 -3 -0.795609 -3 0 
C -3 0.795609 -2.683901 1.55874 -2.12132 2.12132 
C -1.55874 2.683901 -0.795609 3 0 3 
z
" id="m844699b32c" style="stroke:#1f77b4;"/>
    </defs>
    <g clip-path="url(#p09831500e2)">
     <use style="fill:#1f77b4;stroke:#1f77b4;" x="69.218182" xlink:href="#m844699b32c" y="44.443636"/>
     <use style="fill:#1f77b4;stroke:#1f77b4;" x="81.9" xlink:href="#m844699b32c" y="63.966186"/>
     <use style="fill:#1f77b4;stroke:#1f77b4;" x="88.240909" xlink:href="#m844699b32c" y="69.952474"/>
     <use style="fill:#1f77b4;stroke:#1f77b4;" x="94.581818" xlink:href="#m844699b32c" y="78.193248"/>
     <use style="fill:#1f77b4;stroke:#1f77b4;" x="107.263636" xlink:href="#m844699b32c" y="90.406924"/>
     <use style="fill:#1f77b4;stroke:#1f77b4;" x="113.604545" xlink:href="#m844699b32c" y="94.941886"/>
     <use style="fill:#1f77b4;stroke:#1f77b4;" x="119.945455" xlink:href="#m844699b32c" y="101.555859"/>
     <use style="fill:#1f77b4;stroke:#1f77b4;" x="132.627273" xlink:href="#m844699b32c" y="111.726179"/>
     <use style="fill:#1f77b4;stroke:#1f77b4;" x="138.968182" xlink:href="#m844699b32c" y="114.68367"/>
     <use style="fill:#1f77b4;stroke:#1f77b4;" x="145.309091" xlink:href="#m844699b32c" y="119.338366"/>
     <use style="fill:#1f77b4;stroke:#1f77b4;" x="157.990909" xlink:href="#m844699b32c" y="123.541228"/>
     <use style="fill:#1f77b4;stroke:#1f77b4;" x="164.331818" xlink:href="#m844699b32c" y="123.497392"/>
     <use style="fill:#1f77b4;stroke:#1f77b4;" x="170.672727" xlink:href="#m844699b32c" y="125.843762"/>
     <use style="fill:#1f77b4;stroke:#1f77b4;" x="183.354545" xlink:href="#m844699b32c" y="128.136362"/>
     <use style="fill:#1f77b4;stroke:#1f77b4;" x="189.695455" xlink:href="#m844699b32c" y="127.897293"/>
     <use style="fill:#1f77b4;stroke:#1f77b4;" x="196.036364" xlink:href="#m844699b32c" y="130.120225"/>
     <use style="fill:#1f77b4;stroke:#1f77b4;" x="208.718182" xlink:href="#m844699b32c" y="131.877962"/>
     <use style="fill:#1f77b4;stroke:#1f77b4;" x="215.059091" xlink:href="#m844699b32c" y="131.45908"/>
     <use style="fill:#1f77b4;stroke:#1f77b4;" x="221.4" xlink:href="#m844699b32c" y="133.518751"/>
     <use style="fill:#1f77b4;stroke:#1f77b4;" x="234.081818" xlink:href="#m844699b32c" y="135.389103"/>
     <use style="fill:#1f77b4;stroke:#1f77b4;" x="240.422727" xlink:href="#m844699b32c" y="134.839256"/>
     <use style="fill:#1f77b4;stroke:#1f77b4;" x="246.763636" xlink:href="#m844699b32c" y="136.218985"/>
     <use style="fill:#1f77b4;stroke:#1f77b4;" x="259.445455" xlink:href="#m844699b32c" y="138.643422"/>
     <use style="fill:#1f77b4;stroke:#1f77b4;" x="265.786364" xlink:href="#m844699b32c" y="138.31295"/>
     <use style="fill:#1f77b4;stroke:#1f77b4;" x="272.127273" xlink:href="#m844699b32c" y="140.728895"/>
     <use style="fill:#1f77b4;stroke:#1f77b4;" x="284.809091" xlink:href="#m844699b32c" y="141.608662"/>
     <use style="fill:#1f77b4;stroke:#1f77b4;" x="291.15" xlink:href="#m844699b32c" y="140.84022"/>
     <use style="fill:#1f77b4;stroke:#1f77b4;" x="297.490909" xlink:href="#m844699b32c" y="142.799677"/>
     <use style="fill:#1f77b4;stroke:#1f77b4;" x="310.172727" xlink:href="#m844699b32c" y="145.311524"/>
     <use style="fill:#1f77b4;stroke:#1f77b4;" x="316.513636" xlink:href="#m844699b32c" y="143.225991"/>
     <use style="fill:#1f77b4;stroke:#1f77b4;" x="322.854545" xlink:href="#m844699b32c" y="146.106101"/>
     <use style="fill:#1f77b4;stroke:#1f77b4;" x="335.536364" xlink:href="#m844699b32c" y="145.451422"/>
     <use style="fill:#1f77b4;stroke:#1f77b4;" x="341.877273" xlink:href="#m844699b32c" y="145.274118"/>
     <use style="fill:#1f77b4;stroke:#1f77b4;" x="348.218182" xlink:href="#m844699b32c" y="146.851663"/>
     <use style="fill:#1f77b4;stroke:#1f77b4;" x="360.9" xlink:href="#m844699b32c" y="147.073375"/>
     <use style="fill:#1f77b4;stroke:#1f77b4;" x="367.240909" xlink:href="#m844699b32c" y="146.5984"/>
     <use style="fill:#1f77b4;stroke:#1f77b4;" x="373.581818" xlink:href="#m844699b32c" y="147.806478"/>
    </g>
   </g>
   <g id="line2d_34">
    <path clip-path="url(#p09831500e2)" d="M 69.218182 44.805641 
L 81.9 64.500531 
L 88.240909 87.353312 
L 94.581818 104.372554 
L 107.263636 127.48983 
L 113.604545 136.022581 
L 119.945455 146.073206 
L 132.627273 161.963301 
L 138.968182 167.362407 
L 145.309091 174.247499 
L 157.990909 182.407645 
L 164.331818 184.138135 
L 170.672727 188.146327 
L 183.354545 193.477266 
L 189.695455 194.635439 
L 196.036364 198.185348 
L 208.718182 202.4127 
L 215.059091 203.147355 
L 221.4 206.312449 
L 234.081818 210.264517 
L 240.422727 210.697439 
L 246.763636 213.024856 
L 259.445455 217.249097 
L 265.786364 217.774882 
L 272.127273 221.020386 
L 284.809091 223.485625 
L 291.15 223.475933 
L 297.490909 226.173113 
L 310.172727 230.101902 
L 316.513636 228.697586 
L 322.854545 232.241953 
L 335.536364 232.868226 
L 341.877273 233.309028 
L 348.218182 235.490789 
L 360.9 236.881301 
L 367.240909 236.972058 
L 373.581818 238.734121 
" style="fill:none;stroke:#ff7f0e;stroke-dasharray:5.55,2.4;stroke-dashoffset:0;stroke-width:1.5;"/>
    <defs>
     <path d="M 0 3 
C 0.795609 3 1.55874 2.683901 2.12132 2.12132 
C 2.683901 1.55874 3 0.795609 3 0 
C 3 -0.795609 2.683901 -1.55874 2.12132 -2.12132 
C 1.55874 -2.683901 0.795609 -3 0 -3 
C -0.795609 -3 -1.55874 -2.683901 -2.12132 -2.12132 
C -2.683901 -1.55874 -3 -0.795609 -3 0 
C -3 0.795609 -2.683901 1.55874 -2.12132 2.12132 
C -1.55874 2.683901 -0.795609 3 0 3 
z
" id="m36c83f8d75" style="stroke:#ff7f0e;"/>
    </defs>
    <g clip-path="url(#p09831500e2)">
     <use style="fill:#ff7f0e;stroke:#ff7f0e;" x="69.218182" xlink:href="#m36c83f8d75" y="44.805641"/>
     <use style="fill:#ff7f0e;stroke:#ff7f0e;" x="81.9" xlink:href="#m36c83f8d75" y="64.500531"/>
     <use style="fill:#ff7f0e;stroke:#ff7f0e;" x="88.240909" xlink:href="#m36c83f8d75" y="87.353312"/>
     <use style="fill:#ff7f0e;stroke:#ff7f0e;" x="94.581818" xlink:href="#m36c83f8d75" y="104.372554"/>
     <use style="fill:#ff7f0e;stroke:#ff7f0e;" x="107.263636" xlink:href="#m36c83f8d75" y="127.48983"/>
     <use style="fill:#ff7f0e;stroke:#ff7f0e;" x="113.604545" xlink:href="#m36c83f8d75" y="136.022581"/>
     <use style="fill:#ff7f0e;stroke:#ff7f0e;" x="119.945455" xlink:href="#m36c83f8d75" y="146.073206"/>
     <use style="fill:#ff7f0e;stroke:#ff7f0e;" x="132.627273" xlink:href="#m36c83f8d75" y="161.963301"/>
     <use style="fill:#ff7f0e;stroke:#ff7f0e;" x="138.968182" xlink:href="#m36c83f8d75" y="167.362407"/>
     <use style="fill:#ff7f0e;stroke:#ff7f0e;" x="145.309091" xlink:href="#m36c83f8d75" y="174.247499"/>
     <use style="fill:#ff7f0e;stroke:#ff7f0e;" x="157.990909" xlink:href="#m36c83f8d75" y="182.407645"/>
     <use style="fill:#ff7f0e;stroke:#ff7f0e;" x="164.331818" xlink:href="#m36c83f8d75" y="184.138135"/>
     <use style="fill:#ff7f0e;stroke:#ff7f0e;" x="170.672727" xlink:href="#m36c83f8d75" y="188.146327"/>
     <use style="fill:#ff7f0e;stroke:#ff7f0e;" x="183.354545" xlink:href="#m36c83f8d75" y="193.477266"/>
     <use style="fill:#ff7f0e;stroke:#ff7f0e;" x="189.695455" xlink:href="#m36c83f8d75" y="194.635439"/>
     <use style="fill:#ff7f0e;stroke:#ff7f0e;" x="196.036364" xlink:href="#m36c83f8d75" y="198.185348"/>
     <use style="fill:#ff7f0e;stroke:#ff7f0e;" x="208.718182" xlink:href="#m36c83f8d75" y="202.4127"/>
     <use style="fill:#ff7f0e;stroke:#ff7f0e;" x="215.059091" xlink:href="#m36c83f8d75" y="203.147355"/>
     <use style="fill:#ff7f0e;stroke:#ff7f0e;" x="221.4" xlink:href="#m36c83f8d75" y="206.312449"/>
     <use style="fill:#ff7f0e;stroke:#ff7f0e;" x="234.081818" xlink:href="#m36c83f8d75" y="210.264517"/>
     <use style="fill:#ff7f0e;stroke:#ff7f0e;" x="240.422727" xlink:href="#m36c83f8d75" y="210.697439"/>
     <use style="fill:#ff7f0e;stroke:#ff7f0e;" x="246.763636" xlink:href="#m36c83f8d75" y="213.024856"/>
     <use style="fill:#ff7f0e;stroke:#ff7f0e;" x="259.445455" xlink:href="#m36c83f8d75" y="217.249097"/>
     <use style="fill:#ff7f0e;stroke:#ff7f0e;" x="265.786364" xlink:href="#m36c83f8d75" y="217.774882"/>
     <use style="fill:#ff7f0e;stroke:#ff7f0e;" x="272.127273" xlink:href="#m36c83f8d75" y="221.020386"/>
     <use style="fill:#ff7f0e;stroke:#ff7f0e;" x="284.809091" xlink:href="#m36c83f8d75" y="223.485625"/>
     <use style="fill:#ff7f0e;stroke:#ff7f0e;" x="291.15" xlink:href="#m36c83f8d75" y="223.475933"/>
     <use style="fill:#ff7f0e;stroke:#ff7f0e;" x="297.490909" xlink:href="#m36c83f8d75" y="226.173113"/>
     <use style="fill:#ff7f0e;stroke:#ff7f0e;" x="310.172727" xlink:href="#m36c83f8d75" y="230.101902"/>
     <use style="fill:#ff7f0e;stroke:#ff7f0e;" x="316.513636" xlink:href="#m36c83f8d75" y="228.697586"/>
     <use style="fill:#ff7f0e;stroke:#ff7f0e;" x="322.854545" xlink:href="#m36c83f8d75" y="232.241953"/>
     <use style="fill:#ff7f0e;stroke:#ff7f0e;" x="335.536364" xlink:href="#m36c83f8d75" y="232.868226"/>
     <use style="fill:#ff7f0e;stroke:#ff7f0e;" x="341.877273" xlink:href="#m36c83f8d75" y="233.309028"/>
     <use style="fill:#ff7f0e;stroke:#ff7f0e;" x="348.218182" xlink:href="#m36c83f8d75" y="235.490789"/>
     <use style="fill:#ff7f0e;stroke:#ff7f0e;" x="360.9" xlink:href="#m36c83f8d75" y="236.881301"/>
     <use style="fill:#ff7f0e;stroke:#ff7f0e;" x="367.240909" xlink:href="#m36c83f8d75" y="236.972058"/>
     <use style="fill:#ff7f0e;stroke:#ff7f0e;" x="373.581818" xlink:href="#m36c83f8d75" y="238.734121"/>
    </g>
   </g>
   <g id="line2d_35">
    <path clip-path="url(#p09831500e2)" d="M 69.218182 46.17379 
L 81.9 65.544636 
L 88.240909 71.827434 
L 94.581818 80.120746 
L 107.263636 92.750186 
L 113.604545 97.509967 
L 119.945455 104.240591 
L 132.627273 114.646295 
L 138.968182 117.765969 
L 145.309091 122.550762 
L 157.990909 126.89669 
L 164.331818 126.871107 
L 170.672727 129.223708 
L 183.354545 131.518284 
L 189.695455 131.279699 
L 196.036364 133.501988 
L 208.718182 135.259925 
L 215.059091 134.84188 
L 221.4 136.900457 
L 234.081818 138.772194 
L 240.422727 138.221871 
L 246.763636 139.601836 
L 259.445455 142.025299 
L 265.786364 141.694525 
L 272.127273 144.110848 
L 284.809091 144.992051 
L 291.15 144.221648 
L 297.490909 146.182981 
L 310.172727 148.692818 
L 316.513636 146.609125 
L 322.854545 149.488801 
L 335.536364 148.833572 
L 341.877273 148.656302 
L 348.218182 150.233828 
L 360.9 150.455231 
L 367.240909 149.9811 
L 373.581818 151.188722 
" style="fill:none;stroke:#2ca02c;stroke-dasharray:5.55,2.4;stroke-dashoffset:0;stroke-width:1.5;"/>
    <defs>
     <path d="M 0 3 
C 0.795609 3 1.55874 2.683901 2.12132 2.12132 
C 2.683901 1.55874 3 0.795609 3 0 
C 3 -0.795609 2.683901 -1.55874 2.12132 -2.12132 
C 1.55874 -2.683901 0.795609 -3 0 -3 
C -0.795609 -3 -1.55874 -2.683901 -2.12132 -2.12132 
C -2.683901 -1.55874 -3 -0.795609 -3 0 
C -3 0.795609 -2.683901 1.55874 -2.12132 2.12132 
C -1.55874 2.683901 -0.795609 3 0 3 
z
" id="m4e993c3f6a" style="stroke:#2ca02c;"/>
    </defs>
    <g clip-path="url(#p09831500e2)">
     <use style="fill:#2ca02c;stroke:#2ca02c;" x="69.218182" xlink:href="#m4e993c3f6a" y="46.17379"/>
     <use style="fill:#2ca02c;stroke:#2ca02c;" x="81.9" xlink:href="#m4e993c3f6a" y="65.544636"/>
     <use style="fill:#2ca02c;stroke:#2ca02c;" x="88.240909" xlink:href="#m4e993c3f6a" y="71.827434"/>
     <use style="fill:#2ca02c;stroke:#2ca02c;" x="94.581818" xlink:href="#m4e993c3f6a" y="80.120746"/>
     <use style="fill:#2ca02c;stroke:#2ca02c;" x="107.263636" xlink:href="#m4e993c3f6a" y="92.750186"/>
     <use style="fill:#2ca02c;stroke:#2ca02c;" x="113.604545" xlink:href="#m4e993c3f6a" y="97.509967"/>
     <use style="fill:#2ca02c;stroke:#2ca02c;" x="119.945455" xlink:href="#m4e993c3f6a" y="104.240591"/>
     <use style="fill:#2ca02c;stroke:#2ca02c;" x="132.627273" xlink:href="#m4e993c3f6a" y="114.646295"/>
     <use style="fill:#2ca02c;stroke:#2ca02c;" x="138.968182" xlink:href="#m4e993c3f6a" y="117.765969"/>
     <use style="fill:#2ca02c;stroke:#2ca02c;" x="145.309091" xlink:href="#m4e993c3f6a" y="122.550762"/>
     <use style="fill:#2ca02c;stroke:#2ca02c;" x="157.990909" xlink:href="#m4e993c3f6a" y="126.89669"/>
     <use style="fill:#2ca02c;stroke:#2ca02c;" x="164.331818" xlink:href="#m4e993c3f6a" y="126.871107"/>
     <use style="fill:#2ca02c;stroke:#2ca02c;" x="170.672727" xlink:href="#m4e993c3f6a" y="129.223708"/>
     <use style="fill:#2ca02c;stroke:#2ca02c;" x="183.354545" xlink:href="#m4e993c3f6a" y="131.518284"/>
     <use style="fill:#2ca02c;stroke:#2ca02c;" x="189.695455" xlink:href="#m4e993c3f6a" y="131.279699"/>
     <use style="fill:#2ca02c;stroke:#2ca02c;" x="196.036364" xlink:href="#m4e993c3f6a" y="133.501988"/>
     <use style="fill:#2ca02c;stroke:#2ca02c;" x="208.718182" xlink:href="#m4e993c3f6a" y="135.259925"/>
     <use style="fill:#2ca02c;stroke:#2ca02c;" x="215.059091" xlink:href="#m4e993c3f6a" y="134.84188"/>
     <use style="fill:#2ca02c;stroke:#2ca02c;" x="221.4" xlink:href="#m4e993c3f6a" y="136.900457"/>
     <use style="fill:#2ca02c;stroke:#2ca02c;" x="234.081818" xlink:href="#m4e993c3f6a" y="138.772194"/>
     <use style="fill:#2ca02c;stroke:#2ca02c;" x="240.422727" xlink:href="#m4e993c3f6a" y="138.221871"/>
     <use style="fill:#2ca02c;stroke:#2ca02c;" x="246.763636" xlink:href="#m4e993c3f6a" y="139.601836"/>
     <use style="fill:#2ca02c;stroke:#2ca02c;" x="259.445455" xlink:href="#m4e993c3f6a" y="142.025299"/>
     <use style="fill:#2ca02c;stroke:#2ca02c;" x="265.786364" xlink:href="#m4e993c3f6a" y="141.694525"/>
     <use style="fill:#2ca02c;stroke:#2ca02c;" x="272.127273" xlink:href="#m4e993c3f6a" y="144.110848"/>
     <use style="fill:#2ca02c;stroke:#2ca02c;" x="284.809091" xlink:href="#m4e993c3f6a" y="144.992051"/>
     <use style="fill:#2ca02c;stroke:#2ca02c;" x="291.15" xlink:href="#m4e993c3f6a" y="144.221648"/>
     <use style="fill:#2ca02c;stroke:#2ca02c;" x="297.490909" xlink:href="#m4e993c3f6a" y="146.182981"/>
     <use style="fill:#2ca02c;stroke:#2ca02c;" x="310.172727" xlink:href="#m4e993c3f6a" y="148.692818"/>
     <use style="fill:#2ca02c;stroke:#2ca02c;" x="316.513636" xlink:href="#m4e993c3f6a" y="146.609125"/>
     <use style="fill:#2ca02c;stroke:#2ca02c;" x="322.854545" xlink:href="#m4e993c3f6a" y="149.488801"/>
     <use style="fill:#2ca02c;stroke:#2ca02c;" x="335.536364" xlink:href="#m4e993c3f6a" y="148.833572"/>
     <use style="fill:#2ca02c;stroke:#2ca02c;" x="341.877273" xlink:href="#m4e993c3f6a" y="148.656302"/>
     <use style="fill:#2ca02c;stroke:#2ca02c;" x="348.218182" xlink:href="#m4e993c3f6a" y="150.233828"/>
     <use style="fill:#2ca02c;stroke:#2ca02c;" x="360.9" xlink:href="#m4e993c3f6a" y="150.455231"/>
     <use style="fill:#2ca02c;stroke:#2ca02c;" x="367.240909" xlink:href="#m4e993c3f6a" y="149.9811"/>
     <use style="fill:#2ca02c;stroke:#2ca02c;" x="373.581818" xlink:href="#m4e993c3f6a" y="151.188722"/>
    </g>
   </g>
   <g id="line2d_36">
    <path clip-path="url(#p09831500e2)" d="M 69.218182 46.535797 
L 81.9 66.078982 
L 88.240909 89.228272 
L 94.581818 106.300052 
L 107.263636 129.833091 
L 113.604545 138.590662 
L 119.945455 148.757939 
L 132.627273 164.883417 
L 138.968182 170.444704 
L 145.309091 177.459896 
L 157.990909 185.763108 
L 164.331818 187.511849 
L 170.672727 191.526274 
L 183.354545 196.859188 
L 189.695455 198.017846 
L 196.036364 201.567113 
L 208.718182 205.794662 
L 215.059091 206.530155 
L 221.4 209.694156 
L 234.081818 213.647609 
L 240.422727 214.080056 
L 246.763636 216.407708 
L 259.445455 220.630973 
L 265.786364 221.156459 
L 272.127273 224.402339 
L 284.809091 226.869014 
L 291.15 226.857362 
L 297.490909 229.556417 
L 310.172727 233.483199 
L 316.513636 232.080721 
L 322.854545 235.624653 
L 335.536364 236.250378 
L 341.877273 236.691213 
L 348.218182 238.872955 
L 360.9 240.263156 
L 367.240909 240.354759 
L 373.581818 242.116364 
" style="fill:none;stroke:#d62728;stroke-dasharray:5.55,2.4;stroke-dashoffset:0;stroke-width:1.5;"/>
    <defs>
     <path d="M 0 3 
C 0.795609 3 1.55874 2.683901 2.12132 2.12132 
C 2.683901 1.55874 3 0.795609 3 0 
C 3 -0.795609 2.683901 -1.55874 2.12132 -2.12132 
C 1.55874 -2.683901 0.795609 -3 0 -3 
C -0.795609 -3 -1.55874 -2.683901 -2.12132 -2.12132 
C -2.683901 -1.55874 -3 -0.795609 -3 0 
C -3 0.795609 -2.683901 1.55874 -2.12132 2.12132 
C -1.55874 2.683901 -0.795609 3 0 3 
z
" id="m0e65779067" style="stroke:#d62728;"/>
    </defs>
    <g clip-path="url(#p09831500e2)">
     <use style="fill:#d62728;stroke:#d62728;" x="69.218182" xlink:href="#m0e65779067" y="46.535797"/>
     <use style="fill:#d62728;stroke:#d62728;" x="81.9" xlink:href="#m0e65779067" y="66.078982"/>
     <use style="fill:#d62728;stroke:#d62728;" x="88.240909" xlink:href="#m0e65779067" y="89.228272"/>
     <use style="fill:#d62728;stroke:#d62728;" x="94.581818" xlink:href="#m0e65779067" y="106.300052"/>
     <use style="fill:#d62728;stroke:#d62728;" x="107.263636" xlink:href="#m0e65779067" y="129.833091"/>
     <use style="fill:#d62728;stroke:#d62728;" x="113.604545" xlink:href="#m0e65779067" y="138.590662"/>
     <use style="fill:#d62728;stroke:#d62728;" x="119.945455" xlink:href="#m0e65779067" y="148.757939"/>
     <use style="fill:#d62728;stroke:#d62728;" x="132.627273" xlink:href="#m0e65779067" y="164.883417"/>
     <use style="fill:#d62728;stroke:#d62728;" x="138.968182" xlink:href="#m0e65779067" y="170.444704"/>
     <use style="fill:#d62728;stroke:#d62728;" x="145.309091" xlink:href="#m0e65779067" y="177.459896"/>
     <use style="fill:#d62728;stroke:#d62728;" x="157.990909" xlink:href="#m0e65779067" y="185.763108"/>
     <use style="fill:#d62728;stroke:#d62728;" x="164.331818" xlink:href="#m0e65779067" y="187.511849"/>
     <use style="fill:#d62728;stroke:#d62728;" x="170.672727" xlink:href="#m0e65779067" y="191.526274"/>
     <use style="fill:#d62728;stroke:#d62728;" x="183.354545" xlink:href="#m0e65779067" y="196.859188"/>
     <use style="fill:#d62728;stroke:#d62728;" x="189.695455" xlink:href="#m0e65779067" y="198.017846"/>
     <use style="fill:#d62728;stroke:#d62728;" x="196.036364" xlink:href="#m0e65779067" y="201.567113"/>
     <use style="fill:#d62728;stroke:#d62728;" x="208.718182" xlink:href="#m0e65779067" y="205.794662"/>
     <use style="fill:#d62728;stroke:#d62728;" x="215.059091" xlink:href="#m0e65779067" y="206.530155"/>
     <use style="fill:#d62728;stroke:#d62728;" x="221.4" xlink:href="#m0e65779067" y="209.694156"/>
     <use style="fill:#d62728;stroke:#d62728;" x="234.081818" xlink:href="#m0e65779067" y="213.647609"/>
     <use style="fill:#d62728;stroke:#d62728;" x="240.422727" xlink:href="#m0e65779067" y="214.080056"/>
     <use style="fill:#d62728;stroke:#d62728;" x="246.763636" xlink:href="#m0e65779067" y="216.407708"/>
     <use style="fill:#d62728;stroke:#d62728;" x="259.445455" xlink:href="#m0e65779067" y="220.630973"/>
     <use style="fill:#d62728;stroke:#d62728;" x="265.786364" xlink:href="#m0e65779067" y="221.156459"/>
     <use style="fill:#d62728;stroke:#d62728;" x="272.127273" xlink:href="#m0e65779067" y="224.402339"/>
     <use style="fill:#d62728;stroke:#d62728;" x="284.809091" xlink:href="#m0e65779067" y="226.869014"/>
     <use style="fill:#d62728;stroke:#d62728;" x="291.15" xlink:href="#m0e65779067" y="226.857362"/>
     <use style="fill:#d62728;stroke:#d62728;" x="297.490909" xlink:href="#m0e65779067" y="229.556417"/>
     <use style="fill:#d62728;stroke:#d62728;" x="310.172727" xlink:href="#m0e65779067" y="233.483199"/>
     <use style="fill:#d62728;stroke:#d62728;" x="316.513636" xlink:href="#m0e65779067" y="232.080721"/>
     <use style="fill:#d62728;stroke:#d62728;" x="322.854545" xlink:href="#m0e65779067" y="235.624653"/>
     <use style="fill:#d62728;stroke:#d62728;" x="335.536364" xlink:href="#m0e65779067" y="236.250378"/>
     <use style="fill:#d62728;stroke:#d62728;" x="341.877273" xlink:href="#m0e65779067" y="236.691213"/>
     <use style="fill:#d62728;stroke:#d62728;" x="348.218182" xlink:href="#m0e65779067" y="238.872955"/>
     <use style="fill:#d62728;stroke:#d62728;" x="360.9" xlink:href="#m0e65779067" y="240.263156"/>
     <use style="fill:#d62728;stroke:#d62728;" x="367.240909" xlink:href="#m0e65779067" y="240.354759"/>
     <use style="fill:#d62728;stroke:#d62728;" x="373.581818" xlink:href="#m0e65779067" y="242.116364"/>
    </g>
   </g>
   <g id="patch_3">
    <path d="M 54 252 
L 54 34.56 
" style="fill:none;stroke:#000000;stroke-linecap:square;stroke-linejoin:miter;stroke-width:0.8;"/>
   </g>
   <g id="patch_4">
    <path d="M 388.8 252 
L 388.8 34.56 
" style="fill:none;stroke:#000000;stroke-linecap:square;stroke-linejoin:miter;stroke-width:0.8;"/>
   </g>
   <g id="patch_5">
    <path d="M 54 252 
L 388.8 252 
" style="fill:none;stroke:#000000;stroke-linecap:square;stroke-linejoin:miter;stroke-width:0.8;"/>
   </g>
   <g id="patch_6">
    <path d="M 54 34.56 
L 388.8 34.56 
" style="fill:none;stroke:#000000;stroke-linecap:square;stroke-linejoin:miter;stroke-width:0.8;"/>
   </g>
   <g id="legend_1">
    <g id="patch_7">
     <path d="M 258.892187 101.2725 
L 381.8 101.2725 
Q 383.8 101.2725 383.8 99.2725 
L 383.8 41.56 
Q 383.8 39.56 381.8 39.56 
L 258.892187 39.56 
Q 256.892187 39.56 256.892187 41.56 
L 256.892187 99.2725 
Q 256.892187 101.2725 258.892187 101.2725 
z
" style="fill:#ffffff;opacity:0.8;stroke:#cccccc;stroke-linejoin:miter;"/>
    </g>
    <g id="line2d_37">
     <path d="M 260.892187 47.658437 
L 280.892187 47.658437 
" style="fill:none;stroke:#1f77b4;stroke-dasharray:5.55,2.4;stroke-dashoffset:0;stroke-width:1.5;"/>
    </g>
    <g id="line2d_38">
     <g>
      <use style="fill:#1f77b4;stroke:#1f77b4;" x="270.892187" xlink:href="#m844699b32c" y="47.658437"/>
     </g>
    </g>
    <g id="text_19">
     <!-- 8000eV, coluna: 1 -->
     <defs>
      <path d="M 31.78125 34.625 
Q 24.75 34.625 20.71875 30.859375 
Q 16.703125 27.09375 16.703125 20.515625 
Q 16.703125 13.921875 20.71875 10.15625 
Q 24.75 6.390625 31.78125 6.390625 
Q 38.8125 6.390625 42.859375 10.171875 
Q 46.921875 13.96875 46.921875 20.515625 
Q 46.921875 27.09375 42.890625 30.859375 
Q 38.875 34.625 31.78125 34.625 
z
M 21.921875 38.8125 
Q 15.578125 40.375 12.03125 44.71875 
Q 8.5 49.078125 8.5 55.328125 
Q 8.5 64.0625 14.71875 69.140625 
Q 20.953125 74.21875 31.78125 74.21875 
Q 42.671875 74.21875 48.875 69.140625 
Q 55.078125 64.0625 55.078125 55.328125 
Q 55.078125 49.078125 51.53125 44.71875 
Q 48 40.375 41.703125 38.8125 
Q 48.828125 37.15625 52.796875 32.3125 
Q 56.78125 27.484375 56.78125 20.515625 
Q 56.78125 9.90625 50.3125 4.234375 
Q 43.84375 -1.421875 31.78125 -1.421875 
Q 19.734375 -1.421875 13.25 4.234375 
Q 6.78125 9.90625 6.78125 20.515625 
Q 6.78125 27.484375 10.78125 32.3125 
Q 14.796875 37.15625 21.921875 38.8125 
z
M 18.3125 54.390625 
Q 18.3125 48.734375 21.84375 45.5625 
Q 25.390625 42.390625 31.78125 42.390625 
Q 38.140625 42.390625 41.71875 45.5625 
Q 45.3125 48.734375 45.3125 54.390625 
Q 45.3125 60.0625 41.71875 63.234375 
Q 38.140625 66.40625 31.78125 66.40625 
Q 25.390625 66.40625 21.84375 63.234375 
Q 18.3125 60.0625 18.3125 54.390625 
z
" id="DejaVuSans-38"/>
      <path d="M 11.71875 12.40625 
L 22.015625 12.40625 
L 22.015625 4 
L 14.015625 -11.625 
L 7.71875 -11.625 
L 11.71875 4 
z
" id="DejaVuSans-2c"/>
      <path d="M 48.78125 52.59375 
L 48.78125 44.1875 
Q 44.96875 46.296875 41.140625 47.34375 
Q 37.3125 48.390625 33.40625 48.390625 
Q 24.65625 48.390625 19.8125 42.84375 
Q 14.984375 37.3125 14.984375 27.296875 
Q 14.984375 17.28125 19.8125 11.734375 
Q 24.65625 6.203125 33.40625 6.203125 
Q 37.3125 6.203125 41.140625 7.25 
Q 44.96875 8.296875 48.78125 10.40625 
L 48.78125 2.09375 
Q 45.015625 0.34375 40.984375 -0.53125 
Q 36.96875 -1.421875 32.421875 -1.421875 
Q 20.0625 -1.421875 12.78125 6.34375 
Q 5.515625 14.109375 5.515625 27.296875 
Q 5.515625 40.671875 12.859375 48.328125 
Q 20.21875 56 33.015625 56 
Q 37.15625 56 41.109375 55.140625 
Q 45.0625 54.296875 48.78125 52.59375 
z
" id="DejaVuSans-63"/>
      <path d="M 30.609375 48.390625 
Q 23.390625 48.390625 19.1875 42.75 
Q 14.984375 37.109375 14.984375 27.296875 
Q 14.984375 17.484375 19.15625 11.84375 
Q 23.34375 6.203125 30.609375 6.203125 
Q 37.796875 6.203125 41.984375 11.859375 
Q 46.1875 17.53125 46.1875 27.296875 
Q 46.1875 37.015625 41.984375 42.703125 
Q 37.796875 48.390625 30.609375 48.390625 
z
M 30.609375 56 
Q 42.328125 56 49.015625 48.375 
Q 55.71875 40.765625 55.71875 27.296875 
Q 55.71875 13.875 49.015625 6.21875 
Q 42.328125 -1.421875 30.609375 -1.421875 
Q 18.84375 -1.421875 12.171875 6.21875 
Q 5.515625 13.875 5.515625 27.296875 
Q 5.515625 40.765625 12.171875 48.375 
Q 18.84375 56 30.609375 56 
z
" id="DejaVuSans-6f"/>
      <path d="M 9.421875 75.984375 
L 18.40625 75.984375 
L 18.40625 0 
L 9.421875 0 
z
" id="DejaVuSans-6c"/>
      <path d="M 8.5 21.578125 
L 8.5 54.6875 
L 17.484375 54.6875 
L 17.484375 21.921875 
Q 17.484375 14.15625 20.5 10.265625 
Q 23.53125 6.390625 29.59375 6.390625 
Q 36.859375 6.390625 41.078125 11.03125 
Q 45.3125 15.671875 45.3125 23.6875 
L 45.3125 54.6875 
L 54.296875 54.6875 
L 54.296875 0 
L 45.3125 0 
L 45.3125 8.40625 
Q 42.046875 3.421875 37.71875 1 
Q 33.40625 -1.421875 27.6875 -1.421875 
Q 18.265625 -1.421875 13.375 4.4375 
Q 8.5 10.296875 8.5 21.578125 
z
M 31.109375 56 
z
" id="DejaVuSans-75"/>
      <path d="M 34.28125 27.484375 
Q 23.390625 27.484375 19.1875 25 
Q 14.984375 22.515625 14.984375 16.5 
Q 14.984375 11.71875 18.140625 8.90625 
Q 21.296875 6.109375 26.703125 6.109375 
Q 34.1875 6.109375 38.703125 11.40625 
Q 43.21875 16.703125 43.21875 25.484375 
L 43.21875 27.484375 
z
M 52.203125 31.203125 
L 52.203125 0 
L 43.21875 0 
L 43.21875 8.296875 
Q 40.140625 3.328125 35.546875 0.953125 
Q 30.953125 -1.421875 24.3125 -1.421875 
Q 15.921875 -1.421875 10.953125 3.296875 
Q 6 8.015625 6 15.921875 
Q 6 25.140625 12.171875 29.828125 
Q 18.359375 34.515625 30.609375 34.515625 
L 43.21875 34.515625 
L 43.21875 35.40625 
Q 43.21875 41.609375 39.140625 45 
Q 35.0625 48.390625 27.6875 48.390625 
Q 23 48.390625 18.546875 47.265625 
Q 14.109375 46.140625 10.015625 43.890625 
L 10.015625 52.203125 
Q 14.9375 54.109375 19.578125 55.046875 
Q 24.21875 56 28.609375 56 
Q 40.484375 56 46.34375 49.84375 
Q 52.203125 43.703125 52.203125 31.203125 
z
" id="DejaVuSans-61"/>
      <path d="M 11.71875 12.40625 
L 22.015625 12.40625 
L 22.015625 0 
L 11.71875 0 
z
M 11.71875 51.703125 
L 22.015625 51.703125 
L 22.015625 39.3125 
L 11.71875 39.3125 
z
" id="DejaVuSans-3a"/>
     </defs>
     <g transform="translate(288.892187 51.158437)scale(0.1 -0.1)">
      <use xlink:href="#DejaVuSans-38"/>
      <use x="63.623047" xlink:href="#DejaVuSans-30"/>
      <use x="127.246094" xlink:href="#DejaVuSans-30"/>
      <use x="190.869141" xlink:href="#DejaVuSans-30"/>
      <use x="254.492188" xlink:href="#DejaVuSans-65"/>
      <use x="316.015625" xlink:href="#DejaVuSans-56"/>
      <use x="384.423828" xlink:href="#DejaVuSans-2c"/>
      <use x="416.210938" xlink:href="#DejaVuSans-20"/>
      <use x="447.998047" xlink:href="#DejaVuSans-63"/>
      <use x="502.978516" xlink:href="#DejaVuSans-6f"/>
      <use x="564.160156" xlink:href="#DejaVuSans-6c"/>
      <use x="591.943359" xlink:href="#DejaVuSans-75"/>
      <use x="655.322266" xlink:href="#DejaVuSans-6e"/>
      <use x="718.701172" xlink:href="#DejaVuSans-61"/>
      <use x="779.980469" xlink:href="#DejaVuSans-3a"/>
      <use x="813.671875" xlink:href="#DejaVuSans-20"/>
      <use x="845.458984" xlink:href="#DejaVuSans-31"/>
     </g>
    </g>
    <g id="line2d_39">
     <path d="M 260.892187 62.336562 
L 280.892187 62.336562 
" style="fill:none;stroke:#ff7f0e;stroke-dasharray:5.55,2.4;stroke-dashoffset:0;stroke-width:1.5;"/>
    </g>
    <g id="line2d_40">
     <g>
      <use style="fill:#ff7f0e;stroke:#ff7f0e;" x="270.892187" xlink:href="#m36c83f8d75" y="62.336562"/>
     </g>
    </g>
    <g id="text_20">
     <!-- 8000eV, coluna: 2 -->
     <g transform="translate(288.892187 65.836562)scale(0.1 -0.1)">
      <use xlink:href="#DejaVuSans-38"/>
      <use x="63.623047" xlink:href="#DejaVuSans-30"/>
      <use x="127.246094" xlink:href="#DejaVuSans-30"/>
      <use x="190.869141" xlink:href="#DejaVuSans-30"/>
      <use x="254.492188" xlink:href="#DejaVuSans-65"/>
      <use x="316.015625" xlink:href="#DejaVuSans-56"/>
      <use x="384.423828" xlink:href="#DejaVuSans-2c"/>
      <use x="416.210938" xlink:href="#DejaVuSans-20"/>
      <use x="447.998047" xlink:href="#DejaVuSans-63"/>
      <use x="502.978516" xlink:href="#DejaVuSans-6f"/>
      <use x="564.160156" xlink:href="#DejaVuSans-6c"/>
      <use x="591.943359" xlink:href="#DejaVuSans-75"/>
      <use x="655.322266" xlink:href="#DejaVuSans-6e"/>
      <use x="718.701172" xlink:href="#DejaVuSans-61"/>
      <use x="779.980469" xlink:href="#DejaVuSans-3a"/>
      <use x="813.671875" xlink:href="#DejaVuSans-20"/>
      <use x="845.458984" xlink:href="#DejaVuSans-32"/>
     </g>
    </g>
    <g id="line2d_41">
     <path d="M 260.892187 77.014687 
L 280.892187 77.014687 
" style="fill:none;stroke:#2ca02c;stroke-dasharray:5.55,2.4;stroke-dashoffset:0;stroke-width:1.5;"/>
    </g>
    <g id="line2d_42">
     <g>
      <use style="fill:#2ca02c;stroke:#2ca02c;" x="270.892187" xlink:href="#m4e993c3f6a" y="77.014687"/>
     </g>
    </g>
    <g id="text_21">
     <!-- 8000eV, coluna: 3 -->
     <g transform="translate(288.892187 80.514687)scale(0.1 -0.1)">
      <use xlink:href="#DejaVuSans-38"/>
      <use x="63.623047" xlink:href="#DejaVuSans-30"/>
      <use x="127.246094" xlink:href="#DejaVuSans-30"/>
      <use x="190.869141" xlink:href="#DejaVuSans-30"/>
      <use x="254.492188" xlink:href="#DejaVuSans-65"/>
      <use x="316.015625" xlink:href="#DejaVuSans-56"/>
      <use x="384.423828" xlink:href="#DejaVuSans-2c"/>
      <use x="416.210938" xlink:href="#DejaVuSans-20"/>
      <use x="447.998047" xlink:href="#DejaVuSans-63"/>
      <use x="502.978516" xlink:href="#DejaVuSans-6f"/>
      <use x="564.160156" xlink:href="#DejaVuSans-6c"/>
      <use x="591.943359" xlink:href="#DejaVuSans-75"/>
      <use x="655.322266" xlink:href="#DejaVuSans-6e"/>
      <use x="718.701172" xlink:href="#DejaVuSans-61"/>
      <use x="779.980469" xlink:href="#DejaVuSans-3a"/>
      <use x="813.671875" xlink:href="#DejaVuSans-20"/>
      <use x="845.458984" xlink:href="#DejaVuSans-33"/>
     </g>
    </g>
    <g id="line2d_43">
     <path d="M 260.892187 91.692813 
L 280.892187 91.692813 
" style="fill:none;stroke:#d62728;stroke-dasharray:5.55,2.4;stroke-dashoffset:0;stroke-width:1.5;"/>
    </g>
    <g id="line2d_44">
     <g>
      <use style="fill:#d62728;stroke:#d62728;" x="270.892187" xlink:href="#m0e65779067" y="91.692813"/>
     </g>
    </g>
    <g id="text_22">
     <!-- 8000eV, coluna: 4 -->
     <g transform="translate(288.892187 95.192813)scale(0.1 -0.1)">
      <use xlink:href="#DejaVuSans-38"/>
      <use x="63.623047" xlink:href="#DejaVuSans-30"/>
      <use x="127.246094" xlink:href="#DejaVuSans-30"/>
      <use x="190.869141" xlink:href="#DejaVuSans-30"/>
      <use x="254.492188" xlink:href="#DejaVuSans-65"/>
      <use x="316.015625" xlink:href="#DejaVuSans-56"/>
      <use x="384.423828" xlink:href="#DejaVuSans-2c"/>
      <use x="416.210938" xlink:href="#DejaVuSans-20"/>
      <use x="447.998047" xlink:href="#DejaVuSans-63"/>
      <use x="502.978516" xlink:href="#DejaVuSans-6f"/>
      <use x="564.160156" xlink:href="#DejaVuSans-6c"/>
      <use x="591.943359" xlink:href="#DejaVuSans-75"/>
      <use x="655.322266" xlink:href="#DejaVuSans-6e"/>
      <use x="718.701172" xlink:href="#DejaVuSans-61"/>
      <use x="779.980469" xlink:href="#DejaVuSans-3a"/>
      <use x="813.671875" xlink:href="#DejaVuSans-20"/>
      <use x="845.458984" xlink:href="#DejaVuSans-34"/>
     </g>
    </g>
   </g>
  </g>
 </g>
 <defs>
  <clipPath id="p09831500e2">
   <rect height="217.44" width="334.8" x="54" y="34.56"/>
  </clipPath>
 </defs>
</svg>
